<mxfile host="app.diagrams.net" modified="2023-11-25T17:13:20.881Z" agent="Mozilla/5.0 (Windows NT 10.0; Win64; x64) AppleWebKit/537.36 (KHTML, like Gecko) Chrome/118.0.0.0 Safari/537.36" etag="03oE2VtthW4FSUwZBCh7" version="22.1.4" type="github">
  <diagram name="Page-1" id="cBukKG2hsejslxERuU5p">
    <mxGraphModel dx="5898" dy="3716" grid="1" gridSize="10" guides="1" tooltips="1" connect="1" arrows="1" fold="1" page="1" pageScale="1" pageWidth="850" pageHeight="1100" math="0" shadow="0">
      <root>
        <mxCell id="0" />
        <mxCell id="1" parent="0" />
        <UserObject label="" plantUmlData="{&#xa;  &quot;data&quot;: &quot;&#39;###########################################################################################\n&#39; Author - Murthy pothapragada\n&#39;Plant UML script to generate flow diagram\n&#39;###########################################################################################\n@startuml\ntitle &lt;B&gt;Automated Event Based PDE CYCLE Processing\n&#39;skinparam Style strictuml\nskinparam backgroundColor #EEEBDC\n&#39;skinparam handwritten true\n\nskinparam defaultFontSize 19\nskinparam noteFontSize 12\nskinparam NoteBackgroundColor Yellow\nskinparam arrowFontStyle bold\nskinparam arrowFontSize 14\n\n\n&#39; Uncomment the line below for \&quot;dark mode\&quot; styling\n&#39;!$AWS_DARK = true\n!define AWSPuml https://raw.githubusercontent.com/awslabs/aws-icons-for-plantuml/v16.0/dist\n!include AWSPuml/AWSCommon.puml\n!include AWSPuml/Analytics/KinesisDataStreams.puml\n!include AWSPuml/ApplicationIntegration/SimpleQueueService.puml\n!include AWSPuml/ApplicationIntegration/SimpleNotificationService.puml\n!include AWSPuml/ApplicationIntegration/EventBridge.puml\n!include AWSPuml/Analytics/EMRCluster.puml\n!include AWSPuml/Analytics/Redshift.puml\n!include AWSPuml/ManagementGovernance/CloudWatch.puml\n!include AWSPuml/Compute/Lambda.puml\n!include AWSPuml/Compute/EC2.puml\n!include AWSPuml/ApplicationIntegration/APIGateway.puml\n!include AWSPuml/BusinessApplications/all.puml\n!include AWSPuml/Storage/SimpleStorageService.puml\n!include AWSPuml/Groups/AvailabilityZone.puml\n!include AWSPuml/General/Folder.puml\n&#39;**Participents\n&#39;EC2Participant(EC2,,\&quot;App Server\&quot;)\nSimpleStorageServiceParticipant(S3Exp,\&quot;export bucket\&quot; ,\&quot;S3\&quot;)\n&#39;EC2Participant(EFT,,\&quot;EFT Server\&quot;)\n&#39;SimpleStorageServiceParticipant(S3Exp,\&quot;export bucket\&quot; ,\&quot;S3\&quot;)\n&#39;FolderParticipant(pend,\&quot;PEND files\&quot;,)\n&#39;SimpleStorageServiceParticipant(S3Bucket,\&quot;landing bucket\&quot; ,\&quot;S3\&quot;)\n&#39;LambdaParticipant(ALambda,\&quot;ddps-AddToQueue\&quot;,\&quot;Function\&quot;)\n&#39;SimpleQueueServiceParticipant(SQS,\&quot;FIFO\&quot;,\&quot;S Q S\&quot;)\n&#39;CloudWatchParticipant(Alarm,\&quot;DDPS-prd-Environment-Available\&quot;,\&quot;Alarm\&quot;)\n&#39;LambdaParticipant(CLambda,\&quot;ddps-EnvironmentStatusMetric\&quot;,\&quot;Function\&quot;)\n&#39;EventBridgeParticipant(EventBridge,\&quot;ddps-environment-status\&quot;,\&quot;Rule\&quot;)\n&#39;SimpleNotificationServiceParticipant(SNS, ,\&quot;SNS\&quot;) \n&#39;SimpleStorageServiceParticipant(S3Exp,\&quot;export bucket\&quot; ,\&quot;S3\&quot;)\nLambdaParticipant(Lambda,\&quot;ddps-PollQueue\&quot;,\&quot;Function\&quot;) \nCloudWatchParticipant(Alarm,\&quot;DDPS-prd-Environment-Available\&quot;,\&quot;Alarm\&quot;)\nLambdaParticipant(CLambda,\&quot;ddps-EnvironmentStatusMetric\&quot;,\&quot;Function\&quot;)\nEventBridgeParticipant(EventBridge,\&quot;ddps-environment-status\&quot;,\&quot;Rule\&quot;)\nSimpleNotificationServiceParticipant(SNS, ,\&quot;SNS\&quot;) \nSimpleStorageServiceParticipant(S3Exp,\&quot;export bucket\&quot; ,\&quot;S3\&quot;)\n\n&#39;*** SNS Start \n    \nEventBridge --&gt; CLambda ++ #Green: Invoke Cloudwatch metric set Lambda\nCLambda --&gt; Alarm --: Activate Alarm when EC2 app server is online\ngroup#Brown  SNS notification\n\tAlarm --&gt; SNS --: Generate SNS notification by CloudWatch Alarm  \n       \n     end\n &#39;SNS end\ngroup#Brown  SNS event Poll\n SNS --&gt; Lambda ++ #Green: Trigger Poll Lambda by SNS event\nnote bottom #Yellow\ntriggers ddps-PollQueue Lambda \nend note\n     end\ngroup#Green S3 event Poll \n    S3Exp --&gt; Lambda: Trigger Poll Lambda (by dbx.done/EFT.done S3 triggers)\nnote bottom #Yellow\ntriggers ddps-PollQueue Lambda \nend note  \nend\n\n@enduml\n\n\n&#39;###########################################################################################\n&#39; Author - Murthy pothapragada\n&#39;Plant UML script to generate flow diagram\n&#39;###########################################################################################\n@startuml\ntitle &lt;B&gt;Automated Event Based PDE CYCLE Processing\n&#39;skinparam Style strictuml\nskinparam backgroundColor #EEEBDC\n&#39;skinparam handwritten true\n\nskinparam defaultFontSize 19\nskinparam noteFontSize 12\nskinparam NoteBackgroundColor Yellow\nskinparam arrowFontStyle bold\nskinparam arrowFontSize 14\n\n\n&#39; Uncomment the line below for \&quot;dark mode\&quot; styling\n&#39;!$AWS_DARK = true\n!define AWSPuml https://raw.githubusercontent.com/awslabs/aws-icons-for-plantuml/v16.0/dist\n!include AWSPuml/AWSCommon.puml\n!include AWSPuml/Analytics/KinesisDataStreams.puml\n!include AWSPuml/ApplicationIntegration/SimpleQueueService.puml\n!include AWSPuml/ApplicationIntegration/SimpleNotificationService.puml\n!include AWSPuml/ApplicationIntegration/EventBridge.puml\n!include AWSPuml/Analytics/EMRCluster.puml\n!include AWSPuml/Analytics/Redshift.puml\n!include AWSPuml/ManagementGovernance/CloudWatch.puml\n!include AWSPuml/Compute/Lambda.puml\n!include AWSPuml/Compute/EC2.puml\n!include AWSPuml/ApplicationIntegration/APIGateway.puml\n!include AWSPuml/BusinessApplications/all.puml\n!include AWSPuml/Storage/SimpleStorageService.puml\n!include AWSPuml/Groups/AvailabilityZone.puml\n!include AWSPuml/General/Folder.puml\n&#39;**Participents\nEC2Participant(EC2,,\&quot;App Server\&quot;)\nSimpleStorageServiceParticipant(S3Exp,\&quot;export bucket\&quot; ,\&quot;S3\&quot;)\nEC2Participant(EFT,,\&quot;EFT Server\&quot;)\nSimpleStorageServiceParticipant(S3Exp,\&quot;export bucket\&quot; ,\&quot;S3\&quot;)\n&#39;FolderParticipant(pend,\&quot;PEND files\&quot;,)\nSimpleStorageServiceParticipant(S3Bucket,\&quot;landing bucket\&quot; ,\&quot;S3\&quot;)\nLambdaParticipant(ALambda,\&quot;ddps-AddToQueue\&quot;,\&quot;Function\&quot;)\nSimpleQueueServiceParticipant(SQS,\&quot;FIFO\&quot;,\&quot;S Q S\&quot;)\n&#39;CloudWatchParticipant(Alarm,\&quot;DDPS-prd-Environment-Available\&quot;,\&quot;Alarm\&quot;)\n&#39;LambdaParticipant(CLambda,\&quot;ddps-EnvironmentStatusMetric\&quot;,\&quot;Function\&quot;)\n&#39;EventBridgeParticipant(EventBridge,\&quot;ddps-environment-status\&quot;,\&quot;Rule\&quot;)\n&#39;SimpleNotificationServiceParticipant(SNS, ,\&quot;SNS\&quot;) \n&#39;SimpleStorageServiceParticipant(S3Exp,\&quot;export bucket\&quot; ,\&quot;S3\&quot;)\nLambdaParticipant(Lambda,\&quot;ddps-PollQueue\&quot;,\&quot;Function\&quot;) \nEC2Participant(EC2,,\&quot;App Server\&quot;)\nRedshiftParticipant(Redshift,,\&quot;Serverless\&quot;)\nEC2Participant(EFT,,\&quot;EFT Server\&quot;)\nEMRClusterParticipant(DBX,,\&quot;Databricks\&quot;)\n\ngroup#Gold PDE Cycle Process\n&#39;group#Yellow #LightBlue 1.1-PDECOPY Files from Palmetto --&gt;\nS3Bucket --&gt;  S3Bucket: &lt;color:blue&gt; Put CNTL/PDECOPY files to S3 landing/pdecopy Bucket \nnote bottom #Yellow\n&lt;B&gt;Got Files form Palmetto\nend note\nS3Bucket -&gt; ALambda ++ #Green: Trigger Lambda to add Message \nALambda -&gt; SQS #blue: &lt;color:blue&gt; Add message PDECOPY Files\n&#39;note right SQS #Yellow\n&#39;triggers ddps-PollQueue Lambda \n&#39;end note  \nALambda --&gt; ALambda --:Start EC2 App Server\nnote right #Yellow\n&lt;B&gt;trigger CW Alarm and SNS notification starts EC2 server if not online(SNS event)\nend note\n&#39;deactivate\n&#39;group#Gold  1.2 PDEPLS files from Databricks\n S3Bucket --&gt;  S3Bucket: &lt;color:blue&gt; Put CNTL/PDEPLS files to S3 landing Bucket \nnote bottom #Yellow\n&lt;B&gt;Got Files form Databricks\nend note\nS3Bucket -&gt; ALambda ++ #Green: Trigger Lambda to add Message\n\nALambda -&gt; SQS: &lt;color:blue&gt; Add message PDEPLS Files\n&#39;note right #Yellow\n&#39;&lt;B&gt;triggers Lambda ddps-PollQueue\n&#39;end note\ndeactivate \n&#39;end\n\n&#39;(Cycle1 &amp; Cycle3)(PDECOPY.*)Files(/prd:/landing/pdecopy/CNTL.*)\n&#39;S3Bucket -&gt; ALambda ++ #Green: Trigger Lambda to bring up EC2\n&#39;*** SNS Start \n    &#39;ALambda --&gt; ALambda --:Start EC2 App Server\n&#39;EventBridge --&gt; CLambda ++ #Green: Invoke Cloudwatch metric set Lambda\n&#39;CLambda --&gt; Alarm --: Activate Alarm when EC2 app server is online\n&#39;group#Brown  SNS notification\n&#39;\tAlarm --&gt; SNS --: Generate SNS notification by CloudWatch Alarm  \n       \n &#39;    end\n&#39;*** SNS end\n&#39;group#Brown  SNS event Poll\n &#39;      SNS --&gt; Lambda ++ #Green: Trigger Poll Lambda by SNS event\n&#39;note bottom #Yellow\n&#39;triggers ddps-PollQueue Lambda \n&#39;end note\n &#39;    end\n&#39;group#Green S3 event Poll \n  &#39;     S3Exp --&gt; Lambda: Trigger Poll Lambda (by dbx.done/EFT.done S3 triggers)\n&#39;note bottom #Yellow\n&#39;triggers ddps-PollQueue Lambda \n&#39;end note  \n  &#39;    end\n\nLambda --&gt; Lambda --: Run ddps-PollQueue to Poll SQS Queue(SNS/S3) events \ngroup#Gold ddps-PollQueue-Poll SQS - FIFO  \n &#39;Lambda -&gt; SQS  : Poll SQS Queue-FIFO (SNS/S3 eventS) \nelse\ngroup#Gold No message in Queue\n Lambda -&gt; EC2  : Shut Down EC2 App server\n note right of EC2 #Yellow\n&lt;B&gt;DO not shutdown if its is SNS event\nend note\nLambda -&gt; Redshift  : Take Snapshot of PRD Database\nend\n&#39;end \ngroup#Gold Message in Queue\ngroup#Yellow 2-Invoke Scripts(By SQS message Type)\nLambda -&gt; EC2 -- #Yellow : Trigger R&amp;C or BOL scripts    \nend\nend\nend\n&#39;end\n \ngroup#Yellow 3-Application run  \ngroup#Gold Receipt&amp;Control-PDE-EDITS\n    group#Gold (3.1)R &amp; C\n    EC2 -&gt; EC2 ++ #Green: Start R&amp;C script (PDECOPY)\n    EC2 -&gt; EFT : PDE Response files EFT\n    end\n group#Gold #Pink (3.2)Databricks (PDE EDITS)\n    EC2 -&gt; DBX --: &lt;B&gt;Invoke PDE EDITS Workflow\n    DBX -&gt; DBX : PDE EDITS Completed \nnote right of DBX #Yellow\n&lt;B&gt;DBX.Done file to S3 (S3 Event)\nend note\nnote right of DBX #Yellow\n&lt;B&gt;triggers Lambda ddps-PollQueue\nend note  \nend\n&#39;end\n&#39;group#Gold #LightPink  (1.3)After DBX S3 event\n\n&#39;(Cycle1 &amp; Cycle3)(PDEPLS.*)Files(/prd:/landing/CNTL.*)  \n&#39;end \nend\n&#39;end\n    \n\n&#39;group#Gold #LightYellow (3.3) PDEPLS files from Databricks  \n   group#Gold #LightYellow (3.3) B O L \n  EC2 -&gt; EC2 ++ #Green: Start BOL script (PDEPLS)\n  EC2 -&gt; EC2 : Bene Link key file processing)(Cycle3)\n  EC2 -&gt; EFT --: Out bound files EFT\n  EFT -&gt; EFT --: EFT Completed\n note right of EFT #Yellow\n&lt;B&gt;EFT.Done file to S3 (S3 Event)\nend note \nnote right of EFT #Yellow\n&lt;B&gt;triggers Lambda ddps-PollQueue\nend note    \n \n     &#39;end\n  &#39;S3Bucket -&gt; SQS: &lt;color:blue&gt; Add message (PDEPLS.*)Files(/prd:/landing/CNTL.*)\n&#39;end\n&#39;end\n&#39;group#Gold #LightYellow  (1.6) After BOL S3 event\n\nend\n&#39;end\nend\nend\n@enduml\n&quot;,&#xa;  &quot;format&quot;: &quot;svg&quot;&#xa;}" id="orQZOvNTbFLlHeW7-ODf-1">
          <mxCell style="shape=image;noLabel=1;verticalAlign=top;aspect=fixed;imageAspect=0;image=data:image/svg+xml,PD94bWwgdmVyc2lvbj0iMS4wIiBlbmNvZGluZz0idXMtYXNjaWkiIHN0YW5kYWxvbmU9Im5vIj8+PHN2ZyB4bWxucz0iaHR0cDovL3d3dy53My5vcmcvMjAwMC9zdmciIHhtbG5zOnhsaW5rPSJodHRwOi8vd3d3LnczLm9yZy8xOTk5L3hsaW5rIiBjb250ZW50U3R5bGVUeXBlPSJ0ZXh0L2NzcyIgaGVpZ2h0PSIyMDg4cHgiIHByZXNlcnZlQXNwZWN0UmF0aW89Im5vbmUiIHN0eWxlPSJ3aWR0aDoyODE3cHg7aGVpZ2h0OjIwODhweDtiYWNrZ3JvdW5kOiNGRkZGRkY7IiB2ZXJzaW9uPSIxLjEiIHZpZXdCb3g9IjAgMCAyODE3IDIwODgiIHdpZHRoPSIyODE3cHgiIHpvb21BbmRQYW49Im1hZ25pZnkiPjxkZWZzLz48Zz48dGV4dCBmaWxsPSIjMDAwMDAwIiBmb250LWZhbWlseT0ic2Fucy1zZXJpZiIgZm9udC1zaXplPSIxNCIgZm9udC13ZWlnaHQ9ImJvbGQiIGxlbmd0aEFkanVzdD0ic3BhY2luZyIgdGV4dExlbmd0aD0iMjk1IiB4PSIxMjYyLjUiIHk9IjI4LjIzNDQiPkF1dG9tYXRlZCBFdmVudCBCYXNlZCBQREUgQ1lDTEUgUHJvY2Vzc2luZzwvdGV4dD48cmVjdCBmaWxsPSIjMDA4MDAwIiBoZWlnaHQ9IjM5LjY4NzUiIHN0eWxlPSJzdHJva2U6IzAwMDAwMDtzdHJva2Utd2lkdGg6MS4wOyIgd2lkdGg9IjEwIiB4PSI0NDgiIHk9IjIxNS4xODc1Ii8+PHJlY3QgZmlsbD0iIzAwODAwMCIgaGVpZ2h0PSI4MS44NzUiIHN0eWxlPSJzdHJva2U6IzAwMDAwMDtzdHJva2Utd2lkdGg6MS4wOyIgd2lkdGg9IjEwIiB4PSIxNjIxLjUiIHk9IjY0OS4xODc1Ii8+PHJlY3QgZmlsbD0iIzAwODAwMCIgaGVpZ2h0PSIzOS42ODc1IiBzdHlsZT0ic3Ryb2tlOiMwMDAwMDA7c3Ryb2tlLXdpZHRoOjEuMDsiIHdpZHRoPSIxMCIgeD0iMTYyMS41IiB5PSI4MzkuNzgxMyIvPjxyZWN0IGZpbGw9IiMwMDgwMDAiIGhlaWdodD0iNTIyLjIzNDQiIHN0eWxlPSJzdHJva2U6IzAwMDAwMDtzdHJva2Utd2lkdGg6MS4wOyIgd2lkdGg9IjEwIiB4PSIxOTg2IiB5PSI0MTUuNzY1NiIvPjxyZWN0IGZpbGw9IiMwMDgwMDAiIGhlaWdodD0iMTA3Ljg2NzIiIHN0eWxlPSJzdHJva2U6IzAwMDAwMDtzdHJva2Utd2lkdGg6MS4wOyIgd2lkdGg9IjEwIiB4PSIyMTU3IiB5PSIxMzkyLjc4OTEiLz48cmVjdCBmaWxsPSIjMDA4MDAwIiBoZWlnaHQ9Ijg0LjUzMTMiIHN0eWxlPSJzdHJva2U6IzAwMDAwMDtzdHJva2Utd2lkdGg6MS4wOyIgd2lkdGg9IjEwIiB4PSIyMTU3IiB5PSIxNzEwLjA1NDciLz48cmVjdCBmaWxsPSJub25lIiBoZWlnaHQ9Ijc0Ljg2NzIiIHN0eWxlPSJzdHJva2U6IzdEODk5ODtzdHJva2Utd2lkdGg6MS41OyIgd2lkdGg9IjEwOTIiIHg9IjEwIiB5PSIyNjkuODc1Ii8+PHJlY3QgZmlsbD0ibm9uZSIgaGVpZ2h0PSI2OC4wMjM0IiBzdHlsZT0ic3Ryb2tlOiM3RDg5OTg7c3Ryb2tlLXdpZHRoOjEuNTsiIHdpZHRoPSIxMzExIiB4PSI3NjIiIHk9IjM1OC43NDIyIi8+PHJlY3QgZmlsbD0ibm9uZSIgaGVpZ2h0PSI3NC44NjcyIiBzdHlsZT0ic3Ryb2tlOiM3RDg5OTg7c3Ryb2tlLXdpZHRoOjEuNTsiIHdpZHRoPSIxMDY0IiB4PSIxMDA5IiB5PSI0NDAuNzY1NiIvPjxyZWN0IGZpbGw9Im5vbmUiIGhlaWdodD0iMTQwNS4zMjgxIiBzdHlsZT0ic3Ryb2tlOiM3RDg5OTg7c3Ryb2tlLXdpZHRoOjEuNTsiIHdpZHRoPSIxNTg1IiB4PSIxMjI2IiB5PSI1MjkuNjMyOCIvPjxyZWN0IGZpbGw9Im5vbmUiIGhlaWdodD0iMjk4LjA5MzgiIHN0eWxlPSJzdHJva2U6IzdEODk5ODtzdHJva2Utd2lkdGg6MS41OyIgd2lkdGg9IjUxNyIgeD0iMTg4OSIgeT0iOTYwIi8+PHJlY3QgZmlsbD0ibm9uZSIgaGVpZ2h0PSIxNDcuMzk4NCIgc3R5bGU9InN0cm9rZTojN0Q4OTk4O3N0cm9rZS13aWR0aDoxLjU7IiB3aWR0aD0iNDg3IiB4PSIxOTA5IiB5PSI5OTEuMzM1OSIvPjxyZWN0IGZpbGw9Im5vbmUiIGhlaWdodD0iOTguMzU5NCIgc3R5bGU9InN0cm9rZTojN0Q4OTk4O3N0cm9rZS13aWR0aDoxLjU7IiB3aWR0aD0iNDEwIiB4PSIxODk5IiB5PSIxMTUyLjczNDQiLz48cmVjdCBmaWxsPSJub25lIiBoZWlnaHQ9IjYyLjAyMzQiIHN0eWxlPSJzdHJva2U6IzdEODk5ODtzdHJva2Utd2lkdGg6MS41OyIgd2lkdGg9IjM5MCIgeD0iMTkwOSIgeT0iMTE4Mi4wNzAzIi8+PHJlY3QgZmlsbD0ibm9uZSIgaGVpZ2h0PSI2NTUuODY3MiIgc3R5bGU9InN0cm9rZTojN0Q4OTk4O3N0cm9rZS13aWR0aDoxLjU7IiB3aWR0aD0iNzE4LjUiIHg9IjIwODIuNSIgeT0iMTI3Mi4wOTM4Ii8+PHJlY3QgZmlsbD0ibm9uZSIgaGVpZ2h0PSIzMzIuNjAxNiIgc3R5bGU9InN0cm9rZTojN0Q4OTk4O3N0cm9rZS13aWR0aDoxLjU7IiB3aWR0aD0iNjk4LjUiIHg9IjIwOTIuNSIgeT0iMTMwMS40Mjk3Ii8+PHJlY3QgZmlsbD0ibm9uZSIgaGVpZ2h0PSIxMDEuODY3MiIgc3R5bGU9InN0cm9rZTojN0Q4OTk4O3N0cm9rZS13aWR0aDoxLjU7IiB3aWR0aD0iMzc3LjUiIHg9IjIxMDIuNSIgeT0iMTMzMC43NjU2Ii8+PHJlY3QgZmlsbD0iI0ZGQzBDQiIgaGVpZ2h0PSIxODAuMzk4NCIgc3R5bGU9InN0cm9rZTojN0Q4OTk4O3N0cm9rZS13aWR0aDoxLjU7IiB3aWR0aD0iNjc4LjUiIHg9IjIxMDIuNSIgeT0iMTQ0Ni42MzI4Ii8+PHJlY3QgZmlsbD0iI0ZGRkZFMCIgaGVpZ2h0PSIyNzIuOTI5NyIgc3R5bGU9InN0cm9rZTojN0Q4OTk4O3N0cm9rZS13aWR0aDoxLjU7IiB3aWR0aD0iNTU1LjUiIHg9IjIxMDIuNSIgeT0iMTY0OC4wMzEzIi8+PGxpbmUgc3R5bGU9InN0cm9rZTojMDAwMDAwO3N0cm9rZS13aWR0aDowLjU7c3Ryb2tlLWRhc2hhcnJheTo1LjAsNS4wOyIgeDE9IjE2NCIgeDI9IjE2NCIgeTE9IjE3My41IiB5Mj0iMTk1MS45NjA5Ii8+PGxpbmUgc3R5bGU9InN0cm9rZTojMDAwMDAwO3N0cm9rZS13aWR0aDowLjU7c3Ryb2tlLWRhc2hhcnJheTo1LjAsNS4wOyIgeDE9IjQ1MyIgeDI9IjQ1MyIgeTE9IjE3My41IiB5Mj0iMTk1MS45NjA5Ii8+PGxpbmUgc3R5bGU9InN0cm9rZTojMDAwMDAwO3N0cm9rZS13aWR0aDowLjU7c3Ryb2tlLWRhc2hhcnJheTo1LjAsNS4wOyIgeDE9IjcxMCIgeDI9IjcxMCIgeTE9IjE3My41IiB5Mj0iMTk1MS45NjA5Ii8+PGxpbmUgc3R5bGU9InN0cm9rZTojMDAwMDAwO3N0cm9rZS13aWR0aDowLjU7c3Ryb2tlLWRhc2hhcnJheTo1LjAsNS4wOyIgeDE9Ijk2MiIgeDI9Ijk2MiIgeTE9IjE3My41IiB5Mj0iMTk1MS45NjA5Ii8+PGxpbmUgc3R5bGU9InN0cm9rZTojMDAwMDAwO3N0cm9rZS13aWR0aDowLjU7c3Ryb2tlLWRhc2hhcnJheTo1LjAsNS4wOyIgeDE9IjEyMDkiIHgyPSIxMjA5IiB5MT0iMTczLjUiIHkyPSIxOTUxLjk2MDkiLz48bGluZSBzdHlsZT0ic3Ryb2tlOiMwMDAwMDA7c3Ryb2tlLXdpZHRoOjAuNTtzdHJva2UtZGFzaGFycmF5OjUuMCw1LjA7IiB4MT0iMTQzMyIgeDI9IjE0MzMiIHkxPSIxNzMuNSIgeTI9IjE5NTEuOTYwOSIvPjxsaW5lIHN0eWxlPSJzdHJva2U6IzAwMDAwMDtzdHJva2Utd2lkdGg6MC41O3N0cm9rZS1kYXNoYXJyYXk6NS4wLDUuMDsiIHgxPSIxNjI2IiB4Mj0iMTYyNiIgeTE9IjE3My41IiB5Mj0iMTk1MS45NjA5Ii8+PGxpbmUgc3R5bGU9InN0cm9rZTojMDAwMDAwO3N0cm9rZS13aWR0aDowLjU7c3Ryb2tlLWRhc2hhcnJheTo1LjAsNS4wOyIgeDE9IjE4MTEiIHgyPSIxODExIiB5MT0iMTczLjUiIHkyPSIxOTUxLjk2MDkiLz48bGluZSBzdHlsZT0ic3Ryb2tlOiMwMDAwMDA7c3Ryb2tlLXdpZHRoOjAuNTtzdHJva2UtZGFzaGFycmF5OjUuMCw1LjA7IiB4MT0iMTk5MSIgeDI9IjE5OTEiIHkxPSIxNzMuNSIgeTI9IjE5NTEuOTYwOSIvPjxsaW5lIHN0eWxlPSJzdHJva2U6IzAwMDAwMDtzdHJva2Utd2lkdGg6MC41O3N0cm9rZS1kYXNoYXJyYXk6NS4wLDUuMDsiIHgxPSIyMTYxLjUiIHgyPSIyMTYxLjUiIHkxPSIxNzMuNSIgeTI9IjE5NTEuOTYwOSIvPjxsaW5lIHN0eWxlPSJzdHJva2U6IzAwMDAwMDtzdHJva2Utd2lkdGg6MC41O3N0cm9rZS1kYXNoYXJyYXk6NS4wLDUuMDsiIHgxPSIyMzExIiB4Mj0iMjMxMSIgeTE9IjE3My41IiB5Mj0iMTk1MS45NjA5Ii8+PGxpbmUgc3R5bGU9InN0cm9rZTojMDAwMDAwO3N0cm9rZS13aWR0aDowLjU7c3Ryb2tlLWRhc2hhcnJheTo1LjAsNS4wOyIgeDE9IjI0MjIiIHgyPSIyNDIyIiB5MT0iMTczLjUiIHkyPSIxOTUxLjk2MDkiLz48bGluZSBzdHlsZT0ic3Ryb2tlOiMwMDAwMDA7c3Ryb2tlLXdpZHRoOjAuNTtzdHJva2UtZGFzaGFycmF5OjUuMCw1LjA7IiB4MT0iMjU0MiIgeDI9IjI1NDIiIHkxPSIxNzMuNSIgeTI9IjE5NTEuOTYwOSIvPjxyZWN0IGZpbGw9IiNGRkZGRkYiIGhlaWdodD0iMTMxLjUxNTYiIHN0eWxlPSJzdHJva2U6IzdEODk5ODtzdHJva2Utd2lkdGg6MS4yNTsiIHdpZHRoPSIyODQiIHg9IjIyIiB5PSI0MC45ODQ0Ii8+PHRleHQgZmlsbD0iIzAwMDAwMCIgZm9udC1mYW1pbHk9InNhbnMtc2VyaWYiIGZvbnQtc2l6ZT0iMTkiIGZvbnQtc3R5bGU9Iml0YWxpYyIgbGVuZ3RoQWRqdXN0PSJzcGFjaW5nIiB0ZXh0TGVuZ3RoPSIxMDYiIHg9IjExMSIgeT0iNjUuOTQ1MyI+JiMxNzE7Q2xvdWRXYXRjaCYjMTg3OzwvdGV4dD48dGV4dCBmaWxsPSIjMDAwMDAwIiBmb250LWZhbWlseT0ic2Fucy1zZXJpZiIgZm9udC1zaXplPSIxOSIgbGVuZ3RoQWRqdXN0PSJzcGFjaW5nIiB0ZXh0TGVuZ3RoPSIyNzAiIHg9IjI5IiB5PSI4Ni4yODEzIj5ERFBTLXByZC1FbnZpcm9ubWVudC1BdmFpbGFibGU8L3RleHQ+PGltYWdlIGhlaWdodD0iNjQiIHdpZHRoPSI2NCIgeD0iMTMyIiB4bGluazpocmVmPSJkYXRhOmltYWdlL3BuZztiYXNlNjQsaVZCT1J3MEtHZ29BQUFBTlNVaEVVZ0FBQUVBQUFBQkFDQUlBQUFBbEMrYUpBQUFHc0VsRVFWUjRYdTFaOTQ4VWRSVG5uNUJEc0FiRlhxS3h4Qkt4eEI1L1FCT3hLekcyMktKRUkrd2Q1ZWhTVGc5RVFJRUQ3cVNERkRrSTVUeEZRanRLZ0FNcFVnNTJaOHRzbjkyZHRuN2VmcmxsbVhmczdON2VzcERzNUpQTDdMNDMzMzJmNy9mVnVXN09Ld1pmMXVqR3Y3cThVQ1pRYXBRSmxCcGxBcVZHbVVDcFVTWlFhblFCQWRkVlEvenYxQ3Z6VzdUOVRqTVVUNnE2NFltb08wNUdhcHE4VDA3aCtsMkx3Z2owcUF3T1dnVnprNW1YYVdaK1N2eDl6UHY0Wk91RFhZZk9FNUJ1R2duamhKWHEzak9oNnJYZUp5YTdlbGM3S3h4U241Rytmak9qMC84eFl5cUpOU00wY2gxZm9VdlFTUUt1cTRmQ1NXQ2I0VmNDWHl6bENnTFNiYU9qdjJ3Ulo2TE0zYzRWQ2tlbkNGUTRZcXYyd3liOW1CY21XcVVNL3Jmbm1kRUU5TVBqTm5CcGdlZ01nWkJqTmUyOUhIVS9NSkZMTzRUOFdsM1NvSFB3dlRLTFN3dEIzZ1JjdllZWXJoQk1rVitmdzZWWkVCNjduc0xoa0J2dUYveHFXV3pGUGppaHNxREYvLzU4cnB3NzhpWVFIUGc3UlcxTEd4Zlo0TXBLL1lRc3drYUVmdnBLTkIrVitveXc2dWVHdkFsb0IxejRTYmcxRjlraU9IQzVzRmcvNnNXOTkvbHArR3RJWVh3VFgzZlEyZDNCSDdGRmZnU1FIeW1sbUticm1xRmNhZ3U0SDQ0dThlY1JySlArVXJwbGxPQVErSFF4ZjhRVytSSHdQak9WOXUrRXpFV0ZJUERKSWpxRXRRZTV5QmI1RVpENzE1SExOaDNtb2tJZzNUZ0NwNHFxNTdwK09KZG1SODRFS2h6K0FRM3FudE1pNXF6U2dxRWRsTEN5RVloRloyM05xNFBLaVFCMktMN3BzSWcvTTVJSWZMNkU2eFFJLzNzTldpdWxoOVJ2bU9FSm05Qm9jVFVPZXdMUzdXUDAvM3kwUFhJMDhPVlMxN1hEdUU1WFFicGpUSFRHRmpPaGkzTkd4ZUE2RnRnVHdFSllUdDE5R2t5NHRCandQRGhKVkF5bGZnZVhXbUJEd1BmeVREclNtSXBGdWJSNHdNOVJKMnVhbnI2MVhKb0pHd0xZQXhBSWY3K1JpL0pHajByUHd6Vm9zK1ZYWjNzZXE4VVlaRlU0SDVHcG0vSFQ2TW01S0JNMkJMUWpIcXlDUnArTGNvZjcvb25LdkIyR0wzbzJSbE1YK3RQWXluM2U1Nlp4ZlFIdnN6OUREWkhOUlptd0lVQWpZakpKWXdvVDVZUUtSMlJTRTRaTVlUU1NBV3BJZlAwaFNqanRnMXRzOGU0T0V3TUdwbVFxc1hKUkp1d0lKRFFpa0g5OUlmU3NpamUya28yYUVaMjl6UkpGU0FrWUQ1Q1VTYjdQQ1hNdGo4UEhJRExqbW5YWjgyRkRRRDhUeENxZEcycGhORzJoTitKN2NUbyt1dThhR3hyV3FDemFGVnUyTnp4K28rZVJIK2pMK3lhSUVwYllmQXlFTXg5MzN6dWVEczJ1YmJFaElMWVE2WitMc2dPREMrMmZvb3F5R3Z4NnVSa21iengzNlFhOHk5V3JTcnAxdE40V3dCZWhJV3N5VjhDa21oUmRLbHM4RXpZRUFoOVRtMFdSbEdldmk3cVJ0Z211SW14RzFBYS9XWUZDSHAyelhRUUdSbE5uTzF0RFZselh0UWREajBxeGdtMkxha01BQzJIdzVkdVRIWEIzTXNnWFJmK01FMEFNQVBKYmN6TjE0SllpTC9rL1dvaVA2cllUZEQrZ1FVZ2pOVTNKbFAvWTl1MTJCTkNCdmptWHhsbkR4UERCcFIwaStOMUsvTHp5MjA3Y2kvRWZCbkUxL3djTHlNcWpYdHlIcXY2Z1IxSnZMbnd2emFEejBneGZ2MS81VXhiWUV3Q0NnMWZSaXZESU5RY1FrZkRhQ3dGNUUvcVJLWCtsRDAyODl2STgraU5mRmxFcnNod2VGRjZVYnRTVmhwM3lHem5OM0RrUkFQd2ZMckJHWVVlWCs1N3hVRWJaU3JhSHZ2RDFjODU5UGtUUDQzbW94dnYwVDdoUmQ1N2lPdG1SS3dGbmF2YURKNmk3MmpBQlhnanV1OGM1MnowNE5JTGV4dW1uL0xoSFdlVUxvcnlRYzJKQTdWMk4vVTZtVHBpclpVY2VCSEpINExNbFpFMWpxNU9xd2Raa0t2OXdOWkdkRWx1UDAvM0VUYmlINzNHMTdDZ0tBWndWdGhaRkZEZndid3dTWk56a1ptVDl0QTY5bm9GMzZRYWNKNTNyZkM5UXljc0xSU0VBeEZaVDhrRXh4cjMvM1hvUkNTaFlzU1Y3RUtEYUlYY3lkWW1YdmlnTzlFSFYzWGVPNVV0bFI3RUlJQzZGMFNpRjlMRnZMUm9lWWJTNDBLVEkvZXVjcVRjZE9LdXpYNTd5NDBHK1doWVVpNEF6MVQ2UVVZWVpHdHBJNmJYQ2dlWVp4U1Q0N1Fva1RlRk9HSVZGUDRmQkE4RkE2bkkwUzQvTlVVUUNRR2o0V3RFMmF3ZGN5S3Jwb1ZTNm9ScEZOOUY4Ukd3OFpnT0lNQUVqQzlISG1JcnF5VmZyRU1VbDRFeTlseGJ2Qk03YUd0ZkVsb3NMWlU0L1NhVUFPdWhNRWMzUk91cGhFZHc1ZHBCRkowRG9XWVdlTEw2bVZhUWpuQW1pR2R1UGZoUE5rblR6S0xXbFRaRHhQa1d0YTdyNVEvVzBMc1Z3VVFoa0FCYnphUmdUV1h6RHYwUXRraEQvUUFnT291WUZ4OEpYc09CaUU3Z2dlbFlwQzNmUnRxczYrbTMwcXNRbmFETlBPaThoQWtCM1I2UzJXVGlQdUpUNUxWWWRoa3VKUUFxSUZ2MjR6L0FyU0t5NXpPS1hISUY4VVNaUWFwUUpsQnBsQXFWR21VQ3BVU1pRYXZ3UDdQakh2T1ZGc21nQUFBQUFTVVZPUks1Q1lJST0iIHk9Ijg4LjY1NjMiLz48dGV4dCBmaWxsPSIjMDAwMDAwIiBmb250LWZhbWlseT0ic2Fucy1zZXJpZiIgZm9udC1zaXplPSIxMiIgbGVuZ3RoQWRqdXN0PSJzcGFjaW5nIiB0ZXh0TGVuZ3RoPSI0NSIgeD0iMTQxLjUiIHk9IjE2NCI+W0FsYXJtXTwvdGV4dD48cmVjdCBmaWxsPSIjRkZGRkZGIiBoZWlnaHQ9IjEzMS41MTU2IiBzdHlsZT0ic3Ryb2tlOiM3RDg5OTg7c3Ryb2tlLXdpZHRoOjEuMjU7IiB3aWR0aD0iMjg0IiB4PSIyMiIgeT0iMTk1MC45NjA5Ii8+PHRleHQgZmlsbD0iIzAwMDAwMCIgZm9udC1mYW1pbHk9InNhbnMtc2VyaWYiIGZvbnQtc2l6ZT0iMTkiIGZvbnQtc3R5bGU9Iml0YWxpYyIgbGVuZ3RoQWRqdXN0PSJzcGFjaW5nIiB0ZXh0TGVuZ3RoPSIxMDYiIHg9IjExMSIgeT0iMTk3NS45MjE5Ij4mIzE3MTtDbG91ZFdhdGNoJiMxODc7PC90ZXh0Pjx0ZXh0IGZpbGw9IiMwMDAwMDAiIGZvbnQtZmFtaWx5PSJzYW5zLXNlcmlmIiBmb250LXNpemU9IjE5IiBsZW5ndGhBZGp1c3Q9InNwYWNpbmciIHRleHRMZW5ndGg9IjI3MCIgeD0iMjkiIHk9IjE5OTYuMjU3OCI+RERQUy1wcmQtRW52aXJvbm1lbnQtQXZhaWxhYmxlPC90ZXh0PjxpbWFnZSBoZWlnaHQ9IjY0IiB3aWR0aD0iNjQiIHg9IjEzMiIgeGxpbms6aHJlZj0iZGF0YTppbWFnZS9wbmc7YmFzZTY0LGlWQk9SdzBLR2dvQUFBQU5TVWhFVWdBQUFFQUFBQUJBQ0FJQUFBQWxDK2FKQUFBR3NFbEVRVlI0WHUxWjk0OFVkUlRubjVCRHNBYkZYcUt4eEJLeHhCNS9RQk94S3pHMjJLSkVJK3dkNWVoU1RnOUVRSUVEN3FTREZEa0k1VHhGUWp0S2dBTXBVZzUyWjh0c245MmR0bjdlZnJsbG1YZnM3Tjdlc3BEczVKUEw3TDQzMzMyZjcvZlZ1VzdPS3daZjF1akd2N3E4VUNaUWFwUUpsQnBsQXFWR21VQ3BVU1pRYW5RQkFkZFZRL3p2MUN2elc3VDlUak1VVDZxNjRZbW9PMDVHYXBxOFQwN2grbDJMd2dqMHFBd09XZ1Z6azVtWGFXWitTdng5elB2NFpPdURYWWZPRTVCdUdnbmpoSlhxM2pPaDZyWGVKeWE3ZWxjN0t4eFNuNUcrZmpPajAvOHhZeXFKTlNNMGNoMWZvVXZRU1FLdXE0ZkNTV0NiNFZjQ1h5emxDZ0xTYmFPanYyd1JaNkxNM2M0VkNrZW5DRlE0WXF2Mnd5YjltQmNtV3FVTS9yZm5tZEVFOU1Qak5uQnBnZWdNZ1pCak5lMjlISFUvTUpGTE80VDhXbDNTb0hQd3ZUS0xTd3RCM2dSY3ZZWVlyaEJNa1YrZnc2VlpFQjY3bnNMaGtCdnVGL3hxV1d6RlBqaWhzcURGLy81OHJwdzc4aVlRSFBnN1JXMUxHeGZaNE1wSy9ZUXN3a2FFZnZwS05CK1Yrb3l3NnVlR3ZBbG9CMXo0U2JnMUY5a2lPSEM1c0ZnLzZzVzk5L2xwK0d0SVlYd1RYM2ZRMmQzQkg3RkZmZ1NRSHltbG1LYnJtcUZjYWd1NEg0NHU4ZWNSckpQK1VycGxsT0FRK0hReGY4UVcrUkh3UGpPVjl1K0V6RVdGSVBESklqcUV0UWU1eUJiNUVaRDcxNUhMTmgzbW9rSWczVGdDcDRxcTU3cCtPSmRtUjg0RUtoeitBUTNxbnRNaTVxelNncUVkbExDeUVZaEZaMjNOcTRQS2lRQjJLTDdwc0lnL001SUlmTDZFNnhRSS8zc05XaXVsaDlSdm1PRUptOUJvY1RVT2V3TFM3V1AwLzN5MFBYSTA4T1ZTMTdYRHVFNVhRYnBqVEhUR0ZqT2hpM05HeGVBNkZ0Z1R3RUpZVHQxOUdreTR0Qmp3UERoSlZBeWxmZ2VYV21CRHdQZnlURHJTbUlwRnViUjR3TTlSSjJ1YW5yNjFYSm9KR3dMWUF4QUlmNytSaS9KR2owclB3elZvcytWWFozc2VxOFVZWkZVNEg1R3BtL0hUNk1tNUtCTTJCTFFqSHF5Q1JwK0xjb2Y3L29uS3ZCMkdMM28yUmxNWCt0UFl5bjNlNTZaeGZRSHZzejlERFpITlJabXdJVUFqWWpKSll3b1Q1WVFLUjJSU0U0Wk1ZVFNTQVdwSWZQMGhTamp0ZzF0czhlNE9Fd01HcG1RcXNYSlJKdXdJSkRRaWtIOTlJZlNzaWplMmtvMmFFWjI5elJKRlNBa1lENUNVU2I3UENYTXRqOFBISURMam1uWFo4MkZEUUQ4VHhDcWRHMnBoTkcyaE4rSjdjVG8rdXU4YUd4cldxQ3phRlZ1Mk56eCtvK2VSSCtqTCt5YUlFcGJZZkF5RU14OTMzenVlRHMydWJiRWhJTFlRNlorTHNnT0RDKzJmb29xeUd2eDZ1UmttYnp4MzZRYTh5OVdyU3JwMXRONFd3QmVoSVdzeVY4Q2ttaFJkS2xzOEV6WUVBaDlUbTBXUmxHZXZpN3FSdGdtdUlteEcxQWEvV1lGQ0hwMnpYUVFHUmxObk8xdERWbHpYdFFkRGowcXhnbTJMYWtNQUMySHc1ZHVUSFhCM01zZ1hSZitNRTBBTUFQSmJjek4xNEpZaUwvay9Xb2lQNnJZVGREK2dRVWdqTlUzSmxQL1k5dTEyQk5DQnZqbVh4bG5EeFBEQnBSMGkrTjFLL0x6eTIwN2NpL0VmQm5FMS93Y0x5TXFqWHR5SHF2NmdSMUp2TG53dnphRHowZ3hmdjEvNVV4YllFd0NDZzFmUml2RElOUWNRa2ZEYUN3RjVFL3FSS1grbEQwMjg5dkk4K2lOZkZsRXJzaHdlRkY2VWJ0U1ZocDN5R3puTjNEa1JBUHdmTHJCR1lVZVgrNTd4VUViWlNyYUh2dkQxYzg1OVBrVFA0M21veHZ2MFQ3aFJkNTdpT3RtUkt3Rm5hdmFESjZpNzJqQUJYZ2p1dThjNTJ6MDROSUxleHVtbi9MaEhXZVVMb3J5UWMySkE3VjJOL1U2bVRwaXJaVWNlQkhKSDRMTWxaRTFqcTVPcXdkWmtLdjl3TlpHZEVsdVAwLzNFVGJpSDczRzE3Q2dLQVp3VnRoWkZGRGZ3Ynd3U1pOemtabVQ5dEE2OW5vRjM2UWFjSjUzcmZDOVF5Y3NMUlNFQXhGWlQ4a0V4eHIzLzNYb1JDU2hZc1NWN0VLRGFJWGN5ZFltWHZpZ085RUhWM1hlTzVVdGxSN0VJSUM2RjBTaUY5TEZ2TFJvZVliUzQwS1RJL2V1Y3FUY2RPS3V6WDU3eTQwRytXaFlVaTRBejFUNlFVWVlaR3RwSTZiWENnZVlaeFNUNDdRb2tUZUZPR0lWRlA0ZkJBOEZBNm5JMFM0L05VVVFDUUdqNFd0RTJhd2RjeUtycG9WUzZvUnBGTjlGOFJHdzhaZ09JTUFFakM5SEhtSXJxeVZmckVNVWw0RXk5bHhidkJNN2FHdGZFbG9zTFpVNC9TYVVBT3VoTUVjM1JPdXBoRWR3NWRwQkZKMERvV1lXZUxMNm1WYVFqbkFtaUdkdVBmaFBOa25UektMV2xUWkR4UGtXdGE3cjVRL1cwTHNWd1VRaGtBQmJ6YVJnVFdYekR2MFF0a2hEL1FBZ09vdVlGeDhKWHNPQmlFN2dnZWxZcEMzZlJ0cXM2K20zMHFzUW5hRE5QT2k4aEFrQjNSNlMyV1RpUHVKVDVMVllkaGt1SlFBcUlGdjI0ei9BclNLeTV6T0tYSElGOFVTWlFhcFFKbEJwbEFxVkdtVUNwVVNaUWF2d1A3UGpIdk9WRnNtZ0FBQUFBU1VWT1JLNUNZSUk9IiB5PSIxOTk4LjYzMjgiLz48dGV4dCBmaWxsPSIjMDAwMDAwIiBmb250LWZhbWlseT0ic2Fucy1zZXJpZiIgZm9udC1zaXplPSIxMiIgbGVuZ3RoQWRqdXN0PSJzcGFjaW5nIiB0ZXh0TGVuZ3RoPSI0NSIgeD0iMTQxLjUiIHk9IjIwNzMuOTc2NiI+W0FsYXJtXTwvdGV4dD48cmVjdCBmaWxsPSIjRkZGRkZGIiBoZWlnaHQ9IjEzMS41MTU2IiBzdHlsZT0ic3Ryb2tlOiM3RDg5OTg7c3Ryb2tlLXdpZHRoOjEuMjU7IiB3aWR0aD0iMjY2IiB4PSIzMjAiIHk9IjQwLjk4NDQiLz48dGV4dCBmaWxsPSIjMDAwMDAwIiBmb250LWZhbWlseT0ic2Fucy1zZXJpZiIgZm9udC1zaXplPSIxOSIgZm9udC1zdHlsZT0iaXRhbGljIiBsZW5ndGhBZGp1c3Q9InNwYWNpbmciIHRleHRMZW5ndGg9IjcwIiB4PSI0MTgiIHk9IjY1Ljk0NTMiPiYjMTcxO0xhbWJkYSYjMTg3OzwvdGV4dD48dGV4dCBmaWxsPSIjMDAwMDAwIiBmb250LWZhbWlseT0ic2Fucy1zZXJpZiIgZm9udC1zaXplPSIxOSIgbGVuZ3RoQWRqdXN0PSJzcGFjaW5nIiB0ZXh0TGVuZ3RoPSIyNTIiIHg9IjMyNyIgeT0iODYuMjgxMyI+ZGRwcy1FbnZpcm9ubWVudFN0YXR1c01ldHJpYzwvdGV4dD48aW1hZ2UgaGVpZ2h0PSI2NCIgd2lkdGg9IjY0IiB4PSI0MjEiIHhsaW5rOmhyZWY9ImRhdGE6aW1hZ2UvcG5nO2Jhc2U2NCxpVkJPUncwS0dnb0FBQUFOU1VoRVVnQUFBRUFBQUFCQUNBSUFBQUFsQythSkFBQUZtVWxFUVZSNFh0V1pXMndVVlJqSEFSVzhFSTIzZUZjMHhuaUpDY1lIWStJbFhoNjh2SWd2bUhoNzBCZnd3VkJhMm1xaDBxSldyTEZBS1ZFaldHd0pwQkJJV2tFd1lFcEZrYmJCZ0ZiUUFpMFNLYVV6ZTcvTXp1Nk0zN2RuZHBoKzMzYjM3TTQ4T0pQZnkvLzh6NXc5Mzh5Wk9mOXBweW1McHZrYXFuMEgxYjZEYXQ5QnRlK2cybmRRN1R1bzloMVUrdzZxZlFmVmtpVDJyeklOdzVRNERDMGFibnVHaitBVlZFdVNQdjgzbmVuVWh6N3lDeC9CSzZpV1JCUVFXSEVYdDV5b1N5NHpJdVBRTTdUbWNlNTZBdFdTU0JZQXhIY3RnNTZwUDdxNTVRbFVTNUtaR01ZQ0d1L2tGa0d0dTliUVl2REFCRDk1Z0x2dW9Wb1MrUUlVOGNTYlp2TFFOOXh5RDlXU2xGUkFvSEdPbWRITmRDcnd3UzNjZFFuVmtwUlVBS0FOZGtML3hJL04zSElKMVpMa0NwakRyYndFbStkQ2Z5TVpWbXV2NHE0YnFKWWtNM0ZDdk9QSm9aL3VWeXBuOHY1QTZ0aHU2QkRycWVHV0c2aVdKTkczaHM0OWQwUTN2OFg3QTdBZmc1c0puMVdxWm5HM2JLaDJRMlRqS3pERjlMay9sWXJwM0FYMGZ3YXd3aTF2YzZ0c3FIYkY0b3N5eWttWVltVDlTOVRLRW1tZm42M3dtRkl4Zzd2bFFiVkxvbHNYd2hUMVV6OXpDNEVLc3c5UFpQMDhhcFVMMVM3QjhCTTlEMU1NdFQ3QlhjV3UwTHQ0UjdWNzRydVdtaGgrZXJpbE9DdjBLTjVSN1I3MS9XdmdHNkJBK1BFMjNsRmRCbXJOYkgyNE43Nm4wVzVKOUxiQUZKUDk3Ynd6OXJmalhkUDkzQzBWcXNzZzFyMEUzLytaZFBERHUwVkxvT0VPSy93c3Y0MzNWekRlcmNZS0QyM2dWcWxRWFNwcTFhV3dOMkVCTUtHRFg5dnQyc0MzMEpMby9aeWZvbmdhNzZndWxXalhBcGhvZXZ3NDNBR2NVTVB0b2oyNDhrRVR3MDlFZmU5cWZwYUM4VzRUVnJqdlUyNlZCTldsc2ZqaTNNNDFMOW0vRVNmVTEycTdxYUh2b0NXK3M0NmVsY1dyZUVkMVNVUTZYc1BMUHpZRTJTSFlkSjlwWkF3OUVWaDJvM0JEclUvaW94RTVCOHVNbjZ0NEZPK29Mb0dLNmVtenY4TU1vcDF2aUJidHR5NnlLdlRSWDdGRDF3SjZiaFpQNGgzVjhrRGd3WjlYUjJBaGlaYmNxb2pBVm1EMTJmQXk5cGtZaGhEQlIxQXczZzFpaFM3aUhkWHlXRmQzNjBKbkkyekF1TzUzTjFndEZUUHcrWWFIcEgwK0gwR1pGTy95QjlpaVVDMUo3dTZQa2ZVZFd2VW8zb1I0UUsyOVVyVEExWVVXQ05KOEVPUkN2TXNmWUl0Q3RTU3B2L2JDcjhhNnE2ZXk0ajIxVmt2VkxMRlJoTmM5eXpzRHNXM3ZZSVZUQmRoaVVDMURxT1VSY3BtZGhOYytoVzVrWEsyK1hMUkFuZENTT3I2SGQxYWM4VzcxWTl3dEN0VXlhRWQzNERYK1lRVzNCUHJJUVZ3VkhhOEtDVzk2SXhHQ2xtRHpRN3d6RVArK0hpc3NLOTVSWFJUSW1KRERJSTJwZGRkeEY2bThKS09PNHByNTRqbTdNYkZ2SmJSb2h6ZlR6bG5jeER1cWk2SU5kSmdZY2xxNEpZaHVlaE02cFA4OTZueXhCT3B2TnRNYXhJMnAvcFJVZHJ5anVqRHc4MWJtV1g0cmR4SFkzY2FHbk92SEJxSWVUdkdudGZTVUxObDRseDI1eEhoSGRXR1NCOWJoSkJ5cGsyRHRic29wZTNlekNYNThMNjY5VkZ4ZGVqMC9VY25GTytjQmFZcDNJMUJkZ0VEOVRhYWVoTUFUL09nZTdncnk3bTQyMnBIdHBuT2Jtd3c4QUVaMGd0VEF1eEdvTGtEdVFkekNMVUc0N1dtellIcXp0cm1Zb2xaZndWMENYQ2t2QzRCWUQ5SFh4RmZoWE80SzRFMXZPcmV3Zk9nbjlrT2YyUFozdVVYd3VBRHJTM3hvSjdjRW9jOGV4cXViQ0JYTzkrR3ZYc1M3cEk3eWg0VGdaUUZ3eDhYcUxMQlpXbGw2YnhPM0puRWhoTDlPcmNsNFdVQnN4eUlZU3ovWnh5MEJQTmE1cjVrYnVFdUE3d2NUTjRvajNITGlYUUdWTXpQQk16QlcrTXZucVpYRGVzY2ZhT05XSG1DckRwek9EdmdDdFJ4NFZvREl3K2t6aDdrbGdLM0gybVVsL21rcHNHN3BjQyszYkR3ckFMNDJUSWxERyt6azUwNkZXalBiaUt0MGlId0hQNWRBTlFldUV4MlZIWkNIWWFQbDV4WUEzcVQ0cDZHQ2g4Yzc4ZjhUcW4wSDFiNkRhdDlCdGUrZzJuZFE3VHVvOWgxVSt3NnFmY2Qvc1RWS0d3OC9ZUFVBQUFBQVNVVk9SSzVDWUlJPSIgeT0iODguNjU2MyIvPjx0ZXh0IGZpbGw9IiMwMDAwMDAiIGZvbnQtZmFtaWx5PSJzYW5zLXNlcmlmIiBmb250LXNpemU9IjEyIiBsZW5ndGhBZGp1c3Q9InNwYWNpbmciIHRleHRMZW5ndGg9IjY0IiB4PSI0MjEiIHk9IjE2NCI+W0Z1bmN0aW9uXTwvdGV4dD48cmVjdCBmaWxsPSIjRkZGRkZGIiBoZWlnaHQ9IjEzMS41MTU2IiBzdHlsZT0ic3Ryb2tlOiM3RDg5OTg7c3Ryb2tlLXdpZHRoOjEuMjU7IiB3aWR0aD0iMjY2IiB4PSIzMjAiIHk9IjE5NTAuOTYwOSIvPjx0ZXh0IGZpbGw9IiMwMDAwMDAiIGZvbnQtZmFtaWx5PSJzYW5zLXNlcmlmIiBmb250LXNpemU9IjE5IiBmb250LXN0eWxlPSJpdGFsaWMiIGxlbmd0aEFkanVzdD0ic3BhY2luZyIgdGV4dExlbmd0aD0iNzAiIHg9IjQxOCIgeT0iMTk3NS45MjE5Ij4mIzE3MTtMYW1iZGEmIzE4Nzs8L3RleHQ+PHRleHQgZmlsbD0iIzAwMDAwMCIgZm9udC1mYW1pbHk9InNhbnMtc2VyaWYiIGZvbnQtc2l6ZT0iMTkiIGxlbmd0aEFkanVzdD0ic3BhY2luZyIgdGV4dExlbmd0aD0iMjUyIiB4PSIzMjciIHk9IjE5OTYuMjU3OCI+ZGRwcy1FbnZpcm9ubWVudFN0YXR1c01ldHJpYzwvdGV4dD48aW1hZ2UgaGVpZ2h0PSI2NCIgd2lkdGg9IjY0IiB4PSI0MjEiIHhsaW5rOmhyZWY9ImRhdGE6aW1hZ2UvcG5nO2Jhc2U2NCxpVkJPUncwS0dnb0FBQUFOU1VoRVVnQUFBRUFBQUFCQUNBSUFBQUFsQythSkFBQUZtVWxFUVZSNFh0V1pXMndVVlJqSEFSVzhFSTIzZUZjMHhuaUpDY1lIWStJbFhoNjh2SWd2bUhoNzBCZnd3VkJhMm1xaDBxSldyTEZBS1ZFaldHd0pwQkJJV2tFd1lFcEZrYmJCZ0ZiUUFpMFNLYVV6ZTcvTXp1Nk0zN2RuZHBoKzMzYjM3TTQ4T0pQZnkvLzh6NXc5Mzh5Wk9mOXBweW1McHZrYXFuMEgxYjZEYXQ5QnRlK2cybmRRN1R1bzloMVUrdzZxZlFmVmtpVDJyeklOdzVRNERDMGFibnVHaitBVlZFdVNQdjgzbmVuVWh6N3lDeC9CSzZpV1JCUVFXSEVYdDV5b1N5NHpJdVBRTTdUbWNlNTZBdFdTU0JZQXhIY3RnNTZwUDdxNTVRbFVTNUtaR01ZQ0d1L2tGa0d0dTliUVl2REFCRDk1Z0x2dW9Wb1MrUUlVOGNTYlp2TFFOOXh5RDlXU2xGUkFvSEdPbWRITmRDcnd3UzNjZFFuVmtwUlVBS0FOZGtML3hJL04zSElKMVpMa0NwakRyYndFbStkQ2Z5TVpWbXV2NHE0YnFKWWtNM0ZDdk9QSm9aL3VWeXBuOHY1QTZ0aHU2QkRycWVHV0c2aVdKTkczaHM0OWQwUTN2OFg3QTdBZmc1c0puMVdxWm5HM2JLaDJRMlRqS3pERjlMay9sWXJwM0FYMGZ3YXd3aTF2YzZ0c3FIYkY0b3N5eWttWVltVDlTOVRLRW1tZm42M3dtRkl4Zzd2bFFiVkxvbHNYd2hUMVV6OXpDNEVLc3c5UFpQMDhhcFVMMVM3QjhCTTlEMU1NdFQ3QlhjV3UwTHQ0UjdWNzRydVdtaGgrZXJpbE9DdjBLTjVSN1I3MS9XdmdHNkJBK1BFMjNsRmRCbXJOYkgyNE43Nm4wVzVKOUxiQUZKUDk3Ynd6OXJmalhkUDkzQzBWcXNzZzFyMEUzLytaZFBERHUwVkxvT0VPSy93c3Y0MzNWekRlcmNZS0QyM2dWcWxRWFNwcTFhV3dOMkVCTUtHRFg5dnQyc0MzMEpMby9aeWZvbmdhNzZndWxXalhBcGhvZXZ3NDNBR2NVTVB0b2oyNDhrRVR3MDlFZmU5cWZwYUM4VzRUVnJqdlUyNlZCTldsc2ZqaTNNNDFMOW0vRVNmVTEycTdxYUh2b0NXK3M0NmVsY1dyZUVkMVNVUTZYc1BMUHpZRTJTSFlkSjlwWkF3OUVWaDJvM0JEclUvaW94RTVCOHVNbjZ0NEZPK29Mb0dLNmVtenY4TU1vcDF2aUJidHR5NnlLdlRSWDdGRDF3SjZiaFpQNGgzVjhrRGd3WjlYUjJBaGlaYmNxb2pBVm1EMTJmQXk5cGtZaGhEQlIxQXczZzFpaFM3aUhkWHlXRmQzNjBKbkkyekF1TzUzTjFndEZUUHcrWWFIcEgwK0gwR1pGTy95QjlpaVVDMUo3dTZQa2ZVZFd2VW8zb1I0UUsyOVVyVEExWVVXQ05KOEVPUkN2TXNmWUl0Q3RTU3B2L2JDcjhhNnE2ZXk0ajIxVmt2VkxMRlJoTmM5eXpzRHNXM3ZZSVZUQmRoaVVDMURxT1VSY3BtZGhOYytoVzVrWEsyK1hMUkFuZENTT3I2SGQxYWM4VzcxWTl3dEN0VXlhRWQzNERYK1lRVzNCUHJJUVZ3VkhhOEtDVzk2SXhHQ2xtRHpRN3d6RVArK0hpc3NLOTVSWFJUSW1KRERJSTJwZGRkeEY2bThKS09PNHByNTRqbTdNYkZ2SmJSb2h6ZlR6bG5jeER1cWk2SU5kSmdZY2xxNEpZaHVlaE02cFA4OTZueXhCT3B2TnRNYXhJMnAvcFJVZHJ5anVqRHc4MWJtV1g0cmR4SFkzY2FHbk92SEJxSWVUdkdudGZTVUxObDRseDI1eEhoSGRXR1NCOWJoSkJ5cGsyRHRic29wZTNlekNYNThMNjY5VkZ4ZGVqMC9VY25GTytjQmFZcDNJMUJkZ0VEOVRhYWVoTUFUL09nZTdncnk3bTQyMnBIdHBuT2Jtd3c4QUVaMGd0VEF1eEdvTGtEdVFkekNMVUc0N1dtellIcXp0cm1Zb2xaZndWMENYQ2t2QzRCWUQ5SFh4RmZoWE80SzRFMXZPcmV3Zk9nbjlrT2YyUFozdVVYd3VBRHJTM3hvSjdjRW9jOGV4cXViQ0JYTzkrR3ZYc1M3cEk3eWg0VGdaUUZ3eDhYcUxMQlpXbGw2YnhPM0puRWhoTDlPcmNsNFdVQnN4eUlZU3ovWnh5MEJQTmE1cjVrYnVFdUE3d2NUTjRvajNITGlYUUdWTXpQQk16QlcrTXZucVpYRGVzY2ZhT05XSG1DckRwek9EdmdDdFJ4NFZvREl3K2t6aDdrbGdLM0gybVVsL21rcHNHN3BjQyszYkR3ckFMNDJUSWxERyt6azUwNkZXalBiaUt0MGlId0hQNWRBTlFldUV4MlZIWkNIWWFQbDV4WUEzcVQ0cDZHQ2g4Yzc4ZjhUcW4wSDFiNkRhdDlCdGUrZzJuZFE3VHVvOWgxVSt3NnFmY2Qvc1RWS0d3OC9ZUFVBQUFBQVNVVk9SSzVDWUlJPSIgeT0iMTk5OC42MzI4Ii8+PHRleHQgZmlsbD0iIzAwMDAwMCIgZm9udC1mYW1pbHk9InNhbnMtc2VyaWYiIGZvbnQtc2l6ZT0iMTIiIGxlbmd0aEFkanVzdD0ic3BhY2luZyIgdGV4dExlbmd0aD0iNjQiIHg9IjQyMSIgeT0iMjA3My45NzY2Ij5bRnVuY3Rpb25dPC90ZXh0PjxyZWN0IGZpbGw9IiNGRkZGRkYiIGhlaWdodD0iMTMxLjUxNTYiIHN0eWxlPSJzdHJva2U6IzdEODk5ODtzdHJva2Utd2lkdGg6MS4yNTsiIHdpZHRoPSIyMjEiIHg9IjYwMCIgeT0iNDAuOTg0NCIvPjx0ZXh0IGZpbGw9IiMwMDAwMDAiIGZvbnQtZmFtaWx5PSJzYW5zLXNlcmlmIiBmb250LXNpemU9IjE5IiBmb250LXN0eWxlPSJpdGFsaWMiIGxlbmd0aEFkanVzdD0ic3BhY2luZyIgdGV4dExlbmd0aD0iMTE1IiB4PSI2NTMiIHk9IjY1Ljk0NTMiPiYjMTcxO0V2ZW50QnJpZGdlJiMxODc7PC90ZXh0Pjx0ZXh0IGZpbGw9IiMwMDAwMDAiIGZvbnQtZmFtaWx5PSJzYW5zLXNlcmlmIiBmb250LXNpemU9IjE5IiBsZW5ndGhBZGp1c3Q9InNwYWNpbmciIHRleHRMZW5ndGg9IjIwNyIgeD0iNjA3IiB5PSI4Ni4yODEzIj5kZHBzLWVudmlyb25tZW50LXN0YXR1czwvdGV4dD48aW1hZ2UgaGVpZ2h0PSI2NCIgd2lkdGg9IjY0IiB4PSI2NzguNSIgeGxpbms6aHJlZj0iZGF0YTppbWFnZS9wbmc7YmFzZTY0LGlWQk9SdzBLR2dvQUFBQU5TVWhFVWdBQUFFQUFBQUJBQ0FJQUFBQWxDK2FKQUFBR1IwbEVRVlI0WHUyWitXOVVWUlRIK1NkQXRDcnV4b1VvaWFJaHhpVnV1Q1hxTDhZdGNRbHEzSTBoZ3RCQ1dhU1VXUFpOd1NEN0psaGFSU2xWVmtGcEFaVUtyYlFnaS9ObW4rbHNuWG1iMy90ZVozcDd6N3laTjY4dEU4eThmSDZaZTg1NzkzN3ZkczY5TThnMWVNSkZ6U0JhZEhGUkVsQnNTZ0tLVFVsQXNTa0pLRFo5RWhCNjc1dmt2ZzQxbEpCUGV1TnJtdHpEcTZqUFFPTlV3SkNKaVczSDlONFBsUGlmK0VMMEhHQWNDZ2lQcTJNdDlzZUNiMnh3WHpmVk8ycU9xVWY1SnlCZFZVbjlCdzZIQXVRMkQ1b2JlSEZsVCtIUTh0U1JjeWdNdnJhVytnOGNUZ1JJd3lwMVZkTVNLVFNhTDQvTWFJQ0E2TnpkZ245azVzNWVVNDEvVWtwNGJDMnR3ajVPQktEZFdqd0ZEZExWVS9qeTZPTDlhRkxucE8yQ2Z5NEJ1cTRsWmUrOTg4UXFiT05Jd09BSnliM3RxRHU2WUUrbXhETmlsaHFNbzlBM2VnbjF0eUsrNmhCZWtWdGNVbGtGdGRyQm9RRGZnd3QxV1VYZFhRMnQ0ZkYxMGRtNzFBQnJmV0x6VWVxY0E2eDQ1WlJmNkl1Q2NDZ0FZTEdxZ1JnL0dmQkFHUFhNamUveHBicWlZa0ltZDU5VWZWSGxYQ2hSMytLOWZ6NzF6SXB6QWNCOTAyZWhEN2JFbGgySVZEZDI3VGpCQm1SbkszWExDOTRTT2dLTEcxR1NlbEw2SklESGZmTU1MWnhBMVlHWFYxTnJEdnhQZmFscm1wWlVPaXUrUjQ5NGJxK096dHVONzJDZjhJeXNvZjRDL1NZQWhDZlU2MllzdTN3U3RWcVIyUG9IM3NJV3pCZkcxemF6d3BxZnFiOUFmd3B3WFZvdS95V3hpcXNiUlpNMXlLUHdpdmVldVh3aFFpUUt1eHJicUw5QVlRSjhEeTlDN2tETE0yRCs5TXpqYkErYTY3NWhHdjlLcXZrc3l2MVA5a3FpUXU5c1JpSFdGYTFDb0JBQlF5YWFsWVUvMlNhYTBzUTNIUkZhVEovWThvUDhLMmI0WTUyZGp1dlNsWlBOa2V3cy80NVdJVkNBQUd3TCtLZ3FkVnFsYTc3SGxockxVZmJjOFRtMUFrUmN0bU1xS2g5NjNUZE9WejBSZkRsMTlEeWllT2YwSFVxSGovMXNQaXVWNVY5TGRnVWdhMURkckJvTUxyVXlNRDZIV1RJWG5iTkxOSEhFdmpvSUh3Unl2dEQzNkdLbG5UV2FmNURoMHRjcGRnVWdVdXBHcjZDaDFBcEM3eHZqNDdJY0h4TXNBRE5tQjEvdGxiUktWMHdPdnJraHVuQnZkTkUrK1pnTER0SDV0bUt6TFFHZXUycXdUMk42b0t1b0ZValhUREduUWVqdFRkUXFnQ1VFVCtXTTVXNkxXc3pJZ0hxcFZjQ1dnSzRmV1pTTnIydW1KaFAwSEJ1ZnBqTlc0OU9Mb2VuZHRtcW5hRXFEdXVDQWVxbEpJTCtBd0hNcjhDMHQwdVcrWlFhMUF1L2RzN3ZINTVGRjFKb1YvelBMMlRjUmEyK2JTYTBBZGFGRytLQjJhdVhKTDBBK2J1eG9sVDlRazRsNW1FVHNwS1ljSk9xTXQxWTNVWk1KYW9RRGFxY21udjRRVVB1bkV3SDFMUmRJd0lCTW9XY3Y0QlJ5WlJieCtzUFVaRkx3SWpaR1ZVamdlRkNYM2wrTDJQVS8yRVpkNlVBbS8rMU43bWxIM2krM2VXSXJEK0VNa0hIb1l5RHJJWjF4OVdjZ0ErN3JwNW1IWVA3QmtSTDVhYmRQSnBVZzF5bzhXVk1KSGpNUFJkb2lYSGxZWVZjQWprdnN1NTRJZWs2NmRpclM5Njd0eDFHQ29jak1CTi9vSmQzSjNKMFd5ZHg5ODJreUo0Q0ZoTStHM3JYSXVBaDJCU2ovaHZGZDdCNDloWmRWbUdzeDhFTFAvVng4WS81ME92bnJhZnI5RE9pTzhNZmYydG9NREd3SlFNYXJHM2UzUWprU1Q1UkhadlprQk81YnE1U3pRYkhKNVBFL3ZZelc0Z3hiQXBDWDZ5a0ZDQWw2Yk1WdmFBMHllUHFLRmVZdG5YekNqZk1udFRyQWxnQlgrdUFYbWZWVHBzUXpzc2FNTlZaN2ExWXdRNVRUN0NiTHptbkxEbllGc09zblZVUEZXTHZoY1hYWWFzeExGQXdDZGM1TjRLVlZlRkhydEF6dEJXRlhBQWkrdFJITElET1AyVXhBb3VKb0puVGZnalcwUnFvYlk4c09oRDdjd29lVWdpaEFnTXRZbzZHUHR1SlV6clp6RElpaVltU29XMTU4RHl6Z08wSm5JU1VlZkgwZDljeExZUUo0RUNsUnNYTEtuenYwWnNXOHZFQ2pvN04zaGNmWG1RT0NRT2w3cU9DclZlY0NwTElLdVlVZFh1T3JEbEZyRGxpcVkyektuaEd6TW9WbWR5VDNkMUQvM0RnWDRES3VTUkIzdVlrZ1BueUl5SUQ5QjZiWTBsLzRRZ3hqMW45OTh0SW5BU0E4dHBhRkNJc25xd0JNbXl5bVN5YXlmMzAwcmRBSjJWY0JEZ2krc2dZQ1VyK2Y1enM3OFB6WHVwSHRVdi9jRkVHQU5LejdYeGtjaTcyajVpQTFESTVaci9yWmZ5WGhUK3VwZjI2S0lNQmxYRUthZjZqeEQwN0o5bk80RE1VUkFOekRxK0pybWpCbkVOR3grZUE4Ukgzc1VEUUIvVVZKUUxFcENTZzJKUUhGcGlTZzJGejBBdjREclZFSDBFekxDdTBBQUFBQVNVVk9SSzVDWUlJPSIgeT0iODguNjU2MyIvPjx0ZXh0IGZpbGw9IiMwMDAwMDAiIGZvbnQtZmFtaWx5PSJzYW5zLXNlcmlmIiBmb250LXNpemU9IjEyIiBsZW5ndGhBZGp1c3Q9InNwYWNpbmciIHRleHRMZW5ndGg9IjM5IiB4PSI2OTEiIHk9IjE2NCI+W1J1bGVdPC90ZXh0PjxyZWN0IGZpbGw9IiNGRkZGRkYiIGhlaWdodD0iMTMxLjUxNTYiIHN0eWxlPSJzdHJva2U6IzdEODk5ODtzdHJva2Utd2lkdGg6MS4yNTsiIHdpZHRoPSIyMjEiIHg9IjYwMCIgeT0iMTk1MC45NjA5Ii8+PHRleHQgZmlsbD0iIzAwMDAwMCIgZm9udC1mYW1pbHk9InNhbnMtc2VyaWYiIGZvbnQtc2l6ZT0iMTkiIGZvbnQtc3R5bGU9Iml0YWxpYyIgbGVuZ3RoQWRqdXN0PSJzcGFjaW5nIiB0ZXh0TGVuZ3RoPSIxMTUiIHg9IjY1MyIgeT0iMTk3NS45MjE5Ij4mIzE3MTtFdmVudEJyaWRnZSYjMTg3OzwvdGV4dD48dGV4dCBmaWxsPSIjMDAwMDAwIiBmb250LWZhbWlseT0ic2Fucy1zZXJpZiIgZm9udC1zaXplPSIxOSIgbGVuZ3RoQWRqdXN0PSJzcGFjaW5nIiB0ZXh0TGVuZ3RoPSIyMDciIHg9IjYwNyIgeT0iMTk5Ni4yNTc4Ij5kZHBzLWVudmlyb25tZW50LXN0YXR1czwvdGV4dD48aW1hZ2UgaGVpZ2h0PSI2NCIgd2lkdGg9IjY0IiB4PSI2NzguNSIgeGxpbms6aHJlZj0iZGF0YTppbWFnZS9wbmc7YmFzZTY0LGlWQk9SdzBLR2dvQUFBQU5TVWhFVWdBQUFFQUFBQUJBQ0FJQUFBQWxDK2FKQUFBR1IwbEVRVlI0WHUyWitXOVVWUlRIK1NkQXRDcnV4b1VvaWFJaHhpVnV1Q1hxTDhZdGNRbHEzSTBoZ3RCQ1dhU1VXUFpOd1NEN0psaGFSU2xWVmtGcEFaVUtyYlFnaS9ObW4rbHNuWG1iMy90ZVozcDd6N3laTjY4dEU4eThmSDZaZTg1NzkzN3ZkczY5TThnMWVNSkZ6U0JhZEhGUkVsQnNTZ0tLVFVsQXNTa0pLRFo5RWhCNjc1dmt2ZzQxbEpCUGV1TnJtdHpEcTZqUFFPTlV3SkNKaVczSDlONFBsUGlmK0VMMEhHQWNDZ2lQcTJNdDlzZUNiMnh3WHpmVk8ycU9xVWY1SnlCZFZVbjlCdzZIQXVRMkQ1b2JlSEZsVCtIUTh0U1JjeWdNdnJhVytnOGNUZ1JJd3lwMVZkTVNLVFNhTDQvTWFJQ0E2TnpkZ245azVzNWVVNDEvVWtwNGJDMnR3ajVPQktEZFdqd0ZEZExWVS9qeTZPTDlhRkxucE8yQ2Z5NEJ1cTRsWmUrOTg4UXFiT05Jd09BSnliM3RxRHU2WUUrbXhETmlsaHFNbzlBM2VnbjF0eUsrNmhCZWtWdGNVbGtGdGRyQm9RRGZnd3QxV1VYZFhRMnQ0ZkYxMGRtNzFBQnJmV0x6VWVxY0E2eDQ1WlJmNkl1Q2NDZ0FZTEdxZ1JnL0dmQkFHUFhNamUveHBicWlZa0ltZDU5VWZWSGxYQ2hSMytLOWZ6NzF6SXB6QWNCOTAyZWhEN2JFbGgySVZEZDI3VGpCQm1SbkszWExDOTRTT2dLTEcxR1NlbEw2SklESGZmTU1MWnhBMVlHWFYxTnJEdnhQZmFscm1wWlVPaXUrUjQ5NGJxK096dHVONzJDZjhJeXNvZjRDL1NZQWhDZlU2MllzdTN3U3RWcVIyUG9IM3NJV3pCZkcxemF6d3BxZnFiOUFmd3B3WFZvdS95V3hpcXNiUlpNMXlLUHdpdmVldVh3aFFpUUt1eHJicUw5QVlRSjhEeTlDN2tETE0yRCs5TXpqYkErYTY3NWhHdjlLcXZrc3l2MVA5a3FpUXU5c1JpSFdGYTFDb0JBQlF5YWFsWVUvMlNhYTBzUTNIUkZhVEovWThvUDhLMmI0WTUyZGp1dlNsWlBOa2V3cy80NVdJVkNBQUd3TCtLZ3FkVnFsYTc3SGxockxVZmJjOFRtMUFrUmN0bU1xS2g5NjNUZE9WejBSZkRsMTlEeWllT2YwSFVxSGovMXNQaXVWNVY5TGRnVWdhMURkckJvTUxyVXlNRDZIV1RJWG5iTkxOSEhFdmpvSUh3Unl2dEQzNkdLbG5UV2FmNURoMHRjcGRnVWdVdXBHcjZDaDFBcEM3eHZqNDdJY0h4TXNBRE5tQjEvdGxiUktWMHdPdnJraHVuQnZkTkUrK1pnTER0SDV0bUt6TFFHZXUycXdUMk42b0t1b0ZValhUREduUWVqdFRkUXFnQ1VFVCtXTTVXNkxXc3pJZ0hxcFZjQ1dnSzRmV1pTTnIydW1KaFAwSEJ1ZnBqTlc0OU9Mb2VuZHRtcW5hRXFEdXVDQWVxbEpJTCtBd0hNcjhDMHQwdVcrWlFhMUF1L2RzN3ZINTVGRjFKb1YvelBMMlRjUmEyK2JTYTBBZGFGRytLQjJhdVhKTDBBK2J1eG9sVDlRazRsNW1FVHNwS1ljSk9xTXQxWTNVWk1KYW9RRGFxY21udjRRVVB1bkV3SDFMUmRJd0lCTW9XY3Y0QlJ5WlJieCtzUFVaRkx3SWpaR1ZVamdlRkNYM2wrTDJQVS8yRVpkNlVBbS8rMU43bWxIM2krM2VXSXJEK0VNa0hIb1l5RHJJWjF4OVdjZ0ErN3JwNW1IWVA3QmtSTDVhYmRQSnBVZzF5bzhXVk1KSGpNUFJkb2lYSGxZWVZjQWprdnN1NTRJZWs2NmRpclM5Njd0eDFHQ29jak1CTi9vSmQzSjNKMFd5ZHg5ODJreUo0Q0ZoTStHM3JYSXVBaDJCU2ovaHZGZDdCNDloWmRWbUdzeDhFTFAvVng4WS81ME92bnJhZnI5RE9pTzhNZmYydG9NREd3SlFNYXJHM2UzUWprU1Q1UkhadlprQk81YnE1U3pRYkhKNVBFL3ZZelc0Z3hiQXBDWDZ5a0ZDQWw2Yk1WdmFBMHllUHFLRmVZdG5YekNqZk1udFRyQWxnQlgrdUFYbWZWVHBzUXpzc2FNTlZaN2ExWXdRNVRUN0NiTHptbkxEbllGc09zblZVUEZXTHZoY1hYWWFzeExGQXdDZGM1TjRLVlZlRkhydEF6dEJXRlhBQWkrdFJITElET1AyVXhBb3VKb0puVGZnalcwUnFvYlk4c09oRDdjd29lVWdpaEFnTXRZbzZHUHR1SlV6clp6RElpaVltU29XMTU4RHl6Z08wSm5JU1VlZkgwZDljeExZUUo0RUNsUnNYTEtuenYwWnNXOHZFQ2pvN04zaGNmWG1RT0NRT2w3cU9DclZlY0NwTElLdVlVZFh1T3JEbEZyRGxpcVkyektuaEd6TW9WbWR5VDNkMUQvM0RnWDRES3VTUkIzdVlrZ1BueUl5SUQ5QjZiWTBsLzRRZ3hqMW45OTh0SW5BU0E4dHBhRkNJc25xd0JNbXl5bVN5YXlmMzAwcmRBSjJWY0JEZ2krc2dZQ1VyK2Y1enM3OFB6WHVwSHRVdi9jRkVHQU5LejdYeGtjaTcyajVpQTFESTVaci9yWmZ5WGhUK3VwZjI2S0lNQmxYRUthZjZqeEQwN0o5bk80RE1VUkFOekRxK0pybWpCbkVOR3grZUE4Ukgzc1VEUUIvVVZKUUxFcENTZzJKUUhGcGlTZzJGejBBdjREclZFSDBFekxDdTBBQUFBQVNVVk9SSzVDWUlJPSIgeT0iMTk5OC42MzI4Ii8+PHRleHQgZmlsbD0iIzAwMDAwMCIgZm9udC1mYW1pbHk9InNhbnMtc2VyaWYiIGZvbnQtc2l6ZT0iMTIiIGxlbmd0aEFkanVzdD0ic3BhY2luZyIgdGV4dExlbmd0aD0iMzkiIHg9IjY5MSIgeT0iMjA3My45NzY2Ij5bUnVsZV08L3RleHQ+PHJlY3QgZmlsbD0iI0ZGRkZGRiIgaGVpZ2h0PSIxMzEuNTE1NiIgc3R5bGU9InN0cm9rZTojN0Q4OTk4O3N0cm9rZS13aWR0aDoxLjI1OyIgd2lkdGg9IjI1NSIgeD0iODM1IiB5PSI0MC45ODQ0Ii8+PHRleHQgZmlsbD0iIzAwMDAwMCIgZm9udC1mYW1pbHk9InNhbnMtc2VyaWYiIGZvbnQtc2l6ZT0iMTkiIGZvbnQtc3R5bGU9Iml0YWxpYyIgbGVuZ3RoQWRqdXN0PSJzcGFjaW5nIiB0ZXh0TGVuZ3RoPSIyNDEiIHg9Ijg0MiIgeT0iNjUuOTQ1MyI+JiMxNzE7U2ltcGxlTm90aWZpY2F0aW9uU2VydmljZSYjMTg3OzwvdGV4dD48dGV4dCBmaWxsPSIjMDAwMDAwIiBmb250LWZhbWlseT0ic2Fucy1zZXJpZiIgZm9udC1zaXplPSIxOSIgbGVuZ3RoQWRqdXN0PSJzcGFjaW5nIiB0ZXh0TGVuZ3RoPSIxMCIgeD0iOTU3LjUiIHk9Ijg2LjI4MTMiPiYjMTYwOzwvdGV4dD48aW1hZ2UgaGVpZ2h0PSI2NCIgd2lkdGg9IjY0IiB4PSI5MzAuNSIgeGxpbms6aHJlZj0iZGF0YTppbWFnZS9wbmc7YmFzZTY0LGlWQk9SdzBLR2dvQUFBQU5TVWhFVWdBQUFFQUFBQUJBQ0FJQUFBQWxDK2FKQUFBRlhVbEVRVlI0WHUyWisyOFVWUlRIK1NmS28vaUtHSjgvcU1SM2lCcWpNVEhHSHdqNmc0a2FFeVV4eGtRTkppWjlJcFlHNk1PMm9BTFJFZ0lOb0FJcTJFcWgwQkpyQUpzaVdncWxsZFpXZG5abTN6TzdPN1B6OGt6UHV0M08yVzd2VEpjZFNmYm1rMlo2ejcxenovZk9QZmVlbVYza0s2dTRvVmxFcTI0c1NnSzhwaVRBYTBvQ3ZLWWt3R3RLQXJ5bThBTDhkMndJdjlrUjMzVlc2UnRWaHprOUdEZFZYWThrdGNsdzZvOXJpVzhHb3hWSEFzOS9RVHU2bzNBQ2xsU0cxKzVYem95Ym1tNHlGTzJ2Z0ZqZjdiOW5vLzArRGltRWdLVlZrZmNQYW1NQjlNeFFWS1Z2TExhK0s3ajZhMkZWaS8rdU90K3lLbTdGQnY2QnpZSG5Qbzk4Y0NqZWZnYWVScnB4VEk1Vi8rUXJyN2JmazVtRkN1QlhOcVRPVHFBMzZxZ0FTcmhiYW1rek8wc3FRWjdjTll3ZFE2L3RzVGRnWmtFQ0l1OGNnQ2tFRDdTcFNQaXRmZUFXYlpPZjBNdnRVbXN2cldmSHZZQlliUmZPWC9MZzd4QzR0SUZqbGxWSjIwNUQwT3RjREZSeHk1bldsVXNCc1pwT3kzZmRpSDU0aUZyZEliWDE0WXhnWVh3eWJnUkFJS0wza1hlL3BWWkh5TjJYczUyR0VucDFOMkRkbm92UjloVEhBb1RIbTQxa0NnYUl2UGNkdFRyRjVyMTUzUVdVVjZjR3ArRHVpWTRCdThrVjZEUmVGMk1Kd2U1dVRwOUIzRzNycWRVRjJRS3VleEJ6TjlYb3ZBampCZGUwVTZzN1pnbHdoUU1CMFhYZncyQ3BnVWxxc2c2bU5lMWkwMG1sZDFUN08yUkVrMWIrRTA1bzQwSDUrR1Z4UzA5dzlWZSt4VGxPaWFJS2dKVmo1am8xQTg5c1ZhOEk2RXFlb2w3eUMwKzMyZnFpaVk3RkRxc0E0WW5QWUNSZGtPaEVZaGFrWFEyS2pTZERyK3ppSDl4aVJjalNLdTcyVC9pSEcyRkxrVnA2NGJGWUdrWUZXOS9pQ1loKy9DT01CTWt3TmVIMHN3aElYYmhtNjFzOEFYTG5SUmdKa2g5cWluMTZEUDJZdDlDREQrdnBQZGxoRUFDN1cydXZvV2d3VW54N1AwMTkvZmZWUThpQ05YRmdVRGwxQlZKbEs4UFRkUGdMRXkrZkdFbWQvd2Vzc05MZ3NkajY1aERnY0RPZFg0QzBkZGI1SWpiMDBEYkpJME5naXRVZG95WndHcU9mVHI4dmx3Q254OW44QXZTQVpHYWQ4TFQ0cHJOaXVOQW1RalRFd1cvTDlOLzAyL3JPVmRnVGlzSUlBTC9CZTdpR0lKN1ZuVXkvdmZNY3BaQUNXSllRQU9zSHJMQ1dzaXR0MDAvQmUyYlhGSDRKV1ZIVmtnNWk2Y3RmYUJBajZWQldkYmhJVjhMMFR4OFJPVmMvUWdVVVBvZ1JmSDhOcjkxUFRSbHNvVHp2OVB0eUNuQUlxNEJZNVZFWUtiSDNOMnJLa0E3bDhTRCtxNDd3K2FmZlYwd0JrTVpZemsyR3FXbUd4WlhaRHFXdjU1NyttVGFrbmgxV0FlQWM1dEw1UDZybEVFRGF6TlhlSGN3Q3lpb2dLNGJCa2ovOFNVMFovdGNDL1BmV0c0b0tPUUwvVUNPMUlobUhoTWVhV1p4amFaTWZCd0lBQ0dMVHlrblBVeE9DRG9YZjNtZTkwMEQ2ZVc2Q3RxSHQwLzg2M0VBUlp3TDRsUTJHcEppNVhtc1FkQWhMOHZBRjd0WjVYcDJ6QlRnOXdoQm5Bb0RvUjlhTHBlNFgvWGZXVVN0KzU0SE5LcnJ1TUxWU3NqM0d3cDVFSUk0RndIYWtuQjZEQVpUK3E5ek50WGFyUXp6NHNBWHc5Mi9DNytQd3dzNjRVbGtvMGhKQytFZWI4RmlRZjc3RXJTakVsOTJ5b2dSeE5zSlRiWG9vWVU3bkRvRm50OUVHakFSZjJpazFuNkwxakxnWDRNTmZOd1ltVGV0WEdRM1NiS2NmMmYxM2IweDBET0NDQ2IreGx6WmdZVUVDQUhqUThLS01UdWlScExqcCtFdzZQVGZDcXBiNDduUDRrZGlRVmJHK20zSEJVQllxQUlFRVNlNFpRUm1tWWFRR3A4VE5KK0R0REphWjlUTmVlVFdjNHNLVHJlSFg5OFIzOUtzWHVVeEx1WE9ZZjZTSjNwQ2R3Z2hBQWk5c1R4NGRNdUxXU1plL0dLSWMzL2tyN0FUMEprNHBwQUNFVzE0RGN3OHpEYzlFSGZMcGdtU21JSDhTWWVLaEJ0Wlk4TVVkcmhjTXBmQUNpa3hKZ05lVUJIaE5TWURYbEFSNFRVbUExL3dMc2t3MU9tWEU2d1lBQUFBQVNVVk9SSzVDWUlJPSIgeT0iODguNjU2MyIvPjx0ZXh0IGZpbGw9IiMwMDAwMDAiIGZvbnQtZmFtaWx5PSJzYW5zLXNlcmlmIiBmb250LXNpemU9IjEyIiBsZW5ndGhBZGp1c3Q9InNwYWNpbmciIHRleHRMZW5ndGg9IjMzIiB4PSI5NDYiIHk9IjE2NCI+W1NOU108L3RleHQ+PHJlY3QgZmlsbD0iI0ZGRkZGRiIgaGVpZ2h0PSIxMzEuNTE1NiIgc3R5bGU9InN0cm9rZTojN0Q4OTk4O3N0cm9rZS13aWR0aDoxLjI1OyIgd2lkdGg9IjI1NSIgeD0iODM1IiB5PSIxOTUwLjk2MDkiLz48dGV4dCBmaWxsPSIjMDAwMDAwIiBmb250LWZhbWlseT0ic2Fucy1zZXJpZiIgZm9udC1zaXplPSIxOSIgZm9udC1zdHlsZT0iaXRhbGljIiBsZW5ndGhBZGp1c3Q9InNwYWNpbmciIHRleHRMZW5ndGg9IjI0MSIgeD0iODQyIiB5PSIxOTc1LjkyMTkiPiYjMTcxO1NpbXBsZU5vdGlmaWNhdGlvblNlcnZpY2UmIzE4Nzs8L3RleHQ+PHRleHQgZmlsbD0iIzAwMDAwMCIgZm9udC1mYW1pbHk9InNhbnMtc2VyaWYiIGZvbnQtc2l6ZT0iMTkiIGxlbmd0aEFkanVzdD0ic3BhY2luZyIgdGV4dExlbmd0aD0iMTAiIHg9Ijk1Ny41IiB5PSIxOTk2LjI1NzgiPiYjMTYwOzwvdGV4dD48aW1hZ2UgaGVpZ2h0PSI2NCIgd2lkdGg9IjY0IiB4PSI5MzAuNSIgeGxpbms6aHJlZj0iZGF0YTppbWFnZS9wbmc7YmFzZTY0LGlWQk9SdzBLR2dvQUFBQU5TVWhFVWdBQUFFQUFBQUJBQ0FJQUFBQWxDK2FKQUFBRlhVbEVRVlI0WHUyWisyOFVWUlRIK1NmS28vaUtHSjgvcU1SM2lCcWpNVEhHSHdqNmc0a2FFeVV4eGtRTkppWjlJcFlHNk1PMm9BTFJFZ0lOb0FJcTJFcWgwQkpyQUpzaVdncWxsZFpXZG5abTN6TzdPN1B6OGt6UHV0M08yVzd2VEpjZFNmYm1rMlo2ejcxenovZk9QZmVlbVYza0s2dTRvVmxFcTI0c1NnSzhwaVRBYTBvQ3ZLWWt3R3RLQXJ5bThBTDhkMndJdjlrUjMzVlc2UnRWaHprOUdEZFZYWThrdGNsdzZvOXJpVzhHb3hWSEFzOS9RVHU2bzNBQ2xsU0cxKzVYem95Ym1tNHlGTzJ2Z0ZqZjdiOW5vLzArRGltRWdLVlZrZmNQYW1NQjlNeFFWS1Z2TExhK0s3ajZhMkZWaS8rdU90K3lLbTdGQnY2QnpZSG5Qbzk4Y0NqZWZnYWVScnB4VEk1Vi8rUXJyN2JmazVtRkN1QlhOcVRPVHFBMzZxZ0FTcmhiYW1rek8wc3FRWjdjTll3ZFE2L3RzVGRnWmtFQ0l1OGNnQ2tFRDdTcFNQaXRmZUFXYlpPZjBNdnRVbXN2cldmSHZZQlliUmZPWC9MZzd4QzR0SUZqbGxWSjIwNUQwT3RjREZSeHk1bldsVXNCc1pwT3kzZmRpSDU0aUZyZEliWDE0WXhnWVh3eWJnUkFJS0wza1hlL3BWWkh5TjJYczUyR0VucDFOMkRkbm92UjloVEhBb1RIbTQxa0NnYUl2UGNkdFRyRjVyMTUzUVdVVjZjR3ArRHVpWTRCdThrVjZEUmVGMk1Kd2U1dVRwOUIzRzNycWRVRjJRS3VleEJ6TjlYb3ZBampCZGUwVTZzN1pnbHdoUU1CMFhYZncyQ3BnVWxxc2c2bU5lMWkwMG1sZDFUN08yUkVrMWIrRTA1bzQwSDUrR1Z4UzA5dzlWZSt4VGxPaWFJS2dKVmo1am8xQTg5c1ZhOEk2RXFlb2w3eUMwKzMyZnFpaVk3RkRxc0E0WW5QWUNSZGtPaEVZaGFrWFEyS2pTZERyK3ppSDl4aVJjalNLdTcyVC9pSEcyRkxrVnA2NGJGWUdrWUZXOS9pQ1loKy9DT01CTWt3TmVIMHN3aElYYmhtNjFzOEFYTG5SUmdKa2g5cWluMTZEUDJZdDlDREQrdnBQZGxoRUFDN1cydXZvV2d3VW54N1AwMTkvZmZWUThpQ05YRmdVRGwxQlZKbEs4UFRkUGdMRXkrZkdFbWQvd2Vzc05MZ3NkajY1aERnY0RPZFg0QzBkZGI1SWpiMDBEYkpJME5naXRVZG95WndHcU9mVHI4dmx3Q254OW44QXZTQVpHYWQ4TFQ0cHJOaXVOQW1RalRFd1cvTDlOLzAyL3JPVmRnVGlzSUlBTC9CZTdpR0lKN1ZuVXkvdmZNY3BaQUNXSllRQU9zSHJMQ1dzaXR0MDAvQmUyYlhGSDRKV1ZIVmtnNWk2Y3RmYUJBajZWQldkYmhJVjhMMFR4OFJPVmMvUWdVVVBvZ1JmSDhOcjkxUFRSbHNvVHp2OVB0eUNuQUlxNEJZNVZFWUtiSDNOMnJLa0E3bDhTRCtxNDd3K2FmZlYwd0JrTVpZemsyR3FXbUd4WlhaRHFXdjU1NyttVGFrbmgxV0FlQWM1dEw1UDZybEVFRGF6TlhlSGN3Q3lpb2dLNGJCa2ovOFNVMFovdGNDL1BmV0c0b0tPUUwvVUNPMUlobUhoTWVhV1p4amFaTWZCd0lBQ0dMVHlrblBVeE9DRG9YZjNtZTkwMEQ2ZVc2Q3RxSHQwLzg2M0VBUlp3TDRsUTJHcEppNVhtc1FkQWhMOHZBRjd0WjVYcDJ6QlRnOXdoQm5Bb0RvUjlhTHBlNFgvWGZXVVN0KzU0SE5LcnJ1TUxWU3NqM0d3cDVFSUk0RndIYWtuQjZEQVpUK3E5ek50WGFyUXp6NHNBWHc5Mi9DNytQd3dzNjRVbGtvMGhKQytFZWI4RmlRZjc3RXJTakVsOTJ5b2dSeE5zSlRiWG9vWVU3bkRvRm50OUVHakFSZjJpazFuNkwxakxnWDRNTmZOd1ltVGV0WEdRM1NiS2NmMmYxM2IweDBET0NDQ2IreGx6WmdZVUVDQUhqUThLS01UdWlScExqcCtFdzZQVGZDcXBiNDduUDRrZGlRVmJHK20zSEJVQllxQUlFRVNlNFpRUm1tWWFRR3A4VE5KK0R0REphWjlUTmVlVFdjNHNLVHJlSFg5OFIzOUtzWHVVeEx1WE9ZZjZTSjNwQ2R3Z2hBQWk5c1R4NGRNdUxXU1plL0dLSWMzL2tyN0FUMEprNHBwQUNFVzE0RGN3OHpEYzlFSGZMcGdtU21JSDhTWWVLaEJ0Wlk4TVVkcmhjTXBmQUNpa3hKZ05lVUJIaE5TWURYbEFSNFRVbUExL3dMc2t3MU9tWEU2d1lBQUFBQVNVVk9SSzVDWUlJPSIgeT0iMTk5OC42MzI4Ii8+PHRleHQgZmlsbD0iIzAwMDAwMCIgZm9udC1mYW1pbHk9InNhbnMtc2VyaWYiIGZvbnQtc2l6ZT0iMTIiIGxlbmd0aEFkanVzdD0ic3BhY2luZyIgdGV4dExlbmd0aD0iMzMiIHg9Ijk0NiIgeT0iMjA3My45NzY2Ij5bU05TXTwvdGV4dD48cmVjdCBmaWxsPSIjRkZGRkZGIiBoZWlnaHQ9IjEzMS41MTU2IiBzdHlsZT0ic3Ryb2tlOiM3RDg5OTg7c3Ryb2tlLXdpZHRoOjEuMjU7IiB3aWR0aD0iMjEwIiB4PSIxMTA0IiB5PSI0MC45ODQ0Ii8+PHRleHQgZmlsbD0iIzAwMDAwMCIgZm9udC1mYW1pbHk9InNhbnMtc2VyaWYiIGZvbnQtc2l6ZT0iMTkiIGZvbnQtc3R5bGU9Iml0YWxpYyIgbGVuZ3RoQWRqdXN0PSJzcGFjaW5nIiB0ZXh0TGVuZ3RoPSIxOTYiIHg9IjExMTEiIHk9IjY1Ljk0NTMiPiYjMTcxO1NpbXBsZVN0b3JhZ2VTZXJ2aWNlJiMxODc7PC90ZXh0Pjx0ZXh0IGZpbGw9IiMwMDAwMDAiIGZvbnQtZmFtaWx5PSJzYW5zLXNlcmlmIiBmb250LXNpemU9IjE5IiBsZW5ndGhBZGp1c3Q9InNwYWNpbmciIHRleHRMZW5ndGg9IjExOCIgeD0iMTE1MCIgeT0iODYuMjgxMyI+ZXhwb3J0IGJ1Y2tldDwvdGV4dD48aW1hZ2UgaGVpZ2h0PSI2NCIgd2lkdGg9IjY0IiB4PSIxMTc3IiB4bGluazpocmVmPSJkYXRhOmltYWdlL3BuZztiYXNlNjQsaVZCT1J3MEtHZ29BQUFBTlNVaEVVZ0FBQUVBQUFBQkFDQUlBQUFBbEMrYUpBQUFHY0VsRVFWUjRYdTJaNlc5VVZSakcrU3ZjOTdqSEdLS0NDaGlqMFM4dU1jWWxLbDljd0JCUVk0enJnSlN0Q2dLbEJsRlFXVnE2NzdUUTB0SkNOMmhMRnpyUVF1bStGMmluTUtYTGRKdnJyejJoYWZyT3pMMTNacEtSWkc2ZVRPNmM1NzNQZTU5N3o1enpualB6TEJHMzNOU1lKNXR1TGdRTkJCcEJBNEZHMEVDZ0VUUVFhUGhrWUhYa2JlRnBTeEtMVnVWVmI2MW9pR25zTHJ4eXJmN2FZTmVRbzM5c1lzVHBuT1NUYzFwb2h5V0dTT0s1aW11bG9CZnd4c0R2NlM5bVY0VzJYQzRaSFIvU3ZEMjRGZ1YwVUpNcGpNT0VnUTJ4RHgwcFgyc2JhSm01Q2FmbTdMVTNXcHRUY3M5c1NTcithbS9PT3p2U0ZtOUpuTDhwN3BHUXFIdDR4bnh5VGd2dHNNUVFTVHhYY2UyTVR0OUFNOHJveTZTNk1HUmdUZVR0bWVVaG8rT0RLaDlkb3JSdVgwVGUwdlV4RDhoZ2crQmFGTkJCVGNtaVR4Wnl5V0FQMERld0x2cSsxc3VsS3NlRmpwejl4OTczVi9kVlFBMU5sRlVLK2hVWlpaZzc2QnM0MDVTb1RiL2xQVmx2U05hUFFKOHM1S3BxU3BDc08rZ2JHQnNmUm5Scjh0T1M4anUycFN3a0Z4a2w1UTc2QmtaRzdZaVdOMFQvZlBCT3lmb1JhNlB1VW05N1pQU2FaTjFCMzBDWDdhenFuYjMyQm9hUnRWRjN5eGdmd1dDVmZQSnIxWDg0dW14V0dlTU8rZ1pxMmc0ak9qNHhxdFFkWTllcm01TVRpbGI2M3FtMkpqK1RXUHdGbytyTStLYXluR3RObDhIdW9HK2dxUFpQUkF0cWRzWVhybWkvVXFFeXFXTmcrRkpEZC82cEMvK2tsLzRZZmVLVDNabXYwNGxENHgvZkVQc2cvV0YxeEsxOGNrNEw3YkRFcEpmOVJIeGpkd0hYenBaQ0dYMnlhTk81NUcyNGc3NkJRNlUvSUdwdFNWVmZ0NmM4bTFieUhZL05QdFE5K3c2OE9GQkFCelUwbFRoWmFFOHIrVmJlaGp2b0d6aVEreUdpN2IyVmtxSVBST1IreE9NdnJObFYwNXJSMFZ0RnpYTjFzSFBJWVdNa21hcUZ4b2M1cDRWMldHS0lKSjZydUZZS2tvVmMrM0xlazVRNzZCc0lTMTJFNk9CSXI2VDhEcktRYTF2S0FrbTVnNzRCaGgxVnQ0UkUzeXRaUHdKOXNrdzZKOVpFM2lGWmQ5QTNBT3hEUFVpSEgzcEJVaDVncWlJQTZKT2wvM3FicER6QWtBRlZDMFhtTFpXVVMxQlh0bDBwNXhMNi9jYTRoMldBUzZEUEpTd2JKT1VCaGd4UW5DRE5DQ2dwbDZES254cGxwbzg4NnpZWjRCSVpaUmJpVDljZmxKUUhHRExBTWdycDR0cS9KT1VTc3czdyt6bmZuc1VrSU1QbW9MaDJOL0ZIS3pkS3lnTU1HVWdxL2hMcDJyWWprbklKMVlXNDljNithbGFWeWdsRFpHekJjZzgvME5yMlRNSmk4cGRKeWdNTUdmajc2RnRJZDl2T1Njb0RxSEQ0WkJvK2J0M095bGpaWVBuQ013Nk5mMHpHZC9mWEVOQm5ienFRKzRGazNjR1FBZGFFMmxTUmFKZVVRVEJFSGlyOW5uSlEyYURtcVc1S21yUEFjSXdOS0phREdkcmdjcytRQVJaTkU1Tmo2RzZNTlRxa3VBVFZFVS8zUWtjMmc3MjZVV2JvbktyUTM1S2VZckRTcGlyRkFSYkhxcmJEN2E4SlQwaVJPVEJrQVBCbUVmMGo0eFZKZVlFdFNmT1BXOE5tNmpsK0xUMzl0WnhjNmo5dm1WcldMS0M3OHJYNTBrbDU3UndZTlZEZmRSekY2UHhQSmVVMStFRlRhRkdjejk2ZXVUcllRVGxkMlJpcnZ1cHVWUmcxVUhieEFIS1o1U0dTOGgzTTJlcU9aKysxYVA1OUExa1Y2MUVzcWRzcktiK2d0RzQvK29kUHJ3NVBXeEpYOERtVFd0U0pqNDBzWW8wYWlNbi9qQVIxbmNjazVSZGM3TXpUekZRck16QnFZTmZoVjdYcFFVTlNmb0VhWWMzV2l4YmpCaGhBU2NDMEtpbmZ3ZkE2UHVGQTMyd0JhekZ1d0hKamY4WEkyR3dXbXhPZjFMeGRNNWt3b1BaWGRtZStKaWtmd1pTc3VWbTE2c0tFQWJXL0VsKzRRbEkrSXFGb3BUWnIzOEFVVEJoUSt5dk0vSkx5RWNmT2JFWTUvMnk0cEhSaHdvRGFYeW12ajVLVWo2aG9pRUU1OWRRM2t0S0ZDUU5xZjhYc2tzOEltbnRPb3J3MzUxMUo2Y0tFZ1IxcGkwbGpHMmlWbEkrZy90R21kbE1XU2tvWEpneW8vWlZKNTdqWlAxRThnNUtPNnRycG5EUlNPRWlZTUdDNXNiOWlhdU5KRjJHcHoydlRLelZKR1lFNUF4VU4wV3E4OCs1cFNmQldhMW96MEN5N0dDRlpJekJuZ0tjMTdMaXFUVmZ0TEoxWWw4Z1lnMkFWbGxXeFR2M0ROK1N3ZWZjRHNKZzFBTGFuUHRkbHMybzNqcjZCWmxhM09WVy94QllzWjBJTlMxMjBLZTdSZGRIMzg0cW9jUGprbkJiYTkyUzlTUXlSckdBWUNXWVVPbnFyWEc3MEdvUnBBd29NZVdkYjB0VGI4TzdncWJOeS96ZjdiU2x1Q2w0YVVHQ3h2elBqWlo1cmR1VW1KcmltbmlKZUNEVVpSYXRhdHZQSk9TMjBNNEdjcmo5SVpFeitzcDNwTC9ucnYxcWZEUHdmRURRUWFBUU5CQnBCQTRGRzBFQ2djZE1iK0E5ek11dXZwamxUVXdBQUFBQkpSVTVFcmtKZ2dnPT0iIHk9Ijg4LjY1NjMiLz48dGV4dCBmaWxsPSIjMDAwMDAwIiBmb250LWZhbWlseT0ic2Fucy1zZXJpZiIgZm9udC1zaXplPSIxMiIgbGVuZ3RoQWRqdXN0PSJzcGFjaW5nIiB0ZXh0TGVuZ3RoPSIyNSIgeD0iMTE5Ni41IiB5PSIxNjQiPltTM108L3RleHQ+PHJlY3QgZmlsbD0iI0ZGRkZGRiIgaGVpZ2h0PSIxMzEuNTE1NiIgc3R5bGU9InN0cm9rZTojN0Q4OTk4O3N0cm9rZS13aWR0aDoxLjI1OyIgd2lkdGg9IjIxMCIgeD0iMTEwNCIgeT0iMTk1MC45NjA5Ii8+PHRleHQgZmlsbD0iIzAwMDAwMCIgZm9udC1mYW1pbHk9InNhbnMtc2VyaWYiIGZvbnQtc2l6ZT0iMTkiIGZvbnQtc3R5bGU9Iml0YWxpYyIgbGVuZ3RoQWRqdXN0PSJzcGFjaW5nIiB0ZXh0TGVuZ3RoPSIxOTYiIHg9IjExMTEiIHk9IjE5NzUuOTIxOSI+JiMxNzE7U2ltcGxlU3RvcmFnZVNlcnZpY2UmIzE4Nzs8L3RleHQ+PHRleHQgZmlsbD0iIzAwMDAwMCIgZm9udC1mYW1pbHk9InNhbnMtc2VyaWYiIGZvbnQtc2l6ZT0iMTkiIGxlbmd0aEFkanVzdD0ic3BhY2luZyIgdGV4dExlbmd0aD0iMTE4IiB4PSIxMTUwIiB5PSIxOTk2LjI1NzgiPmV4cG9ydCBidWNrZXQ8L3RleHQ+PGltYWdlIGhlaWdodD0iNjQiIHdpZHRoPSI2NCIgeD0iMTE3NyIgeGxpbms6aHJlZj0iZGF0YTppbWFnZS9wbmc7YmFzZTY0LGlWQk9SdzBLR2dvQUFBQU5TVWhFVWdBQUFFQUFBQUJBQ0FJQUFBQWxDK2FKQUFBR2NFbEVRVlI0WHUyWjZXOVVWUmpHK1N2Yzk3akhHS0tDQ2hpajBTOHVNY1lsS2w5Y3dCQlFZNHpyZ0pTdENnS2xCbEZRV1ZxNjc3VFEwdEpDTjJoTEZ6clFRdW0rRjJpbk1LWExkSnZycnoyaGFmck96TDEzWnBLUlpHNmVUTzZjNTczUGU1OTd6NXp6bmpQekxCRzMzTlNZSjV0dUxnUU5CQnBCQTRGRzBFQ2dFVFFRYVBoa1lIWGtiZUZwU3hLTFZ1VlZiNjFvaUduc0xyeHlyZjdhWU5lUW8zOXNZc1Rwbk9TVGMxcG9oeVdHU09LNWltdWxvQmZ3eHNEdjZTOW1WNFcyWEM0WkhSL1N2RDI0RmdWMFVKTXBqTU9FZ1EyeER4MHBYMnNiYUptNUNhZm03TFUzV3B0VGNzOXNTU3IrYW0vT096dlNGbTlKbkw4cDdwR1FxSHQ0eG54eVRndnRzTVFRU1R4WGNlMk1UdDlBTThyb3k2UzZNR1JnVGVUdG1lVWhvK09ES2g5ZG9yUnVYMFRlMHZVeEQ4aGdnK0JhRk5CQlRjbWlUeFp5eVdBUDBEZXdMdnErMXN1bEtzZUZqcHo5eDk3M1YvZFZRQTFObEZVSytoVVpaWmc3NkJzNDA1U29UYi9sUFZsdlNOYVBRSjhzNUtwcVNwQ3NPK2diR0JzZlJuUnI4dE9TOGp1MnBTd2tGeGtsNVE3NkJrWkc3WWlXTjBUL2ZQQk95Zm9SYTZQdVVtOTdaUFNhWk4xQjMwQ1g3YXpxbmIzMkJvYVJ0VkYzeXhnZndXQ1ZmUEpyMVg4NHVteFdHZU1PK2dacTJnNGpPajR4cXRRZFk5ZXJtNU1UaWxiNjNxbTJKaitUV1B3Rm8rck0rS2F5bkd0Tmw4SHVvRytncVBaUFJBdHFkc1lYcm1pL1VxRXlxV05nK0ZKRGQvNnBDLytrbC80WWZlS1QzWm12MDRsRDR4L2ZFUHNnL1dGMXhLMThjazRMN2JERXBKZjlSSHhqZHdIWHpwWkNHWDJ5YU5PNTVHMjRnNzZCUTZVL0lHcHRTVlZmdDZjOG0xYnlIWS9OUHRROSt3NjhPRkJBQnpVMGxUaFphRThyK1ZiZWhqdm9HemlRK3lHaTdiMlZrcUlQUk9SK3hPTXZyTmxWMDVyUjBWdEZ6WE4xc0hQSVlXTWttYXFGeG9jNXA0VjJXR0tJSko2cnVGWUtrb1ZjKzNMZWs1UTc2QnNJUzEyRTZPQklyNlQ4RHJLUWExdktBa201Zzc0QmhoMVZ0NFJFM3l0WlB3Sjlza3c2SjlaRTNpRlpkOUEzQU94RFBVaUhIM3BCVWg1Z3FpSUE2Sk9sLzNxYnBEekFrQUZWQzBYbUxaV1VTMUJYdGwwcDV4TDYvY2E0aDJXQVM2RFBKU3diSk9VQmhneFFuQ0ROQ0NncGw2REtueHBscG84ODZ6WVo0QklaWlJiaVQ5Y2ZsSlFIR0RMQU1ncnA0dHEvSk9VU3N3M3crem5mbnNVa0lNUG1vTGgyTi9GSEt6ZEt5Z01NR1VncS9oTHAycllqa25JSjFZVzQ5YzYrYWxhVnlnbERaR3pCY2c4LzBOcjJUTUppOHBkSnlnTU1HZmo3NkZ0SWQ5dk9TY29EcUhENFpCbytidDNPeWxqWllQbkNNdzZOZjB6R2QvZlhFTkJuYnpxUSs0RmszY0dRQWRhRTJsU1JhSmVVUVRCRUhpcjlubkpRMmFEbXFXNUttclBBY0l3TktKYURHZHJnY3MrUUFSWk5FNU5qNkc2TU5UcWt1QVRWRVUvM1FrYzJnNzI2VVdib25LclEzNUtlWXJEU3BpckZBUmJIcXJiRDdhOEpUMGlST1RCa0FQQm1FZjBqNHhWSmVZRXRTZk9QVzhObTZqbCtMVDM5dFp4YzZqOXZtVnJXTEtDNzhyWDUwa2w1N1J3WU5WRGZkUnpGNlB4UEplVTErRUZUYUZHY3o5NmV1VHJZUVRsZDJSaXJ2dXB1VlJnMVVIYnhBSEtaNVNHUzhoM00yZXFPWisrMWFQNTlBMWtWNjFFc3Fkc3JLYitndEc0LytvZFBydzVQV3hKWDhEbVRXdFNKajQwc1lvMGFpTW4vakFSMW5jY2s1UmRjN016VHpGUXJNekJxWU5maFY3WHBRVU5TZm9FYVljM1dpeGJqQmhoQVNjQzBLaW5md2ZBNlB1RkEzMndCYXpGdXdISmpmOFhJMkd3V214T2YxTHhkTTVrd29QWlhkbWUrSmlrZndaU3N1Vm0xNnNLRUFiVy9FbCs0UWxJK0lxRm9wVFpyMzhBVVRCaFEreXZNL0pMeUVjZk9iRVk1LzJ5NHBIUmh3b0RhWHltdmo1S1VqNmhvaUVFNTlkUTNrdEtGQ1FOcWY4WHNrczhJbW50T29ydzM1MTFKNmNLRWdSMXBpMGxqRzJpVmxJK2cvdEdtZGxNV1Nrb1hKZ3lvL1pWSjU3alpQMUU4ZzVLTzZ0cnBuRFJTT0VpWU1HQzVzYjlpYXVOSkYyR3B6MnZUS3pWSkdZRTVBeFVOMFdxODgrNXBTZkJXYTFvejBDeTdHQ0ZaSXpCbmdLYzE3TGlxVFZmdExKMVlsOGdZZzJBVmxsV3hUdjNETitTd2VmY0RzSmcxQUxhblB0ZGxzMm8zanI2QlpsYTNPVlcveEJZc1owSU5TMTIwS2U3UmRkSDM4NHFvY1Bqa25CYmE5MlM5U1F5UnJHQVlDV1lVT25xclhHNzBHb1JwQXdvTWVXZGIwdFRiOE83Z3FiTnkvemY3YlNsdUNsNGFVR0N4dnpQalpaNXJkdVVtSnJpbW5pSmVDRFVaUmF0YXR2UEpPUzIwTTRHY3JqOUlaRXorc3AzcEwvbnJ2MXFmRFB3ZkVEUVFhQVFOQkJwQkE0RkcwRUNnY2RNYitBOXpNdXV2cGpsVFV3QUFBQUJKUlU1RXJrSmdnZz09IiB5PSIxOTk4LjYzMjgiLz48dGV4dCBmaWxsPSIjMDAwMDAwIiBmb250LWZhbWlseT0ic2Fucy1zZXJpZiIgZm9udC1zaXplPSIxMiIgbGVuZ3RoQWRqdXN0PSJzcGFjaW5nIiB0ZXh0TGVuZ3RoPSIyNSIgeD0iMTE5Ni41IiB5PSIyMDczLjk3NjYiPltTM108L3RleHQ+PHJlY3QgZmlsbD0iI0ZGRkZGRiIgaGVpZ2h0PSIxMzEuNTE1NiIgc3R5bGU9InN0cm9rZTojN0Q4OTk4O3N0cm9rZS13aWR0aDoxLjI1OyIgd2lkdGg9IjIxMCIgeD0iMTMyOCIgeT0iNDAuOTg0NCIvPjx0ZXh0IGZpbGw9IiMwMDAwMDAiIGZvbnQtZmFtaWx5PSJzYW5zLXNlcmlmIiBmb250LXNpemU9IjE5IiBmb250LXN0eWxlPSJpdGFsaWMiIGxlbmd0aEFkanVzdD0ic3BhY2luZyIgdGV4dExlbmd0aD0iMTk2IiB4PSIxMzM1IiB5PSI2NS45NDUzIj4mIzE3MTtTaW1wbGVTdG9yYWdlU2VydmljZSYjMTg3OzwvdGV4dD48dGV4dCBmaWxsPSIjMDAwMDAwIiBmb250LWZhbWlseT0ic2Fucy1zZXJpZiIgZm9udC1zaXplPSIxOSIgbGVuZ3RoQWRqdXN0PSJzcGFjaW5nIiB0ZXh0TGVuZ3RoPSIxMjciIHg9IjEzNjkuNSIgeT0iODYuMjgxMyI+bGFuZGluZyBidWNrZXQ8L3RleHQ+PGltYWdlIGhlaWdodD0iNjQiIHdpZHRoPSI2NCIgeD0iMTQwMSIgeGxpbms6aHJlZj0iZGF0YTppbWFnZS9wbmc7YmFzZTY0LGlWQk9SdzBLR2dvQUFBQU5TVWhFVWdBQUFFQUFBQUJBQ0FJQUFBQWxDK2FKQUFBR2NFbEVRVlI0WHUyWjZXOVVWUmpHK1N2Yzk3akhHS0tDQ2hpajBTOHVNY1lsS2w5Y3dCQlFZNHpyZ0pTdENnS2xCbEZRV1ZxNjc3VFEwdEpDTjJoTEZ6clFRdW0rRjJpbk1LWExkSnZycnoyaGFmck96TDEzWnBLUlpHNmVUTzZjNTczUGU1OTd6NXp6bmpQekxCRzMzTlNZSjV0dUxnUU5CQnBCQTRGRzBFQ2dFVFFRYVBoa1lIWGtiZUZwU3hLTFZ1VlZiNjFvaUduc0xyeHlyZjdhWU5lUW8zOXNZc1Rwbk9TVGMxcG9oeVdHU09LNWltdWxvQmZ3eHNEdjZTOW1WNFcyWEM0WkhSL1N2RDI0RmdWMFVKTXBqTU9FZ1EyeER4MHBYMnNiYUptNUNhZm03TFUzV3B0VGNzOXNTU3IrYW0vT096dlNGbTlKbkw4cDdwR1FxSHQ0eG54eVRndnRzTVFRU1R4WGNlMk1UdDlBTThyb3k2UzZNR1JnVGVUdG1lVWhvK09ES2g5ZG9yUnVYMFRlMHZVeEQ4aGdnK0JhRk5CQlRjbWlUeFp5eVdBUDBEZXdMdnErMXN1bEtzZUZqcHo5eDk3M1YvZFZRQTFObEZVSytoVVpaWmc3NkJzNDA1U29UYi9sUFZsdlNOYVBRSjhzNUtwcVNwQ3NPK2diR0JzZlJuUnI4dE9TOGp1MnBTd2tGeGtsNVE3NkJrWkc3WWlXTjBUL2ZQQk95Zm9SYTZQdVVtOTdaUFNhWk4xQjMwQ1g3YXpxbmIzMkJvYVJ0VkYzeXhnZndXQ1ZmUEpyMVg4NHVteFdHZU1PK2dacTJnNGpPajR4cXRRZFk5ZXJtNU1UaWxiNjNxbTJKaitUV1B3Rm8rck0rS2F5bkd0Tmw4SHVvRytncVBaUFJBdHFkc1lYcm1pL1VxRXlxV05nK0ZKRGQvNnBDLytrbC80WWZlS1QzWm12MDRsRDR4L2ZFUHNnL1dGMXhLMThjazRMN2JERXBKZjlSSHhqZHdIWHpwWkNHWDJ5YU5PNTVHMjRnNzZCUTZVL0lHcHRTVlZmdDZjOG0xYnlIWS9OUHRROSt3NjhPRkJBQnpVMGxUaFphRThyK1ZiZWhqdm9HemlRK3lHaTdiMlZrcUlQUk9SK3hPTXZyTmxWMDVyUjBWdEZ6WE4xc0hQSVlXTWttYXFGeG9jNXA0VjJXR0tJSko2cnVGWUtrb1ZjKzNMZWs1UTc2QnNJUzEyRTZPQklyNlQ4RHJLUWExdktBa201Zzc0QmhoMVZ0NFJFM3l0WlB3Sjlza3c2SjlaRTNpRlpkOUEzQU94RFBVaUhIM3BCVWg1Z3FpSUE2Sk9sLzNxYnBEekFrQUZWQzBYbUxaV1VTMUJYdGwwcDV4TDYvY2E0aDJXQVM2RFBKU3diSk9VQmhneFFuQ0ROQ0NncGw2REtueHBscG84ODZ6WVo0QklaWlJiaVQ5Y2ZsSlFIR0RMQU1ncnA0dHEvSk9VU3N3M3crem5mbnNVa0lNUG1vTGgyTi9GSEt6ZEt5Z01NR1VncS9oTHAycllqa25JSjFZVzQ5YzYrYWxhVnlnbERaR3pCY2c4LzBOcjJUTUppOHBkSnlnTU1HZmo3NkZ0SWQ5dk9TY29EcUhENFpCbytidDNPeWxqWllQbkNNdzZOZjB6R2QvZlhFTkJuYnpxUSs0RmszY0dRQWRhRTJsU1JhSmVVUVRCRUhpcjlubkpRMmFEbXFXNUttclBBY0l3TktKYURHZHJnY3MrUUFSWk5FNU5qNkc2TU5UcWt1QVRWRVUvM1FrYzJnNzI2VVdib25LclEzNUtlWXJEU3BpckZBUmJIcXJiRDdhOEpUMGlST1RCa0FQQm1FZjBqNHhWSmVZRXRTZk9QVzhObTZqbCtMVDM5dFp4YzZqOXZtVnJXTEtDNzhyWDUwa2w1N1J3WU5WRGZkUnpGNlB4UEplVTErRUZUYUZHY3o5NmV1VHJZUVRsZDJSaXJ2dXB1VlJnMVVIYnhBSEtaNVNHUzhoM00yZXFPWisrMWFQNTlBMWtWNjFFc3Fkc3JLYitndEc0LytvZFBydzVQV3hKWDhEbVRXdFNKajQwc1lvMGFpTW4vakFSMW5jY2s1UmRjN016VHpGUXJNekJxWU5maFY3WHBRVU5TZm9FYVljM1dpeGJqQmhoQVNjQzBLaW5md2ZBNlB1RkEzMndCYXpGdXdISmpmOFhJMkd3V214T2YxTHhkTTVrd29QWlhkbWUrSmlrZndaU3N1Vm0xNnNLRUFiVy9FbCs0UWxJK0lxRm9wVFpyMzhBVVRCaFEreXZNL0pMeUVjZk9iRVk1LzJ5NHBIUmh3b0RhWHltdmo1S1VqNmhvaUVFNTlkUTNrdEtGQ1FOcWY4WHNrczhJbW50T29ydzM1MTFKNmNLRWdSMXBpMGxqRzJpVmxJK2cvdEdtZGxNV1Nrb1hKZ3lvL1pWSjU3alpQMUU4ZzVLTzZ0cnBuRFJTT0VpWU1HQzVzYjlpYXVOSkYyR3B6MnZUS3pWSkdZRTVBeFVOMFdxODgrNXBTZkJXYTFvejBDeTdHQ0ZaSXpCbmdLYzE3TGlxVFZmdExKMVlsOGdZZzJBVmxsV3hUdjNETitTd2VmY0RzSmcxQUxhblB0ZGxzMm8zanI2QlpsYTNPVlcveEJZc1owSU5TMTIwS2U3UmRkSDM4NHFvY1Bqa25CYmE5MlM5U1F5UnJHQVlDV1lVT25xclhHNzBHb1JwQXdvTWVXZGIwdFRiOE83Z3FiTnkvemY3YlNsdUNsNGFVR0N4dnpQalpaNXJkdVVtSnJpbW5pSmVDRFVaUmF0YXR2UEpPUzIwTTRHY3JqOUlaRXorc3AzcEwvbnJ2MXFmRFB3ZkVEUVFhQVFOQkJwQkE0RkcwRUNnY2RNYitBOXpNdXV2cGpsVFV3QUFBQUJKUlU1RXJrSmdnZz09IiB5PSI4OC42NTYzIi8+PHRleHQgZmlsbD0iIzAwMDAwMCIgZm9udC1mYW1pbHk9InNhbnMtc2VyaWYiIGZvbnQtc2l6ZT0iMTIiIGxlbmd0aEFkanVzdD0ic3BhY2luZyIgdGV4dExlbmd0aD0iMjUiIHg9IjE0MjAuNSIgeT0iMTY0Ij5bUzNdPC90ZXh0PjxyZWN0IGZpbGw9IiNGRkZGRkYiIGhlaWdodD0iMTMxLjUxNTYiIHN0eWxlPSJzdHJva2U6IzdEODk5ODtzdHJva2Utd2lkdGg6MS4yNTsiIHdpZHRoPSIyMTAiIHg9IjEzMjgiIHk9IjE5NTAuOTYwOSIvPjx0ZXh0IGZpbGw9IiMwMDAwMDAiIGZvbnQtZmFtaWx5PSJzYW5zLXNlcmlmIiBmb250LXNpemU9IjE5IiBmb250LXN0eWxlPSJpdGFsaWMiIGxlbmd0aEFkanVzdD0ic3BhY2luZyIgdGV4dExlbmd0aD0iMTk2IiB4PSIxMzM1IiB5PSIxOTc1LjkyMTkiPiYjMTcxO1NpbXBsZVN0b3JhZ2VTZXJ2aWNlJiMxODc7PC90ZXh0Pjx0ZXh0IGZpbGw9IiMwMDAwMDAiIGZvbnQtZmFtaWx5PSJzYW5zLXNlcmlmIiBmb250LXNpemU9IjE5IiBsZW5ndGhBZGp1c3Q9InNwYWNpbmciIHRleHRMZW5ndGg9IjEyNyIgeD0iMTM2OS41IiB5PSIxOTk2LjI1NzgiPmxhbmRpbmcgYnVja2V0PC90ZXh0PjxpbWFnZSBoZWlnaHQ9IjY0IiB3aWR0aD0iNjQiIHg9IjE0MDEiIHhsaW5rOmhyZWY9ImRhdGE6aW1hZ2UvcG5nO2Jhc2U2NCxpVkJPUncwS0dnb0FBQUFOU1VoRVVnQUFBRUFBQUFCQUNBSUFBQUFsQythSkFBQUdjRWxFUVZSNFh1Mlo2VzlVVlJqRytTdmM5N2pIR0tLQ0NoaWowUzh1TWNZbEtsOWN3QkJRWTR6cmdKU3RDZ0tsQmxGUVdWcTY3N1RRMHRKQ04yaExGenJRUXVtK0YyaW5NS1hMZEp2cnJ6MmhhZnJPekwxM1pwS1JaRzZlVE82YzU3M1BlNTk3ejV6em5qUHpMQkczM05TWUo1dHVMZ1FOQkJwQkE0RkcwRUNnRVRRUWFQaGtZSFhrYmVGcFN4S0xWdVZWYjYxb2lHbnNMcnh5cmY3YVlOZVFvMzlzWXNUcG5PU1RjMXBvaHlXR1NPSzVpbXVsb0Jmd3hzRHY2UzltVjRXMlhDNFpIUi9TdkQyNEZnVjBVSk1wak1PRWdRMnhEeDBwWDJzYmFKbTVDYWZtN0xVM1dwdFRjczlzU1NyK2FtL09PenZTRm05Sm5MOHA3cEdRcUh0NHhueHlUZ3Z0c01RUVNUeFhjZTJNVHQ5QU04cm95NlM2TUdSZ1RlVHRtZVVobytPREtoOWRvclJ1WDBUZTB2VXhEOGhnZytCYUZOQkJUY21pVHhaeXlXQVAwRGV3THZxKzFzdWxLc2VGanB6OXg5NzNWL2RWUUExTmxGVUsraFVaWlpnNzZCczQwNVNvVGIvbFBWbHZTTmFQUUo4czVLcHFTcENzTytnYkdCc2ZSblJyOHRPUzhqdTJwU3drRnhrbDVRNzZCa1pHN1lpV04wVC9mUEJPeWZvUmE2UHVVbTk3WlBTYVpOMUIzMENYN2F6cW5iMzJCb2FSdFZGM3l4Z2Z3V0NWZlBKcjFYODR1bXhXR2VNTytnWnEyZzRqT2o0eHF0UWRZOWVybTVNVGlsYjYzcW0ySmorVFdQd0ZvK3JNK0theW5HdE5sOEh1b0crZ3FQWlBSQXRxZHNZWHJtaS9VcUV5cVdOZytGSkRkLzZwQy8ra2wvNFlmZUtUM1ptdjA0bEQ0eC9mRVBzZy9XRjF4SzE4Y2s0TDdiREVwSmY5Ukh4amR3SFh6cFpDR1gyeWFOTzU1RzI0Zzc2QlE2VS9JR3B0U1ZWZnQ2YzhtMWJ5SFkvTlB0UTkrdzY4T0ZCQUJ6VTBsVGhaYUU4citWYmVoanZvR3ppUSt5R2k3YjJWa3FJUFJPUit4T012ck5sVjA1clIwVnRGelhOMXNIUElZV01rbWFxRnhvYzVwNFYyV0dLSUpKNnJ1RllLa29WYyszTGVrNVE3NkJzSVMxMkU2T0JJcjZUOERyS1FhMXZLQWttNWc3NEJoaDFWdDRSRTN5dFpQd0o5c2t3Nko5WkUzaUZaZDlBM0FPeERQVWlISDNwQlVoNWdxaUlBNkpPbC8zcWJwRHpBa0FGVkMwWG1MWldVUzFCWHRsMHA1eEw2L2NhNGgyV0FTNkRQSlN3YkpPVUJoZ3hRbkNETkNDZ3BsNkRLbnhwbHBvODg2ellaNEJJWlpSYmlUOWNmbEpRSEdETEFNZ3JwNHRxL0pPVVNzdzN3K3puZm5zVWtJTVBtb0xoMk4vRkhLemRLeWdNTUdVZ3EvaExwMnJZamtuSUoxWVc0OWM2K2FsYVZ5Z2xEWkd6QmNnOC8wTnIyVE1KaThwZEp5Z01NR2ZqNzZGdElkOXZPU2NvRHFIRDRaQm8rYnQzT3lsalpZUG5DTXc2TmYwekdkL2ZYRU5CbmJ6cVErNEZrM2NHUUFkYUUybFNSYUplVVFUQkVIaXI5bm5KUTJhRG1xVzVLbXJQQWNJd05LSmFER2RyZ2NzK1FBUlpORTVOajZHNk1OVHFrdUFUVkVVLzNRa2MyZzcyNlVXYm9uS3JRMzVLZVlyRFNwaXJGQVJiSHFyYkQ3YThKVDBpUk9UQmtBUEJtRWYwajR4VkplWUV0U2ZPUFc4Tm02amwrTFQzOXRaeGM2ajl2bVZyV0xLQzc4clg1MGtsNTdSd1lOVkRmZFJ6RjZQeFBKZVUxK0VGVGFGR2N6OTZldVRyWVFUbGQyUmlydnVwdVZSZzFVSGJ4QUhLWjVTR1M4aDNNMmVxT1orKzFhUDU5QTFrVjYxRXNxZHNyS2IrZ3RHNC8rb2RQcnc1UFd4Slg4RG1UV3RTSmo0MHNZbzBhaU1uL2pBUjFuY2NrNVJkYzdNelR6RlFyTXpCcVlOZmhWN1hwUVVOU2ZvRWFZYzNXaXhiakJoaEFTY0MwS2luZndmQTZQdUZBMzJ3QmF6RnV3SEpqZjhYSTJHd1dteE9mMUx4ZE01a3dvUFpYZG1lK0ppa2Z3WlNzdVZtMTZzS0VBYlcvRWwrNFFsSStJcUZvcFRacjM4QVVUQmhRK3l2TS9KTHlFY2ZPYkVZNS8yeTRwSFJod29EYVh5bXZqNUtVajZob2lFRTU5ZFEza3RLRkNRTnFmOFhza3M4SW1udE9vcnczNTExSjZjS0VnUjFwaTBsakcyaVZsSStnL3RHbWRsTVdTa29YSmd5by9aVko1N2paUDFFOGc1S082dHJwbkRSU09FaVlNR0M1c2I5aWF1TkpGMkdwejJ2VEt6VkpHWUU1QXhVTjBXcTg4KzVwU2ZCV2Exb3owQ3k3R0NGWkl6Qm5nS2MxN0xpcVRWZnRMSjFZbDhnWWcyQVZsbFd4VHYzRE4rU3dlZmNEc0pnMUFMYW5QdGRsczJvM2pyNkJabGEzT1ZXL3hCWXNaMElOUzEyMEtlN1JkZEgzODRxb2NQamtuQmJhOTJTOVNReVJyR0FZQ1dZVU9ucXJYRzcwR29ScEF3b01lV2RiMHRUYjhPN2dxYk55L3pmN2JTbHVDbDRhVUdDeHZ6UGpaWjVyZHVVbUpyaW1uaUplQ0RVWlJhdGF0dlBKT1MyME00R2NyajlJWkV6K3NwM3BML25ydjFxZkRQd2ZFRFFRYUFRTkJCcEJBNEZHMEVDZ2NkTWIrQTl6TXV1dnBqbFRVd0FBQUFCSlJVNUVya0pnZ2c9PSIgeT0iMTk5OC42MzI4Ii8+PHRleHQgZmlsbD0iIzAwMDAwMCIgZm9udC1mYW1pbHk9InNhbnMtc2VyaWYiIGZvbnQtc2l6ZT0iMTIiIGxlbmd0aEFkanVzdD0ic3BhY2luZyIgdGV4dExlbmd0aD0iMjUiIHg9IjE0MjAuNSIgeT0iMjA3My45NzY2Ij5bUzNdPC90ZXh0PjxyZWN0IGZpbGw9IiNGRkZGRkYiIGhlaWdodD0iMTMxLjUxNTYiIHN0eWxlPSJzdHJva2U6IzdEODk5ODtzdHJva2Utd2lkdGg6MS4yNTsiIHdpZHRoPSIxNDkiIHg9IjE1NTIiIHk9IjQwLjk4NDQiLz48dGV4dCBmaWxsPSIjMDAwMDAwIiBmb250LWZhbWlseT0ic2Fucy1zZXJpZiIgZm9udC1zaXplPSIxOSIgZm9udC1zdHlsZT0iaXRhbGljIiBsZW5ndGhBZGp1c3Q9InNwYWNpbmciIHRleHRMZW5ndGg9IjcwIiB4PSIxNTkxLjUiIHk9IjY1Ljk0NTMiPiYjMTcxO0xhbWJkYSYjMTg3OzwvdGV4dD48dGV4dCBmaWxsPSIjMDAwMDAwIiBmb250LWZhbWlseT0ic2Fucy1zZXJpZiIgZm9udC1zaXplPSIxOSIgbGVuZ3RoQWRqdXN0PSJzcGFjaW5nIiB0ZXh0TGVuZ3RoPSIxMzUiIHg9IjE1NTkiIHk9Ijg2LjI4MTMiPmRkcHMtQWRkVG9RdWV1ZTwvdGV4dD48aW1hZ2UgaGVpZ2h0PSI2NCIgd2lkdGg9IjY0IiB4PSIxNTk0LjUiIHhsaW5rOmhyZWY9ImRhdGE6aW1hZ2UvcG5nO2Jhc2U2NCxpVkJPUncwS0dnb0FBQUFOU1VoRVVnQUFBRUFBQUFCQUNBSUFBQUFsQythSkFBQUZtVWxFUVZSNFh0V1pXMndVVlJqSEFSVzhFSTIzZUZjMHhuaUpDY1lIWStJbFhoNjh2SWd2bUhoNzBCZnd3VkJhMm1xaDBxSldyTEZBS1ZFaldHd0pwQkJJV2tFd1lFcEZrYmJCZ0ZiUUFpMFNLYVV6ZTcvTXp1Nk0zN2RuZHBoKzMzYjM3TTQ4T0pQZnkvLzh6NXc5Mzh5Wk9mOXBweW1McHZrYXFuMEgxYjZEYXQ5QnRlK2cybmRRN1R1bzloMVUrdzZxZlFmVmtpVDJyeklOdzVRNERDMGFibnVHaitBVlZFdVNQdjgzbmVuVWh6N3lDeC9CSzZpV1JCUVFXSEVYdDV5b1N5NHpJdVBRTTdUbWNlNTZBdFdTU0JZQXhIY3RnNTZwUDdxNTVRbFVTNUtaR01ZQ0d1L2tGa0d0dTliUVl2REFCRDk1Z0x2dW9Wb1MrUUlVOGNTYlp2TFFOOXh5RDlXU2xGUkFvSEdPbWRITmRDcnd3UzNjZFFuVmtwUlVBS0FOZGtML3hJL04zSElKMVpMa0NwakRyYndFbStkQ2Z5TVpWbXV2NHE0YnFKWWtNM0ZDdk9QSm9aL3VWeXBuOHY1QTZ0aHU2QkRycWVHV0c2aVdKTkczaHM0OWQwUTN2OFg3QTdBZmc1c0puMVdxWm5HM2JLaDJRMlRqS3pERjlMay9sWXJwM0FYMGZ3YXd3aTF2YzZ0c3FIYkY0b3N5eWttWVltVDlTOVRLRW1tZm42M3dtRkl4Zzd2bFFiVkxvbHNYd2hUMVV6OXpDNEVLc3c5UFpQMDhhcFVMMVM3QjhCTTlEMU1NdFQ3QlhjV3UwTHQ0UjdWNzRydVdtaGgrZXJpbE9DdjBLTjVSN1I3MS9XdmdHNkJBK1BFMjNsRmRCbXJOYkgyNE43Nm4wVzVKOUxiQUZKUDk3Ynd6OXJmalhkUDkzQzBWcXNzZzFyMEUzLytaZFBERHUwVkxvT0VPSy93c3Y0MzNWekRlcmNZS0QyM2dWcWxRWFNwcTFhV3dOMkVCTUtHRFg5dnQyc0MzMEpMby9aeWZvbmdhNzZndWxXalhBcGhvZXZ3NDNBR2NVTVB0b2oyNDhrRVR3MDlFZmU5cWZwYUM4VzRUVnJqdlUyNlZCTldsc2ZqaTNNNDFMOW0vRVNmVTEycTdxYUh2b0NXK3M0NmVsY1dyZUVkMVNVUTZYc1BMUHpZRTJTSFlkSjlwWkF3OUVWaDJvM0JEclUvaW94RTVCOHVNbjZ0NEZPK29Mb0dLNmVtenY4TU1vcDF2aUJidHR5NnlLdlRSWDdGRDF3SjZiaFpQNGgzVjhrRGd3WjlYUjJBaGlaYmNxb2pBVm1EMTJmQXk5cGtZaGhEQlIxQXczZzFpaFM3aUhkWHlXRmQzNjBKbkkyekF1TzUzTjFndEZUUHcrWWFIcEgwK0gwR1pGTy95QjlpaVVDMUo3dTZQa2ZVZFd2VW8zb1I0UUsyOVVyVEExWVVXQ05KOEVPUkN2TXNmWUl0Q3RTU3B2L2JDcjhhNnE2ZXk0ajIxVmt2VkxMRlJoTmM5eXpzRHNXM3ZZSVZUQmRoaVVDMURxT1VSY3BtZGhOYytoVzVrWEsyK1hMUkFuZENTT3I2SGQxYWM4VzcxWTl3dEN0VXlhRWQzNERYK1lRVzNCUHJJUVZ3VkhhOEtDVzk2SXhHQ2xtRHpRN3d6RVArK0hpc3NLOTVSWFJUSW1KRERJSTJwZGRkeEY2bThKS09PNHByNTRqbTdNYkZ2SmJSb2h6ZlR6bG5jeER1cWk2SU5kSmdZY2xxNEpZaHVlaE02cFA4OTZueXhCT3B2TnRNYXhJMnAvcFJVZHJ5anVqRHc4MWJtV1g0cmR4SFkzY2FHbk92SEJxSWVUdkdudGZTVUxObDRseDI1eEhoSGRXR1NCOWJoSkJ5cGsyRHRic29wZTNlekNYNThMNjY5VkZ4ZGVqMC9VY25GTytjQmFZcDNJMUJkZ0VEOVRhYWVoTUFUL09nZTdncnk3bTQyMnBIdHBuT2Jtd3c4QUVaMGd0VEF1eEdvTGtEdVFkekNMVUc0N1dtellIcXp0cm1Zb2xaZndWMENYQ2t2QzRCWUQ5SFh4RmZoWE80SzRFMXZPcmV3Zk9nbjlrT2YyUFozdVVYd3VBRHJTM3hvSjdjRW9jOGV4cXViQ0JYTzkrR3ZYc1M3cEk3eWg0VGdaUUZ3eDhYcUxMQlpXbGw2YnhPM0puRWhoTDlPcmNsNFdVQnN4eUlZU3ovWnh5MEJQTmE1cjVrYnVFdUE3d2NUTjRvajNITGlYUUdWTXpQQk16QlcrTXZucVpYRGVzY2ZhT05XSG1DckRwek9EdmdDdFJ4NFZvREl3K2t6aDdrbGdLM0gybVVsL21rcHNHN3BjQyszYkR3ckFMNDJUSWxERyt6azUwNkZXalBiaUt0MGlId0hQNWRBTlFldUV4MlZIWkNIWWFQbDV4WUEzcVQ0cDZHQ2g4Yzc4ZjhUcW4wSDFiNkRhdDlCdGUrZzJuZFE3VHVvOWgxVSt3NnFmY2Qvc1RWS0d3OC9ZUFVBQUFBQVNVVk9SSzVDWUlJPSIgeT0iODguNjU2MyIvPjx0ZXh0IGZpbGw9IiMwMDAwMDAiIGZvbnQtZmFtaWx5PSJzYW5zLXNlcmlmIiBmb250LXNpemU9IjEyIiBsZW5ndGhBZGp1c3Q9InNwYWNpbmciIHRleHRMZW5ndGg9IjY0IiB4PSIxNTk0LjUiIHk9IjE2NCI+W0Z1bmN0aW9uXTwvdGV4dD48cmVjdCBmaWxsPSIjRkZGRkZGIiBoZWlnaHQ9IjEzMS41MTU2IiBzdHlsZT0ic3Ryb2tlOiM3RDg5OTg7c3Ryb2tlLXdpZHRoOjEuMjU7IiB3aWR0aD0iMTQ5IiB4PSIxNTUyIiB5PSIxOTUwLjk2MDkiLz48dGV4dCBmaWxsPSIjMDAwMDAwIiBmb250LWZhbWlseT0ic2Fucy1zZXJpZiIgZm9udC1zaXplPSIxOSIgZm9udC1zdHlsZT0iaXRhbGljIiBsZW5ndGhBZGp1c3Q9InNwYWNpbmciIHRleHRMZW5ndGg9IjcwIiB4PSIxNTkxLjUiIHk9IjE5NzUuOTIxOSI+JiMxNzE7TGFtYmRhJiMxODc7PC90ZXh0Pjx0ZXh0IGZpbGw9IiMwMDAwMDAiIGZvbnQtZmFtaWx5PSJzYW5zLXNlcmlmIiBmb250LXNpemU9IjE5IiBsZW5ndGhBZGp1c3Q9InNwYWNpbmciIHRleHRMZW5ndGg9IjEzNSIgeD0iMTU1OSIgeT0iMTk5Ni4yNTc4Ij5kZHBzLUFkZFRvUXVldWU8L3RleHQ+PGltYWdlIGhlaWdodD0iNjQiIHdpZHRoPSI2NCIgeD0iMTU5NC41IiB4bGluazpocmVmPSJkYXRhOmltYWdlL3BuZztiYXNlNjQsaVZCT1J3MEtHZ29BQUFBTlNVaEVVZ0FBQUVBQUFBQkFDQUlBQUFBbEMrYUpBQUFGbVVsRVFWUjRYdFdaVzJ3VVZSakhBUlc4RUkyM2VGYzB4bmlKQ2NZSFkrSWxYaDY4dklndm1IaDcwQmZ3d1ZCYTJtcWgwcUpXckxGQUtWRWpXR3dKcEJCSVdrRXdZRXBGa2JiQmdGYlFBaTBTS2FVemU3L016dTZNMzdkbmRwaCszM2IzN000OE9KUGZ5Ly84ejV3OTM4eVpPZjlwcHltTHB2a2FxbjBIMWI2RGF0OUJ0ZStnMm5kUTdUdW85aDFVK3c2cWZRZlZraVQycnpJTnc1UTREQzBhYm51R2orQVZWRXVTUHY4M25lblVoejd5Q3gvQks2aVdSQlFRV0hFWHQ1eW9TeTR6SXVQUU03VG1jZTU2QXRXU1NCWUF4SGN0ZzU2cFA3cTU1UWxVUzVLWkdNWUNHdS9rRmtHdHU5YlFZdkRBQkQ5NWdMdnVvVm9TK1FJVThjU2JadkxRTjl4eUQ5V1NsRlJBb0hHT21kSE5kQ3J3d1MzY2RRblZrcFJVQUtBTmRrTC94SS9OM0hJSjFaTGtDcGpEcmJ3RW0rZENmeU1aVm11djRxNGJxSllrTTNGQ3ZPUEpvWi91Vnlwbjh2NUE2dGh1NkJEcnFlR1dHNmlXSk5HM2hzNDlkMFEzdjhYN0E3QWZnNXNKbjFXcVpuRzNiS2gyUTJUakt6REY5TGsvbFlycDNBWDBmd2F3d2kxdmM2dHNxSGJGNG9zeXlrbVlZbVQ5UzlUS0VtbWZuNjN3bUZJeGc3dmxRYlZMb2xzWHdoVDFVejl6QzRFS3N3OVBaUDA4YXBVTDFTN0I4Qk05RDFNTXRUN0JYY1d1MEx0NFI3Vjc0cnVXbWhoK2VyaWxPQ3YwS041UjdSNzEvV3ZnRzZCQStQRTIzbEZkQm1yTmJIMjRONzZuMFc1SjlMYkFGSlA5N2J3ejlyZmpYZFA5M0MwVnFzc2cxcjBFMy8rWmRQRER1MFZMb09FT0svd3N2NDMzVnpEZXJjWUtEMjNnVnFsUVhTcHExYVd3TjJFQk1LR0RYOXZ0MnNDMzBKTG8vWnlmb25nYTc2Z3VsV2pYQXBob2V2dzQzQUdjVU1QdG9qMjQ4a0VUdzA5RWZlOXFmcGFDOFc0VFZyanZVMjZWQk5XbHNmamkzTTQxTDltL0VTZlUxMnE3cWFIdm9DVytzNDZlbGNXcmVFZDFTVVE2WHNQTFB6WUUyU0hZZEo5cFpBdzlFVmgybzNCRHJVL2lveEU1Qjh1TW42dDRGTytvTG9HSzZlbXp2OE1Nb3AxdmlCYnR0eTZ5S3ZUUlg3RkQxd0o2YmhaUDRoM1Y4a0Rnd1o5WFIyQWhpWmJjcW9qQVZtRDEyZkF5OXBrWWhoREJSMUF3M2cxaWhTN2lIZFh5V0ZkMzYwSm5JMnpBdU81M04xZ3RGVFB3K1lhSHBIMCtIMEdaRk8veUI5aWlVQzFKN3U2UGtmVWRXdlVvM29SNFFLMjlVclRBMVlVV0NOSjhFT1JDdk1zZllJdEN0U1Nwdi9iQ3I4YTZxNmV5NGoyMVZrdlZMTEZSaE5jOXl6c0RzVzN2WUlWVEJkaGlVQzFEcU9VUmNwbWRoTmMraFc1a1hLMitYTFJBbmRDU09yNkhkMWFjOFc3MVk5d3RDdFV5YUVkMzREWCtZUVczQlBySVFWd1ZIYThLQ1c5Nkl4R0NsbUR6UTd3ekVQKytIaXNzSzk1UlhSVEltSkRESUkycGRkZHhGNm04SktPTzRwcjU0am03TWJGdkpiUm9oemZUemxuY3hEdXFpNklOZEpnWWNscTRKWWh1ZWhNNnBQODk2bnl4Qk9wdk50TWF4STJwL3BSVWRyeWp1akR3ODFibVdYNHJkeEhZM2NhR25PdkhCcUllVHZHbnRmU1VMTmw0bHgyNXhIaEhkV0dTQjliaEpCeXBrMkR0YnNvcGUzZXpDWDU4TDY2OVZGeGRlajAvVWNuRk8rY0JhWXAzSTFCZGdFRDlUYWFlaE1BVC9PZ2U3Z3J5N200MjJwSHRwbk9ibXd3OEFFWjBndFRBdXhHb0xrRHVRZHpDTFVHNDdXbXpZSHF6dHJtWW9sWmZ3VjBDWENrdkM0QllEOUhYeEZmaFhPNEs0RTF2T3Jld2ZPZ245a09mMlBaM3VVWHd1QURyUzN4b0o3Y0VvYzhleHF1YkNCWE85K0d2WHNTN3BJN3loNFRnWlFGd3g4WHFMTEJaV2xsNmJ4TzNKbkVoaEw5T3JjbDRXVUJzeHlJWVN6L1p4eTBCUE5hNXI1a2J1RXVBN3djVE40b2ozSExpWFFHVk16UEJNekJXK012bnFaWERlc2NmYU9OV0htQ3JEcHpPRHZnQ3RSeDRWb0RJdytremg3a2xnSzNIMm1VbC9ta3BzRzdwY0MrM2JEd3JBTDQyVElsREcrems1MDZGV2pQYmlLdDBpSHdIUDVkQU5RZXVFeDJWSFpDSFlhUGw1eFlBM3FUNHA2R0NoOGM3OGY4VHFuMEgxYjZEYXQ5QnRlK2cybmRRN1R1bzloMVUrdzZxZmNkL3NUVktHdzgvWVBVQUFBQUFTVVZPUks1Q1lJST0iIHk9IjE5OTguNjMyOCIvPjx0ZXh0IGZpbGw9IiMwMDAwMDAiIGZvbnQtZmFtaWx5PSJzYW5zLXNlcmlmIiBmb250LXNpemU9IjEyIiBsZW5ndGhBZGp1c3Q9InNwYWNpbmciIHRleHRMZW5ndGg9IjY0IiB4PSIxNTk0LjUiIHk9IjIwNzMuOTc2NiI+W0Z1bmN0aW9uXTwvdGV4dD48cmVjdCBmaWxsPSIjRkZGRkZGIiBoZWlnaHQ9IjEzMS41MTU2IiBzdHlsZT0ic3Ryb2tlOiM3RDg5OTg7c3Ryb2tlLXdpZHRoOjEuMjU7IiB3aWR0aD0iMTkyIiB4PSIxNzE1IiB5PSI0MC45ODQ0Ii8+PHRleHQgZmlsbD0iIzAwMDAwMCIgZm9udC1mYW1pbHk9InNhbnMtc2VyaWYiIGZvbnQtc2l6ZT0iMTkiIGZvbnQtc3R5bGU9Iml0YWxpYyIgbGVuZ3RoQWRqdXN0PSJzcGFjaW5nIiB0ZXh0TGVuZ3RoPSIxNzgiIHg9IjE3MjIiIHk9IjY1Ljk0NTMiPiYjMTcxO1NpbXBsZVF1ZXVlU2VydmljZSYjMTg3OzwvdGV4dD48dGV4dCBmaWxsPSIjMDAwMDAwIiBmb250LWZhbWlseT0ic2Fucy1zZXJpZiIgZm9udC1zaXplPSIxOSIgbGVuZ3RoQWRqdXN0PSJzcGFjaW5nIiB0ZXh0TGVuZ3RoPSIzNiIgeD0iMTc5MyIgeT0iODYuMjgxMyI+RklGTzwvdGV4dD48aW1hZ2UgaGVpZ2h0PSI2NCIgd2lkdGg9IjY0IiB4PSIxNzc5IiB4bGluazpocmVmPSJkYXRhOmltYWdlL3BuZztiYXNlNjQsaVZCT1J3MEtHZ29BQUFBTlNVaEVVZ0FBQUVBQUFBQkFDQUlBQUFBbEMrYUpBQUFGMzBsRVFWUjRYdTFaNlhNVVJSVG5uekJnSWlwcWVVYnhLdEd5eWkrZVdCSmpMRXY5cEZBVzVZSGxWU3FhT3hnSWgwaFJ4UkZ6QUNyaENyazFtQ29WTUJnaGhKakxZQ1dRZzRROVo2L3NmWTIvbnBuc3prNlQzWm5kVFEycG1xbmZoOWw5cjEvM3IvdjFlNjk3RnVsdXlGL1FXRVQvdGJDZ0VWQWJHZ0cxb1JGUUd4b0J0YUVSVUJzYUFiV1JaZ0tHN0FyYnh3MmU0MzIrcytQQk1TYnM4b1Zudk1GTFpsL1htUHRvcisyOVk0WTd5K2xXcVNCTkJKWVUyajQ4N3UrYlpzTmhWdnhJZnVJSmhmM25KcXlyNjNRWkJWSWpTU0ZsQWhrRjFuY09CMFpNL1BEQ2RvK25xZCsycnQ3ODNHN2o4czI2ekNKOVZySHhvYTNtNS9mWVAydnl0ZzlqVFhoTnNMVzhjVUJxVFRsU0lxQmZWdVp0LzVjZlVPQ2l3YnFtVG5kaklhMFcweVNyR0dzVm5MVHdyZHgxUGZpSFZwT1A1QWtZVjJ3UC9HZkVJRUptcCszOVk3ckZTbHdpczhqK1JRdTJCMW1Lbml1Ryt5dWtDcktSSkFIejA3dENOZy92Q2ZBUVdrRU9URS91d1A0bVU2QjNHQi9iVGl2SVFUSUVqSTlzQzVtYzZOalRNcWhmV2tJcnlJZmhqZzIrVTZNd0ZaeXdHTzdkUkNza2hISUNTd3I5M1JOazdzOVA2ck9LcEZMbHdCUWc1c0tnNytSSUVxRkpNUUY3Zmh1LzZLazRyZ1NHZXphR2pETXdpeHhDUytOREdRR0VuUkRqUWs5cGlZQmlJRE1RUnhwanNNSzBOQTZVRWJDdmJ5VnIvZGNZTFhML2RCNWgzdmpBWmxva2h1RytUWjYySWZleFhxa29vd0NCR01hdDd4NlZpdUpDR1FIdkh5T2tqN2NQMGlLU2h1RmFqTXYrZFp2KzFsSmFRWDlMcWYzTEZ0NVZNRlphQVlXR3NCTW9VUndvSTRCNVlsWlZYVE5ibVo3YUdYYjdXZTRKZS95K3pzdk9QV2NjNVIyT2J6cWN1enQ5cHk5RnBiNEFvakJ0QVdhWm5DcGwrVVFtQVNSTDg4cEsyd2YxNWhmMnhvazh6aDBueVFEOXdiQXZ5STgxNXZFSENWZ1d4T2kyUWtjM0ZUTXZmVy83cUFIVGhIZGFnVVppQXJDRnZSVVpCbEtQK2NWS3FjNHJOU0NHVWhUVkc2WmZmL3NHNXVWcWhCUkg2UWxIMmE5NElRckx5dmpVYTN4NG05QXFqN1NLR3NtcENvNkxPcHEwTUxuVjlIZ2tTRUFBQ1pKZmV2L0FWZmVQM1lFaEhkN0RUaDl5V1VSblpzdHYrQlBUajNkZUFiTkltMEo1QjFGZzFDUzAydnA3cEZWTVIzM1RydjFuL2YrUUhZVzVNRDMrSFcxS2pBUUVQSzJETU9UNm9WdElNWXNMM0lkNjhJK25vUytpZzBxVERZWUF2TGdQWDRBVTVScHR5cnIyQ0duWTJFKzNJaDAxOVVPS09SSTZ5aWdBRGFMZk5rU2JFaU1CQVNRc1dCSG5MRlErWkgydldQR083Y2dQZ3VVZVRMOXoxNTk0Y1JTMzA2YjRFT3lxN2lJN0pMWVZwTUVwRzk2TkQyNko2Qk9INURJbWJVcU1SQVM0cUNldVV0QUhJVEJ0MXhFQ1FSeFFDUGloWERURUkvQ1ZRSUJzWlhFcm5zQzBmVjRJOE9XK3E2cEwrQWNydTQ5YjJaYkJpRTdVR1ZaV3VvOGs2MExOQTZTakErZWlMbFQ3TjlIL09UVVhRc1ViOWdaWXJtcUhSZitGS1piYVc4SW0zbmxLbDhvbVhqRzdpWHVuWERXaWpwNUliUk1EbHRmMjhldkxQL0IrSnE5V29zTUZ4T0tZTUpwVGhYQk93bWpwQ1JMWGM2dWpZWFQyL0NBTm83blYwakNhVjBPUFI0TEVCSFJjRmNDOFdtdi92QmxEMTk5Y1FpdndTRU1pVzFwQ0VzZ25qWVN3dkpPR0xBSlJvSlNBZThnc0pmWnlwVVI1QjBZY1UwcDQ1eTRsVnMxUEtSR0JyR0l1dnczZVFpdVFZbTU5YStKaXJ2TXlMWW9EWlFUNFVPZzdjNDAraEhKNmVhSnlPcnRpem5KNldBL2pqcUpmcEtLNFVFWkFmMXRaeU1JZGFGN2ZUMHRUZ2ZXdGcvd0NJZ0RRMGpoUVJnREFESkdlY0tUTVR0K1I4dTZOSVFOeExmZ1lMWTBQeFFTdzFaQVQyUGs0MUo4ZVZicURkY2tRUU5KNTlGdmhXcVY1UUdhd213dHdHQnpCV0M3cTQ3UkpLeVJFTWdRQTh6T2lpeTFSQWFNSVNQTkl6THhESWhQVENuS1FKQUVBMVlSd3RXaHlJZ0lxVy8zTUlxVEZ5TlZpd3F1QU9FaWVnRTY0M0IxbXVZZGM3cTZXZDdtN3JqNDRNWHU1ZTBpOXkxMEJzZGZyOEN2aGV2MVo2bnI5MDBiVXR0SHI5ZjZybGpmVGNMbVVNZ0VlU2o5d3JMbCtQbkRFUXZqRTFNQjlZaHBuVVA5SVB6SGRkWDErWWxJUEdnRzFvUkZRR3hvQnRhRVJVQnNhQWJXaEVWQWJDNTdBLzgzb3pTR21uTGl2QUFBQUFFbEZUa1N1UW1DQyIgeT0iODguNjU2MyIvPjx0ZXh0IGZpbGw9IiMwMDAwMDAiIGZvbnQtZmFtaWx5PSJzYW5zLXNlcmlmIiBmb250LXNpemU9IjEyIiBsZW5ndGhBZGp1c3Q9InNwYWNpbmciIHRleHRMZW5ndGg9IjQ1IiB4PSIxNzg4LjUiIHk9IjE2NCI+W1MgUSBTXTwvdGV4dD48cmVjdCBmaWxsPSIjRkZGRkZGIiBoZWlnaHQ9IjEzMS41MTU2IiBzdHlsZT0ic3Ryb2tlOiM3RDg5OTg7c3Ryb2tlLXdpZHRoOjEuMjU7IiB3aWR0aD0iMTkyIiB4PSIxNzE1IiB5PSIxOTUwLjk2MDkiLz48dGV4dCBmaWxsPSIjMDAwMDAwIiBmb250LWZhbWlseT0ic2Fucy1zZXJpZiIgZm9udC1zaXplPSIxOSIgZm9udC1zdHlsZT0iaXRhbGljIiBsZW5ndGhBZGp1c3Q9InNwYWNpbmciIHRleHRMZW5ndGg9IjE3OCIgeD0iMTcyMiIgeT0iMTk3NS45MjE5Ij4mIzE3MTtTaW1wbGVRdWV1ZVNlcnZpY2UmIzE4Nzs8L3RleHQ+PHRleHQgZmlsbD0iIzAwMDAwMCIgZm9udC1mYW1pbHk9InNhbnMtc2VyaWYiIGZvbnQtc2l6ZT0iMTkiIGxlbmd0aEFkanVzdD0ic3BhY2luZyIgdGV4dExlbmd0aD0iMzYiIHg9IjE3OTMiIHk9IjE5OTYuMjU3OCI+RklGTzwvdGV4dD48aW1hZ2UgaGVpZ2h0PSI2NCIgd2lkdGg9IjY0IiB4PSIxNzc5IiB4bGluazpocmVmPSJkYXRhOmltYWdlL3BuZztiYXNlNjQsaVZCT1J3MEtHZ29BQUFBTlNVaEVVZ0FBQUVBQUFBQkFDQUlBQUFBbEMrYUpBQUFGMzBsRVFWUjRYdTFaNlhNVVJSVG5uekJnSWlwcWVVYnhLdEd5eWkrZVdCSmpMRXY5cEZBVzVZSGxWU3FhT3hnSWgwaFJ4UkZ6QUNyaENyazFtQ29WTUJnaGhKakxZQ1dRZzRROVo2L3NmWTIvbnBuc3prNlQzWm5kVFEycG1xbmZoOWw5cjEvM3IvdjFlNjk3RnVsdXlGL1FXRVQvdGJDZ0VWQWJHZ0cxb1JGUUd4b0J0YUVSVUJzYUFiV1JaZ0tHN0FyYnh3MmU0MzIrcytQQk1TYnM4b1Zudk1GTFpsL1htUHRvcisyOVk0WTd5K2xXcVNCTkJKWVUyajQ4N3UrYlpzTmhWdnhJZnVJSmhmM25KcXlyNjNRWkJWSWpTU0ZsQWhrRjFuY09CMFpNL1BEQ2RvK25xZCsycnQ3ODNHN2o4czI2ekNKOVZySHhvYTNtNS9mWVAydnl0ZzlqVFhoTnNMVzhjVUJxVFRsU0lxQmZWdVp0LzVjZlVPQ2l3YnFtVG5kaklhMFcweVNyR0dzVm5MVHdyZHgxUGZpSFZwT1A1QWtZVjJ3UC9HZkVJRUptcCszOVk3ckZTbHdpczhqK1JRdTJCMW1Lbml1Ryt5dWtDcktSSkFIejA3dENOZy92Q2ZBUVdrRU9URS91d1A0bVU2QjNHQi9iVGl2SVFUSUVqSTlzQzVtYzZOalRNcWhmV2tJcnlJZmhqZzIrVTZNd0ZaeXdHTzdkUkNza2hISUNTd3I5M1JOazdzOVA2ck9LcEZMbHdCUWc1c0tnNytSSUVxRkpNUUY3Zmh1LzZLazRyZ1NHZXphR2pETXdpeHhDUytOREdRR0VuUkRqUWs5cGlZQmlJRE1RUnhwanNNSzBOQTZVRWJDdmJ5VnIvZGNZTFhML2RCNWgzdmpBWmxva2h1RytUWjYySWZleFhxa29vd0NCR01hdDd4NlZpdUpDR1FIdkh5T2tqN2NQMGlLU2h1RmFqTXYrZFp2KzFsSmFRWDlMcWYzTEZ0NVZNRlphQVlXR3NCTW9VUndvSTRCNVlsWlZYVE5ibVo3YUdYYjdXZTRKZS95K3pzdk9QV2NjNVIyT2J6cWN1enQ5cHk5RnBiNEFvakJ0QVdhWm5DcGwrVVFtQVNSTDg4cEsyd2YxNWhmMnhvazh6aDBueVFEOXdiQXZ5STgxNXZFSENWZ1d4T2kyUWtjM0ZUTXZmVy83cUFIVGhIZGFnVVppQXJDRnZSVVpCbEtQK2NWS3FjNHJOU0NHVWhUVkc2WmZmL3NHNXVWcWhCUkg2UWxIMmE5NElRckx5dmpVYTN4NG05QXFqN1NLR3NtcENvNkxPcHEwTUxuVjlIZ2tTRUFBQ1pKZmV2L0FWZmVQM1lFaEhkN0RUaDl5V1VSblpzdHYrQlBUajNkZUFiTkltMEo1QjFGZzFDUzAydnA3cEZWTVIzM1RydjFuL2YrUUhZVzVNRDMrSFcxS2pBUUVQSzJETU9UNm9WdElNWXNMM0lkNjhJK25vUytpZzBxVERZWUF2TGdQWDRBVTVScHR5cnIyQ0duWTJFKzNJaDAxOVVPS09SSTZ5aWdBRGFMZk5rU2JFaU1CQVNRc1dCSG5MRlErWkgydldQR083Y2dQZ3VVZVRMOXoxNTk0Y1JTMzA2YjRFT3lxN2lJN0pMWVZwTUVwRzk2TkQyNko2Qk9INURJbWJVcU1SQVM0cUNldVV0QUhJVEJ0MXhFQ1FSeFFDUGloWERURUkvQ1ZRSUJzWlhFcm5zQzBmVjRJOE9XK3E2cEwrQWNydTQ5YjJaYkJpRTdVR1ZaV3VvOGs2MExOQTZTakErZWlMbFQ3TjlIL09UVVhRc1ViOWdaWXJtcUhSZitGS1piYVc4SW0zbmxLbDhvbVhqRzdpWHVuWERXaWpwNUliUk1EbHRmMjhldkxQL0IrSnE5V29zTUZ4T0tZTUpwVGhYQk93bWpwQ1JMWGM2dWpZWFQyL0NBTm83blYwakNhVjBPUFI0TEVCSFJjRmNDOFdtdi92QmxEMTk5Y1FpdndTRU1pVzFwQ0VzZ25qWVN3dkpPR0xBSlJvSlNBZThnc0pmWnlwVVI1QjBZY1UwcDQ1eTRsVnMxUEtSR0JyR0l1dnczZVFpdVFZbTU5YStKaXJ2TXlMWW9EWlFUNFVPZzdjNDAraEhKNmVhSnlPcnRpem5KNldBL2pqcUpmcEtLNFVFWkFmMXRaeU1JZGFGN2ZUMHRUZ2ZXdGcvd0NJZ0RRMGpoUVJnREFESkdlY0tUTVR0K1I4dTZOSVFOeExmZ1lMWTBQeFFTdzFaQVQyUGs0MUo4ZVZicURkY2tRUU5KNTlGdmhXcVY1UUdhd213dHdHQnpCV0M3cTQ3UkpLeVJFTWdRQTh6T2lpeTFSQWFNSVNQTkl6THhESWhQVENuS1FKQUVBMVlSd3RXaHlJZ0lxVy8zTUlxVEZ5TlZpd3F1QU9FaWVnRTY0M0IxbXVZZGM3cTZXZDdtN3JqNDRNWHU1ZTBpOXkxMEJzZGZyOEN2aGV2MVo2bnI5MDBiVXR0SHI5ZjZybGpmVGNMbVVNZ0VlU2o5d3JMbCtQbkRFUXZqRTFNQjlZaHBuVVA5SVB6SGRkWDErWWxJUEdnRzFvUkZRR3hvQnRhRVJVQnNhQWJXaEVWQWJDNTdBLzgzb3pTR21uTGl2QUFBQUFFbEZUa1N1UW1DQyIgeT0iMTk5OC42MzI4Ii8+PHRleHQgZmlsbD0iIzAwMDAwMCIgZm9udC1mYW1pbHk9InNhbnMtc2VyaWYiIGZvbnQtc2l6ZT0iMTIiIGxlbmd0aEFkanVzdD0ic3BhY2luZyIgdGV4dExlbmd0aD0iNDUiIHg9IjE3ODguNSIgeT0iMjA3My45NzY2Ij5bUyBRIFNdPC90ZXh0PjxyZWN0IGZpbGw9IiNGRkZGRkYiIGhlaWdodD0iMTMxLjUxNTYiIHN0eWxlPSJzdHJva2U6IzdEODk5ODtzdHJva2Utd2lkdGg6MS4yNTsiIHdpZHRoPSIxNDAiIHg9IjE5MjEiIHk9IjQwLjk4NDQiLz48dGV4dCBmaWxsPSIjMDAwMDAwIiBmb250LWZhbWlseT0ic2Fucy1zZXJpZiIgZm9udC1zaXplPSIxOSIgZm9udC1zdHlsZT0iaXRhbGljIiBsZW5ndGhBZGp1c3Q9InNwYWNpbmciIHRleHRMZW5ndGg9IjcwIiB4PSIxOTU2IiB5PSI2NS45NDUzIj4mIzE3MTtMYW1iZGEmIzE4Nzs8L3RleHQ+PHRleHQgZmlsbD0iIzAwMDAwMCIgZm9udC1mYW1pbHk9InNhbnMtc2VyaWYiIGZvbnQtc2l6ZT0iMTkiIGxlbmd0aEFkanVzdD0ic3BhY2luZyIgdGV4dExlbmd0aD0iMTI2IiB4PSIxOTI4IiB5PSI4Ni4yODEzIj5kZHBzLVBvbGxRdWV1ZTwvdGV4dD48aW1hZ2UgaGVpZ2h0PSI2NCIgd2lkdGg9IjY0IiB4PSIxOTU5IiB4bGluazpocmVmPSJkYXRhOmltYWdlL3BuZztiYXNlNjQsaVZCT1J3MEtHZ29BQUFBTlNVaEVVZ0FBQUVBQUFBQkFDQUlBQUFBbEMrYUpBQUFGbVVsRVFWUjRYdFdaVzJ3VVZSakhBUlc4RUkyM2VGYzB4bmlKQ2NZSFkrSWxYaDY4dklndm1IaDcwQmZ3d1ZCYTJtcWgwcUpXckxGQUtWRWpXR3dKcEJCSVdrRXdZRXBGa2JiQmdGYlFBaTBTS2FVemU3L016dTZNMzdkbmRwaCszM2IzN000OE9KUGZ5Ly84ejV3OTM4eVpPZjlwcHltTHB2a2FxbjBIMWI2RGF0OUJ0ZStnMm5kUTdUdW85aDFVK3c2cWZRZlZraVQycnpJTnc1UTREQzBhYm51R2orQVZWRXVTUHY4M25lblVoejd5Q3gvQks2aVdSQlFRV0hFWHQ1eW9TeTR6SXVQUU03VG1jZTU2QXRXU1NCWUF4SGN0ZzU2cFA3cTU1UWxVUzVLWkdNWUNHdS9rRmtHdHU5YlFZdkRBQkQ5NWdMdnVvVm9TK1FJVThjU2JadkxRTjl4eUQ5V1NsRlJBb0hHT21kSE5kQ3J3d1MzY2RRblZrcFJVQUtBTmRrTC94SS9OM0hJSjFaTGtDcGpEcmJ3RW0rZENmeU1aVm11djRxNGJxSllrTTNGQ3ZPUEpvWi91Vnlwbjh2NUE2dGh1NkJEcnFlR1dHNmlXSk5HM2hzNDlkMFEzdjhYN0E3QWZnNXNKbjFXcVpuRzNiS2gyUTJUakt6REY5TGsvbFlycDNBWDBmd2F3d2kxdmM2dHNxSGJGNG9zeXlrbVlZbVQ5UzlUS0VtbWZuNjN3bUZJeGc3dmxRYlZMb2xzWHdoVDFVejl6QzRFS3N3OVBaUDA4YXBVTDFTN0I4Qk05RDFNTXRUN0JYY1d1MEx0NFI3Vjc0cnVXbWhoK2VyaWxPQ3YwS041UjdSNzEvV3ZnRzZCQStQRTIzbEZkQm1yTmJIMjRONzZuMFc1SjlMYkFGSlA5N2J3ejlyZmpYZFA5M0MwVnFzc2cxcjBFMy8rWmRQRER1MFZMb09FT0svd3N2NDMzVnpEZXJjWUtEMjNnVnFsUVhTcHExYVd3TjJFQk1LR0RYOXZ0MnNDMzBKTG8vWnlmb25nYTc2Z3VsV2pYQXBob2V2dzQzQUdjVU1QdG9qMjQ4a0VUdzA5RWZlOXFmcGFDOFc0VFZyanZVMjZWQk5XbHNmamkzTTQxTDltL0VTZlUxMnE3cWFIdm9DVytzNDZlbGNXcmVFZDFTVVE2WHNQTFB6WUUyU0hZZEo5cFpBdzlFVmgybzNCRHJVL2lveEU1Qjh1TW42dDRGTytvTG9HSzZlbXp2OE1Nb3AxdmlCYnR0eTZ5S3ZUUlg3RkQxd0o2YmhaUDRoM1Y4a0Rnd1o5WFIyQWhpWmJjcW9qQVZtRDEyZkF5OXBrWWhoREJSMUF3M2cxaWhTN2lIZFh5V0ZkMzYwSm5JMnpBdU81M04xZ3RGVFB3K1lhSHBIMCtIMEdaRk8veUI5aWlVQzFKN3U2UGtmVWRXdlVvM29SNFFLMjlVclRBMVlVV0NOSjhFT1JDdk1zZllJdEN0U1Nwdi9iQ3I4YTZxNmV5NGoyMVZrdlZMTEZSaE5jOXl6c0RzVzN2WUlWVEJkaGlVQzFEcU9VUmNwbWRoTmMraFc1a1hLMitYTFJBbmRDU09yNkhkMWFjOFc3MVk5d3RDdFV5YUVkMzREWCtZUVczQlBySVFWd1ZIYThLQ1c5Nkl4R0NsbUR6UTd3ekVQKytIaXNzSzk1UlhSVEltSkRESUkycGRkZHhGNm04SktPTzRwcjU0am03TWJGdkpiUm9oemZUemxuY3hEdXFpNklOZEpnWWNscTRKWWh1ZWhNNnBQODk2bnl4Qk9wdk50TWF4STJwL3BSVWRyeWp1akR3ODFibVdYNHJkeEhZM2NhR25PdkhCcUllVHZHbnRmU1VMTmw0bHgyNXhIaEhkV0dTQjliaEpCeXBrMkR0YnNvcGUzZXpDWDU4TDY2OVZGeGRlajAvVWNuRk8rY0JhWXAzSTFCZGdFRDlUYWFlaE1BVC9PZ2U3Z3J5N200MjJwSHRwbk9ibXd3OEFFWjBndFRBdXhHb0xrRHVRZHpDTFVHNDdXbXpZSHF6dHJtWW9sWmZ3VjBDWENrdkM0QllEOUhYeEZmaFhPNEs0RTF2T3Jld2ZPZ245a09mMlBaM3VVWHd1QURyUzN4b0o3Y0VvYzhleHF1YkNCWE85K0d2WHNTN3BJN3loNFRnWlFGd3g4WHFMTEJaV2xsNmJ4TzNKbkVoaEw5T3JjbDRXVUJzeHlJWVN6L1p4eTBCUE5hNXI1a2J1RXVBN3djVE40b2ozSExpWFFHVk16UEJNekJXK012bnFaWERlc2NmYU9OV0htQ3JEcHpPRHZnQ3RSeDRWb0RJdytremg3a2xnSzNIMm1VbC9ta3BzRzdwY0MrM2JEd3JBTDQyVElsREcrems1MDZGV2pQYmlLdDBpSHdIUDVkQU5RZXVFeDJWSFpDSFlhUGw1eFlBM3FUNHA2R0NoOGM3OGY4VHFuMEgxYjZEYXQ5QnRlK2cybmRRN1R1bzloMVUrdzZxZmNkL3NUVktHdzgvWVBVQUFBQUFTVVZPUks1Q1lJST0iIHk9Ijg4LjY1NjMiLz48dGV4dCBmaWxsPSIjMDAwMDAwIiBmb250LWZhbWlseT0ic2Fucy1zZXJpZiIgZm9udC1zaXplPSIxMiIgbGVuZ3RoQWRqdXN0PSJzcGFjaW5nIiB0ZXh0TGVuZ3RoPSI2NCIgeD0iMTk1OSIgeT0iMTY0Ij5bRnVuY3Rpb25dPC90ZXh0PjxyZWN0IGZpbGw9IiNGRkZGRkYiIGhlaWdodD0iMTMxLjUxNTYiIHN0eWxlPSJzdHJva2U6IzdEODk5ODtzdHJva2Utd2lkdGg6MS4yNTsiIHdpZHRoPSIxNDAiIHg9IjE5MjEiIHk9IjE5NTAuOTYwOSIvPjx0ZXh0IGZpbGw9IiMwMDAwMDAiIGZvbnQtZmFtaWx5PSJzYW5zLXNlcmlmIiBmb250LXNpemU9IjE5IiBmb250LXN0eWxlPSJpdGFsaWMiIGxlbmd0aEFkanVzdD0ic3BhY2luZyIgdGV4dExlbmd0aD0iNzAiIHg9IjE5NTYiIHk9IjE5NzUuOTIxOSI+JiMxNzE7TGFtYmRhJiMxODc7PC90ZXh0Pjx0ZXh0IGZpbGw9IiMwMDAwMDAiIGZvbnQtZmFtaWx5PSJzYW5zLXNlcmlmIiBmb250LXNpemU9IjE5IiBsZW5ndGhBZGp1c3Q9InNwYWNpbmciIHRleHRMZW5ndGg9IjEyNiIgeD0iMTkyOCIgeT0iMTk5Ni4yNTc4Ij5kZHBzLVBvbGxRdWV1ZTwvdGV4dD48aW1hZ2UgaGVpZ2h0PSI2NCIgd2lkdGg9IjY0IiB4PSIxOTU5IiB4bGluazpocmVmPSJkYXRhOmltYWdlL3BuZztiYXNlNjQsaVZCT1J3MEtHZ29BQUFBTlNVaEVVZ0FBQUVBQUFBQkFDQUlBQUFBbEMrYUpBQUFGbVVsRVFWUjRYdFdaVzJ3VVZSakhBUlc4RUkyM2VGYzB4bmlKQ2NZSFkrSWxYaDY4dklndm1IaDcwQmZ3d1ZCYTJtcWgwcUpXckxGQUtWRWpXR3dKcEJCSVdrRXdZRXBGa2JiQmdGYlFBaTBTS2FVemU3L016dTZNMzdkbmRwaCszM2IzN000OE9KUGZ5Ly84ejV3OTM4eVpPZjlwcHltTHB2a2FxbjBIMWI2RGF0OUJ0ZStnMm5kUTdUdW85aDFVK3c2cWZRZlZraVQycnpJTnc1UTREQzBhYm51R2orQVZWRXVTUHY4M25lblVoejd5Q3gvQks2aVdSQlFRV0hFWHQ1eW9TeTR6SXVQUU03VG1jZTU2QXRXU1NCWUF4SGN0ZzU2cFA3cTU1UWxVUzVLWkdNWUNHdS9rRmtHdHU5YlFZdkRBQkQ5NWdMdnVvVm9TK1FJVThjU2JadkxRTjl4eUQ5V1NsRlJBb0hHT21kSE5kQ3J3d1MzY2RRblZrcFJVQUtBTmRrTC94SS9OM0hJSjFaTGtDcGpEcmJ3RW0rZENmeU1aVm11djRxNGJxSllrTTNGQ3ZPUEpvWi91Vnlwbjh2NUE2dGh1NkJEcnFlR1dHNmlXSk5HM2hzNDlkMFEzdjhYN0E3QWZnNXNKbjFXcVpuRzNiS2gyUTJUakt6REY5TGsvbFlycDNBWDBmd2F3d2kxdmM2dHNxSGJGNG9zeXlrbVlZbVQ5UzlUS0VtbWZuNjN3bUZJeGc3dmxRYlZMb2xzWHdoVDFVejl6QzRFS3N3OVBaUDA4YXBVTDFTN0I4Qk05RDFNTXRUN0JYY1d1MEx0NFI3Vjc0cnVXbWhoK2VyaWxPQ3YwS041UjdSNzEvV3ZnRzZCQStQRTIzbEZkQm1yTmJIMjRONzZuMFc1SjlMYkFGSlA5N2J3ejlyZmpYZFA5M0MwVnFzc2cxcjBFMy8rWmRQRER1MFZMb09FT0svd3N2NDMzVnpEZXJjWUtEMjNnVnFsUVhTcHExYVd3TjJFQk1LR0RYOXZ0MnNDMzBKTG8vWnlmb25nYTc2Z3VsV2pYQXBob2V2dzQzQUdjVU1QdG9qMjQ4a0VUdzA5RWZlOXFmcGFDOFc0VFZyanZVMjZWQk5XbHNmamkzTTQxTDltL0VTZlUxMnE3cWFIdm9DVytzNDZlbGNXcmVFZDFTVVE2WHNQTFB6WUUyU0hZZEo5cFpBdzlFVmgybzNCRHJVL2lveEU1Qjh1TW42dDRGTytvTG9HSzZlbXp2OE1Nb3AxdmlCYnR0eTZ5S3ZUUlg3RkQxd0o2YmhaUDRoM1Y4a0Rnd1o5WFIyQWhpWmJjcW9qQVZtRDEyZkF5OXBrWWhoREJSMUF3M2cxaWhTN2lIZFh5V0ZkMzYwSm5JMnpBdU81M04xZ3RGVFB3K1lhSHBIMCtIMEdaRk8veUI5aWlVQzFKN3U2UGtmVWRXdlVvM29SNFFLMjlVclRBMVlVV0NOSjhFT1JDdk1zZllJdEN0U1Nwdi9iQ3I4YTZxNmV5NGoyMVZrdlZMTEZSaE5jOXl6c0RzVzN2WUlWVEJkaGlVQzFEcU9VUmNwbWRoTmMraFc1a1hLMitYTFJBbmRDU09yNkhkMWFjOFc3MVk5d3RDdFV5YUVkMzREWCtZUVczQlBySVFWd1ZIYThLQ1c5Nkl4R0NsbUR6UTd3ekVQKytIaXNzSzk1UlhSVEltSkRESUkycGRkZHhGNm04SktPTzRwcjU0am03TWJGdkpiUm9oemZUemxuY3hEdXFpNklOZEpnWWNscTRKWWh1ZWhNNnBQODk2bnl4Qk9wdk50TWF4STJwL3BSVWRyeWp1akR3ODFibVdYNHJkeEhZM2NhR25PdkhCcUllVHZHbnRmU1VMTmw0bHgyNXhIaEhkV0dTQjliaEpCeXBrMkR0YnNvcGUzZXpDWDU4TDY2OVZGeGRlajAvVWNuRk8rY0JhWXAzSTFCZGdFRDlUYWFlaE1BVC9PZ2U3Z3J5N200MjJwSHRwbk9ibXd3OEFFWjBndFRBdXhHb0xrRHVRZHpDTFVHNDdXbXpZSHF6dHJtWW9sWmZ3VjBDWENrdkM0QllEOUhYeEZmaFhPNEs0RTF2T3Jld2ZPZ245a09mMlBaM3VVWHd1QURyUzN4b0o3Y0VvYzhleHF1YkNCWE85K0d2WHNTN3BJN3loNFRnWlFGd3g4WHFMTEJaV2xsNmJ4TzNKbkVoaEw5T3JjbDRXVUJzeHlJWVN6L1p4eTBCUE5hNXI1a2J1RXVBN3djVE40b2ozSExpWFFHVk16UEJNekJXK012bnFaWERlc2NmYU9OV0htQ3JEcHpPRHZnQ3RSeDRWb0RJdytremg3a2xnSzNIMm1VbC9ta3BzRzdwY0MrM2JEd3JBTDQyVElsREcrems1MDZGV2pQYmlLdDBpSHdIUDVkQU5RZXVFeDJWSFpDSFlhUGw1eFlBM3FUNHA2R0NoOGM3OGY4VHFuMEgxYjZEYXQ5QnRlK2cybmRRN1R1bzloMVUrdzZxZmNkL3NUVktHdzgvWVBVQUFBQUFTVVZPUks1Q1lJST0iIHk9IjE5OTguNjMyOCIvPjx0ZXh0IGZpbGw9IiMwMDAwMDAiIGZvbnQtZmFtaWx5PSJzYW5zLXNlcmlmIiBmb250LXNpemU9IjEyIiBsZW5ndGhBZGp1c3Q9InNwYWNpbmciIHRleHRMZW5ndGg9IjY0IiB4PSIxOTU5IiB5PSIyMDczLjk3NjYiPltGdW5jdGlvbl08L3RleHQ+PHJlY3QgZmlsbD0iI0ZGRkZGRiIgaGVpZ2h0PSIxMzEuNTE1NiIgc3R5bGU9InN0cm9rZTojN0Q4OTk4O3N0cm9rZS13aWR0aDoxLjI1OyIgd2lkdGg9Ijk1IiB4PSIyMTE0LjUiIHk9IjQwLjk4NDQiLz48dGV4dCBmaWxsPSIjMDAwMDAwIiBmb250LWZhbWlseT0ic2Fucy1zZXJpZiIgZm9udC1zaXplPSIxOSIgZm9udC1zdHlsZT0iaXRhbGljIiBsZW5ndGhBZGp1c3Q9InNwYWNpbmciIHRleHRMZW5ndGg9IjQ0IiB4PSIyMTQwIiB5PSI2NS45NDUzIj4mIzE3MTtFQzImIzE4Nzs8L3RleHQ+PHRleHQgZmlsbD0iIzAwMDAwMCIgZm9udC1mYW1pbHk9InNhbnMtc2VyaWYiIGZvbnQtc2l6ZT0iMTkiIGxlbmd0aEFkanVzdD0ic3BhY2luZyIgdGV4dExlbmd0aD0iMTAiIHg9IjIxNTciIHk9Ijg2LjI4MTMiPiYjMTYwOzwvdGV4dD48aW1hZ2UgaGVpZ2h0PSI2NCIgd2lkdGg9IjY0IiB4PSIyMTMwIiB4bGluazpocmVmPSJkYXRhOmltYWdlL3BuZztiYXNlNjQsaVZCT1J3MEtHZ29BQUFBTlNVaEVVZ0FBQUVBQUFBQkFDQUlBQUFBbEMrYUpBQUFDRUVsRVFWUjRYdTJZTVU0Rk1Rd0ZPU2RIb09OTXRCUWNqQlVGSHlTYUR5dForcGp4MnZHdWc4Q0NhSW9kSjNsT3l1elZjbnZWR25vNzZPMmd0NFBlRG5vNzZPMmd0NFBlRG5vNzZCTjV2cnMrbng3ZkMyUGR2b2JZWkExOUlzWFR5MWhEYkxLR1BoRTVnYTNueVNUUUo1SnBINU5Kb0U4azB6NG1rMENmU0taOVRDYUIvcXY0djBBT3ROR2ErUTdJTEtNZkFHMjhnM3JmQVpsbDlBT2dqWGRRN3pzZ3M0eStpNWVIMi9QYlNkb2NHT3ZlTmNIR1hwQmx0cTZoNzZKeWVobHJnbzI5SUd0c1hVTlBvZzloWjVQb2tNMGNyNjZoSjRrYko5RWhtemxlWFVQZlJhWkJ3SEQ3Y01IeWR5OGcwWmtHQVRwa004ZXJhK2hKNHNaSmRNaG1qbGZYMEhlUmFSQXczRDVjc0F3dllOKzFldFpXZGpIY1BseXdEQzlnMzdWU3Q1VUQ2SkROSEsrdW9RTXY0clB0MW13U0hYTEpRYkg2cUpjVVc4L01EdG5jTGtVWkUzNnJiUFpJemc0cGJoZm9JTzRSenc0cGJoZm93T3NoZFc4MmlRNDVuRU1IWG5TOThmS3pGOGpNRGlsdUYrZ2c3aEhQRGlsdUYrakE2eUYxYnphSkRqbWNRd2RlOU5mV2M0YnRrb0VPNHVqVC9jMzU5ZW5yTVhhTWRlK2FZR04zUVFmU3lkYUROVm96MzBYb0lOTUphN3lEZXQ5RjZDRFRDV3U4ZzNyZlJlaGdZcWR2Z2c3K0x6QWhJWVlPNnUzckNURjBVRzlmVDRpaGczcjdla0lNSGRoSC9ZRXhmTmRXb0FQN1cyWHZ5THhySzlEYlFXOEh2UjMwZHREYlFXOEh2UjMwZHREYlFXL0hCd3BJNzgxYXNPOEdBQUFBQUVsRlRrU3VRbUNDIiB5PSI4OC42NTYzIi8+PHRleHQgZmlsbD0iIzAwMDAwMCIgZm9udC1mYW1pbHk9InNhbnMtc2VyaWYiIGZvbnQtc2l6ZT0iMTIiIGxlbmd0aEFkanVzdD0ic3BhY2luZyIgdGV4dExlbmd0aD0iODEiIHg9IjIxMjEuNSIgeT0iMTY0Ij5bQXBwIFNlcnZlcl08L3RleHQ+PHJlY3QgZmlsbD0iI0ZGRkZGRiIgaGVpZ2h0PSIxMzEuNTE1NiIgc3R5bGU9InN0cm9rZTojN0Q4OTk4O3N0cm9rZS13aWR0aDoxLjI1OyIgd2lkdGg9Ijk1IiB4PSIyMTE0LjUiIHk9IjE5NTAuOTYwOSIvPjx0ZXh0IGZpbGw9IiMwMDAwMDAiIGZvbnQtZmFtaWx5PSJzYW5zLXNlcmlmIiBmb250LXNpemU9IjE5IiBmb250LXN0eWxlPSJpdGFsaWMiIGxlbmd0aEFkanVzdD0ic3BhY2luZyIgdGV4dExlbmd0aD0iNDQiIHg9IjIxNDAiIHk9IjE5NzUuOTIxOSI+JiMxNzE7RUMyJiMxODc7PC90ZXh0Pjx0ZXh0IGZpbGw9IiMwMDAwMDAiIGZvbnQtZmFtaWx5PSJzYW5zLXNlcmlmIiBmb250LXNpemU9IjE5IiBsZW5ndGhBZGp1c3Q9InNwYWNpbmciIHRleHRMZW5ndGg9IjEwIiB4PSIyMTU3IiB5PSIxOTk2LjI1NzgiPiYjMTYwOzwvdGV4dD48aW1hZ2UgaGVpZ2h0PSI2NCIgd2lkdGg9IjY0IiB4PSIyMTMwIiB4bGluazpocmVmPSJkYXRhOmltYWdlL3BuZztiYXNlNjQsaVZCT1J3MEtHZ29BQUFBTlNVaEVVZ0FBQUVBQUFBQkFDQUlBQUFBbEMrYUpBQUFDRUVsRVFWUjRYdTJZTVU0Rk1Rd0ZPU2RIb09OTXRCUWNqQlVGSHlTYUR5dForcGp4MnZHdWc4Q0NhSW9kSjNsT3l1elZjbnZWR25vNzZPMmd0NFBlRG5vNzZPMmd0NFBlRG5vNzZCTjV2cnMrbng3ZkMyUGR2b2JZWkExOUlzWFR5MWhEYkxLR1BoRTVnYTNueVNUUUo1SnBINU5Kb0U4azB6NG1rMENmU0taOVRDYUIvcXY0djBBT3ROR2ErUTdJTEtNZkFHMjhnM3JmQVpsbDlBT2dqWGRRN3pzZ3M0eStpNWVIMi9QYlNkb2NHT3ZlTmNIR1hwQmx0cTZoNzZKeWVobHJnbzI5SUd0c1hVTlBvZzloWjVQb2tNMGNyNjZoSjRrYko5RWhtemxlWFVQZlJhWkJ3SEQ3Y01IeWR5OGcwWmtHQVRwa004ZXJhK2hKNHNaSmRNaG1qbGZYMEhlUmFSQXczRDVjc0F3dllOKzFldFpXZGpIY1BseXdEQzlnMzdWU3Q1VUQ2SkROSEsrdW9RTXY0clB0MW13U0hYTEpRYkg2cUpjVVc4L01EdG5jTGtVWkUzNnJiUFpJemc0cGJoZm9JTzRSenc0cGJoZm93T3NoZFc4MmlRNDVuRU1IWG5TOThmS3pGOGpNRGlsdUYrZ2c3aEhQRGlsdUYrakE2eUYxYnphSkRqbWNRd2RlOU5mV2M0YnRrb0VPNHVqVC9jMzU5ZW5yTVhhTWRlK2FZR04zUVFmU3lkYUROVm96MzBYb0lOTUphN3lEZXQ5RjZDRFRDV3U4ZzNyZlJlaGdZcWR2Z2c3K0x6QWhJWVlPNnUzckNURjBVRzlmVDRpaGczcjdla0lNSGRoSC9ZRXhmTmRXb0FQN1cyWHZ5THhySzlEYlFXOEh2UjMwZHREYlFXOEh2UjMwZHREYlFXL0hCd3BJNzgxYXNPOEdBQUFBQUVsRlRrU3VRbUNDIiB5PSIxOTk4LjYzMjgiLz48dGV4dCBmaWxsPSIjMDAwMDAwIiBmb250LWZhbWlseT0ic2Fucy1zZXJpZiIgZm9udC1zaXplPSIxMiIgbGVuZ3RoQWRqdXN0PSJzcGFjaW5nIiB0ZXh0TGVuZ3RoPSI4MSIgeD0iMjEyMS41IiB5PSIyMDczLjk3NjYiPltBcHAgU2VydmVyXTwvdGV4dD48cmVjdCBmaWxsPSIjRkZGRkZGIiBoZWlnaHQ9IjEzMS41MTU2IiBzdHlsZT0ic3Ryb2tlOiM3RDg5OTg7c3Ryb2tlLXdpZHRoOjEuMjU7IiB3aWR0aD0iMTAyIiB4PSIyMjYwIiB5PSI0MC45ODQ0Ii8+PHRleHQgZmlsbD0iIzAwMDAwMCIgZm9udC1mYW1pbHk9InNhbnMtc2VyaWYiIGZvbnQtc2l6ZT0iMTkiIGZvbnQtc3R5bGU9Iml0YWxpYyIgbGVuZ3RoQWRqdXN0PSJzcGFjaW5nIiB0ZXh0TGVuZ3RoPSI4OCIgeD0iMjI2NyIgeT0iNjUuOTQ1MyI+JiMxNzE7UmVkc2hpZnQmIzE4Nzs8L3RleHQ+PHRleHQgZmlsbD0iIzAwMDAwMCIgZm9udC1mYW1pbHk9InNhbnMtc2VyaWYiIGZvbnQtc2l6ZT0iMTkiIGxlbmd0aEFkanVzdD0ic3BhY2luZyIgdGV4dExlbmd0aD0iMTAiIHg9IjIzMDYiIHk9Ijg2LjI4MTMiPiYjMTYwOzwvdGV4dD48aW1hZ2UgaGVpZ2h0PSI2NCIgd2lkdGg9IjY0IiB4PSIyMjc5IiB4bGluazpocmVmPSJkYXRhOmltYWdlL3BuZztiYXNlNjQsaVZCT1J3MEtHZ29BQUFBTlNVaEVVZ0FBQUVBQUFBQkFDQUlBQUFBbEMrYUpBQUFFbDBsRVFWUjRYdTJhNlc5VVZSakcrUThGbytJU1VhSngrZUFTRTJPQ1MxQU14amdJdGFVaUZLbmlRdG10VUN5RkZ0T0tvRWloTEdsWkxMVUtMU2xVR0tDMGxMNyszbnR1cDUxenBzeVpNemR6MHpodm5nL252c3N6OTdsejd0bG1GbVFla25tTkJhNXJmcUVxSUcxVUJhU05xb0MwVVJXUU5wSVJzR3FSZlAyNnROYks4VDNTMXlVREorVnF2OXdja1h2akNocGM0aVJFQW1ra1UrTHlCS0E4QVF0bHh3ZHk5cERjdVNtbEdpVVVVZzZKVFZzS3dnWHNYaW5YQm1kdWFHUkFUaDJRZyt0bDV3cHBmRlhxbjVIUEh0ZkhER2h3aVpNUUNhU1JuRE5Jb0hMNVBSRW9vTHNsL3Zqci8waDdnNngvM2s0b0Nrb29wTndZaEc2T0QwSUVkRFRvUjA2TVNXdGR1UjJBY2tpZ3dxQzFveDRJRVdCNkR2M0JEWVVCS29uNmtoc3FpaEFCeGphOFlQdURBWlV4TjFRVTRRS0dMc2dYejltaEFFQUNWUW9DSkhvTmptNFBsMEVoNWVZRlNFRkFUNXZjbjR4YVUzTGxuQnorWHJ2eTU4L2F5UlpJSUkxa1NpakVJSUVxQlFFME5yNHNwOXJzV1l5cGw4SHg3N1BTM3kzbmp5aG9jSW1UMEd5amtQS0dsL0k0UzBWWkFneVlxcjU3UzQ1c2xZdS95K2dWbVlxZWEwRWpSQUpwSkZNeWV6Vmh6UDJzb2toQWdJWFZqK2czcy9rTmFYcGJkbjJvb01FbFRrSnV2Zy9uQTVDOGdLTDQ5R0ZkT3h6YUpOdmVtM0VHYzFaYUFPdWlvZk14QTNidXNLeUs1dkpnemtvTCtHMm4xdDY0S2lkL2tyR3N0dmZWcUQrWXM5SUNkUFFVMmI1YzJ4MGJ0WDM2b0xhRE9Tc3RnRDZESGRzdGE1L1dFUmJqTzhtVXdWbHBBVnZmbGFuN01ZTkVrd2FqVTZZTXprb0xBSmU2dFp3SitIS3Z6Z2JHR2N4WmFRSDBIRzZkTDJIZDBqeC9NR2VTQXRpcTl4K1hXOWRsOEl3MHZXTkhEWDV1MU5vTFIyMy9YSnhGa1ppQWhoZnoxcFU4NW0vZnpFdGdNdDVmTC84T2FkVGREQlhrOUVGaUFoaFlNTlk1dkpTTWpGaHY1MHoweEw2NFNpSnR0VS9hNWNZc3B3OFNFOURicFU2ZWNXWjZpNGhscjBuZkwvRUpBQU5PWDVkMk1PeFlzMTFla05NSGlRbG8zeERmTVh1VTBjdmFucndYWnhyN3RVblR0aXpUOXNpQVhXN01jdm9nTVFFTUwyYURZb3dOUU0xaTdVNnNGQVpQcTRkcHErWXhYY09acUErbkR4SVQwQjZkdFF6L3FUTnJhNTNlYXk3RWxtWGlya2JqSFp4SXl4cTd2Q0NuRHhJU3NERHVObk9kc2JFbE1LZHh0MGYxY001TktNRHBod1FFTkgrc3A1ellqZUY0YlR3WDFqeHFlM0pJVGNDWjl2Z1NHNzhqWDcxbUozdGlObWRKS0V1QUdWTEdiMHZuTnpvRFlNekJicjRQMGhIUThhVTJldHEwWGZlVXRpY25BazlMMHhId3cwZmFZSHZGVjhFd2ovRXF1L2srU0VjQTIvUGhpL0dsc1piVmRySW5jcHlsb2l3Qm9QWUorYU5aZjBHNmRHTE9NZFFIcVFsSUNzR2MvMHNCWnRKbGNuVkRZWUJLUWdlQUVBR00rdGhZVm43OHhBNEZBQkp6UU5TNTJRNzVJRVFBSTMxdUF1YjFaUTlROUZUZEJTVVVVbTRNd3JBSkpFaEFoRDJaZUgrb05xVzMwck5mRHF5VEhlOUw0eXRTdnlUL1o5WWw2aVJFQW1sNjM5TnJiMGlnY3ZrOUVTNEFzSFJqTG1QcmVQZld0Qkp2bzRSQ3loKzgvaXVLc2dUa3dJeW1lL2ExMHIxWHo5Nys2dEZubkozK3EwRTIrcXNCVGtJa2tFWXlKUzVQQUpJUmtDS3FBdEpHVlVEYXFBcElHMVVCYVdQZUMvZ1BLdkdRazFjZE1JZ0FBQUFBU1VWT1JLNUNZSUk9IiB5PSI4OC42NTYzIi8+PHRleHQgZmlsbD0iIzAwMDAwMCIgZm9udC1mYW1pbHk9InNhbnMtc2VyaWYiIGZvbnQtc2l6ZT0iMTIiIGxlbmd0aEFkanVzdD0ic3BhY2luZyIgdGV4dExlbmd0aD0iODEiIHg9IjIyNzAuNSIgeT0iMTY0Ij5bU2VydmVybGVzc108L3RleHQ+PHJlY3QgZmlsbD0iI0ZGRkZGRiIgaGVpZ2h0PSIxMzEuNTE1NiIgc3R5bGU9InN0cm9rZTojN0Q4OTk4O3N0cm9rZS13aWR0aDoxLjI1OyIgd2lkdGg9IjEwMiIgeD0iMjI2MCIgeT0iMTk1MC45NjA5Ii8+PHRleHQgZmlsbD0iIzAwMDAwMCIgZm9udC1mYW1pbHk9InNhbnMtc2VyaWYiIGZvbnQtc2l6ZT0iMTkiIGZvbnQtc3R5bGU9Iml0YWxpYyIgbGVuZ3RoQWRqdXN0PSJzcGFjaW5nIiB0ZXh0TGVuZ3RoPSI4OCIgeD0iMjI2NyIgeT0iMTk3NS45MjE5Ij4mIzE3MTtSZWRzaGlmdCYjMTg3OzwvdGV4dD48dGV4dCBmaWxsPSIjMDAwMDAwIiBmb250LWZhbWlseT0ic2Fucy1zZXJpZiIgZm9udC1zaXplPSIxOSIgbGVuZ3RoQWRqdXN0PSJzcGFjaW5nIiB0ZXh0TGVuZ3RoPSIxMCIgeD0iMjMwNiIgeT0iMTk5Ni4yNTc4Ij4mIzE2MDs8L3RleHQ+PGltYWdlIGhlaWdodD0iNjQiIHdpZHRoPSI2NCIgeD0iMjI3OSIgeGxpbms6aHJlZj0iZGF0YTppbWFnZS9wbmc7YmFzZTY0LGlWQk9SdzBLR2dvQUFBQU5TVWhFVWdBQUFFQUFBQUJBQ0FJQUFBQWxDK2FKQUFBRWwwbEVRVlI0WHUyYTZXOVVWUmpHK1E4Rm8rSVNVYUp4K2VBU0UyT0NTMUFNeGpnSXRhVWlGS25pUXRtdFVDeUZGdE9Lb0VpaExHbFpMTFVLTFNsVUdLQzBsTDcrM250dXA1MXpwc3laTXpkejB6aHZuZy9udnNzejk3bHo3dGxtRm1RZWtubU5CYTVyZnFFcUlHMVVCYVNOcW9DMFVSV1FOcElSc0dxUmZQMjZ0TmJLOFQzUzF5VURKK1Zxdjl3Y2tYdmpDaHBjNGlSRUFta2tVK0x5QktBOEFRdGx4d2R5OXBEY3VTbWxHaVVVVWc2SlRWc0t3Z1hzWGluWEJtZHVhR1JBVGgyUWcrdGw1d3BwZkZYcW41SFBIdGZIREdod2laTVFDYVNSbkROSW9ITDVQUkVvb0xzbC92anIvMGg3ZzZ4LzNrNG9Da29vcE53WWhHNk9EMElFZERUb1IwNk1TV3RkdVIyQWNraWd3cUMxb3g0SUVXQjZEdjNCRFlVQktvbjZraHNxaWhBQnhqYThZUHVEQVpVeE4xUVU0UUtHTHNnWHo5bWhBRUFDVlFvQ0pIb05qbTRQbDBFaDVlWUZTRUZBVDV2Y240eGFVM0xsbkJ6K1hydnk1OC9heVJaSUlJMWtTaWpFSUlFcUJRRTBOcjRzcDlyc1dZeXBsOEh4NzdQUzN5M25qeWhvY0ltVDBHeWprUEtHbC9JNFMwVlpBZ3lZcXI1N1M0NXNsWXUveStnVm1ZcWVhMEVqUkFKcEpGTXllelZoelAyc29raEFnSVhWaitnM3Mva05hWHBiZG4yb29NRWxUa0p1dmcvbkE1QzhnS0w0OUdGZE94emFKTnZlbTNFR2MxWmFBT3Vpb2ZNeEEzYnVzS3lLNXZKZ3prb0wrRzJuMXQ2NEtpZC9rckdzdHZmVnFEK1lzOUlDZFBRVTJiNWMyeDBidFgzNm9MYURPU3N0Z0Q2REhkc3RhNS9XRVJiak84bVV3VmxwQVZ2ZmxhbjdNWU5Fa3dhalU2WU16a29MQUplNnRad0orSEt2emdiR0djeFphUUgwSEc2ZEwySGQwangvTUdlU0F0aXE5eCtYVzlkbDhJdzB2V05IRFg1dTFOb0xSMjMvWEp4RmtaaUFoaGZ6MXBVODVtL2Z6RXRnTXQ1ZkwvOE9hZFRkREJYazlFRmlBaGhZTU5ZNXZKU01qRmh2NTB6MHhMNjRTaUp0dFUvYTVjWXNwdzhTRTlEYnBVNmVjV1o2aTRobHIwbmZML0VKQUFOT1g1ZDJNT3hZczExZWtOTUhpUWxvM3hEZk1YdVUwY3ZhbnJ3WFp4cjd0VW5UdGl6VDlzaUFYVzdNY3ZvZ01RRU1MMmFEWW93TlFNMWk3VTZzRkFaUHE0ZHBxK1l4WGNPWnFBK25EeElUMEI2ZHRRei9xVE5yYTUzZWF5N0VsbVhpcmtiakhaeEl5eHE3dkNDbkR4SVNzRER1Tm5PZHNiRWxNS2R4dDBmMWNNNU5LTURwaHdRRU5IK3NwNXpZamVGNGJUd1gxanhxZTNKSVRjQ1o5dmdTRzc4alg3MW1KM3RpTm1kSktFdUFHVkxHYjB2bk56b0RZTXpCYnI0UDBoSFE4YVUyZXRxMFhmZVV0aWNuQWs5TDB4SHd3MGZhWUh2RlY4RXdqL0VxdS9rK1NFY0EyL1BoaS9HbHNaYlZkckluY3B5bG9pd0JvUFlKK2FOWmYwRzZkR0xPTWRRSHFRbElDc0djLzBzQlp0SmxjblZEWVlCS1FnZUFFQUdNK3RoWVZuNzh4QTRGQUJKelFOUzUyUTc1SUVRQUkzMXVBdWIxWlE5UTlGVGRCU1VVVW00TXdyQUpKRWhBaEQyWmVIK29OcVczMHJOZkRxeVRIZTlMNHl0U3Z5VC9aOVlsNmlSRUFtbDYzOU5yYjBpZ2N2azlFUzRBc0hSakxtUHJlUGZXdEJKdm80UkN5aCs4L2l1S3NnVGt3SXltZS9hMTByMVh6OTcrNnRGbm5KMytxMEUyK3FzQlRrSWtrRVl5SlM1UEFKSVJrQ0txQXRKR1ZVRGFxQXBJRzFVQmFXUGVDL2dQS3ZHUWsxY2RNSWdBQUFBQVNVVk9SSzVDWUlJPSIgeT0iMTk5OC42MzI4Ii8+PHRleHQgZmlsbD0iIzAwMDAwMCIgZm9udC1mYW1pbHk9InNhbnMtc2VyaWYiIGZvbnQtc2l6ZT0iMTIiIGxlbmd0aEFkanVzdD0ic3BhY2luZyIgdGV4dExlbmd0aD0iODEiIHg9IjIyNzAuNSIgeT0iMjA3My45NzY2Ij5bU2VydmVybGVzc108L3RleHQ+PHJlY3QgZmlsbD0iI0ZGRkZGRiIgaGVpZ2h0PSIxMzEuNTE1NiIgc3R5bGU9InN0cm9rZTojN0Q4OTk4O3N0cm9rZS13aWR0aDoxLjI1OyIgd2lkdGg9IjkyIiB4PSIyMzc2IiB5PSI0MC45ODQ0Ii8+PHRleHQgZmlsbD0iIzAwMDAwMCIgZm9udC1mYW1pbHk9InNhbnMtc2VyaWYiIGZvbnQtc2l6ZT0iMTkiIGZvbnQtc3R5bGU9Iml0YWxpYyIgbGVuZ3RoQWRqdXN0PSJzcGFjaW5nIiB0ZXh0TGVuZ3RoPSI0NCIgeD0iMjQwMCIgeT0iNjUuOTQ1MyI+JiMxNzE7RUMyJiMxODc7PC90ZXh0Pjx0ZXh0IGZpbGw9IiMwMDAwMDAiIGZvbnQtZmFtaWx5PSJzYW5zLXNlcmlmIiBmb250LXNpemU9IjE5IiBsZW5ndGhBZGp1c3Q9InNwYWNpbmciIHRleHRMZW5ndGg9IjEwIiB4PSIyNDE3IiB5PSI4Ni4yODEzIj4mIzE2MDs8L3RleHQ+PGltYWdlIGhlaWdodD0iNjQiIHdpZHRoPSI2NCIgeD0iMjM5MCIgeGxpbms6aHJlZj0iZGF0YTppbWFnZS9wbmc7YmFzZTY0LGlWQk9SdzBLR2dvQUFBQU5TVWhFVWdBQUFFQUFBQUJBQ0FJQUFBQWxDK2FKQUFBQ0VFbEVRVlI0WHUyWU1VNEZNUXdGT1NkSG9PTk10QlFjakJVRkh5U2FEeXRaK3BqeDJ2R3VnOENDYUlvZEozbE95dXpWY252Vkdubzc2TzJndDRQZURubzc2TzJndDRQZURubzc2Qk41dnJzK254N2ZDMlBkdm9iWVpBMTlJc1hUeTFoRGJMS0dQaEU1Z2EzbnlTVFFKNUpwSDVOSm9FOGswejRtazBDZlNLWjlUQ2FCL3F2NHYwQU90TkdhK1E3SUxLTWZBRzI4ZzNyZkFabGw5QU9nalhkUTd6c2dzNHkraTVlSDIvUGJTZG9jR092ZU5jSEdYcEJsdHE2aDc2SnllaGxyZ28yOUlHdHNYVU5Qb2c5aFo1UG9rTTBjcjY2aEo0a2JKOUVobXpsZVhVUGZSYVpCd0hEN2NNSHlkeThnMFprR0FUcGtNOGVyYStoSjRzWkpkTWhtamxmWDBIZVJhUkF3M0Q1Y3NBd3ZZTisxZXRaV2RqSGNQbHl3REM5ZzM3VlN0NVVENkpETkhLK3VvUU12NHJQdDFtd1NIWExKUWJINnFKY1VXOC9NRHRuY0xrVVpFMzZyYlBaSXpnNHBiaGZvSU80Unp3NHBiaGZvd09zaGRXODJpUTQ1bkVNSFhuUzk4Zkt6RjhqTURpbHVGK2dnN2hIUERpbHVGK2pBNnlGMWJ6YUpEam1jUXdkZTlOZldjNGJ0a29FTzR1alQvYzM1OWVuck1YYU1kZSthWUdOM1FRZlN5ZGFETlZvejMwWG9JTk1KYTd5RGV0OUY2Q0RUQ1d1OGczcmZSZWhnWXFkdmdnNytMekFoSVlZTzZ1M3JDVEYwVUc5ZlQ0aWhnM3I3ZWtJTUhkaEgvWUV4Zk5kV29BUDdXMlh2eUx4cks5RGJRVzhIdlIzMGR0RGJRVzhIdlIzMGR0RGJRVy9IQndwSTc4MWFzTzhHQUFBQUFFbEZUa1N1UW1DQyIgeT0iODguNjU2MyIvPjx0ZXh0IGZpbGw9IiMwMDAwMDAiIGZvbnQtZmFtaWx5PSJzYW5zLXNlcmlmIiBmb250LXNpemU9IjEyIiBsZW5ndGhBZGp1c3Q9InNwYWNpbmciIHRleHRMZW5ndGg9Ijc4IiB4PSIyMzgzIiB5PSIxNjQiPltFRlQgU2VydmVyXTwvdGV4dD48cmVjdCBmaWxsPSIjRkZGRkZGIiBoZWlnaHQ9IjEzMS41MTU2IiBzdHlsZT0ic3Ryb2tlOiM3RDg5OTg7c3Ryb2tlLXdpZHRoOjEuMjU7IiB3aWR0aD0iOTIiIHg9IjIzNzYiIHk9IjE5NTAuOTYwOSIvPjx0ZXh0IGZpbGw9IiMwMDAwMDAiIGZvbnQtZmFtaWx5PSJzYW5zLXNlcmlmIiBmb250LXNpemU9IjE5IiBmb250LXN0eWxlPSJpdGFsaWMiIGxlbmd0aEFkanVzdD0ic3BhY2luZyIgdGV4dExlbmd0aD0iNDQiIHg9IjI0MDAiIHk9IjE5NzUuOTIxOSI+JiMxNzE7RUMyJiMxODc7PC90ZXh0Pjx0ZXh0IGZpbGw9IiMwMDAwMDAiIGZvbnQtZmFtaWx5PSJzYW5zLXNlcmlmIiBmb250LXNpemU9IjE5IiBsZW5ndGhBZGp1c3Q9InNwYWNpbmciIHRleHRMZW5ndGg9IjEwIiB4PSIyNDE3IiB5PSIxOTk2LjI1NzgiPiYjMTYwOzwvdGV4dD48aW1hZ2UgaGVpZ2h0PSI2NCIgd2lkdGg9IjY0IiB4PSIyMzkwIiB4bGluazpocmVmPSJkYXRhOmltYWdlL3BuZztiYXNlNjQsaVZCT1J3MEtHZ29BQUFBTlNVaEVVZ0FBQUVBQUFBQkFDQUlBQUFBbEMrYUpBQUFDRUVsRVFWUjRYdTJZTVU0Rk1Rd0ZPU2RIb09OTXRCUWNqQlVGSHlTYUR5dForcGp4MnZHdWc4Q0NhSW9kSjNsT3l1elZjbnZWR25vNzZPMmd0NFBlRG5vNzZPMmd0NFBlRG5vNzZCTjV2cnMrbng3ZkMyUGR2b2JZWkExOUlzWFR5MWhEYkxLR1BoRTVnYTNueVNUUUo1SnBINU5Kb0U4azB6NG1rMENmU0taOVRDYUIvcXY0djBBT3ROR2ErUTdJTEtNZkFHMjhnM3JmQVpsbDlBT2dqWGRRN3pzZ3M0eStpNWVIMi9QYlNkb2NHT3ZlTmNIR1hwQmx0cTZoNzZKeWVobHJnbzI5SUd0c1hVTlBvZzloWjVQb2tNMGNyNjZoSjRrYko5RWhtemxlWFVQZlJhWkJ3SEQ3Y01IeWR5OGcwWmtHQVRwa004ZXJhK2hKNHNaSmRNaG1qbGZYMEhlUmFSQXczRDVjc0F3dllOKzFldFpXZGpIY1BseXdEQzlnMzdWU3Q1VUQ2SkROSEsrdW9RTXY0clB0MW13U0hYTEpRYkg2cUpjVVc4L01EdG5jTGtVWkUzNnJiUFpJemc0cGJoZm9JTzRSenc0cGJoZm93T3NoZFc4MmlRNDVuRU1IWG5TOThmS3pGOGpNRGlsdUYrZ2c3aEhQRGlsdUYrakE2eUYxYnphSkRqbWNRd2RlOU5mV2M0YnRrb0VPNHVqVC9jMzU5ZW5yTVhhTWRlK2FZR04zUVFmU3lkYUROVm96MzBYb0lOTUphN3lEZXQ5RjZDRFRDV3U4ZzNyZlJlaGdZcWR2Z2c3K0x6QWhJWVlPNnUzckNURjBVRzlmVDRpaGczcjdla0lNSGRoSC9ZRXhmTmRXb0FQN1cyWHZ5THhySzlEYlFXOEh2UjMwZHREYlFXOEh2UjMwZHREYlFXL0hCd3BJNzgxYXNPOEdBQUFBQUVsRlRrU3VRbUNDIiB5PSIxOTk4LjYzMjgiLz48dGV4dCBmaWxsPSIjMDAwMDAwIiBmb250LWZhbWlseT0ic2Fucy1zZXJpZiIgZm9udC1zaXplPSIxMiIgbGVuZ3RoQWRqdXN0PSJzcGFjaW5nIiB0ZXh0TGVuZ3RoPSI3OCIgeD0iMjM4MyIgeT0iMjA3My45NzY2Ij5bRUZUIFNlcnZlcl08L3RleHQ+PHJlY3QgZmlsbD0iI0ZGRkZGRiIgaGVpZ2h0PSIxMzEuNTE1NiIgc3R5bGU9InN0cm9rZTojN0Q4OTk4O3N0cm9rZS13aWR0aDoxLjI1OyIgd2lkdGg9IjEyMCIgeD0iMjQ4MiIgeT0iNDAuOTg0NCIvPjx0ZXh0IGZpbGw9IiMwMDAwMDAiIGZvbnQtZmFtaWx5PSJzYW5zLXNlcmlmIiBmb250LXNpemU9IjE5IiBmb250LXN0eWxlPSJpdGFsaWMiIGxlbmd0aEFkanVzdD0ic3BhY2luZyIgdGV4dExlbmd0aD0iMTA2IiB4PSIyNDg5IiB5PSI2NS45NDUzIj4mIzE3MTtFTVJDbHVzdGVyJiMxODc7PC90ZXh0Pjx0ZXh0IGZpbGw9IiMwMDAwMDAiIGZvbnQtZmFtaWx5PSJzYW5zLXNlcmlmIiBmb250LXNpemU9IjE5IiBsZW5ndGhBZGp1c3Q9InNwYWNpbmciIHRleHRMZW5ndGg9IjEwIiB4PSIyNTM3IiB5PSI4Ni4yODEzIj4mIzE2MDs8L3RleHQ+PGltYWdlIGhlaWdodD0iNjQiIHdpZHRoPSI2NCIgeD0iMjUxMCIgeGxpbms6aHJlZj0iZGF0YTppbWFnZS9wbmc7YmFzZTY0LGlWQk9SdzBLR2dvQUFBQU5TVWhFVWdBQUFFQUFBQUJBQ0FZQUFBQ3FhWEhlQUFBSEtFbEVRVlI0WHUxYmVZaFZWUmkzZmFHTlZvaHNwY1VXb3BVZ0twUDJmSnZPSkJXVkVkZ0NyVlJHRm8yQnpuYm16V0Q1UjVnR0lpUVRVV0NMRkdSWlpKdjF4MGdUVVUxUktlV00xcFNUcGVQWDc3djNuRHZmKytiZDkrNWJycjQzemc5K3pQT2U3M3ozZkwrem4zT2RNR0VjNDlpbGFFdlRLU1pKZDBSaGU1cHV5amJTNGRwSDNhSTlRMGViRkEyQlZBSS8xWDdxRnRrMFhad253R0w4VS91cFd5Z0JsdXNtbjhNVTlZeHBBVHBTOUtoT2w0RE55bkVCeGdVSXVzdWlwZ1FkcUczcURoVUl3RnlYVGRCWjJxNnVVS0VBbkdjTDFnWjNhZHU2UVRrQ2NOQ1lGVllvTVpZdGJLU0RkSjZhQjRLWlVhb0F4ZzZDK1BzdytKOFFvVGVib25OMHZwb0ZDbnlmQ21BQTdDdEF0MklNWmdHVG9JdHNtdk14MUo2aU8rVjdhZzVOamJRdkNycElGTG9rdGlmcGQrbXZNMDJIZGFUcDlSeTdOQzF1bWt6N1M3dWFRRmVTamtGVC8wZ1U5bC93WmZBN00xTFRNdUQxNGptekI4SE5rajQ3TW5SYVI1S2VRZHFQS3U5WC9Id1UwelJkNXQ5cFFNRXZRS0YrRmdYYzBKYWtTL1BZTFhZMktQQ0xPbDJEQTFXQlIrR1oyazlCY0FhTXZGZnptaHdLM2h1b2lZSEwyNlltYUVwcmtvN1YrUnhnYzZzUnV6NzAwODlicDlGeDJvNng0SG82eElqYVJBMVAxVFlTc1BrMVQ0QUZpYWx6c3ZhVEE2OFFTYm9IeGl1OWFTZVBreEJ1QUpkeU0ydHFvajI3RzJrdi9MdE4yU3pEbnY0QS9VNEppSHNsN0lhZHova1pPa0xiT0JnckFJdUs4ZURFTUNLZXAxd1pRZ1dnQ2JRSFh2NElqQVpWb1V0bm1yN0Yzdy9FcyswWXdCN1Q3d3dEOG5jSlg5MDYzY0ZZQVhoczBXa1MzSEtkdjFBQmtQaThDb1JyWVEweVA4Y3R3cXNaVEQyc0tKcm11ZXlJbXlqVWZ3QjJTOEIxS3Ivalp2QmEvYjVDNEZhQ1BMMkJqelRkTE5OZm1FWDdzRTlqSzZ0aUFRejM4eFR0c0VaL3dlR2NRdjA2REowWm1vVDhDOEh0N29Vc2xyYUxBcnRTM0diOURKaHBkSUlObXNYbWRVTWdjc1VDY0w4VkRnZWcrUDA4eDJxN1lrQkJKcUsxdEJwL2l2TmZtS0NUdEYxVW9OczhLOHJsS21nVUt4WUFDUTNhS2JnVlFyeGovSUdzZ1RQeWN0TU5MQnlZMXczU05OUDIyVFY1ZkJBZmZPcjNGUUkzYitTNXhrNkpPVFV0eUd1SGVjYnZYckVKVUJWR0VTQmkwSTROTHArcDFpRElUcDBCRzhQb0lidHEyNXFuQUdFY3hJRDROb0s0VFk3aVlRSkVETnFyYWZodGQ4OVFydFU4emJJUEU0Y0EvTnM5eDVwZ1B4Nk0rRXdlaFpodEYwQXRzSm5MdjFrb0JKRG1nWTZuVVpjUEw1enYvRWtCc0ViZk8yclE4SDlla0E4QlkyejUwTm00M2FPcDFrTEloQWhRTHFRQW1FMU9GMEgzNndKWmpncGF3N3RFd1F4bDdmL2hFeUZVeXRkNWZCVmtXNExPMTc1akZRRDhXeGZDWTVLK3g5OTVlUXNVQXRUODNTNC8zckcyTFVXWEdUc1FNakZydkkrL0w0VXlTUTlxbng1TXZBTGtCTTFwcFFTdDRZMHp1UUg3djlFYXl0NEd4eXBBRllLVzRBVWEvRzVTNG03alZhcTJqWXc0QlFpYkJTb0JhdnNXSmNCY2JWTVM2azBBdTFzTkJNRGcyYWx0U2tLY0FvRDlmTGpCWndvOERXcmJVcUZtQThmaHZOTmJWTVFzZ0dSRll1ajFBUGlhK04zSFp4azZUeVRFTEFDZjdXa2h5aEtEenhSY2ZsNFJacE4wblpIVG9MOHVXQlZHM2x6SkJWc0FFNk1BWHBQMXp3U2I3ZHl2aFlna1JudUd6allqUy9QQnp1bDBzajE0MGI0S2tsZTIybmZzQXNpMHFHS2dOcTl5WXRnRGtDOERHM3M2Yk9waEthd0ZrSWdneGthdlpZalRZdGkrRmVTUGV6TlVMcUlLSUJHSWthSWZSRmxHRWNIZTdscUdHVXNDU0dCd3U5QVVGbU9qOFcrWVlqa1EyZVVDT01oekJSTzJxYXFHQUpnZWJoUU9uOURwcFlDbkdSUzhPM2hoZ3Fab215aFE5d1ByK1g2QVc0WTlqOGhwR1JVTHNLQ1Jqakx5bTcwa3JVREJVNlY4aXNJRnhJdG1nbXRWNGJZWWRheGRERkZ1aUd3M3FVNFhZUERnWW5LdnJKazg3MzRCTGpWOENtU3Z3NWo0UGNmV3huSXo4aG1icFBiVjdJNnlpc0g0Ujk5KzhBWHVDRTIxQmtHSGpnUmRZdnhWa3c2bUZBNXpGL0JPamxNMDI0ZzdBcDdDV2hycFVQMWVDZVJKQ0Y5OTJQNGVyRzBjek1nNm9JY0RDeU52bHB6UGdnSTRHUCtpNUVrVTVrM2pqN2c2U0VrK3IrOUYwSy95QndyOENhejBwWmVyNERmWXU1OGhiUnp3L0VqajN6RjZRbVl6ZElXMmtURFZXZ2dWQXc5czNuMUFoaVk1VlhuZTVtZjgwWU8yMStCN2ZDT3Z1bEwwQjVydERkb096MThSTmxtZHJnR2JUM1NBUlRqY05wVk8xWDUyQ3V6QTlvWXNEUGl1c1I5QVFKQ2ZWR0YvY1drQjAvUzQ5SWs4RTNtRHhGK095THg0dnRvN3djNzlPT0xwWWkwcWRuamJXZjlHUjlkTVZQWkxmL1o0VE41QzcrQ0JtYS9tcFYzTkFZV2M0VTJQSXdYblkvRlZCZWp1RUlLUHBMeWo5aFQ5Sm54c1JrMG41WHRxR25LMDUrbFZwMHNZOFprYzd3UHNTdE10a25oMytCbVBSenBmVGFPY0R5WEJJWjd6UmExejhGMjhYZFo1YWg1bENpQzVpVmVyMnJadVVLRUFIN2NrNkhodFYxY29Vd0R1OTgxaHgyWjFoVElGMk8zL3c4VFlGTURzanY5cHluN3RMUWUyS0J3N0F2QUJpc25kSlViaGU5cFBYWU8vSU5kNzl6Q2lLMXhlOXYzL09NYVJGLzhEOVd0YlQ4clRWaXNBQUFBQVNVVk9SSzVDWUlJPSIgeT0iODguNjU2MyIvPjx0ZXh0IGZpbGw9IiMwMDAwMDAiIGZvbnQtZmFtaWx5PSJzYW5zLXNlcmlmIiBmb250LXNpemU9IjEyIiBsZW5ndGhBZGp1c3Q9InNwYWNpbmciIHRleHRMZW5ndGg9Ijc4IiB4PSIyNTAzIiB5PSIxNjQiPltEYXRhYnJpY2tzXTwvdGV4dD48cmVjdCBmaWxsPSIjRkZGRkZGIiBoZWlnaHQ9IjEzMS41MTU2IiBzdHlsZT0ic3Ryb2tlOiM3RDg5OTg7c3Ryb2tlLXdpZHRoOjEuMjU7IiB3aWR0aD0iMTIwIiB4PSIyNDgyIiB5PSIxOTUwLjk2MDkiLz48dGV4dCBmaWxsPSIjMDAwMDAwIiBmb250LWZhbWlseT0ic2Fucy1zZXJpZiIgZm9udC1zaXplPSIxOSIgZm9udC1zdHlsZT0iaXRhbGljIiBsZW5ndGhBZGp1c3Q9InNwYWNpbmciIHRleHRMZW5ndGg9IjEwNiIgeD0iMjQ4OSIgeT0iMTk3NS45MjE5Ij4mIzE3MTtFTVJDbHVzdGVyJiMxODc7PC90ZXh0Pjx0ZXh0IGZpbGw9IiMwMDAwMDAiIGZvbnQtZmFtaWx5PSJzYW5zLXNlcmlmIiBmb250LXNpemU9IjE5IiBsZW5ndGhBZGp1c3Q9InNwYWNpbmciIHRleHRMZW5ndGg9IjEwIiB4PSIyNTM3IiB5PSIxOTk2LjI1NzgiPiYjMTYwOzwvdGV4dD48aW1hZ2UgaGVpZ2h0PSI2NCIgd2lkdGg9IjY0IiB4PSIyNTEwIiB4bGluazpocmVmPSJkYXRhOmltYWdlL3BuZztiYXNlNjQsaVZCT1J3MEtHZ29BQUFBTlNVaEVVZ0FBQUVBQUFBQkFDQVlBQUFDcWFYSGVBQUFIS0VsRVFWUjRYdTFiZVloVlZSaTNmYUdOVm9oc3BjVVdvcFVnS3BQMmZKdk9KQldWRWRnQ3JWUkdGbzJCem5ibXpXRDVSNWdHSWlRVFVXQ0xGR1JaWkp2MXgwZ1RVVTFSS2VXTTFwU1RwZVBYNzd2M25EdmYrK2JkOSs1YnJyNDN6ZzkrelBPZTczejNmTCt6bjNPZE1HRWM0OWlsYUV2VEtTWkpkMFJoZTVwdXlqYlM0ZHBIM2FJOVEwZWJGQTJCVkFJLzFYN3FGdGswWFp3bndHTDhVL3VwV3lnQmx1c21uOE1VOVl4cEFUcFM5S2hPbDRETnluRUJ4Z1VJdXN1aXBnUWRxRzNxRGhVSXdGeVhUZEJaMnE2dVVLRUFuR2NMMWdaM2FkdTZRVGtDY05DWUZWWW9NWll0YktTRGRKNmFCNEtaVWFvQXhnNkMrUHN3K0o4UW9UZWJvbk4wdnBvRkNueWZDbUFBN0N0QXQySU1aZ0dUb0l0c212TXgxSjZpTytWN2FnNU5qYlF2Q3JwSUZMb2t0aWZwZCttdk0wMkhkYVRwOVJ5N05DMXVta3o3Uzd1YVFGZVNqa0ZULzBnVTlsL3daZkE3TTFMVE11RDE0am16QjhITmtqNDdNblJhUjVLZVFkcVBLdTlYL0h3VTB6UmQ1dDlwUU1FdlFLRitGZ1hjMEpha1MvUFlMWFkyS1BDTE9sMkRBMVdCUitHWjJrOUJjQWFNdkZmem1od0szaHVvaVlITDI2WW1hRXBya283VitSeGdjNnNSdXo3MDA4OWJwOUZ4Mm82eDRIbzZ4SWphUkExUDFUWVNzUGsxVDRBRmlhbHpzdmFUQTY4UVNib0h4aXU5YVNlUGt4QnVBSmR5TTJ0cW9qMjdHMmt2L0x0TjJTekRudjRBL1U0SmlIc2w3SWFkei9rWk9rTGJPQmdyQUl1SzhlREVNQ0tlcDF3WlFnV2dDYlFIWHY0SWpBWlZvVXRubXI3RjN3L0VzKzBZd0I3VDd3d0Q4bmNKWDkwNjNjRllBWGhzMFdrUzNIS2R2MUFCa1BpOENvUnJZUTB5UDhjdHdxc1pURDJzS0pybXVleUlteWpVZndCMlM4QjFLci9qWnZCYS9iNUM0RmFDUEwyQmp6VGRMTk5mbUVYN3NFOWpLNnRpQVF6Mzh4VHRzRVovd2VHY1F2MDZESjBabW9UOEM4SHQ3b1VzbHJhTEFydFMzR2I5REpocGRJSU5tc1htZFVNZ2NzVUNjTDhWRGdlZytQMDh4MnE3WWtCQkpxSzF0QnAvaXZOZm1LQ1R0RjFVb05zOEs4cmxLbWdVS3hZQUNRM2FLYmdWUXJ4ai9JR3NnVFB5Y3RNTkxCeVkxdzNTTk5QMjJUVjVmQkFmZk9yM0ZRSTNiK1M1eGs2Sk9UVXR5R3VIZWNidlhyRUpVQlZHRVNCaTBJNE5McCtwMWlESVRwMEJHOFBvSWJ0cTI1cW5BR0VjeElENE5vSzRUWTdpWVFKRUROcXJhZmh0ZDg5UXJ0VTh6YklQRTRjQS9Oczl4NXBnUHg2TStFd2VoWmh0RjBBdHNKbkx2MWtvQkpEbWdZNm5VWmNQTDV6di9Fa0JzRWJmTzJyUThIOWVrQThCWTJ6NTBObTQzYU9wMWtMSWhBaFFMcVFBbUUxT0YwSDM2d0paamdwYXc3dEV3UXhsN2YvaEV5RlV5dGQ1ZkJWa1c0TE8xNzVqRlFEOFd4ZkNZNUsreDk5NWVRc1VBdFQ4M1M0LzNyRzJMVVdYR1RzUU1qRnJ2SSsvTDRVeVNROXFueDVNdkFMa0JNMXBwUVN0NFkwenVRSDd2OUVheXQ0R3h5cEFGWUtXNEFVYS9HNVM0bTdqVmFxMmpZdzRCUWliQlNvQmF2c1dKY0JjYlZNUzZrMEF1MXNOQk1EZzJhbHRTa0tjQW9EOWZMakJad284RFdyYlVxRm1BOGZodk5OYlZNUXNnR1JGWXVqMUFQaWErTjNIWnhrNlR5VEVMQUNmN1draHloS0R6eFJjZmw0UlpwTjBuWkhUb0w4dVdCVkczbHpKQlZzQUU2TUFYcFAxendTYjdkeXZoWWdrUm51R3pqWWpTL1BCenVsMHNqMTQwYjRLa2xlMjJuZnNBc2kwcUdLZ05xOXlZdGdEa0M4REczczZiT3BoS2F3RmtJZ2d4a2F2WllqVFl0aStGZVNQZXpOVUxxSUtJQkdJa2FJZlJGbEdFY0hlN2xxR0dVc0NTR0J3dTlBVUZtT2o4VytZWWprUTJlVUNPTWh6QlJPMnFhcUdBSmdlYmhRT245RHBwWUNuR1JTOE8zaGhncVpvbXloUTl3UHIrWDZBVzRZOWo4aHBHUlVMc0tDUmpqTHltNzBrclVEQlU2Vjhpc0lGeEl0bWdtdFY0YllZZGF4ZERGRnVpR3czcVU0WFlQRGdZbkt2ckprODczNEJMalY4Q21Tdnc1ajRQY2ZXeG5JejhobWJwUGJWN0k2eWlzSDRSOTkrOEFYdUNFMjFCa0dIamdSZFl2eFZrdzZtRkE1ekYvQk9qbE0wMjRnN0FwN0NXaHJwVVAxZUNlUkpDRjk5MlA0ZXJHMGN6TWc2b0ljREN5TnZscHpQZ2dJNEdQK2k1RWtVNWszamo3ZzZTRWsrcis5RjBLL3lCd3I4Q2F6MHBaZXI0RGZZdTU4aGJSencvRWpqM3pGNlFtWXpkSVcya1REVldnZ1ZBdzlzM24xQWhpWTVWWG5lNW1mODBZTzIxK0I3ZkNPdnVsTDBCNXJ0RGRvT3oxOFJObG1kcmdHYlQzU0FSVGpjTnBWTzFYNTJDdXpBOW9Zc0RQaXVzUjlBUUpDZlZHRi9jV2tCMC9TNDlJazhFM21EeEYrT3lMeDR2dG83d2M3OU9PTHBZaTBxZG5qYldmOUdSOWRNVlBaTGYvWjRUTjVDNytDQm1hL21wVjNOQVlXYzRVMlBJd1huWS9GVkJlanVFSUtQcEx5ajloVDlKbnhzUmswbjVYdHFHbkswNStsVnAwc1k4WmtjN3dQc1N0TXRrbmgzK0JtUFJ6cGZUYU9jRHlYQklaN3pSYTF6OEYyOFhkWjVhaDVsQ2lDNWlWZXIyclp1VUtFQUg3Y2s2SGh0VjFjb1V3RHU5ODFoeDJaMWhUSUYyTzMvdzhUWUZNRHNqdjlweW43dExRZTJLQnc3QXZBQmlzbmRKVWJoZTlwUFhZTy9JTmQ3OXpDaUsxeGU5djMvT01hUkYvOEQ5V3RiVDhyVFZpc0FBQUFBU1VWT1JLNUNZSUk9IiB5PSIxOTk4LjYzMjgiLz48dGV4dCBmaWxsPSIjMDAwMDAwIiBmb250LWZhbWlseT0ic2Fucy1zZXJpZiIgZm9udC1zaXplPSIxMiIgbGVuZ3RoQWRqdXN0PSJzcGFjaW5nIiB0ZXh0TGVuZ3RoPSI3OCIgeD0iMjUwMyIgeT0iMjA3My45NzY2Ij5bRGF0YWJyaWNrc108L3RleHQ+PHJlY3QgZmlsbD0iIzAwODAwMCIgaGVpZ2h0PSIzOS42ODc1IiBzdHlsZT0ic3Ryb2tlOiMwMDAwMDA7c3Ryb2tlLXdpZHRoOjEuMDsiIHdpZHRoPSIxMCIgeD0iNDQ4IiB5PSIyMTUuMTg3NSIvPjxyZWN0IGZpbGw9IiMwMDgwMDAiIGhlaWdodD0iODEuODc1IiBzdHlsZT0ic3Ryb2tlOiMwMDAwMDA7c3Ryb2tlLXdpZHRoOjEuMDsiIHdpZHRoPSIxMCIgeD0iMTYyMS41IiB5PSI2NDkuMTg3NSIvPjxyZWN0IGZpbGw9IiMwMDgwMDAiIGhlaWdodD0iMzkuNjg3NSIgc3R5bGU9InN0cm9rZTojMDAwMDAwO3N0cm9rZS13aWR0aDoxLjA7IiB3aWR0aD0iMTAiIHg9IjE2MjEuNSIgeT0iODM5Ljc4MTMiLz48cmVjdCBmaWxsPSIjMDA4MDAwIiBoZWlnaHQ9IjUyMi4yMzQ0IiBzdHlsZT0ic3Ryb2tlOiMwMDAwMDA7c3Ryb2tlLXdpZHRoOjEuMDsiIHdpZHRoPSIxMCIgeD0iMTk4NiIgeT0iNDE1Ljc2NTYiLz48cmVjdCBmaWxsPSIjMDA4MDAwIiBoZWlnaHQ9IjEwNy44NjcyIiBzdHlsZT0ic3Ryb2tlOiMwMDAwMDA7c3Ryb2tlLXdpZHRoOjEuMDsiIHdpZHRoPSIxMCIgeD0iMjE1NyIgeT0iMTM5Mi43ODkxIi8+PHJlY3QgZmlsbD0iIzAwODAwMCIgaGVpZ2h0PSI4NC41MzEzIiBzdHlsZT0ic3Ryb2tlOiMwMDAwMDA7c3Ryb2tlLXdpZHRoOjEuMDsiIHdpZHRoPSIxMCIgeD0iMjE1NyIgeT0iMTcxMC4wNTQ3Ii8+PHBvbHlnb24gZmlsbD0iIzAwMDAwMCIgcG9pbnRzPSI0NjksMjExLjE4NzUsNDU5LDIxNS4xODc1LDQ2OSwyMTkuMTg3NSw0NjUsMjE1LjE4NzUiIHN0eWxlPSJzdHJva2U6IzAwMDAwMDtzdHJva2Utd2lkdGg6MS4wOyIvPjxsaW5lIHN0eWxlPSJzdHJva2U6IzAwMDAwMDtzdHJva2Utd2lkdGg6Mi4wO3N0cm9rZS1kYXNoYXJyYXk6Mi4wLDIuMDsiIHgxPSI0NjMiIHgyPSI3MDkuNSIgeTE9IjIxNS4xODc1IiB5Mj0iMjE1LjE4NzUiLz48dGV4dCBmaWxsPSIjMDAwMDAwIiBmb250LWZhbWlseT0ic2Fucy1zZXJpZiIgZm9udC1zaXplPSIxMiIgZm9udC13ZWlnaHQ9ImJvbGQiIGxlbmd0aEFkanVzdD0ic3BhY2luZyIgdGV4dExlbmd0aD0iNDAiIHg9IjUyOC4yNSIgeT0iMTk4Ljg0MzgiPkludm9rZTwvdGV4dD48dGV4dCBmaWxsPSIjMDAwMDAwIiBmb250LWZhbWlseT0ic2Fucy1zZXJpZiIgZm9udC1zaXplPSIxMiIgZm9udC13ZWlnaHQ9ImJvbGQiIGxlbmd0aEFkanVzdD0ic3BhY2luZyIgdGV4dExlbmd0aD0iNiIgeD0iNTY4LjI1IiB5PSIxOTguODQzOCI+JiMxNjA7PC90ZXh0Pjx0ZXh0IGZpbGw9IiMwMDAwMDAiIGZvbnQtZmFtaWx5PSJzYW5zLXNlcmlmIiBmb250LXNpemU9IjEyIiBmb250LXdlaWdodD0iYm9sZCIgbGVuZ3RoQWRqdXN0PSJzcGFjaW5nIiB0ZXh0TGVuZ3RoPSI2NiIgeD0iNTc0LjI1IiB5PSIxOTguODQzOCI+Q2xvdWR3YXRjaDwvdGV4dD48dGV4dCBmaWxsPSIjMDAwMDAwIiBmb250LWZhbWlseT0ic2Fucy1zZXJpZiIgZm9udC1zaXplPSIxMiIgZm9udC13ZWlnaHQ9ImJvbGQiIGxlbmd0aEFkanVzdD0ic3BhY2luZyIgdGV4dExlbmd0aD0iMzgiIHg9IjUyOS4yNSIgeT0iMjExLjY4NzUiPm1ldHJpYzwvdGV4dD48dGV4dCBmaWxsPSIjMDAwMDAwIiBmb250LWZhbWlseT0ic2Fucy1zZXJpZiIgZm9udC1zaXplPSIxMiIgZm9udC13ZWlnaHQ9ImJvbGQiIGxlbmd0aEFkanVzdD0ic3BhY2luZyIgdGV4dExlbmd0aD0iNiIgeD0iNTY3LjI1IiB5PSIyMTEuNjg3NSI+JiMxNjA7PC90ZXh0Pjx0ZXh0IGZpbGw9IiMwMDAwMDAiIGZvbnQtZmFtaWx5PSJzYW5zLXNlcmlmIiBmb250LXNpemU9IjEyIiBmb250LXdlaWdodD0iYm9sZCIgbGVuZ3RoQWRqdXN0PSJzcGFjaW5nIiB0ZXh0TGVuZ3RoPSIyMCIgeD0iNTczLjI1IiB5PSIyMTEuNjg3NSI+c2V0PC90ZXh0Pjx0ZXh0IGZpbGw9IiMwMDAwMDAiIGZvbnQtZmFtaWx5PSJzYW5zLXNlcmlmIiBmb250LXNpemU9IjEyIiBmb250LXdlaWdodD0iYm9sZCIgbGVuZ3RoQWRqdXN0PSJzcGFjaW5nIiB0ZXh0TGVuZ3RoPSI2IiB4PSI1OTMuMjUiIHk9IjIxMS42ODc1Ij4mIzE2MDs8L3RleHQ+PHRleHQgZmlsbD0iIzAwMDAwMCIgZm9udC1mYW1pbHk9InNhbnMtc2VyaWYiIGZvbnQtc2l6ZT0iMTIiIGZvbnQtd2VpZ2h0PSJib2xkIiBsZW5ndGhBZGp1c3Q9InNwYWNpbmciIHRleHRMZW5ndGg9IjQwIiB4PSI1OTkuMjUiIHk9IjIxMS42ODc1Ij5MYW1iZGE8L3RleHQ+PHBvbHlnb24gZmlsbD0iIzAwMDAwMCIgcG9pbnRzPSIxNzUsMjUwLjg3NSwxNjUsMjU0Ljg3NSwxNzUsMjU4Ljg3NSwxNzEsMjU0Ljg3NSIgc3R5bGU9InN0cm9rZTojMDAwMDAwO3N0cm9rZS13aWR0aDoxLjA7Ii8+PGxpbmUgc3R5bGU9InN0cm9rZTojMDAwMDAwO3N0cm9rZS13aWR0aDoyLjA7c3Ryb2tlLWRhc2hhcnJheToyLjAsMi4wOyIgeDE9IjE2OSIgeDI9IjQ1MiIgeTE9IjI1NC44NzUiIHkyPSIyNTQuODc1Ii8+PHRleHQgZmlsbD0iIzAwMDAwMCIgZm9udC1mYW1pbHk9InNhbnMtc2VyaWYiIGZvbnQtc2l6ZT0iMTIiIGZvbnQtd2VpZ2h0PSJib2xkIiBsZW5ndGhBZGp1c3Q9InNwYWNpbmciIHRleHRMZW5ndGg9IjUyIiB4PSIyMzQiIHk9IjIzOC41MzEzIj5BY3RpdmF0ZTwvdGV4dD48dGV4dCBmaWxsPSIjMDAwMDAwIiBmb250LWZhbWlseT0ic2Fucy1zZXJpZiIgZm9udC1zaXplPSIxMiIgZm9udC13ZWlnaHQ9ImJvbGQiIGxlbmd0aEFkanVzdD0ic3BhY2luZyIgdGV4dExlbmd0aD0iNiIgeD0iMjg2IiB5PSIyMzguNTMxMyI+JiMxNjA7PC90ZXh0Pjx0ZXh0IGZpbGw9IiMwMDAwMDAiIGZvbnQtZmFtaWx5PSJzYW5zLXNlcmlmIiBmb250LXNpemU9IjEyIiBmb250LXdlaWdodD0iYm9sZCIgbGVuZ3RoQWRqdXN0PSJzcGFjaW5nIiB0ZXh0TGVuZ3RoPSIzMyIgeD0iMjkyIiB5PSIyMzguNTMxMyI+QWxhcm08L3RleHQ+PHRleHQgZmlsbD0iIzAwMDAwMCIgZm9udC1mYW1pbHk9InNhbnMtc2VyaWYiIGZvbnQtc2l6ZT0iMTIiIGZvbnQtd2VpZ2h0PSJib2xkIiBsZW5ndGhBZGp1c3Q9InNwYWNpbmciIHRleHRMZW5ndGg9IjYiIHg9IjMyNSIgeT0iMjM4LjUzMTMiPiYjMTYwOzwvdGV4dD48dGV4dCBmaWxsPSIjMDAwMDAwIiBmb250LWZhbWlseT0ic2Fucy1zZXJpZiIgZm9udC1zaXplPSIxMiIgZm9udC13ZWlnaHQ9ImJvbGQiIGxlbmd0aEFkanVzdD0ic3BhY2luZyIgdGV4dExlbmd0aD0iMjciIHg9IjMzMSIgeT0iMjM4LjUzMTMiPndoZW48L3RleHQ+PHRleHQgZmlsbD0iIzAwMDAwMCIgZm9udC1mYW1pbHk9InNhbnMtc2VyaWYiIGZvbnQtc2l6ZT0iMTIiIGZvbnQtd2VpZ2h0PSJib2xkIiBsZW5ndGhBZGp1c3Q9InNwYWNpbmciIHRleHRMZW5ndGg9IjYiIHg9IjM1OCIgeT0iMjM4LjUzMTMiPiYjMTYwOzwvdGV4dD48dGV4dCBmaWxsPSIjMDAwMDAwIiBmb250LWZhbWlseT0ic2Fucy1zZXJpZiIgZm9udC1zaXplPSIxMiIgZm9udC13ZWlnaHQ9ImJvbGQiIGxlbmd0aEFkanVzdD0ic3BhY2luZyIgdGV4dExlbmd0aD0iMTkiIHg9IjM2NCIgeT0iMjM4LjUzMTMiPkVDMjwvdGV4dD48dGV4dCBmaWxsPSIjMDAwMDAwIiBmb250LWZhbWlseT0ic2Fucy1zZXJpZiIgZm9udC1zaXplPSIxMiIgZm9udC13ZWlnaHQ9ImJvbGQiIGxlbmd0aEFkanVzdD0ic3BhY2luZyIgdGV4dExlbmd0aD0iMjEiIHg9IjI0MS41IiB5PSIyNTEuMzc1Ij5hcHA8L3RleHQ+PHRleHQgZmlsbD0iIzAwMDAwMCIgZm9udC1mYW1pbHk9InNhbnMtc2VyaWYiIGZvbnQtc2l6ZT0iMTIiIGZvbnQtd2VpZ2h0PSJib2xkIiBsZW5ndGhBZGp1c3Q9InNwYWNpbmciIHRleHRMZW5ndGg9IjYiIHg9IjI2Mi41IiB5PSIyNTEuMzc1Ij4mIzE2MDs8L3RleHQ+PHRleHQgZmlsbD0iIzAwMDAwMCIgZm9udC1mYW1pbHk9InNhbnMtc2VyaWYiIGZvbnQtc2l6ZT0iMTIiIGZvbnQtd2VpZ2h0PSJib2xkIiBsZW5ndGhBZGp1c3Q9InNwYWNpbmciIHRleHRMZW5ndGg9IjQyIiB4PSIyNjguNSIgeT0iMjUxLjM3NSI+c2VydmVyPC90ZXh0Pjx0ZXh0IGZpbGw9IiMwMDAwMDAiIGZvbnQtZmFtaWx5PSJzYW5zLXNlcmlmIiBmb250LXNpemU9IjEyIiBmb250LXdlaWdodD0iYm9sZCIgbGVuZ3RoQWRqdXN0PSJzcGFjaW5nIiB0ZXh0TGVuZ3RoPSI2IiB4PSIzMTAuNSIgeT0iMjUxLjM3NSI+JiMxNjA7PC90ZXh0Pjx0ZXh0IGZpbGw9IiMwMDAwMDAiIGZvbnQtZmFtaWx5PSJzYW5zLXNlcmlmIiBmb250LXNpemU9IjEyIiBmb250LXdlaWdodD0iYm9sZCIgbGVuZ3RoQWRqdXN0PSJzcGFjaW5nIiB0ZXh0TGVuZ3RoPSIxMyIgeD0iMzE2LjUiIHk9IjI1MS4zNzUiPmlzPC90ZXh0Pjx0ZXh0IGZpbGw9IiMwMDAwMDAiIGZvbnQtZmFtaWx5PSJzYW5zLXNlcmlmIiBmb250LXNpemU9IjEyIiBmb250LXdlaWdodD0iYm9sZCIgbGVuZ3RoQWRqdXN0PSJzcGFjaW5nIiB0ZXh0TGVuZ3RoPSI2IiB4PSIzMjkuNSIgeT0iMjUxLjM3NSI+JiMxNjA7PC90ZXh0Pjx0ZXh0IGZpbGw9IiMwMDAwMDAiIGZvbnQtZmFtaWx5PSJzYW5zLXNlcmlmIiBmb250LXNpemU9IjEyIiBmb250LXdlaWdodD0iYm9sZCIgbGVuZ3RoQWRqdXN0PSJzcGFjaW5nIiB0ZXh0TGVuZ3RoPSI0MCIgeD0iMzM1LjUiIHk9IjI1MS4zNzUiPm9ubGluZTwvdGV4dD48cGF0aCBkPSJNMTAsMjY5Ljg3NSBMMjAwLDI2OS44NzUgTDIwMCwyODIuMjEwOSBMMTkwLDI5Mi4yMTA5IEwxMCwyOTIuMjEwOSBMMTAsMjY5Ljg3NSAiIGZpbGw9IiNBNTJBMkEiIHN0eWxlPSJzdHJva2U6IzAwMDAwMDtzdHJva2Utd2lkdGg6MS41OyIvPjxyZWN0IGZpbGw9Im5vbmUiIGhlaWdodD0iNzQuODY3MiIgc3R5bGU9InN0cm9rZTojN0Q4OTk4O3N0cm9rZS13aWR0aDoxLjU7IiB3aWR0aD0iMTA5MiIgeD0iMTAiIHk9IjI2OS44NzUiLz48dGV4dCBmaWxsPSIjMDAwMDAwIiBmb250LWZhbWlseT0ic2Fucy1zZXJpZiIgZm9udC1zaXplPSIxOSIgZm9udC13ZWlnaHQ9ImJvbGQiIGxlbmd0aEFkanVzdD0ic3BhY2luZyIgdGV4dExlbmd0aD0iMTQ1IiB4PSIyNSIgeT0iMjg4LjgzNTkiPlNOUyBub3RpZmljYXRpb248L3RleHQ+PHBvbHlnb24gZmlsbD0iIzAwMDAwMCIgcG9pbnRzPSI5NTAuNSwzMzIuNzQyMiw5NjAuNSwzMzYuNzQyMiw5NTAuNSwzNDAuNzQyMiw5NTQuNSwzMzYuNzQyMiIgc3R5bGU9InN0cm9rZTojMDAwMDAwO3N0cm9rZS13aWR0aDoxLjA7Ii8+PGxpbmUgc3R5bGU9InN0cm9rZTojMDAwMDAwO3N0cm9rZS13aWR0aDoyLjA7c3Ryb2tlLWRhc2hhcnJheToyLjAsMi4wOyIgeDE9IjE2NCIgeDI9Ijk1Ni41IiB5MT0iMzM2Ljc0MjIiIHkyPSIzMzYuNzQyMiIvPjx0ZXh0IGZpbGw9IiMwMDAwMDAiIGZvbnQtZmFtaWx5PSJzYW5zLXNlcmlmIiBmb250LXNpemU9IjEyIiBmb250LXdlaWdodD0iYm9sZCIgbGVuZ3RoQWRqdXN0PSJzcGFjaW5nIiB0ZXh0TGVuZ3RoPSI1NSIgeD0iNTIyLjI1IiB5PSIzMDcuNTU0NyI+R2VuZXJhdGU8L3RleHQ+PHRleHQgZmlsbD0iIzAwMDAwMCIgZm9udC1mYW1pbHk9InNhbnMtc2VyaWYiIGZvbnQtc2l6ZT0iMTIiIGZvbnQtd2VpZ2h0PSJib2xkIiBsZW5ndGhBZGp1c3Q9InNwYWNpbmciIHRleHRMZW5ndGg9IjYiIHg9IjU3Ny4yNSIgeT0iMzA3LjU1NDciPiYjMTYwOzwvdGV4dD48dGV4dCBmaWxsPSIjMDAwMDAwIiBmb250LWZhbWlseT0ic2Fucy1zZXJpZiIgZm9udC1zaXplPSIxMiIgZm9udC13ZWlnaHQ9ImJvbGQiIGxlbmd0aEFkanVzdD0ic3BhY2luZyIgdGV4dExlbmd0aD0iMjEiIHg9IjU4My4yNSIgeT0iMzA3LjU1NDciPlNOUzwvdGV4dD48dGV4dCBmaWxsPSIjMDAwMDAwIiBmb250LWZhbWlseT0ic2Fucy1zZXJpZiIgZm9udC1zaXplPSIxMiIgZm9udC13ZWlnaHQ9ImJvbGQiIGxlbmd0aEFkanVzdD0ic3BhY2luZyIgdGV4dExlbmd0aD0iNzciIHg9IjUxNC43NSIgeT0iMzIwLjM5ODQiPm5vdGlmaWNhdGlvbjwvdGV4dD48dGV4dCBmaWxsPSIjMDAwMDAwIiBmb250LWZhbWlseT0ic2Fucy1zZXJpZiIgZm9udC1zaXplPSIxMiIgZm9udC13ZWlnaHQ9ImJvbGQiIGxlbmd0aEFkanVzdD0ic3BhY2luZyIgdGV4dExlbmd0aD0iNiIgeD0iNTkxLjc1IiB5PSIzMjAuMzk4NCI+JiMxNjA7PC90ZXh0Pjx0ZXh0IGZpbGw9IiMwMDAwMDAiIGZvbnQtZmFtaWx5PSJzYW5zLXNlcmlmIiBmb250LXNpemU9IjEyIiBmb250LXdlaWdodD0iYm9sZCIgbGVuZ3RoQWRqdXN0PSJzcGFjaW5nIiB0ZXh0TGVuZ3RoPSIxNCIgeD0iNTk3Ljc1IiB5PSIzMjAuMzk4NCI+Ynk8L3RleHQ+PHRleHQgZmlsbD0iIzAwMDAwMCIgZm9udC1mYW1pbHk9InNhbnMtc2VyaWYiIGZvbnQtc2l6ZT0iMTIiIGZvbnQtd2VpZ2h0PSJib2xkIiBsZW5ndGhBZGp1c3Q9InNwYWNpbmciIHRleHRMZW5ndGg9IjY3IiB4PSI1MTAuMjUiIHk9IjMzMy4yNDIyIj5DbG91ZFdhdGNoPC90ZXh0Pjx0ZXh0IGZpbGw9IiMwMDAwMDAiIGZvbnQtZmFtaWx5PSJzYW5zLXNlcmlmIiBmb250LXNpemU9IjEyIiBmb250LXdlaWdodD0iYm9sZCIgbGVuZ3RoQWRqdXN0PSJzcGFjaW5nIiB0ZXh0TGVuZ3RoPSI2IiB4PSI1NzcuMjUiIHk9IjMzMy4yNDIyIj4mIzE2MDs8L3RleHQ+PHRleHQgZmlsbD0iIzAwMDAwMCIgZm9udC1mYW1pbHk9InNhbnMtc2VyaWYiIGZvbnQtc2l6ZT0iMTIiIGZvbnQtd2VpZ2h0PSJib2xkIiBsZW5ndGhBZGp1c3Q9InNwYWNpbmciIHRleHRMZW5ndGg9IjMzIiB4PSI1ODMuMjUiIHk9IjMzMy4yNDIyIj5BbGFybTwvdGV4dD48cGF0aCBkPSJNNzYyLDM1OC43NDIyIEw5MzUsMzU4Ljc0MjIgTDkzNSwzNzEuMDc4MSBMOTI1LDM4MS4wNzgxIEw3NjIsMzgxLjA3ODEgTDc2MiwzNTguNzQyMiAiIGZpbGw9IiNBNTJBMkEiIHN0eWxlPSJzdHJva2U6IzAwMDAwMDtzdHJva2Utd2lkdGg6MS41OyIvPjxyZWN0IGZpbGw9Im5vbmUiIGhlaWdodD0iNjguMDIzNCIgc3R5bGU9InN0cm9rZTojN0Q4OTk4O3N0cm9rZS13aWR0aDoxLjU7IiB3aWR0aD0iMTMxMSIgeD0iNzYyIiB5PSIzNTguNzQyMiIvPjx0ZXh0IGZpbGw9IiMwMDAwMDAiIGZvbnQtZmFtaWx5PSJzYW5zLXNlcmlmIiBmb250LXNpemU9IjE5IiBmb250LXdlaWdodD0iYm9sZCIgbGVuZ3RoQWRqdXN0PSJzcGFjaW5nIiB0ZXh0TGVuZ3RoPSIxMjgiIHg9Ijc3NyIgeT0iMzc3LjcwMzEiPlNOUyBldmVudCBQb2xsPC90ZXh0Pjxwb2x5Z29uIGZpbGw9IiMwMDAwMDAiIHBvaW50cz0iMTk3NCw0MTEuNzY1NiwxOTg0LDQxNS43NjU2LDE5NzQsNDE5Ljc2NTYsMTk3OCw0MTUuNzY1NiIgc3R5bGU9InN0cm9rZTojMDAwMDAwO3N0cm9rZS13aWR0aDoxLjA7Ii8+PGxpbmUgc3R5bGU9InN0cm9rZTojMDAwMDAwO3N0cm9rZS13aWR0aDoyLjA7c3Ryb2tlLWRhc2hhcnJheToyLjAsMi4wOyIgeDE9Ijk2Mi41IiB4Mj0iMTk4MCIgeTE9IjQxNS43NjU2IiB5Mj0iNDE1Ljc2NTYiLz48dGV4dCBmaWxsPSIjMDAwMDAwIiBmb250LWZhbWlseT0ic2Fucy1zZXJpZiIgZm9udC1zaXplPSIxMiIgZm9udC13ZWlnaHQ9ImJvbGQiIGxlbmd0aEFkanVzdD0ic3BhY2luZyIgdGV4dExlbmd0aD0iNDciIHg9IjE0MDEuNzUiIHk9IjM5OS40MjE5Ij5UcmlnZ2VyPC90ZXh0Pjx0ZXh0IGZpbGw9IiMwMDAwMDAiIGZvbnQtZmFtaWx5PSJzYW5zLXNlcmlmIiBmb250LXNpemU9IjEyIiBmb250LXdlaWdodD0iYm9sZCIgbGVuZ3RoQWRqdXN0PSJzcGFjaW5nIiB0ZXh0TGVuZ3RoPSI2IiB4PSIxNDQ4Ljc1IiB5PSIzOTkuNDIxOSI+JiMxNjA7PC90ZXh0Pjx0ZXh0IGZpbGw9IiMwMDAwMDAiIGZvbnQtZmFtaWx5PSJzYW5zLXNlcmlmIiBmb250LXNpemU9IjEyIiBmb250LXdlaWdodD0iYm9sZCIgbGVuZ3RoQWRqdXN0PSJzcGFjaW5nIiB0ZXh0TGVuZ3RoPSIyNiIgeD0iMTQ1NC43NSIgeT0iMzk5LjQyMTkiPlBvbGw8L3RleHQ+PHRleHQgZmlsbD0iIzAwMDAwMCIgZm9udC1mYW1pbHk9InNhbnMtc2VyaWYiIGZvbnQtc2l6ZT0iMTIiIGZvbnQtd2VpZ2h0PSJib2xkIiBsZW5ndGhBZGp1c3Q9InNwYWNpbmciIHRleHRMZW5ndGg9IjYiIHg9IjE0ODAuNzUiIHk9IjM5OS40MjE5Ij4mIzE2MDs8L3RleHQ+PHRleHQgZmlsbD0iIzAwMDAwMCIgZm9udC1mYW1pbHk9InNhbnMtc2VyaWYiIGZvbnQtc2l6ZT0iMTIiIGZvbnQtd2VpZ2h0PSJib2xkIiBsZW5ndGhBZGp1c3Q9InNwYWNpbmciIHRleHRMZW5ndGg9IjQwIiB4PSIxNDg2Ljc1IiB5PSIzOTkuNDIxOSI+TGFtYmRhPC90ZXh0Pjx0ZXh0IGZpbGw9IiMwMDAwMDAiIGZvbnQtZmFtaWx5PSJzYW5zLXNlcmlmIiBmb250LXNpemU9IjEyIiBmb250LXdlaWdodD0iYm9sZCIgbGVuZ3RoQWRqdXN0PSJzcGFjaW5nIiB0ZXh0TGVuZ3RoPSI2IiB4PSIxNTI2Ljc1IiB5PSIzOTkuNDIxOSI+JiMxNjA7PC90ZXh0Pjx0ZXh0IGZpbGw9IiMwMDAwMDAiIGZvbnQtZmFtaWx5PSJzYW5zLXNlcmlmIiBmb250LXNpemU9IjEyIiBmb250LXdlaWdodD0iYm9sZCIgbGVuZ3RoQWRqdXN0PSJzcGFjaW5nIiB0ZXh0TGVuZ3RoPSIxNCIgeD0iMTUzMi43NSIgeT0iMzk5LjQyMTkiPmJ5PC90ZXh0Pjx0ZXh0IGZpbGw9IiMwMDAwMDAiIGZvbnQtZmFtaWx5PSJzYW5zLXNlcmlmIiBmb250LXNpemU9IjEyIiBmb250LXdlaWdodD0iYm9sZCIgbGVuZ3RoQWRqdXN0PSJzcGFjaW5nIiB0ZXh0TGVuZ3RoPSIyMSIgeD0iMTQ0My43NSIgeT0iNDEyLjI2NTYiPlNOUzwvdGV4dD48dGV4dCBmaWxsPSIjMDAwMDAwIiBmb250LWZhbWlseT0ic2Fucy1zZXJpZiIgZm9udC1zaXplPSIxMiIgZm9udC13ZWlnaHQ9ImJvbGQiIGxlbmd0aEFkanVzdD0ic3BhY2luZyIgdGV4dExlbmd0aD0iNiIgeD0iMTQ2NC43NSIgeT0iNDEyLjI2NTYiPiYjMTYwOzwvdGV4dD48dGV4dCBmaWxsPSIjMDAwMDAwIiBmb250LWZhbWlseT0ic2Fucy1zZXJpZiIgZm9udC1zaXplPSIxMiIgZm9udC13ZWlnaHQ9ImJvbGQiIGxlbmd0aEFkanVzdD0ic3BhY2luZyIgdGV4dExlbmd0aD0iMzQiIHg9IjE0NzAuNzUiIHk9IjQxMi4yNjU2Ij5ldmVudDwvdGV4dD48cGF0aCBkPSJNNzcyLDM4Ni4wNzgxIEw3NzIsNDIxLjA3ODEgTDk1Nyw0MjEuMDc4MSBMOTU3LDM5Ni4wNzgxIEw5NDcsMzg2LjA3ODEgTDc3MiwzODYuMDc4MSAiIGZpbGw9IiNGRkZGMDAiIHN0eWxlPSJzdHJva2U6IzdEODk5ODtzdHJva2Utd2lkdGg6MS4yNTsiLz48cGF0aCBkPSJNOTQ3LDM4Ni4wNzgxIEw5NDcsMzk2LjA3ODEgTDk1NywzOTYuMDc4MSBMOTQ3LDM4Ni4wNzgxICIgZmlsbD0iI0ZGRkYwMCIgc3R5bGU9InN0cm9rZTojN0Q4OTk4O3N0cm9rZS13aWR0aDoxLjI1OyIvPjx0ZXh0IGZpbGw9IiMwMDAwMDAiIGZvbnQtZmFtaWx5PSJzYW5zLXNlcmlmIiBmb250LXNpemU9IjEyIiBsZW5ndGhBZGp1c3Q9InNwYWNpbmciIHRleHRMZW5ndGg9IjU0IiB4PSI3ODciIHk9IjQwMi40MjE5Ij50cmlnZ2VyczwvdGV4dD48dGV4dCBmaWxsPSIjMDAwMDAwIiBmb250LWZhbWlseT0ic2Fucy1zZXJpZiIgZm9udC1zaXplPSIxMiIgbGVuZ3RoQWRqdXN0PSJzcGFjaW5nIiB0ZXh0TGVuZ3RoPSI2IiB4PSI4NDEiIHk9IjQwMi40MjE5Ij4mIzE2MDs8L3RleHQ+PHRleHQgZmlsbD0iIzAwMDAwMCIgZm9udC1mYW1pbHk9InNhbnMtc2VyaWYiIGZvbnQtc2l6ZT0iMTIiIGxlbmd0aEFkanVzdD0ic3BhY2luZyIgdGV4dExlbmd0aD0iOTUiIHg9Ijg0NyIgeT0iNDAyLjQyMTkiPmRkcHMtUG9sbFF1ZXVlPC90ZXh0Pjx0ZXh0IGZpbGw9IiMwMDAwMDAiIGZvbnQtZmFtaWx5PSJzYW5zLXNlcmlmIiBmb250LXNpemU9IjEyIiBsZW5ndGhBZGp1c3Q9InNwYWNpbmciIHRleHRMZW5ndGg9IjQwIiB4PSI4NDQuNSIgeT0iNDE1LjI2NTYiPkxhbWJkYTwvdGV4dD48cGF0aCBkPSJNMTAwOSw0NDAuNzY1NiBMMTE3NCw0NDAuNzY1NiBMMTE3NCw0NTMuMTAxNiBMMTE2NCw0NjMuMTAxNiBMMTAwOSw0NjMuMTAxNiBMMTAwOSw0NDAuNzY1NiAiIGZpbGw9IiMwMDgwMDAiIHN0eWxlPSJzdHJva2U6IzAwMDAwMDtzdHJva2Utd2lkdGg6MS41OyIvPjxyZWN0IGZpbGw9Im5vbmUiIGhlaWdodD0iNzQuODY3MiIgc3R5bGU9InN0cm9rZTojN0Q4OTk4O3N0cm9rZS13aWR0aDoxLjU7IiB3aWR0aD0iMTA2NCIgeD0iMTAwOSIgeT0iNDQwLjc2NTYiLz48dGV4dCBmaWxsPSIjMDAwMDAwIiBmb250LWZhbWlseT0ic2Fucy1zZXJpZiIgZm9udC1zaXplPSIxOSIgZm9udC13ZWlnaHQ9ImJvbGQiIGxlbmd0aEFkanVzdD0ic3BhY2luZyIgdGV4dExlbmd0aD0iMTIwIiB4PSIxMDI0IiB5PSI0NTkuNzI2NiI+UzMgZXZlbnQgUG9sbDwvdGV4dD48cG9seWdvbiBmaWxsPSIjMDAwMDAwIiBwb2ludHM9IjE5NzQsNTAzLjYzMjgsMTk4NCw1MDcuNjMyOCwxOTc0LDUxMS42MzI4LDE5NzgsNTA3LjYzMjgiIHN0eWxlPSJzdHJva2U6IzAwMDAwMDtzdHJva2Utd2lkdGg6MS4wOyIvPjxsaW5lIHN0eWxlPSJzdHJva2U6IzAwMDAwMDtzdHJva2Utd2lkdGg6Mi4wO3N0cm9rZS1kYXNoYXJyYXk6Mi4wLDIuMDsiIHgxPSIxMjA5IiB4Mj0iMTk4MCIgeTE9IjUwNy42MzI4IiB5Mj0iNTA3LjYzMjgiLz48dGV4dCBmaWxsPSIjMDAwMDAwIiBmb250LWZhbWlseT0ic2Fucy1zZXJpZiIgZm9udC1zaXplPSIxMiIgZm9udC13ZWlnaHQ9ImJvbGQiIGxlbmd0aEFkanVzdD0ic3BhY2luZyIgdGV4dExlbmd0aD0iNDciIHg9IjE1MzUiIHk9IjQ3OC40NDUzIj5UcmlnZ2VyPC90ZXh0Pjx0ZXh0IGZpbGw9IiMwMDAwMDAiIGZvbnQtZmFtaWx5PSJzYW5zLXNlcmlmIiBmb250LXNpemU9IjEyIiBmb250LXdlaWdodD0iYm9sZCIgbGVuZ3RoQWRqdXN0PSJzcGFjaW5nIiB0ZXh0TGVuZ3RoPSI2IiB4PSIxNTgyIiB5PSI0NzguNDQ1MyI+JiMxNjA7PC90ZXh0Pjx0ZXh0IGZpbGw9IiMwMDAwMDAiIGZvbnQtZmFtaWx5PSJzYW5zLXNlcmlmIiBmb250LXNpemU9IjEyIiBmb250LXdlaWdodD0iYm9sZCIgbGVuZ3RoQWRqdXN0PSJzcGFjaW5nIiB0ZXh0TGVuZ3RoPSIyNiIgeD0iMTU4OCIgeT0iNDc4LjQ0NTMiPlBvbGw8L3RleHQ+PHRleHQgZmlsbD0iIzAwMDAwMCIgZm9udC1mYW1pbHk9InNhbnMtc2VyaWYiIGZvbnQtc2l6ZT0iMTIiIGZvbnQtd2VpZ2h0PSJib2xkIiBsZW5ndGhBZGp1c3Q9InNwYWNpbmciIHRleHRMZW5ndGg9IjYiIHg9IjE2MTQiIHk9IjQ3OC40NDUzIj4mIzE2MDs8L3RleHQ+PHRleHQgZmlsbD0iIzAwMDAwMCIgZm9udC1mYW1pbHk9InNhbnMtc2VyaWYiIGZvbnQtc2l6ZT0iMTIiIGZvbnQtd2VpZ2h0PSJib2xkIiBsZW5ndGhBZGp1c3Q9InNwYWNpbmciIHRleHRMZW5ndGg9IjQwIiB4PSIxNjIwIiB5PSI0NzguNDQ1MyI+TGFtYmRhPC90ZXh0Pjx0ZXh0IGZpbGw9IiMwMDAwMDAiIGZvbnQtZmFtaWx5PSJzYW5zLXNlcmlmIiBmb250LXNpemU9IjEyIiBmb250LXdlaWdodD0iYm9sZCIgbGVuZ3RoQWRqdXN0PSJzcGFjaW5nIiB0ZXh0TGVuZ3RoPSIyMCIgeD0iMTUyNy41IiB5PSI0OTEuMjg5MSI+KGJ5PC90ZXh0Pjx0ZXh0IGZpbGw9IiMwMDAwMDAiIGZvbnQtZmFtaWx5PSJzYW5zLXNlcmlmIiBmb250LXNpemU9IjEyIiBmb250LXdlaWdodD0iYm9sZCIgbGVuZ3RoQWRqdXN0PSJzcGFjaW5nIiB0ZXh0TGVuZ3RoPSI2IiB4PSIxNTQ3LjUiIHk9IjQ5MS4yODkxIj4mIzE2MDs8L3RleHQ+PHRleHQgZmlsbD0iIzAwMDAwMCIgZm9udC1mYW1pbHk9InNhbnMtc2VyaWYiIGZvbnQtc2l6ZT0iMTIiIGZvbnQtd2VpZ2h0PSJib2xkIiBsZW5ndGhBZGp1c3Q9InNwYWNpbmciIHRleHRMZW5ndGg9IjExNCIgeD0iMTU1My41IiB5PSI0OTEuMjg5MSI+ZGJ4LmRvbmUvRUZULmRvbmU8L3RleHQ+PHRleHQgZmlsbD0iIzAwMDAwMCIgZm9udC1mYW1pbHk9InNhbnMtc2VyaWYiIGZvbnQtc2l6ZT0iMTIiIGZvbnQtd2VpZ2h0PSJib2xkIiBsZW5ndGhBZGp1c3Q9InNwYWNpbmciIHRleHRMZW5ndGg9IjEzIiB4PSIxNTU4IiB5PSI1MDQuMTMyOCI+UzM8L3RleHQ+PHRleHQgZmlsbD0iIzAwMDAwMCIgZm9udC1mYW1pbHk9InNhbnMtc2VyaWYiIGZvbnQtc2l6ZT0iMTIiIGZvbnQtd2VpZ2h0PSJib2xkIiBsZW5ndGhBZGp1c3Q9InNwYWNpbmciIHRleHRMZW5ndGg9IjYiIHg9IjE1NzEiIHk9IjUwNC4xMzI4Ij4mIzE2MDs8L3RleHQ+PHRleHQgZmlsbD0iIzAwMDAwMCIgZm9udC1mYW1pbHk9InNhbnMtc2VyaWYiIGZvbnQtc2l6ZT0iMTIiIGZvbnQtd2VpZ2h0PSJib2xkIiBsZW5ndGhBZGp1c3Q9InNwYWNpbmciIHRleHRMZW5ndGg9IjYwIiB4PSIxNTc3IiB5PSI1MDQuMTMyOCI+dHJpZ2dlcnMpPC90ZXh0PjxwYXRoIGQ9Ik0xMDE5LDQ3MS41MjM0IEwxMDE5LDUwNi41MjM0IEwxMjA0LDUwNi41MjM0IEwxMjA0LDQ4MS41MjM0IEwxMTk0LDQ3MS41MjM0IEwxMDE5LDQ3MS41MjM0ICIgZmlsbD0iI0ZGRkYwMCIgc3R5bGU9InN0cm9rZTojN0Q4OTk4O3N0cm9rZS13aWR0aDoxLjI1OyIvPjxwYXRoIGQ9Ik0xMTk0LDQ3MS41MjM0IEwxMTk0LDQ4MS41MjM0IEwxMjA0LDQ4MS41MjM0IEwxMTk0LDQ3MS41MjM0ICIgZmlsbD0iI0ZGRkYwMCIgc3R5bGU9InN0cm9rZTojN0Q4OTk4O3N0cm9rZS13aWR0aDoxLjI1OyIvPjx0ZXh0IGZpbGw9IiMwMDAwMDAiIGZvbnQtZmFtaWx5PSJzYW5zLXNlcmlmIiBmb250LXNpemU9IjEyIiBsZW5ndGhBZGp1c3Q9InNwYWNpbmciIHRleHRMZW5ndGg9IjU0IiB4PSIxMDM0IiB5PSI0ODcuODY3MiI+dHJpZ2dlcnM8L3RleHQ+PHRleHQgZmlsbD0iIzAwMDAwMCIgZm9udC1mYW1pbHk9InNhbnMtc2VyaWYiIGZvbnQtc2l6ZT0iMTIiIGxlbmd0aEFkanVzdD0ic3BhY2luZyIgdGV4dExlbmd0aD0iNiIgeD0iMTA4OCIgeT0iNDg3Ljg2NzIiPiYjMTYwOzwvdGV4dD48dGV4dCBmaWxsPSIjMDAwMDAwIiBmb250LWZhbWlseT0ic2Fucy1zZXJpZiIgZm9udC1zaXplPSIxMiIgbGVuZ3RoQWRqdXN0PSJzcGFjaW5nIiB0ZXh0TGVuZ3RoPSI5NSIgeD0iMTA5NCIgeT0iNDg3Ljg2NzIiPmRkcHMtUG9sbFF1ZXVlPC90ZXh0Pjx0ZXh0IGZpbGw9IiMwMDAwMDAiIGZvbnQtZmFtaWx5PSJzYW5zLXNlcmlmIiBmb250LXNpemU9IjEyIiBsZW5ndGhBZGp1c3Q9InNwYWNpbmciIHRleHRMZW5ndGg9IjQwIiB4PSIxMDkxLjUiIHk9IjUwMC43MTA5Ij5MYW1iZGE8L3RleHQ+PHBhdGggZD0iTTEyMjYsNTI5LjYzMjggTDE0MjYsNTI5LjYzMjggTDE0MjYsNTQxLjk2ODggTDE0MTYsNTUxLjk2ODggTDEyMjYsNTUxLjk2ODggTDEyMjYsNTI5LjYzMjggIiBmaWxsPSIjRkZENzAwIiBzdHlsZT0ic3Ryb2tlOiMwMDAwMDA7c3Ryb2tlLXdpZHRoOjEuNTsiLz48cmVjdCBmaWxsPSJub25lIiBoZWlnaHQ9IjE0MDUuMzI4MSIgc3R5bGU9InN0cm9rZTojN0Q4OTk4O3N0cm9rZS13aWR0aDoxLjU7IiB3aWR0aD0iMTU4NSIgeD0iMTIyNiIgeT0iNTI5LjYzMjgiLz48dGV4dCBmaWxsPSIjMDAwMDAwIiBmb250LWZhbWlseT0ic2Fucy1zZXJpZiIgZm9udC1zaXplPSIxOSIgZm9udC13ZWlnaHQ9ImJvbGQiIGxlbmd0aEFkanVzdD0ic3BhY2luZyIgdGV4dExlbmd0aD0iMTU1IiB4PSIxMjQxIiB5PSI1NDguNTkzOCI+UERFIEN5Y2xlIFByb2Nlc3M8L3RleHQ+PGxpbmUgc3R5bGU9InN0cm9rZTojMDAwMDAwO3N0cm9rZS13aWR0aDoyLjA7c3Ryb2tlLWRhc2hhcnJheToyLjAsMi4wOyIgeDE9IjE0MzMiIHgyPSIxNDc1IiB5MT0iNTk2LjUiIHkyPSI1OTYuNSIvPjxsaW5lIHN0eWxlPSJzdHJva2U6IzAwMDAwMDtzdHJva2Utd2lkdGg6Mi4wO3N0cm9rZS1kYXNoYXJyYXk6Mi4wLDIuMDsiIHgxPSIxNDc1IiB4Mj0iMTQ3NSIgeTE9IjU5Ni41IiB5Mj0iNjA5LjUiLz48bGluZSBzdHlsZT0ic3Ryb2tlOiMwMDAwMDA7c3Ryb2tlLXdpZHRoOjIuMDtzdHJva2UtZGFzaGFycmF5OjIuMCwyLjA7IiB4MT0iMTQzNCIgeDI9IjE0NzUiIHkxPSI2MDkuNSIgeTI9IjYwOS41Ii8+PHBvbHlnb24gZmlsbD0iIzAwMDAwMCIgcG9pbnRzPSIxNDQ0LDYwNS41LDE0MzQsNjA5LjUsMTQ0NCw2MTMuNSwxNDQwLDYwOS41IiBzdHlsZT0ic3Ryb2tlOiMwMDAwMDA7c3Ryb2tlLXdpZHRoOjEuMDsiLz48dGV4dCBmaWxsPSIjMDAwMEZGIiBmb250LWZhbWlseT0ic2Fucy1zZXJpZiIgZm9udC1zaXplPSIxMiIgZm9udC13ZWlnaHQ9ImJvbGQiIGxlbmd0aEFkanVzdD0ic3BhY2luZyIgdGV4dExlbmd0aD0iNiIgeD0iMTQ1NyIgeT0iNTY3LjMxMjUiPiYjMTYwOzwvdGV4dD48dGV4dCBmaWxsPSIjMDAwMEZGIiBmb250LWZhbWlseT0ic2Fucy1zZXJpZiIgZm9udC1zaXplPSIxMiIgZm9udC13ZWlnaHQ9ImJvbGQiIGxlbmd0aEFkanVzdD0ic3BhY2luZyIgdGV4dExlbmd0aD0iMjAiIHg9IjE0NjMiIHk9IjU2Ny4zMTI1Ij5QdXQ8L3RleHQ+PHRleHQgZmlsbD0iIzAwMDBGRiIgZm9udC1mYW1pbHk9InNhbnMtc2VyaWYiIGZvbnQtc2l6ZT0iMTIiIGZvbnQtd2VpZ2h0PSJib2xkIiBsZW5ndGhBZGp1c3Q9InNwYWNpbmciIHRleHRMZW5ndGg9IjYiIHg9IjE0ODMiIHk9IjU2Ny4zMTI1Ij4mIzE2MDs8L3RleHQ+PHRleHQgZmlsbD0iIzAwMDBGRiIgZm9udC1mYW1pbHk9InNhbnMtc2VyaWYiIGZvbnQtc2l6ZT0iMTIiIGZvbnQtd2VpZ2h0PSJib2xkIiBsZW5ndGhBZGp1c3Q9InNwYWNpbmciIHRleHRMZW5ndGg9IjgxIiB4PSIxNDg5IiB5PSI1NjcuMzEyNSI+Q05UTC9QREVDT1BZPC90ZXh0Pjx0ZXh0IGZpbGw9IiMwMDAwRkYiIGZvbnQtZmFtaWx5PSJzYW5zLXNlcmlmIiBmb250LXNpemU9IjEyIiBmb250LXdlaWdodD0iYm9sZCIgbGVuZ3RoQWRqdXN0PSJzcGFjaW5nIiB0ZXh0TGVuZ3RoPSIzMiIgeD0iMTQ3OC41IiB5PSI1ODAuMTU2MyI+ZmlsZXM8L3RleHQ+PHRleHQgZmlsbD0iIzAwMDBGRiIgZm9udC1mYW1pbHk9InNhbnMtc2VyaWYiIGZvbnQtc2l6ZT0iMTIiIGZvbnQtd2VpZ2h0PSJib2xkIiBsZW5ndGhBZGp1c3Q9InNwYWNpbmciIHRleHRMZW5ndGg9IjYiIHg9IjE1MTAuNSIgeT0iNTgwLjE1NjMiPiYjMTYwOzwvdGV4dD48dGV4dCBmaWxsPSIjMDAwMEZGIiBmb250LWZhbWlseT0ic2Fucy1zZXJpZiIgZm9udC1zaXplPSIxMiIgZm9udC13ZWlnaHQ9ImJvbGQiIGxlbmd0aEFkanVzdD0ic3BhY2luZyIgdGV4dExlbmd0aD0iMTMiIHg9IjE1MTYuNSIgeT0iNTgwLjE1NjMiPnRvPC90ZXh0Pjx0ZXh0IGZpbGw9IiMwMDAwRkYiIGZvbnQtZmFtaWx5PSJzYW5zLXNlcmlmIiBmb250LXNpemU9IjEyIiBmb250LXdlaWdodD0iYm9sZCIgbGVuZ3RoQWRqdXN0PSJzcGFjaW5nIiB0ZXh0TGVuZ3RoPSI2IiB4PSIxNTI5LjUiIHk9IjU4MC4xNTYzIj4mIzE2MDs8L3RleHQ+PHRleHQgZmlsbD0iIzAwMDBGRiIgZm9udC1mYW1pbHk9InNhbnMtc2VyaWYiIGZvbnQtc2l6ZT0iMTIiIGZvbnQtd2VpZ2h0PSJib2xkIiBsZW5ndGhBZGp1c3Q9InNwYWNpbmciIHRleHRMZW5ndGg9IjEzIiB4PSIxNTM1LjUiIHk9IjU4MC4xNTYzIj5TMzwvdGV4dD48dGV4dCBmaWxsPSIjMDAwMEZGIiBmb250LWZhbWlseT0ic2Fucy1zZXJpZiIgZm9udC1zaXplPSIxMiIgZm9udC13ZWlnaHQ9ImJvbGQiIGxlbmd0aEFkanVzdD0ic3BhY2luZyIgdGV4dExlbmd0aD0iMTAyIiB4PSIxNDQwIiB5PSI1OTMiPmxhbmRpbmcvcGRlY29weTwvdGV4dD48dGV4dCBmaWxsPSIjMDAwMEZGIiBmb250LWZhbWlseT0ic2Fucy1zZXJpZiIgZm9udC1zaXplPSIxMiIgZm9udC13ZWlnaHQ9ImJvbGQiIGxlbmd0aEFkanVzdD0ic3BhY2luZyIgdGV4dExlbmd0aD0iNiIgeD0iMTU0MiIgeT0iNTkzIj4mIzE2MDs8L3RleHQ+PHRleHQgZmlsbD0iIzAwMDBGRiIgZm9udC1mYW1pbHk9InNhbnMtc2VyaWYiIGZvbnQtc2l6ZT0iMTIiIGZvbnQtd2VpZ2h0PSJib2xkIiBsZW5ndGhBZGp1c3Q9InNwYWNpbmciIHRleHRMZW5ndGg9IjM5IiB4PSIxNTQ4IiB5PSI1OTMiPkJ1Y2tldDwvdGV4dD48cGF0aCBkPSJNMTI1MCw1NzMuMzEyNSBMMTI1MCw1OTUuMzEyNSBMMTQyOCw1OTUuMzEyNSBMMTQyOCw1ODMuMzEyNSBMMTQxOCw1NzMuMzEyNSBMMTI1MCw1NzMuMzEyNSAiIGZpbGw9IiNGRkZGMDAiIHN0eWxlPSJzdHJva2U6IzdEODk5ODtzdHJva2Utd2lkdGg6MS4yNTsiLz48cGF0aCBkPSJNMTQxOCw1NzMuMzEyNSBMMTQxOCw1ODMuMzEyNSBMMTQyOCw1ODMuMzEyNSBMMTQxOCw1NzMuMzEyNSAiIGZpbGw9IiNGRkZGMDAiIHN0eWxlPSJzdHJva2U6IzdEODk5ODtzdHJva2Utd2lkdGg6MS4yNTsiLz48dGV4dCBmaWxsPSIjMDAwMDAwIiBmb250LWZhbWlseT0ic2Fucy1zZXJpZiIgZm9udC1zaXplPSIxMiIgZm9udC13ZWlnaHQ9ImJvbGQiIGxlbmd0aEFkanVzdD0ic3BhY2luZyIgdGV4dExlbmd0aD0iMjAiIHg9IjEyNjUiIHk9IjU4OS42NTYzIj5Hb3Q8L3RleHQ+PHRleHQgZmlsbD0iIzAwMDAwMCIgZm9udC1mYW1pbHk9InNhbnMtc2VyaWYiIGZvbnQtc2l6ZT0iMTIiIGZvbnQtd2VpZ2h0PSJib2xkIiBsZW5ndGhBZGp1c3Q9InNwYWNpbmciIHRleHRMZW5ndGg9IjYiIHg9IjEyODUiIHk9IjU4OS42NTYzIj4mIzE2MDs8L3RleHQ+PHRleHQgZmlsbD0iIzAwMDAwMCIgZm9udC1mYW1pbHk9InNhbnMtc2VyaWYiIGZvbnQtc2l6ZT0iMTIiIGZvbnQtd2VpZ2h0PSJib2xkIiBsZW5ndGhBZGp1c3Q9InNwYWNpbmciIHRleHRMZW5ndGg9IjMyIiB4PSIxMjkxIiB5PSI1ODkuNjU2MyI+RmlsZXM8L3RleHQ+PHRleHQgZmlsbD0iIzAwMDAwMCIgZm9udC1mYW1pbHk9InNhbnMtc2VyaWYiIGZvbnQtc2l6ZT0iMTIiIGZvbnQtd2VpZ2h0PSJib2xkIiBsZW5ndGhBZGp1c3Q9InNwYWNpbmciIHRleHRMZW5ndGg9IjYiIHg9IjEzMjMiIHk9IjU4OS42NTYzIj4mIzE2MDs8L3RleHQ+PHRleHQgZmlsbD0iIzAwMDAwMCIgZm9udC1mYW1pbHk9InNhbnMtc2VyaWYiIGZvbnQtc2l6ZT0iMTIiIGZvbnQtd2VpZ2h0PSJib2xkIiBsZW5ndGhBZGp1c3Q9InNwYWNpbmciIHRleHRMZW5ndGg9IjI2IiB4PSIxMzI5IiB5PSI1ODkuNjU2MyI+Zm9ybTwvdGV4dD48dGV4dCBmaWxsPSIjMDAwMDAwIiBmb250LWZhbWlseT0ic2Fucy1zZXJpZiIgZm9udC1zaXplPSIxMiIgZm9udC13ZWlnaHQ9ImJvbGQiIGxlbmd0aEFkanVzdD0ic3BhY2luZyIgdGV4dExlbmd0aD0iNiIgeD0iMTM1NSIgeT0iNTg5LjY1NjMiPiYjMTYwOzwvdGV4dD48dGV4dCBmaWxsPSIjMDAwMDAwIiBmb250LWZhbWlseT0ic2Fucy1zZXJpZiIgZm9udC1zaXplPSIxMiIgZm9udC13ZWlnaHQ9ImJvbGQiIGxlbmd0aEFkanVzdD0ic3BhY2luZyIgdGV4dExlbmd0aD0iNTIiIHg9IjEzNjEiIHk9IjU4OS42NTYzIj5QYWxtZXR0bzwvdGV4dD48cG9seWdvbiBmaWxsPSIjMDAwMDAwIiBwb2ludHM9IjE2MDkuNSw2NDUuMTg3NSwxNjE5LjUsNjQ5LjE4NzUsMTYwOS41LDY1My4xODc1LDE2MTMuNSw2NDkuMTg3NSIgc3R5bGU9InN0cm9rZTojMDAwMDAwO3N0cm9rZS13aWR0aDoxLjA7Ii8+PGxpbmUgc3R5bGU9InN0cm9rZTojMDAwMDAwO3N0cm9rZS13aWR0aDoyLjA7IiB4MT0iMTQzMyIgeDI9IjE2MTUuNSIgeTE9IjY0OS4xODc1IiB5Mj0iNjQ5LjE4NzUiLz48dGV4dCBmaWxsPSIjMDAwMDAwIiBmb250LWZhbWlseT0ic2Fucy1zZXJpZiIgZm9udC1zaXplPSIxMiIgZm9udC13ZWlnaHQ9ImJvbGQiIGxlbmd0aEFkanVzdD0ic3BhY2luZyIgdGV4dExlbmd0aD0iNDciIHg9IjE0NTcuNzUiIHk9IjYzMi44NDM4Ij5UcmlnZ2VyPC90ZXh0Pjx0ZXh0IGZpbGw9IiMwMDAwMDAiIGZvbnQtZmFtaWx5PSJzYW5zLXNlcmlmIiBmb250LXNpemU9IjEyIiBmb250LXdlaWdodD0iYm9sZCIgbGVuZ3RoQWRqdXN0PSJzcGFjaW5nIiB0ZXh0TGVuZ3RoPSI2IiB4PSIxNTA0Ljc1IiB5PSI2MzIuODQzOCI+JiMxNjA7PC90ZXh0Pjx0ZXh0IGZpbGw9IiMwMDAwMDAiIGZvbnQtZmFtaWx5PSJzYW5zLXNlcmlmIiBmb250LXNpemU9IjEyIiBmb250LXdlaWdodD0iYm9sZCIgbGVuZ3RoQWRqdXN0PSJzcGFjaW5nIiB0ZXh0TGVuZ3RoPSI0MCIgeD0iMTUxMC43NSIgeT0iNjMyLjg0MzgiPkxhbWJkYTwvdGV4dD48dGV4dCBmaWxsPSIjMDAwMDAwIiBmb250LWZhbWlseT0ic2Fucy1zZXJpZiIgZm9udC1zaXplPSIxMiIgZm9udC13ZWlnaHQ9ImJvbGQiIGxlbmd0aEFkanVzdD0ic3BhY2luZyIgdGV4dExlbmd0aD0iNiIgeD0iMTU1MC43NSIgeT0iNjMyLjg0MzgiPiYjMTYwOzwvdGV4dD48dGV4dCBmaWxsPSIjMDAwMDAwIiBmb250LWZhbWlseT0ic2Fucy1zZXJpZiIgZm9udC1zaXplPSIxMiIgZm9udC13ZWlnaHQ9ImJvbGQiIGxlbmd0aEFkanVzdD0ic3BhY2luZyIgdGV4dExlbmd0aD0iMTMiIHg9IjE1NTYuNzUiIHk9IjYzMi44NDM4Ij50bzwvdGV4dD48dGV4dCBmaWxsPSIjMDAwMDAwIiBmb250LWZhbWlseT0ic2Fucy1zZXJpZiIgZm9udC1zaXplPSIxMiIgZm9udC13ZWlnaHQ9ImJvbGQiIGxlbmd0aEFkanVzdD0ic3BhY2luZyIgdGV4dExlbmd0aD0iNiIgeD0iMTU2OS43NSIgeT0iNjMyLjg0MzgiPiYjMTYwOzwvdGV4dD48dGV4dCBmaWxsPSIjMDAwMDAwIiBmb250LWZhbWlseT0ic2Fucy1zZXJpZiIgZm9udC1zaXplPSIxMiIgZm9udC13ZWlnaHQ9ImJvbGQiIGxlbmd0aEFkanVzdD0ic3BhY2luZyIgdGV4dExlbmd0aD0iMjEiIHg9IjE1NzUuNzUiIHk9IjYzMi44NDM4Ij5hZGQ8L3RleHQ+PHRleHQgZmlsbD0iIzAwMDAwMCIgZm9udC1mYW1pbHk9InNhbnMtc2VyaWYiIGZvbnQtc2l6ZT0iMTIiIGZvbnQtd2VpZ2h0PSJib2xkIiBsZW5ndGhBZGp1c3Q9InNwYWNpbmciIHRleHRMZW5ndGg9IjQ5IiB4PSIxNTAyLjc1IiB5PSI2NDUuNjg3NSI+TWVzc2FnZTwvdGV4dD48cG9seWdvbiBmaWxsPSIjMDAwMDAwIiBwb2ludHM9IjE3OTksNjg0Ljg3NSwxODA5LDY4OC44NzUsMTc5OSw2OTIuODc1LDE4MDMsNjg4Ljg3NSIgc3R5bGU9InN0cm9rZTojMDAwMDAwO3N0cm9rZS13aWR0aDoxLjA7Ii8+PGxpbmUgc3R5bGU9InN0cm9rZTojMDAwMDAwO3N0cm9rZS13aWR0aDoyLjA7IiB4MT0iMTYzMS41IiB4Mj0iMTgwNSIgeTE9IjY4OC44NzUiIHkyPSI2ODguODc1Ii8+PHRleHQgZmlsbD0iIzAwMDBGRiIgZm9udC1mYW1pbHk9InNhbnMtc2VyaWYiIGZvbnQtc2l6ZT0iMTIiIGZvbnQtd2VpZ2h0PSJib2xkIiBsZW5ndGhBZGp1c3Q9InNwYWNpbmciIHRleHRMZW5ndGg9IjYiIHg9IjE2NTMuNzUiIHk9IjY3Mi41MzEzIj4mIzE2MDs8L3RleHQ+PHRleHQgZmlsbD0iIzAwMDBGRiIgZm9udC1mYW1pbHk9InNhbnMtc2VyaWYiIGZvbnQtc2l6ZT0iMTIiIGZvbnQtd2VpZ2h0PSJib2xkIiBsZW5ndGhBZGp1c3Q9InNwYWNpbmciIHRleHRMZW5ndGg9IjIxIiB4PSIxNjU5Ljc1IiB5PSI2NzIuNTMxMyI+QWRkPC90ZXh0Pjx0ZXh0IGZpbGw9IiMwMDAwRkYiIGZvbnQtZmFtaWx5PSJzYW5zLXNlcmlmIiBmb250LXNpemU9IjEyIiBmb250LXdlaWdodD0iYm9sZCIgbGVuZ3RoQWRqdXN0PSJzcGFjaW5nIiB0ZXh0TGVuZ3RoPSI2IiB4PSIxNjgwLjc1IiB5PSI2NzIuNTMxMyI+JiMxNjA7PC90ZXh0Pjx0ZXh0IGZpbGw9IiMwMDAwRkYiIGZvbnQtZmFtaWx5PSJzYW5zLXNlcmlmIiBmb250LXNpemU9IjEyIiBmb250LXdlaWdodD0iYm9sZCIgbGVuZ3RoQWRqdXN0PSJzcGFjaW5nIiB0ZXh0TGVuZ3RoPSI0OCIgeD0iMTY4Ni43NSIgeT0iNjcyLjUzMTMiPm1lc3NhZ2U8L3RleHQ+PHRleHQgZmlsbD0iIzAwMDBGRiIgZm9udC1mYW1pbHk9InNhbnMtc2VyaWYiIGZvbnQtc2l6ZT0iMTIiIGZvbnQtd2VpZ2h0PSJib2xkIiBsZW5ndGhBZGp1c3Q9InNwYWNpbmciIHRleHRMZW5ndGg9IjYiIHg9IjE3MzQuNzUiIHk9IjY3Mi41MzEzIj4mIzE2MDs8L3RleHQ+PHRleHQgZmlsbD0iIzAwMDBGRiIgZm9udC1mYW1pbHk9InNhbnMtc2VyaWYiIGZvbnQtc2l6ZT0iMTIiIGZvbnQtd2VpZ2h0PSJib2xkIiBsZW5ndGhBZGp1c3Q9InNwYWNpbmciIHRleHRMZW5ndGg9IjQ4IiB4PSIxNzQwLjc1IiB5PSI2NzIuNTMxMyI+UERFQ09QWTwvdGV4dD48dGV4dCBmaWxsPSIjMDAwMEZGIiBmb250LWZhbWlseT0ic2Fucy1zZXJpZiIgZm9udC1zaXplPSIxMiIgZm9udC13ZWlnaHQ9ImJvbGQiIGxlbmd0aEFkanVzdD0ic3BhY2luZyIgdGV4dExlbmd0aD0iMzIiIHg9IjE3MDUuMjUiIHk9IjY4NS4zNzUiPkZpbGVzPC90ZXh0PjxsaW5lIHN0eWxlPSJzdHJva2U6IzAwMDAwMDtzdHJva2Utd2lkdGg6Mi4wO3N0cm9rZS1kYXNoYXJyYXk6Mi4wLDIuMDsiIHgxPSIxNjMxLjUiIHgyPSIxNjczLjUiIHkxPSI3MzAuMDYyNSIgeTI9IjczMC4wNjI1Ii8+PGxpbmUgc3R5bGU9InN0cm9rZTojMDAwMDAwO3N0cm9rZS13aWR0aDoyLjA7c3Ryb2tlLWRhc2hhcnJheToyLjAsMi4wOyIgeDE9IjE2NzMuNSIgeDI9IjE2NzMuNSIgeTE9IjczMC4wNjI1IiB5Mj0iNzQzLjA2MjUiLz48bGluZSBzdHlsZT0ic3Ryb2tlOiMwMDAwMDA7c3Ryb2tlLXdpZHRoOjIuMDtzdHJva2UtZGFzaGFycmF5OjIuMCwyLjA7IiB4MT0iMTYyNi41IiB4Mj0iMTY3My41IiB5MT0iNzQzLjA2MjUiIHkyPSI3NDMuMDYyNSIvPjxwb2x5Z29uIGZpbGw9IiMwMDAwMDAiIHBvaW50cz0iMTYzNi41LDczOS4wNjI1LDE2MjYuNSw3NDMuMDYyNSwxNjM2LjUsNzQ3LjA2MjUsMTYzMi41LDc0My4wNjI1IiBzdHlsZT0ic3Ryb2tlOiMwMDAwMDA7c3Ryb2tlLXdpZHRoOjEuMDsiLz48dGV4dCBmaWxsPSIjMDAwMDAwIiBmb250LWZhbWlseT0ic2Fucy1zZXJpZiIgZm9udC1zaXplPSIxMiIgZm9udC13ZWlnaHQ9ImJvbGQiIGxlbmd0aEFkanVzdD0ic3BhY2luZyIgdGV4dExlbmd0aD0iMzMiIHg9IjE2MzguNSIgeT0iNzI2LjU2MjUiPlN0YXJ0PC90ZXh0Pjx0ZXh0IGZpbGw9IiMwMDAwMDAiIGZvbnQtZmFtaWx5PSJzYW5zLXNlcmlmIiBmb250LXNpemU9IjEyIiBmb250LXdlaWdodD0iYm9sZCIgbGVuZ3RoQWRqdXN0PSJzcGFjaW5nIiB0ZXh0TGVuZ3RoPSI2IiB4PSIxNjcxLjUiIHk9IjcyNi41NjI1Ij4mIzE2MDs8L3RleHQ+PHRleHQgZmlsbD0iIzAwMDAwMCIgZm9udC1mYW1pbHk9InNhbnMtc2VyaWYiIGZvbnQtc2l6ZT0iMTIiIGZvbnQtd2VpZ2h0PSJib2xkIiBsZW5ndGhBZGp1c3Q9InNwYWNpbmciIHRleHRMZW5ndGg9IjE5IiB4PSIxNjc3LjUiIHk9IjcyNi41NjI1Ij5FQzI8L3RleHQ+PHRleHQgZmlsbD0iIzAwMDAwMCIgZm9udC1mYW1pbHk9InNhbnMtc2VyaWYiIGZvbnQtc2l6ZT0iMTIiIGZvbnQtd2VpZ2h0PSJib2xkIiBsZW5ndGhBZGp1c3Q9InNwYWNpbmciIHRleHRMZW5ndGg9IjYiIHg9IjE2OTYuNSIgeT0iNzI2LjU2MjUiPiYjMTYwOzwvdGV4dD48dGV4dCBmaWxsPSIjMDAwMDAwIiBmb250LWZhbWlseT0ic2Fucy1zZXJpZiIgZm9udC1zaXplPSIxMiIgZm9udC13ZWlnaHQ9ImJvbGQiIGxlbmd0aEFkanVzdD0ic3BhY2luZyIgdGV4dExlbmd0aD0iMjEiIHg9IjE3MDIuNSIgeT0iNzI2LjU2MjUiPkFwcDwvdGV4dD48dGV4dCBmaWxsPSIjMDAwMDAwIiBmb250LWZhbWlseT0ic2Fucy1zZXJpZiIgZm9udC1zaXplPSIxMiIgZm9udC13ZWlnaHQ9ImJvbGQiIGxlbmd0aEFkanVzdD0ic3BhY2luZyIgdGV4dExlbmd0aD0iNiIgeD0iMTcyMy41IiB5PSI3MjYuNTYyNSI+JiMxNjA7PC90ZXh0Pjx0ZXh0IGZpbGw9IiMwMDAwMDAiIGZvbnQtZmFtaWx5PSJzYW5zLXNlcmlmIiBmb250LXNpemU9IjEyIiBmb250LXdlaWdodD0iYm9sZCIgbGVuZ3RoQWRqdXN0PSJzcGFjaW5nIiB0ZXh0TGVuZ3RoPSI0MiIgeD0iMTcyOS41IiB5PSI3MjYuNTYyNSI+U2VydmVyPC90ZXh0PjxwYXRoIGQ9Ik0xNzgzLDcwMS44NzUgTDE3ODMsNzQ5Ljg3NSBMMjAwOSw3NDkuODc1IEwyMDA5LDcxMS44NzUgTDE5OTksNzAxLjg3NSBMMTc4Myw3MDEuODc1ICIgZmlsbD0iI0ZGRkYwMCIgc3R5bGU9InN0cm9rZTojN0Q4OTk4O3N0cm9rZS13aWR0aDoxLjI1OyIvPjxwYXRoIGQ9Ik0xOTk5LDcwMS44NzUgTDE5OTksNzExLjg3NSBMMjAwOSw3MTEuODc1IEwxOTk5LDcwMS44NzUgIiBmaWxsPSIjRkZGRjAwIiBzdHlsZT0ic3Ryb2tlOiM3RDg5OTg7c3Ryb2tlLXdpZHRoOjEuMjU7Ii8+PHRleHQgZmlsbD0iIzAwMDAwMCIgZm9udC1mYW1pbHk9InNhbnMtc2VyaWYiIGZvbnQtc2l6ZT0iMTIiIGZvbnQtd2VpZ2h0PSJib2xkIiBsZW5ndGhBZGp1c3Q9InNwYWNpbmciIHRleHRMZW5ndGg9IjQ3IiB4PSIxODE2IiB5PSI3MTguMjE4OCI+dHJpZ2dlcjwvdGV4dD48dGV4dCBmaWxsPSIjMDAwMDAwIiBmb250LWZhbWlseT0ic2Fucy1zZXJpZiIgZm9udC1zaXplPSIxMiIgZm9udC13ZWlnaHQ9ImJvbGQiIGxlbmd0aEFkanVzdD0ic3BhY2luZyIgdGV4dExlbmd0aD0iNiIgeD0iMTg2MyIgeT0iNzE4LjIxODgiPiYjMTYwOzwvdGV4dD48dGV4dCBmaWxsPSIjMDAwMDAwIiBmb250LWZhbWlseT0ic2Fucy1zZXJpZiIgZm9udC1zaXplPSIxMiIgZm9udC13ZWlnaHQ9ImJvbGQiIGxlbmd0aEFkanVzdD0ic3BhY2luZyIgdGV4dExlbmd0aD0iMTQiIHg9IjE4NjkiIHk9IjcxOC4yMTg4Ij5DVzwvdGV4dD48dGV4dCBmaWxsPSIjMDAwMDAwIiBmb250LWZhbWlseT0ic2Fucy1zZXJpZiIgZm9udC1zaXplPSIxMiIgZm9udC13ZWlnaHQ9ImJvbGQiIGxlbmd0aEFkanVzdD0ic3BhY2luZyIgdGV4dExlbmd0aD0iNiIgeD0iMTg4MyIgeT0iNzE4LjIxODgiPiYjMTYwOzwvdGV4dD48dGV4dCBmaWxsPSIjMDAwMDAwIiBmb250LWZhbWlseT0ic2Fucy1zZXJpZiIgZm9udC1zaXplPSIxMiIgZm9udC13ZWlnaHQ9ImJvbGQiIGxlbmd0aEFkanVzdD0ic3BhY2luZyIgdGV4dExlbmd0aD0iMzMiIHg9IjE4ODkiIHk9IjcxOC4yMTg4Ij5BbGFybTwvdGV4dD48dGV4dCBmaWxsPSIjMDAwMDAwIiBmb250LWZhbWlseT0ic2Fucy1zZXJpZiIgZm9udC1zaXplPSIxMiIgZm9udC13ZWlnaHQ9ImJvbGQiIGxlbmd0aEFkanVzdD0ic3BhY2luZyIgdGV4dExlbmd0aD0iNiIgeD0iMTkyMiIgeT0iNzE4LjIxODgiPiYjMTYwOzwvdGV4dD48dGV4dCBmaWxsPSIjMDAwMDAwIiBmb250LWZhbWlseT0ic2Fucy1zZXJpZiIgZm9udC1zaXplPSIxMiIgZm9udC13ZWlnaHQ9ImJvbGQiIGxlbmd0aEFkanVzdD0ic3BhY2luZyIgdGV4dExlbmd0aD0iMjEiIHg9IjE5MjgiIHk9IjcxOC4yMTg4Ij5hbmQ8L3RleHQ+PHRleHQgZmlsbD0iIzAwMDAwMCIgZm9udC1mYW1pbHk9InNhbnMtc2VyaWYiIGZvbnQtc2l6ZT0iMTIiIGZvbnQtd2VpZ2h0PSJib2xkIiBsZW5ndGhBZGp1c3Q9InNwYWNpbmciIHRleHRMZW5ndGg9IjYiIHg9IjE5NDkiIHk9IjcxOC4yMTg4Ij4mIzE2MDs8L3RleHQ+PHRleHQgZmlsbD0iIzAwMDAwMCIgZm9udC1mYW1pbHk9InNhbnMtc2VyaWYiIGZvbnQtc2l6ZT0iMTIiIGZvbnQtd2VpZ2h0PSJib2xkIiBsZW5ndGhBZGp1c3Q9InNwYWNpbmciIHRleHRMZW5ndGg9IjIxIiB4PSIxOTU1IiB5PSI3MTguMjE4OCI+U05TPC90ZXh0Pjx0ZXh0IGZpbGw9IiMwMDAwMDAiIGZvbnQtZmFtaWx5PSJzYW5zLXNlcmlmIiBmb250LXNpemU9IjEyIiBmb250LXdlaWdodD0iYm9sZCIgbGVuZ3RoQWRqdXN0PSJzcGFjaW5nIiB0ZXh0TGVuZ3RoPSI3NyIgeD0iMTc5OCIgeT0iNzMxLjA2MjUiPm5vdGlmaWNhdGlvbjwvdGV4dD48dGV4dCBmaWxsPSIjMDAwMDAwIiBmb250LWZhbWlseT0ic2Fucy1zZXJpZiIgZm9udC1zaXplPSIxMiIgZm9udC13ZWlnaHQ9ImJvbGQiIGxlbmd0aEFkanVzdD0ic3BhY2luZyIgdGV4dExlbmd0aD0iNiIgeD0iMTg3NSIgeT0iNzMxLjA2MjUiPiYjMTYwOzwvdGV4dD48dGV4dCBmaWxsPSIjMDAwMDAwIiBmb250LWZhbWlseT0ic2Fucy1zZXJpZiIgZm9udC1zaXplPSIxMiIgZm9udC13ZWlnaHQ9ImJvbGQiIGxlbmd0aEFkanVzdD0ic3BhY2luZyIgdGV4dExlbmd0aD0iNDAiIHg9IjE4ODEiIHk9IjczMS4wNjI1Ij5zdGFydHM8L3RleHQ+PHRleHQgZmlsbD0iIzAwMDAwMCIgZm9udC1mYW1pbHk9InNhbnMtc2VyaWYiIGZvbnQtc2l6ZT0iMTIiIGZvbnQtd2VpZ2h0PSJib2xkIiBsZW5ndGhBZGp1c3Q9InNwYWNpbmciIHRleHRMZW5ndGg9IjYiIHg9IjE5MjEiIHk9IjczMS4wNjI1Ij4mIzE2MDs8L3RleHQ+PHRleHQgZmlsbD0iIzAwMDAwMCIgZm9udC1mYW1pbHk9InNhbnMtc2VyaWYiIGZvbnQtc2l6ZT0iMTIiIGZvbnQtd2VpZ2h0PSJib2xkIiBsZW5ndGhBZGp1c3Q9InNwYWNpbmciIHRleHRMZW5ndGg9IjE5IiB4PSIxOTI3IiB5PSI3MzEuMDYyNSI+RUMyPC90ZXh0Pjx0ZXh0IGZpbGw9IiMwMDAwMDAiIGZvbnQtZmFtaWx5PSJzYW5zLXNlcmlmIiBmb250LXNpemU9IjEyIiBmb250LXdlaWdodD0iYm9sZCIgbGVuZ3RoQWRqdXN0PSJzcGFjaW5nIiB0ZXh0TGVuZ3RoPSI2IiB4PSIxOTQ2IiB5PSI3MzEuMDYyNSI+JiMxNjA7PC90ZXh0Pjx0ZXh0IGZpbGw9IiMwMDAwMDAiIGZvbnQtZmFtaWx5PSJzYW5zLXNlcmlmIiBmb250LXNpemU9IjEyIiBmb250LXdlaWdodD0iYm9sZCIgbGVuZ3RoQWRqdXN0PSJzcGFjaW5nIiB0ZXh0TGVuZ3RoPSI0MiIgeD0iMTk1MiIgeT0iNzMxLjA2MjUiPnNlcnZlcjwvdGV4dD48dGV4dCBmaWxsPSIjMDAwMDAwIiBmb250LWZhbWlseT0ic2Fucy1zZXJpZiIgZm9udC1zaXplPSIxMiIgZm9udC13ZWlnaHQ9ImJvbGQiIGxlbmd0aEFkanVzdD0ic3BhY2luZyIgdGV4dExlbmd0aD0iMTIiIHg9IjE4MTcuNSIgeT0iNzQzLjkwNjMiPmlmPC90ZXh0Pjx0ZXh0IGZpbGw9IiMwMDAwMDAiIGZvbnQtZmFtaWx5PSJzYW5zLXNlcmlmIiBmb250LXNpemU9IjEyIiBmb250LXdlaWdodD0iYm9sZCIgbGVuZ3RoQWRqdXN0PSJzcGFjaW5nIiB0ZXh0TGVuZ3RoPSI2IiB4PSIxODI5LjUiIHk9Ijc0My45MDYzIj4mIzE2MDs8L3RleHQ+PHRleHQgZmlsbD0iIzAwMDAwMCIgZm9udC1mYW1pbHk9InNhbnMtc2VyaWYiIGZvbnQtc2l6ZT0iMTIiIGZvbnQtd2VpZ2h0PSJib2xkIiBsZW5ndGhBZGp1c3Q9InNwYWNpbmciIHRleHRMZW5ndGg9IjIwIiB4PSIxODM1LjUiIHk9Ijc0My45MDYzIj5ub3Q8L3RleHQ+PHRleHQgZmlsbD0iIzAwMDAwMCIgZm9udC1mYW1pbHk9InNhbnMtc2VyaWYiIGZvbnQtc2l6ZT0iMTIiIGZvbnQtd2VpZ2h0PSJib2xkIiBsZW5ndGhBZGp1c3Q9InNwYWNpbmciIHRleHRMZW5ndGg9IjYiIHg9IjE4NTUuNSIgeT0iNzQzLjkwNjMiPiYjMTYwOzwvdGV4dD48dGV4dCBmaWxsPSIjMDAwMDAwIiBmb250LWZhbWlseT0ic2Fucy1zZXJpZiIgZm9udC1zaXplPSIxMiIgZm9udC13ZWlnaHQ9ImJvbGQiIGxlbmd0aEFkanVzdD0ic3BhY2luZyIgdGV4dExlbmd0aD0iNjciIHg9IjE4NjEuNSIgeT0iNzQzLjkwNjMiPm9ubGluZShTTlM8L3RleHQ+PHRleHQgZmlsbD0iIzAwMDAwMCIgZm9udC1mYW1pbHk9InNhbnMtc2VyaWYiIGZvbnQtc2l6ZT0iMTIiIGZvbnQtd2VpZ2h0PSJib2xkIiBsZW5ndGhBZGp1c3Q9InNwYWNpbmciIHRleHRMZW5ndGg9IjYiIHg9IjE5MjguNSIgeT0iNzQzLjkwNjMiPiYjMTYwOzwvdGV4dD48dGV4dCBmaWxsPSIjMDAwMDAwIiBmb250LWZhbWlseT0ic2Fucy1zZXJpZiIgZm9udC1zaXplPSIxMiIgZm9udC13ZWlnaHQ9ImJvbGQiIGxlbmd0aEFkanVzdD0ic3BhY2luZyIgdGV4dExlbmd0aD0iNDAiIHg9IjE5MzQuNSIgeT0iNzQzLjkwNjMiPmV2ZW50KTwvdGV4dD48bGluZSBzdHlsZT0ic3Ryb2tlOiMwMDAwMDA7c3Ryb2tlLXdpZHRoOjIuMDtzdHJva2UtZGFzaGFycmF5OjIuMCwyLjA7IiB4MT0iMTQzMyIgeDI9IjE0NzUiIHkxPSI3ODcuMDkzOCIgeTI9Ijc4Ny4wOTM4Ii8+PGxpbmUgc3R5bGU9InN0cm9rZTojMDAwMDAwO3N0cm9rZS13aWR0aDoyLjA7c3Ryb2tlLWRhc2hhcnJheToyLjAsMi4wOyIgeDE9IjE0NzUiIHgyPSIxNDc1IiB5MT0iNzg3LjA5MzgiIHkyPSI4MDAuMDkzOCIvPjxsaW5lIHN0eWxlPSJzdHJva2U6IzAwMDAwMDtzdHJva2Utd2lkdGg6Mi4wO3N0cm9rZS1kYXNoYXJyYXk6Mi4wLDIuMDsiIHgxPSIxNDM0IiB4Mj0iMTQ3NSIgeTE9IjgwMC4wOTM4IiB5Mj0iODAwLjA5MzgiLz48cG9seWdvbiBmaWxsPSIjMDAwMDAwIiBwb2ludHM9IjE0NDQsNzk2LjA5MzgsMTQzNCw4MDAuMDkzOCwxNDQ0LDgwNC4wOTM4LDE0NDAsODAwLjA5MzgiIHN0eWxlPSJzdHJva2U6IzAwMDAwMDtzdHJva2Utd2lkdGg6MS4wOyIvPjx0ZXh0IGZpbGw9IiMwMDAwRkYiIGZvbnQtZmFtaWx5PSJzYW5zLXNlcmlmIiBmb250LXNpemU9IjEyIiBmb250LXdlaWdodD0iYm9sZCIgbGVuZ3RoQWRqdXN0PSJzcGFjaW5nIiB0ZXh0TGVuZ3RoPSI2IiB4PSIxNDQwIiB5PSI3NzAuNzUiPiYjMTYwOzwvdGV4dD48dGV4dCBmaWxsPSIjMDAwMEZGIiBmb250LWZhbWlseT0ic2Fucy1zZXJpZiIgZm9udC1zaXplPSIxMiIgZm9udC13ZWlnaHQ9ImJvbGQiIGxlbmd0aEFkanVzdD0ic3BhY2luZyIgdGV4dExlbmd0aD0iMjAiIHg9IjE0NDYiIHk9Ijc3MC43NSI+UHV0PC90ZXh0Pjx0ZXh0IGZpbGw9IiMwMDAwRkYiIGZvbnQtZmFtaWx5PSJzYW5zLXNlcmlmIiBmb250LXNpemU9IjEyIiBmb250LXdlaWdodD0iYm9sZCIgbGVuZ3RoQWRqdXN0PSJzcGFjaW5nIiB0ZXh0TGVuZ3RoPSI2IiB4PSIxNDY2IiB5PSI3NzAuNzUiPiYjMTYwOzwvdGV4dD48dGV4dCBmaWxsPSIjMDAwMEZGIiBmb250LWZhbWlseT0ic2Fucy1zZXJpZiIgZm9udC1zaXplPSIxMiIgZm9udC13ZWlnaHQ9ImJvbGQiIGxlbmd0aEFkanVzdD0ic3BhY2luZyIgdGV4dExlbmd0aD0iNzMiIHg9IjE0NzIiIHk9Ijc3MC43NSI+Q05UTC9QREVQTFM8L3RleHQ+PHRleHQgZmlsbD0iIzAwMDBGRiIgZm9udC1mYW1pbHk9InNhbnMtc2VyaWYiIGZvbnQtc2l6ZT0iMTIiIGZvbnQtd2VpZ2h0PSJib2xkIiBsZW5ndGhBZGp1c3Q9InNwYWNpbmciIHRleHRMZW5ndGg9IjYiIHg9IjE1NDUiIHk9Ijc3MC43NSI+JiMxNjA7PC90ZXh0Pjx0ZXh0IGZpbGw9IiMwMDAwRkYiIGZvbnQtZmFtaWx5PSJzYW5zLXNlcmlmIiBmb250LXNpemU9IjEyIiBmb250LXdlaWdodD0iYm9sZCIgbGVuZ3RoQWRqdXN0PSJzcGFjaW5nIiB0ZXh0TGVuZ3RoPSIzMiIgeD0iMTU1MSIgeT0iNzcwLjc1Ij5maWxlczwvdGV4dD48dGV4dCBmaWxsPSIjMDAwMEZGIiBmb250LWZhbWlseT0ic2Fucy1zZXJpZiIgZm9udC1zaXplPSIxMiIgZm9udC13ZWlnaHQ9ImJvbGQiIGxlbmd0aEFkanVzdD0ic3BhY2luZyIgdGV4dExlbmd0aD0iMTMiIHg9IjE0NDYuNSIgeT0iNzgzLjU5MzgiPnRvPC90ZXh0Pjx0ZXh0IGZpbGw9IiMwMDAwRkYiIGZvbnQtZmFtaWx5PSJzYW5zLXNlcmlmIiBmb250LXNpemU9IjEyIiBmb250LXdlaWdodD0iYm9sZCIgbGVuZ3RoQWRqdXN0PSJzcGFjaW5nIiB0ZXh0TGVuZ3RoPSI2IiB4PSIxNDU5LjUiIHk9Ijc4My41OTM4Ij4mIzE2MDs8L3RleHQ+PHRleHQgZmlsbD0iIzAwMDBGRiIgZm9udC1mYW1pbHk9InNhbnMtc2VyaWYiIGZvbnQtc2l6ZT0iMTIiIGZvbnQtd2VpZ2h0PSJib2xkIiBsZW5ndGhBZGp1c3Q9InNwYWNpbmciIHRleHRMZW5ndGg9IjEzIiB4PSIxNDY1LjUiIHk9Ijc4My41OTM4Ij5TMzwvdGV4dD48dGV4dCBmaWxsPSIjMDAwMEZGIiBmb250LWZhbWlseT0ic2Fucy1zZXJpZiIgZm9udC1zaXplPSIxMiIgZm9udC13ZWlnaHQ9ImJvbGQiIGxlbmd0aEFkanVzdD0ic3BhY2luZyIgdGV4dExlbmd0aD0iNiIgeD0iMTQ3OC41IiB5PSI3ODMuNTkzOCI+JiMxNjA7PC90ZXh0Pjx0ZXh0IGZpbGw9IiMwMDAwRkYiIGZvbnQtZmFtaWx5PSJzYW5zLXNlcmlmIiBmb250LXNpemU9IjEyIiBmb250LXdlaWdodD0iYm9sZCIgbGVuZ3RoQWRqdXN0PSJzcGFjaW5nIiB0ZXh0TGVuZ3RoPSI0NyIgeD0iMTQ4NC41IiB5PSI3ODMuNTkzOCI+bGFuZGluZzwvdGV4dD48dGV4dCBmaWxsPSIjMDAwMEZGIiBmb250LWZhbWlseT0ic2Fucy1zZXJpZiIgZm9udC1zaXplPSIxMiIgZm9udC13ZWlnaHQ9ImJvbGQiIGxlbmd0aEFkanVzdD0ic3BhY2luZyIgdGV4dExlbmd0aD0iNiIgeD0iMTUzMS41IiB5PSI3ODMuNTkzOCI+JiMxNjA7PC90ZXh0Pjx0ZXh0IGZpbGw9IiMwMDAwRkYiIGZvbnQtZmFtaWx5PSJzYW5zLXNlcmlmIiBmb250LXNpemU9IjEyIiBmb250LXdlaWdodD0iYm9sZCIgbGVuZ3RoQWRqdXN0PSJzcGFjaW5nIiB0ZXh0TGVuZ3RoPSIzOSIgeD0iMTUzNy41IiB5PSI3ODMuNTkzOCI+QnVja2V0PC90ZXh0PjxwYXRoIGQ9Ik0xMjM2LDc3MC4zMjgxIEwxMjM2LDc5Mi4zMjgxIEwxNDI4LDc5Mi4zMjgxIEwxNDI4LDc4MC4zMjgxIEwxNDE4LDc3MC4zMjgxIEwxMjM2LDc3MC4zMjgxICIgZmlsbD0iI0ZGRkYwMCIgc3R5bGU9InN0cm9rZTojN0Q4OTk4O3N0cm9rZS13aWR0aDoxLjI1OyIvPjxwYXRoIGQ9Ik0xNDE4LDc3MC4zMjgxIEwxNDE4LDc4MC4zMjgxIEwxNDI4LDc4MC4zMjgxIEwxNDE4LDc3MC4zMjgxICIgZmlsbD0iI0ZGRkYwMCIgc3R5bGU9InN0cm9rZTojN0Q4OTk4O3N0cm9rZS13aWR0aDoxLjI1OyIvPjx0ZXh0IGZpbGw9IiMwMDAwMDAiIGZvbnQtZmFtaWx5PSJzYW5zLXNlcmlmIiBmb250LXNpemU9IjEyIiBmb250LXdlaWdodD0iYm9sZCIgbGVuZ3RoQWRqdXN0PSJzcGFjaW5nIiB0ZXh0TGVuZ3RoPSIyMCIgeD0iMTI1MSIgeT0iNzg2LjY3MTkiPkdvdDwvdGV4dD48dGV4dCBmaWxsPSIjMDAwMDAwIiBmb250LWZhbWlseT0ic2Fucy1zZXJpZiIgZm9udC1zaXplPSIxMiIgZm9udC13ZWlnaHQ9ImJvbGQiIGxlbmd0aEFkanVzdD0ic3BhY2luZyIgdGV4dExlbmd0aD0iNiIgeD0iMTI3MSIgeT0iNzg2LjY3MTkiPiYjMTYwOzwvdGV4dD48dGV4dCBmaWxsPSIjMDAwMDAwIiBmb250LWZhbWlseT0ic2Fucy1zZXJpZiIgZm9udC1zaXplPSIxMiIgZm9udC13ZWlnaHQ9ImJvbGQiIGxlbmd0aEFkanVzdD0ic3BhY2luZyIgdGV4dExlbmd0aD0iMzIiIHg9IjEyNzciIHk9Ijc4Ni42NzE5Ij5GaWxlczwvdGV4dD48dGV4dCBmaWxsPSIjMDAwMDAwIiBmb250LWZhbWlseT0ic2Fucy1zZXJpZiIgZm9udC1zaXplPSIxMiIgZm9udC13ZWlnaHQ9ImJvbGQiIGxlbmd0aEFkanVzdD0ic3BhY2luZyIgdGV4dExlbmd0aD0iNiIgeD0iMTMwOSIgeT0iNzg2LjY3MTkiPiYjMTYwOzwvdGV4dD48dGV4dCBmaWxsPSIjMDAwMDAwIiBmb250LWZhbWlseT0ic2Fucy1zZXJpZiIgZm9udC1zaXplPSIxMiIgZm9udC13ZWlnaHQ9ImJvbGQiIGxlbmd0aEFkanVzdD0ic3BhY2luZyIgdGV4dExlbmd0aD0iMjYiIHg9IjEzMTUiIHk9Ijc4Ni42NzE5Ij5mb3JtPC90ZXh0Pjx0ZXh0IGZpbGw9IiMwMDAwMDAiIGZvbnQtZmFtaWx5PSJzYW5zLXNlcmlmIiBmb250LXNpemU9IjEyIiBmb250LXdlaWdodD0iYm9sZCIgbGVuZ3RoQWRqdXN0PSJzcGFjaW5nIiB0ZXh0TGVuZ3RoPSI2IiB4PSIxMzQxIiB5PSI3ODYuNjcxOSI+JiMxNjA7PC90ZXh0Pjx0ZXh0IGZpbGw9IiMwMDAwMDAiIGZvbnQtZmFtaWx5PSJzYW5zLXNlcmlmIiBmb250LXNpemU9IjEyIiBmb250LXdlaWdodD0iYm9sZCIgbGVuZ3RoQWRqdXN0PSJzcGFjaW5nIiB0ZXh0TGVuZ3RoPSI2NiIgeD0iMTM0NyIgeT0iNzg2LjY3MTkiPkRhdGFicmlja3M8L3RleHQ+PHBvbHlnb24gZmlsbD0iIzAwMDAwMCIgcG9pbnRzPSIxNjA5LjUsODM1Ljc4MTMsMTYxOS41LDgzOS43ODEzLDE2MDkuNSw4NDMuNzgxMywxNjEzLjUsODM5Ljc4MTMiIHN0eWxlPSJzdHJva2U6IzAwMDAwMDtzdHJva2Utd2lkdGg6MS4wOyIvPjxsaW5lIHN0eWxlPSJzdHJva2U6IzAwMDAwMDtzdHJva2Utd2lkdGg6Mi4wOyIgeDE9IjE0MzMiIHgyPSIxNjE1LjUiIHkxPSI4MzkuNzgxMyIgeTI9IjgzOS43ODEzIi8+PHRleHQgZmlsbD0iIzAwMDAwMCIgZm9udC1mYW1pbHk9InNhbnMtc2VyaWYiIGZvbnQtc2l6ZT0iMTIiIGZvbnQtd2VpZ2h0PSJib2xkIiBsZW5ndGhBZGp1c3Q9InNwYWNpbmciIHRleHRMZW5ndGg9IjQ3IiB4PSIxNDU3Ljc1IiB5PSI4MjMuNDM3NSI+VHJpZ2dlcjwvdGV4dD48dGV4dCBmaWxsPSIjMDAwMDAwIiBmb250LWZhbWlseT0ic2Fucy1zZXJpZiIgZm9udC1zaXplPSIxMiIgZm9udC13ZWlnaHQ9ImJvbGQiIGxlbmd0aEFkanVzdD0ic3BhY2luZyIgdGV4dExlbmd0aD0iNiIgeD0iMTUwNC43NSIgeT0iODIzLjQzNzUiPiYjMTYwOzwvdGV4dD48dGV4dCBmaWxsPSIjMDAwMDAwIiBmb250LWZhbWlseT0ic2Fucy1zZXJpZiIgZm9udC1zaXplPSIxMiIgZm9udC13ZWlnaHQ9ImJvbGQiIGxlbmd0aEFkanVzdD0ic3BhY2luZyIgdGV4dExlbmd0aD0iNDAiIHg9IjE1MTAuNzUiIHk9IjgyMy40Mzc1Ij5MYW1iZGE8L3RleHQ+PHRleHQgZmlsbD0iIzAwMDAwMCIgZm9udC1mYW1pbHk9InNhbnMtc2VyaWYiIGZvbnQtc2l6ZT0iMTIiIGZvbnQtd2VpZ2h0PSJib2xkIiBsZW5ndGhBZGp1c3Q9InNwYWNpbmciIHRleHRMZW5ndGg9IjYiIHg9IjE1NTAuNzUiIHk9IjgyMy40Mzc1Ij4mIzE2MDs8L3RleHQ+PHRleHQgZmlsbD0iIzAwMDAwMCIgZm9udC1mYW1pbHk9InNhbnMtc2VyaWYiIGZvbnQtc2l6ZT0iMTIiIGZvbnQtd2VpZ2h0PSJib2xkIiBsZW5ndGhBZGp1c3Q9InNwYWNpbmciIHRleHRMZW5ndGg9IjEzIiB4PSIxNTU2Ljc1IiB5PSI4MjMuNDM3NSI+dG88L3RleHQ+PHRleHQgZmlsbD0iIzAwMDAwMCIgZm9udC1mYW1pbHk9InNhbnMtc2VyaWYiIGZvbnQtc2l6ZT0iMTIiIGZvbnQtd2VpZ2h0PSJib2xkIiBsZW5ndGhBZGp1c3Q9InNwYWNpbmciIHRleHRMZW5ndGg9IjYiIHg9IjE1NjkuNzUiIHk9IjgyMy40Mzc1Ij4mIzE2MDs8L3RleHQ+PHRleHQgZmlsbD0iIzAwMDAwMCIgZm9udC1mYW1pbHk9InNhbnMtc2VyaWYiIGZvbnQtc2l6ZT0iMTIiIGZvbnQtd2VpZ2h0PSJib2xkIiBsZW5ndGhBZGp1c3Q9InNwYWNpbmciIHRleHRMZW5ndGg9IjIxIiB4PSIxNTc1Ljc1IiB5PSI4MjMuNDM3NSI+YWRkPC90ZXh0Pjx0ZXh0IGZpbGw9IiMwMDAwMDAiIGZvbnQtZmFtaWx5PSJzYW5zLXNlcmlmIiBmb250LXNpemU9IjEyIiBmb250LXdlaWdodD0iYm9sZCIgbGVuZ3RoQWRqdXN0PSJzcGFjaW5nIiB0ZXh0TGVuZ3RoPSI0OSIgeD0iMTUwMi43NSIgeT0iODM2LjI4MTMiPk1lc3NhZ2U8L3RleHQ+PHBvbHlnb24gZmlsbD0iIzAwMDAwMCIgcG9pbnRzPSIxNzk5LDg3NS40Njg4LDE4MDksODc5LjQ2ODgsMTc5OSw4ODMuNDY4OCwxODAzLDg3OS40Njg4IiBzdHlsZT0ic3Ryb2tlOiMwMDAwMDA7c3Ryb2tlLXdpZHRoOjEuMDsiLz48bGluZSBzdHlsZT0ic3Ryb2tlOiMwMDAwMDA7c3Ryb2tlLXdpZHRoOjIuMDsiIHgxPSIxNjI2LjUiIHgyPSIxODA1IiB5MT0iODc5LjQ2ODgiIHkyPSI4NzkuNDY4OCIvPjx0ZXh0IGZpbGw9IiMwMDAwRkYiIGZvbnQtZmFtaWx5PSJzYW5zLXNlcmlmIiBmb250LXNpemU9IjEyIiBmb250LXdlaWdodD0iYm9sZCIgbGVuZ3RoQWRqdXN0PSJzcGFjaW5nIiB0ZXh0TGVuZ3RoPSI2IiB4PSIxNjU1LjI1IiB5PSI4NjMuMTI1Ij4mIzE2MDs8L3RleHQ+PHRleHQgZmlsbD0iIzAwMDBGRiIgZm9udC1mYW1pbHk9InNhbnMtc2VyaWYiIGZvbnQtc2l6ZT0iMTIiIGZvbnQtd2VpZ2h0PSJib2xkIiBsZW5ndGhBZGp1c3Q9InNwYWNpbmciIHRleHRMZW5ndGg9IjIxIiB4PSIxNjYxLjI1IiB5PSI4NjMuMTI1Ij5BZGQ8L3RleHQ+PHRleHQgZmlsbD0iIzAwMDBGRiIgZm9udC1mYW1pbHk9InNhbnMtc2VyaWYiIGZvbnQtc2l6ZT0iMTIiIGZvbnQtd2VpZ2h0PSJib2xkIiBsZW5ndGhBZGp1c3Q9InNwYWNpbmciIHRleHRMZW5ndGg9IjYiIHg9IjE2ODIuMjUiIHk9Ijg2My4xMjUiPiYjMTYwOzwvdGV4dD48dGV4dCBmaWxsPSIjMDAwMEZGIiBmb250LWZhbWlseT0ic2Fucy1zZXJpZiIgZm9udC1zaXplPSIxMiIgZm9udC13ZWlnaHQ9ImJvbGQiIGxlbmd0aEFkanVzdD0ic3BhY2luZyIgdGV4dExlbmd0aD0iNDgiIHg9IjE2ODguMjUiIHk9Ijg2My4xMjUiPm1lc3NhZ2U8L3RleHQ+PHRleHQgZmlsbD0iIzAwMDBGRiIgZm9udC1mYW1pbHk9InNhbnMtc2VyaWYiIGZvbnQtc2l6ZT0iMTIiIGZvbnQtd2VpZ2h0PSJib2xkIiBsZW5ndGhBZGp1c3Q9InNwYWNpbmciIHRleHRMZW5ndGg9IjYiIHg9IjE3MzYuMjUiIHk9Ijg2My4xMjUiPiYjMTYwOzwvdGV4dD48dGV4dCBmaWxsPSIjMDAwMEZGIiBmb250LWZhbWlseT0ic2Fucy1zZXJpZiIgZm9udC1zaXplPSIxMiIgZm9udC13ZWlnaHQ9ImJvbGQiIGxlbmd0aEFkanVzdD0ic3BhY2luZyIgdGV4dExlbmd0aD0iNDAiIHg9IjE3NDIuMjUiIHk9Ijg2My4xMjUiPlBERVBMUzwvdGV4dD48dGV4dCBmaWxsPSIjMDAwMEZGIiBmb250LWZhbWlseT0ic2Fucy1zZXJpZiIgZm9udC1zaXplPSIxMiIgZm9udC13ZWlnaHQ9ImJvbGQiIGxlbmd0aEFkanVzdD0ic3BhY2luZyIgdGV4dExlbmd0aD0iMzIiIHg9IjE3MDIuNzUiIHk9Ijg3NS45Njg4Ij5GaWxlczwvdGV4dD48bGluZSBzdHlsZT0ic3Ryb2tlOiMwMDAwMDA7c3Ryb2tlLXdpZHRoOjIuMDtzdHJva2UtZGFzaGFycmF5OjIuMCwyLjA7IiB4MT0iMTk5NiIgeDI9IjIwMzgiIHkxPSI5MzciIHkyPSI5MzciLz48bGluZSBzdHlsZT0ic3Ryb2tlOiMwMDAwMDA7c3Ryb2tlLXdpZHRoOjIuMDtzdHJva2UtZGFzaGFycmF5OjIuMCwyLjA7IiB4MT0iMjAzOCIgeDI9IjIwMzgiIHkxPSI5MzciIHkyPSI5NTAiLz48bGluZSBzdHlsZT0ic3Ryb2tlOiMwMDAwMDA7c3Ryb2tlLXdpZHRoOjIuMDtzdHJva2UtZGFzaGFycmF5OjIuMCwyLjA7IiB4MT0iMTk5MSIgeDI9IjIwMzgiIHkxPSI5NTAiIHkyPSI5NTAiLz48cG9seWdvbiBmaWxsPSIjMDAwMDAwIiBwb2ludHM9IjIwMDEsOTQ2LDE5OTEsOTUwLDIwMDEsOTU0LDE5OTcsOTUwIiBzdHlsZT0ic3Ryb2tlOiMwMDAwMDA7c3Ryb2tlLXdpZHRoOjEuMDsiLz48dGV4dCBmaWxsPSIjMDAwMDAwIiBmb250LWZhbWlseT0ic2Fucy1zZXJpZiIgZm9udC1zaXplPSIxMiIgZm9udC13ZWlnaHQ9ImJvbGQiIGxlbmd0aEFkanVzdD0ic3BhY2luZyIgdGV4dExlbmd0aD0iMjEiIHg9IjIwMDYiIHk9IjkwNy44MTI1Ij5SdW48L3RleHQ+PHRleHQgZmlsbD0iIzAwMDAwMCIgZm9udC1mYW1pbHk9InNhbnMtc2VyaWYiIGZvbnQtc2l6ZT0iMTIiIGZvbnQtd2VpZ2h0PSJib2xkIiBsZW5ndGhBZGp1c3Q9InNwYWNpbmciIHRleHRMZW5ndGg9IjYiIHg9IjIwMjciIHk9IjkwNy44MTI1Ij4mIzE2MDs8L3RleHQ+PHRleHQgZmlsbD0iIzAwMDAwMCIgZm9udC1mYW1pbHk9InNhbnMtc2VyaWYiIGZvbnQtc2l6ZT0iMTIiIGZvbnQtd2VpZ2h0PSJib2xkIiBsZW5ndGhBZGp1c3Q9InNwYWNpbmciIHRleHRMZW5ndGg9Ijk1IiB4PSIyMDMzIiB5PSI5MDcuODEyNSI+ZGRwcy1Qb2xsUXVldWU8L3RleHQ+PHRleHQgZmlsbD0iIzAwMDAwMCIgZm9udC1mYW1pbHk9InNhbnMtc2VyaWYiIGZvbnQtc2l6ZT0iMTIiIGZvbnQtd2VpZ2h0PSJib2xkIiBsZW5ndGhBZGp1c3Q9InNwYWNpbmciIHRleHRMZW5ndGg9IjYiIHg9IjIxMjgiIHk9IjkwNy44MTI1Ij4mIzE2MDs8L3RleHQ+PHRleHQgZmlsbD0iIzAwMDAwMCIgZm9udC1mYW1pbHk9InNhbnMtc2VyaWYiIGZvbnQtc2l6ZT0iMTIiIGZvbnQtd2VpZ2h0PSJib2xkIiBsZW5ndGhBZGp1c3Q9InNwYWNpbmciIHRleHRMZW5ndGg9IjEzIiB4PSIyMTM0IiB5PSI5MDcuODEyNSI+dG88L3RleHQ+PHRleHQgZmlsbD0iIzAwMDAwMCIgZm9udC1mYW1pbHk9InNhbnMtc2VyaWYiIGZvbnQtc2l6ZT0iMTIiIGZvbnQtd2VpZ2h0PSJib2xkIiBsZW5ndGhBZGp1c3Q9InNwYWNpbmciIHRleHRMZW5ndGg9IjI2IiB4PSIyMDAzIiB5PSI5MjAuNjU2MyI+UG9sbDwvdGV4dD48dGV4dCBmaWxsPSIjMDAwMDAwIiBmb250LWZhbWlseT0ic2Fucy1zZXJpZiIgZm9udC1zaXplPSIxMiIgZm9udC13ZWlnaHQ9ImJvbGQiIGxlbmd0aEFkanVzdD0ic3BhY2luZyIgdGV4dExlbmd0aD0iNiIgeD0iMjAyOSIgeT0iOTIwLjY1NjMiPiYjMTYwOzwvdGV4dD48dGV4dCBmaWxsPSIjMDAwMDAwIiBmb250LWZhbWlseT0ic2Fucy1zZXJpZiIgZm9udC1zaXplPSIxMiIgZm9udC13ZWlnaHQ9ImJvbGQiIGxlbmd0aEFkanVzdD0ic3BhY2luZyIgdGV4dExlbmd0aD0iMjEiIHg9IjIwMzUiIHk9IjkyMC42NTYzIj5TUVM8L3RleHQ+PHRleHQgZmlsbD0iIzAwMDAwMCIgZm9udC1mYW1pbHk9InNhbnMtc2VyaWYiIGZvbnQtc2l6ZT0iMTIiIGZvbnQtd2VpZ2h0PSJib2xkIiBsZW5ndGhBZGp1c3Q9InNwYWNpbmciIHRleHRMZW5ndGg9IjYiIHg9IjIwNTYiIHk9IjkyMC42NTYzIj4mIzE2MDs8L3RleHQ+PHRleHQgZmlsbD0iIzAwMDAwMCIgZm9udC1mYW1pbHk9InNhbnMtc2VyaWYiIGZvbnQtc2l6ZT0iMTIiIGZvbnQtd2VpZ2h0PSJib2xkIiBsZW5ndGhBZGp1c3Q9InNwYWNpbmciIHRleHRMZW5ndGg9Ijg4IiB4PSIyMDYyIiB5PSI5MjAuNjU2MyI+UXVldWUoU05TL1MzKTwvdGV4dD48dGV4dCBmaWxsPSIjMDAwMDAwIiBmb250LWZhbWlseT0ic2Fucy1zZXJpZiIgZm9udC1zaXplPSIxMiIgZm9udC13ZWlnaHQ9ImJvbGQiIGxlbmd0aEFkanVzdD0ic3BhY2luZyIgdGV4dExlbmd0aD0iNDEiIHg9IjIwNTYiIHk9IjkzMy41Ij5ldmVudHM8L3RleHQ+PHBhdGggZD0iTTE4ODksOTYwIEwyMjA3LDk2MCBMMjIwNyw5NzIuMzM1OSBMMjE5Nyw5ODIuMzM1OSBMMTg4OSw5ODIuMzM1OSBMMTg4OSw5NjAgIiBmaWxsPSIjRkZENzAwIiBzdHlsZT0ic3Ryb2tlOiMwMDAwMDA7c3Ryb2tlLXdpZHRoOjEuNTsiLz48cmVjdCBmaWxsPSJub25lIiBoZWlnaHQ9IjI5OC4wOTM4IiBzdHlsZT0ic3Ryb2tlOiM3RDg5OTg7c3Ryb2tlLXdpZHRoOjEuNTsiIHdpZHRoPSI1MTciIHg9IjE4ODkiIHk9Ijk2MCIvPjx0ZXh0IGZpbGw9IiMwMDAwMDAiIGZvbnQtZmFtaWx5PSJzYW5zLXNlcmlmIiBmb250LXNpemU9IjE5IiBmb250LXdlaWdodD0iYm9sZCIgbGVuZ3RoQWRqdXN0PSJzcGFjaW5nIiB0ZXh0TGVuZ3RoPSIyNzMiIHg9IjE5MDQiIHk9Ijk3OC45NjA5Ij5kZHBzLVBvbGxRdWV1ZS1Qb2xsIFNRUyAtIEZJRk88L3RleHQ+PGxpbmUgc3R5bGU9InN0cm9rZTojN0Q4OTk4O3N0cm9rZS13aWR0aDoxLjA7c3Ryb2tlLWRhc2hhcnJheToyLjAsMi4wOyIgeDE9IjE4ODkiIHgyPSIyNDA2IiB5MT0iOTgzLjMzNTkiIHkyPSI5ODMuMzM1OSIvPjxwYXRoIGQ9Ik0xOTA5LDk5MS4zMzU5IEwyMTI4LDk5MS4zMzU5IEwyMTI4LDEwMDMuNjcxOSBMMjExOCwxMDEzLjY3MTkgTDE5MDksMTAxMy42NzE5IEwxOTA5LDk5MS4zMzU5ICIgZmlsbD0iI0ZGRDcwMCIgc3R5bGU9InN0cm9rZTojMDAwMDAwO3N0cm9rZS13aWR0aDoxLjU7Ii8+PHJlY3QgZmlsbD0ibm9uZSIgaGVpZ2h0PSIxNDcuMzk4NCIgc3R5bGU9InN0cm9rZTojN0Q4OTk4O3N0cm9rZS13aWR0aDoxLjU7IiB3aWR0aD0iNDg3IiB4PSIxOTA5IiB5PSI5OTEuMzM1OSIvPjx0ZXh0IGZpbGw9IiMwMDAwMDAiIGZvbnQtZmFtaWx5PSJzYW5zLXNlcmlmIiBmb250LXNpemU9IjE5IiBmb250LXdlaWdodD0iYm9sZCIgbGVuZ3RoQWRqdXN0PSJzcGFjaW5nIiB0ZXh0TGVuZ3RoPSIxNzQiIHg9IjE5MjQiIHk9IjEwMTAuMjk2OSI+Tm8gbWVzc2FnZSBpbiBRdWV1ZTwvdGV4dD48cG9seWdvbiBmaWxsPSIjMDAwMDAwIiBwb2ludHM9IjIxNTAsMTA0MS4zNTk0LDIxNjAsMTA0NS4zNTk0LDIxNTAsMTA0OS4zNTk0LDIxNTQsMTA0NS4zNTk0IiBzdHlsZT0ic3Ryb2tlOiMwMDAwMDA7c3Ryb2tlLXdpZHRoOjEuMDsiLz48bGluZSBzdHlsZT0ic3Ryb2tlOiMwMDAwMDA7c3Ryb2tlLXdpZHRoOjIuMDsiIHgxPSIxOTkxIiB4Mj0iMjE1NiIgeTE9IjEwNDUuMzU5NCIgeTI9IjEwNDUuMzU5NCIvPjx0ZXh0IGZpbGw9IiMwMDAwMDAiIGZvbnQtZmFtaWx5PSJzYW5zLXNlcmlmIiBmb250LXNpemU9IjEyIiBmb250LXdlaWdodD0iYm9sZCIgbGVuZ3RoQWRqdXN0PSJzcGFjaW5nIiB0ZXh0TGVuZ3RoPSIyNyIgeD0iMjAyMC41IiB5PSIxMDI5LjAxNTYiPlNodXQ8L3RleHQ+PHRleHQgZmlsbD0iIzAwMDAwMCIgZm9udC1mYW1pbHk9InNhbnMtc2VyaWYiIGZvbnQtc2l6ZT0iMTIiIGZvbnQtd2VpZ2h0PSJib2xkIiBsZW5ndGhBZGp1c3Q9InNwYWNpbmciIHRleHRMZW5ndGg9IjYiIHg9IjIwNDcuNSIgeT0iMTAyOS4wMTU2Ij4mIzE2MDs8L3RleHQ+PHRleHQgZmlsbD0iIzAwMDAwMCIgZm9udC1mYW1pbHk9InNhbnMtc2VyaWYiIGZvbnQtc2l6ZT0iMTIiIGZvbnQtd2VpZ2h0PSJib2xkIiBsZW5ndGhBZGp1c3Q9InNwYWNpbmciIHRleHRMZW5ndGg9IjI3IiB4PSIyMDUzLjUiIHk9IjEwMjkuMDE1NiI+RG93bjwvdGV4dD48dGV4dCBmaWxsPSIjMDAwMDAwIiBmb250LWZhbWlseT0ic2Fucy1zZXJpZiIgZm9udC1zaXplPSIxMiIgZm9udC13ZWlnaHQ9ImJvbGQiIGxlbmd0aEFkanVzdD0ic3BhY2luZyIgdGV4dExlbmd0aD0iNiIgeD0iMjA4MC41IiB5PSIxMDI5LjAxNTYiPiYjMTYwOzwvdGV4dD48dGV4dCBmaWxsPSIjMDAwMDAwIiBmb250LWZhbWlseT0ic2Fucy1zZXJpZiIgZm9udC1zaXplPSIxMiIgZm9udC13ZWlnaHQ9ImJvbGQiIGxlbmd0aEFkanVzdD0ic3BhY2luZyIgdGV4dExlbmd0aD0iMTkiIHg9IjIwODYuNSIgeT0iMTAyOS4wMTU2Ij5FQzI8L3RleHQ+PHRleHQgZmlsbD0iIzAwMDAwMCIgZm9udC1mYW1pbHk9InNhbnMtc2VyaWYiIGZvbnQtc2l6ZT0iMTIiIGZvbnQtd2VpZ2h0PSJib2xkIiBsZW5ndGhBZGp1c3Q9InNwYWNpbmciIHRleHRMZW5ndGg9IjYiIHg9IjIxMDUuNSIgeT0iMTAyOS4wMTU2Ij4mIzE2MDs8L3RleHQ+PHRleHQgZmlsbD0iIzAwMDAwMCIgZm9udC1mYW1pbHk9InNhbnMtc2VyaWYiIGZvbnQtc2l6ZT0iMTIiIGZvbnQtd2VpZ2h0PSJib2xkIiBsZW5ndGhBZGp1c3Q9InNwYWNpbmciIHRleHRMZW5ndGg9IjIxIiB4PSIyMTExLjUiIHk9IjEwMjkuMDE1NiI+QXBwPC90ZXh0Pjx0ZXh0IGZpbGw9IiMwMDAwMDAiIGZvbnQtZmFtaWx5PSJzYW5zLXNlcmlmIiBmb250LXNpemU9IjEyIiBmb250LXdlaWdodD0iYm9sZCIgbGVuZ3RoQWRqdXN0PSJzcGFjaW5nIiB0ZXh0TGVuZ3RoPSI0MiIgeD0iMjA1NS41IiB5PSIxMDQxLjg1OTQiPnNlcnZlcjwvdGV4dD48cGF0aCBkPSJNMjE2NywxMDU4LjM1OTQgTDIxNjcsMTA5My4zNTk0IEwyMzg2LDEwOTMuMzU5NCBMMjM4NiwxMDY4LjM1OTQgTDIzNzYsMTA1OC4zNTk0IEwyMTY3LDEwNTguMzU5NCAiIGZpbGw9IiNGRkZGMDAiIHN0eWxlPSJzdHJva2U6IzdEODk5ODtzdHJva2Utd2lkdGg6MS4yNTsiLz48cGF0aCBkPSJNMjM3NiwxMDU4LjM1OTQgTDIzNzYsMTA2OC4zNTk0IEwyMzg2LDEwNjguMzU5NCBMMjM3NiwxMDU4LjM1OTQgIiBmaWxsPSIjRkZGRjAwIiBzdHlsZT0ic3Ryb2tlOiM3RDg5OTg7c3Ryb2tlLXdpZHRoOjEuMjU7Ii8+PHRleHQgZmlsbD0iIzAwMDAwMCIgZm9udC1mYW1pbHk9InNhbnMtc2VyaWYiIGZvbnQtc2l6ZT0iMTIiIGZvbnQtd2VpZ2h0PSJib2xkIiBsZW5ndGhBZGp1c3Q9InNwYWNpbmciIHRleHRMZW5ndGg9IjE0IiB4PSIyMTgyIiB5PSIxMDc0LjcwMzEiPkRPPC90ZXh0Pjx0ZXh0IGZpbGw9IiMwMDAwMDAiIGZvbnQtZmFtaWx5PSJzYW5zLXNlcmlmIiBmb250LXNpemU9IjEyIiBmb250LXdlaWdodD0iYm9sZCIgbGVuZ3RoQWRqdXN0PSJzcGFjaW5nIiB0ZXh0TGVuZ3RoPSI2IiB4PSIyMTk2IiB5PSIxMDc0LjcwMzEiPiYjMTYwOzwvdGV4dD48dGV4dCBmaWxsPSIjMDAwMDAwIiBmb250LWZhbWlseT0ic2Fucy1zZXJpZiIgZm9udC1zaXplPSIxMiIgZm9udC13ZWlnaHQ9ImJvbGQiIGxlbmd0aEFkanVzdD0ic3BhY2luZyIgdGV4dExlbmd0aD0iMjAiIHg9IjIyMDIiIHk9IjEwNzQuNzAzMSI+bm90PC90ZXh0Pjx0ZXh0IGZpbGw9IiMwMDAwMDAiIGZvbnQtZmFtaWx5PSJzYW5zLXNlcmlmIiBmb250LXNpemU9IjEyIiBmb250LXdlaWdodD0iYm9sZCIgbGVuZ3RoQWRqdXN0PSJzcGFjaW5nIiB0ZXh0TGVuZ3RoPSI2IiB4PSIyMjIyIiB5PSIxMDc0LjcwMzEiPiYjMTYwOzwvdGV4dD48dGV4dCBmaWxsPSIjMDAwMDAwIiBmb250LWZhbWlseT0ic2Fucy1zZXJpZiIgZm9udC1zaXplPSIxMiIgZm9udC13ZWlnaHQ9ImJvbGQiIGxlbmd0aEFkanVzdD0ic3BhY2luZyIgdGV4dExlbmd0aD0iNTQiIHg9IjIyMjgiIHk9IjEwNzQuNzAzMSI+c2h1dGRvd248L3RleHQ+PHRleHQgZmlsbD0iIzAwMDAwMCIgZm9udC1mYW1pbHk9InNhbnMtc2VyaWYiIGZvbnQtc2l6ZT0iMTIiIGZvbnQtd2VpZ2h0PSJib2xkIiBsZW5ndGhBZGp1c3Q9InNwYWNpbmciIHRleHRMZW5ndGg9IjYiIHg9IjIyODIiIHk9IjEwNzQuNzAzMSI+JiMxNjA7PC90ZXh0Pjx0ZXh0IGZpbGw9IiMwMDAwMDAiIGZvbnQtZmFtaWx5PSJzYW5zLXNlcmlmIiBmb250LXNpemU9IjEyIiBmb250LXdlaWdodD0iYm9sZCIgbGVuZ3RoQWRqdXN0PSJzcGFjaW5nIiB0ZXh0TGVuZ3RoPSIxMiIgeD0iMjI4OCIgeT0iMTA3NC43MDMxIj5pZjwvdGV4dD48dGV4dCBmaWxsPSIjMDAwMDAwIiBmb250LWZhbWlseT0ic2Fucy1zZXJpZiIgZm9udC1zaXplPSIxMiIgZm9udC13ZWlnaHQ9ImJvbGQiIGxlbmd0aEFkanVzdD0ic3BhY2luZyIgdGV4dExlbmd0aD0iNiIgeD0iMjMwMCIgeT0iMTA3NC43MDMxIj4mIzE2MDs8L3RleHQ+PHRleHQgZmlsbD0iIzAwMDAwMCIgZm9udC1mYW1pbHk9InNhbnMtc2VyaWYiIGZvbnQtc2l6ZT0iMTIiIGZvbnQtd2VpZ2h0PSJib2xkIiBsZW5ndGhBZGp1c3Q9InNwYWNpbmciIHRleHRMZW5ndGg9IjE5IiB4PSIyMzA2IiB5PSIxMDc0LjcwMzEiPml0czwvdGV4dD48dGV4dCBmaWxsPSIjMDAwMDAwIiBmb250LWZhbWlseT0ic2Fucy1zZXJpZiIgZm9udC1zaXplPSIxMiIgZm9udC13ZWlnaHQ9ImJvbGQiIGxlbmd0aEFkanVzdD0ic3BhY2luZyIgdGV4dExlbmd0aD0iNiIgeD0iMjMyNSIgeT0iMTA3NC43MDMxIj4mIzE2MDs8L3RleHQ+PHRleHQgZmlsbD0iIzAwMDAwMCIgZm9udC1mYW1pbHk9InNhbnMtc2VyaWYiIGZvbnQtc2l6ZT0iMTIiIGZvbnQtd2VpZ2h0PSJib2xkIiBsZW5ndGhBZGp1c3Q9InNwYWNpbmciIHRleHRMZW5ndGg9IjEzIiB4PSIyMzMxIiB5PSIxMDc0LjcwMzEiPmlzPC90ZXh0Pjx0ZXh0IGZpbGw9IiMwMDAwMDAiIGZvbnQtZmFtaWx5PSJzYW5zLXNlcmlmIiBmb250LXNpemU9IjEyIiBmb250LXdlaWdodD0iYm9sZCIgbGVuZ3RoQWRqdXN0PSJzcGFjaW5nIiB0ZXh0TGVuZ3RoPSI2IiB4PSIyMzQ0IiB5PSIxMDc0LjcwMzEiPiYjMTYwOzwvdGV4dD48dGV4dCBmaWxsPSIjMDAwMDAwIiBmb250LWZhbWlseT0ic2Fucy1zZXJpZiIgZm9udC1zaXplPSIxMiIgZm9udC13ZWlnaHQ9ImJvbGQiIGxlbmd0aEFkanVzdD0ic3BhY2luZyIgdGV4dExlbmd0aD0iMjEiIHg9IjIzNTAiIHk9IjEwNzQuNzAzMSI+U05TPC90ZXh0Pjx0ZXh0IGZpbGw9IiMwMDAwMDAiIGZvbnQtZmFtaWx5PSJzYW5zLXNlcmlmIiBmb250LXNpemU9IjEyIiBmb250LXdlaWdodD0iYm9sZCIgbGVuZ3RoQWRqdXN0PSJzcGFjaW5nIiB0ZXh0TGVuZ3RoPSIzNCIgeD0iMjI1OS41IiB5PSIxMDg3LjU0NjkiPmV2ZW50PC90ZXh0Pjxwb2x5Z29uIGZpbGw9IiMwMDAwMDAiIHBvaW50cz0iMjI5OSwxMTI2LjczNDQsMjMwOSwxMTMwLjczNDQsMjI5OSwxMTM0LjczNDQsMjMwMywxMTMwLjczNDQiIHN0eWxlPSJzdHJva2U6IzAwMDAwMDtzdHJva2Utd2lkdGg6MS4wOyIvPjxsaW5lIHN0eWxlPSJzdHJva2U6IzAwMDAwMDtzdHJva2Utd2lkdGg6Mi4wOyIgeDE9IjE5OTEiIHgyPSIyMzA1IiB5MT0iMTEzMC43MzQ0IiB5Mj0iMTEzMC43MzQ0Ii8+PHRleHQgZmlsbD0iIzAwMDAwMCIgZm9udC1mYW1pbHk9InNhbnMtc2VyaWYiIGZvbnQtc2l6ZT0iMTIiIGZvbnQtd2VpZ2h0PSJib2xkIiBsZW5ndGhBZGp1c3Q9InNwYWNpbmciIHRleHRMZW5ndGg9IjI2IiB4PSIyMDg0LjUiIHk9IjExMTQuMzkwNiI+VGFrZTwvdGV4dD48dGV4dCBmaWxsPSIjMDAwMDAwIiBmb250LWZhbWlseT0ic2Fucy1zZXJpZiIgZm9udC1zaXplPSIxMiIgZm9udC13ZWlnaHQ9ImJvbGQiIGxlbmd0aEFkanVzdD0ic3BhY2luZyIgdGV4dExlbmd0aD0iNiIgeD0iMjExMC41IiB5PSIxMTE0LjM5MDYiPiYjMTYwOzwvdGV4dD48dGV4dCBmaWxsPSIjMDAwMDAwIiBmb250LWZhbWlseT0ic2Fucy1zZXJpZiIgZm9udC1zaXplPSIxMiIgZm9udC13ZWlnaHQ9ImJvbGQiIGxlbmd0aEFkanVzdD0ic3BhY2luZyIgdGV4dExlbmd0aD0iNTUiIHg9IjIxMTYuNSIgeT0iMTExNC4zOTA2Ij5TbmFwc2hvdDwvdGV4dD48dGV4dCBmaWxsPSIjMDAwMDAwIiBmb250LWZhbWlseT0ic2Fucy1zZXJpZiIgZm9udC1zaXplPSIxMiIgZm9udC13ZWlnaHQ9ImJvbGQiIGxlbmd0aEFkanVzdD0ic3BhY2luZyIgdGV4dExlbmd0aD0iNiIgeD0iMjE3MS41IiB5PSIxMTE0LjM5MDYiPiYjMTYwOzwvdGV4dD48dGV4dCBmaWxsPSIjMDAwMDAwIiBmb250LWZhbWlseT0ic2Fucy1zZXJpZiIgZm9udC1zaXplPSIxMiIgZm9udC13ZWlnaHQ9ImJvbGQiIGxlbmd0aEFkanVzdD0ic3BhY2luZyIgdGV4dExlbmd0aD0iMTMiIHg9IjIxNzcuNSIgeT0iMTExNC4zOTA2Ij5vZjwvdGV4dD48dGV4dCBmaWxsPSIjMDAwMDAwIiBmb250LWZhbWlseT0ic2Fucy1zZXJpZiIgZm9udC1zaXplPSIxMiIgZm9udC13ZWlnaHQ9ImJvbGQiIGxlbmd0aEFkanVzdD0ic3BhY2luZyIgdGV4dExlbmd0aD0iNiIgeD0iMjE5MC41IiB5PSIxMTE0LjM5MDYiPiYjMTYwOzwvdGV4dD48dGV4dCBmaWxsPSIjMDAwMDAwIiBmb250LWZhbWlseT0ic2Fucy1zZXJpZiIgZm9udC1zaXplPSIxMiIgZm9udC13ZWlnaHQ9ImJvbGQiIGxlbmd0aEFkanVzdD0ic3BhY2luZyIgdGV4dExlbmd0aD0iMjEiIHg9IjIxOTYuNSIgeT0iMTExNC4zOTA2Ij5QUkQ8L3RleHQ+PHRleHQgZmlsbD0iIzAwMDAwMCIgZm9udC1mYW1pbHk9InNhbnMtc2VyaWYiIGZvbnQtc2l6ZT0iMTIiIGZvbnQtd2VpZ2h0PSJib2xkIiBsZW5ndGhBZGp1c3Q9InNwYWNpbmciIHRleHRMZW5ndGg9IjU1IiB4PSIyMTIzLjUiIHk9IjExMjcuMjM0NCI+RGF0YWJhc2U8L3RleHQ+PHBhdGggZD0iTTE4OTksMTE1Mi43MzQ0IEwyMDkwLDExNTIuNzM0NCBMMjA5MCwxMTY1LjA3MDMgTDIwODAsMTE3NS4wNzAzIEwxODk5LDExNzUuMDcwMyBMMTg5OSwxMTUyLjczNDQgIiBmaWxsPSIjRkZENzAwIiBzdHlsZT0ic3Ryb2tlOiMwMDAwMDA7c3Ryb2tlLXdpZHRoOjEuNTsiLz48cmVjdCBmaWxsPSJub25lIiBoZWlnaHQ9Ijk4LjM1OTQiIHN0eWxlPSJzdHJva2U6IzdEODk5ODtzdHJva2Utd2lkdGg6MS41OyIgd2lkdGg9IjQxMCIgeD0iMTg5OSIgeT0iMTE1Mi43MzQ0Ii8+PHRleHQgZmlsbD0iIzAwMDAwMCIgZm9udC1mYW1pbHk9InNhbnMtc2VyaWYiIGZvbnQtc2l6ZT0iMTkiIGZvbnQtd2VpZ2h0PSJib2xkIiBsZW5ndGhBZGp1c3Q9InNwYWNpbmciIHRleHRMZW5ndGg9IjE0NiIgeD0iMTkxNCIgeT0iMTE3MS42OTUzIj5NZXNzYWdlIGluIFF1ZXVlPC90ZXh0PjxwYXRoIGQ9Ik0xOTA5LDExODIuMDcwMyBMMjI5NCwxMTgyLjA3MDMgTDIyOTQsMTE5NC40MDYzIEwyMjg0LDEyMDQuNDA2MyBMMTkwOSwxMjA0LjQwNjMgTDE5MDksMTE4Mi4wNzAzICIgZmlsbD0iI0ZGRkYwMCIgc3R5bGU9InN0cm9rZTojMDAwMDAwO3N0cm9rZS13aWR0aDoxLjU7Ii8+PHJlY3QgZmlsbD0ibm9uZSIgaGVpZ2h0PSI2Mi4wMjM0IiBzdHlsZT0ic3Ryb2tlOiM3RDg5OTg7c3Ryb2tlLXdpZHRoOjEuNTsiIHdpZHRoPSIzOTAiIHg9IjE5MDkiIHk9IjExODIuMDcwMyIvPjx0ZXh0IGZpbGw9IiMwMDAwMDAiIGZvbnQtZmFtaWx5PSJzYW5zLXNlcmlmIiBmb250LXNpemU9IjE5IiBmb250LXdlaWdodD0iYm9sZCIgbGVuZ3RoQWRqdXN0PSJzcGFjaW5nIiB0ZXh0TGVuZ3RoPSIzNDAiIHg9IjE5MjQiIHk9IjEyMDEuMDMxMyI+Mi1JbnZva2UgU2NyaXB0cyhCeSBTUVMgbWVzc2FnZSBUeXBlKTwvdGV4dD48cG9seWdvbiBmaWxsPSIjMDAwMDAwIiBwb2ludHM9IjIxNTAsMTIzMi4wOTM4LDIxNjAsMTIzNi4wOTM4LDIxNTAsMTI0MC4wOTM4LDIxNTQsMTIzNi4wOTM4IiBzdHlsZT0ic3Ryb2tlOiMwMDAwMDA7c3Ryb2tlLXdpZHRoOjEuMDsiLz48bGluZSBzdHlsZT0ic3Ryb2tlOiMwMDAwMDA7c3Ryb2tlLXdpZHRoOjIuMDsiIHgxPSIxOTkxIiB4Mj0iMjE1NiIgeTE9IjEyMzYuMDkzOCIgeTI9IjEyMzYuMDkzOCIvPjx0ZXh0IGZpbGw9IiMwMDAwMDAiIGZvbnQtZmFtaWx5PSJzYW5zLXNlcmlmIiBmb250LXNpemU9IjEyIiBmb250LXdlaWdodD0iYm9sZCIgbGVuZ3RoQWRqdXN0PSJzcGFjaW5nIiB0ZXh0TGVuZ3RoPSI0NyIgeD0iMjAxNi41IiB5PSIxMjE5Ljc1Ij5UcmlnZ2VyPC90ZXh0Pjx0ZXh0IGZpbGw9IiMwMDAwMDAiIGZvbnQtZmFtaWx5PSJzYW5zLXNlcmlmIiBmb250LXNpemU9IjEyIiBmb250LXdlaWdodD0iYm9sZCIgbGVuZ3RoQWRqdXN0PSJzcGFjaW5nIiB0ZXh0TGVuZ3RoPSI2IiB4PSIyMDYzLjUiIHk9IjEyMTkuNzUiPiYjMTYwOzwvdGV4dD48dGV4dCBmaWxsPSIjMDAwMDAwIiBmb250LWZhbWlseT0ic2Fucy1zZXJpZiIgZm9udC1zaXplPSIxMiIgZm9udC13ZWlnaHQ9ImJvbGQiIGxlbmd0aEFkanVzdD0ic3BhY2luZyIgdGV4dExlbmd0aD0iMjEiIHg9IjIwNjkuNSIgeT0iMTIxOS43NSI+UiZhbXA7QzwvdGV4dD48dGV4dCBmaWxsPSIjMDAwMDAwIiBmb250LWZhbWlseT0ic2Fucy1zZXJpZiIgZm9udC1zaXplPSIxMiIgZm9udC13ZWlnaHQ9ImJvbGQiIGxlbmd0aEFkanVzdD0ic3BhY2luZyIgdGV4dExlbmd0aD0iNiIgeD0iMjA5MC41IiB5PSIxMjE5Ljc1Ij4mIzE2MDs8L3RleHQ+PHRleHQgZmlsbD0iIzAwMDAwMCIgZm9udC1mYW1pbHk9InNhbnMtc2VyaWYiIGZvbnQtc2l6ZT0iMTIiIGZvbnQtd2VpZ2h0PSJib2xkIiBsZW5ndGhBZGp1c3Q9InNwYWNpbmciIHRleHRMZW5ndGg9IjE0IiB4PSIyMDk2LjUiIHk9IjEyMTkuNzUiPm9yPC90ZXh0Pjx0ZXh0IGZpbGw9IiMwMDAwMDAiIGZvbnQtZmFtaWx5PSJzYW5zLXNlcmlmIiBmb250LXNpemU9IjEyIiBmb250LXdlaWdodD0iYm9sZCIgbGVuZ3RoQWRqdXN0PSJzcGFjaW5nIiB0ZXh0TGVuZ3RoPSI2IiB4PSIyMTEwLjUiIHk9IjEyMTkuNzUiPiYjMTYwOzwvdGV4dD48dGV4dCBmaWxsPSIjMDAwMDAwIiBmb250LWZhbWlseT0ic2Fucy1zZXJpZiIgZm9udC1zaXplPSIxMiIgZm9udC13ZWlnaHQ9ImJvbGQiIGxlbmd0aEFkanVzdD0ic3BhY2luZyIgdGV4dExlbmd0aD0iMjAiIHg9IjIxMTYuNSIgeT0iMTIxOS43NSI+Qk9MPC90ZXh0Pjx0ZXh0IGZpbGw9IiMwMDAwMDAiIGZvbnQtZmFtaWx5PSJzYW5zLXNlcmlmIiBmb250LXNpemU9IjEyIiBmb250LXdlaWdodD0iYm9sZCIgbGVuZ3RoQWRqdXN0PSJzcGFjaW5nIiB0ZXh0TGVuZ3RoPSI0NiIgeD0iMjA1My41IiB5PSIxMjMyLjU5MzgiPnNjcmlwdHM8L3RleHQ+PHBhdGggZD0iTTIwODIuNSwxMjcyLjA5MzggTDIyODIuNSwxMjcyLjA5MzggTDIyODIuNSwxMjg0LjQyOTcgTDIyNzIuNSwxMjk0LjQyOTcgTDIwODIuNSwxMjk0LjQyOTcgTDIwODIuNSwxMjcyLjA5MzggIiBmaWxsPSIjRkZGRjAwIiBzdHlsZT0ic3Ryb2tlOiMwMDAwMDA7c3Ryb2tlLXdpZHRoOjEuNTsiLz48cmVjdCBmaWxsPSJub25lIiBoZWlnaHQ9IjY1NS44NjcyIiBzdHlsZT0ic3Ryb2tlOiM3RDg5OTg7c3Ryb2tlLXdpZHRoOjEuNTsiIHdpZHRoPSI3MTguNSIgeD0iMjA4Mi41IiB5PSIxMjcyLjA5MzgiLz48dGV4dCBmaWxsPSIjMDAwMDAwIiBmb250LWZhbWlseT0ic2Fucy1zZXJpZiIgZm9udC1zaXplPSIxOSIgZm9udC13ZWlnaHQ9ImJvbGQiIGxlbmd0aEFkanVzdD0ic3BhY2luZyIgdGV4dExlbmd0aD0iMTU1IiB4PSIyMDk3LjUiIHk9IjEyOTEuMDU0NyI+My1BcHBsaWNhdGlvbiBydW48L3RleHQ+PHBhdGggZD0iTTIwOTIuNSwxMzAxLjQyOTcgTDIzNjIuNSwxMzAxLjQyOTcgTDIzNjIuNSwxMzEzLjc2NTYgTDIzNTIuNSwxMzIzLjc2NTYgTDIwOTIuNSwxMzIzLjc2NTYgTDIwOTIuNSwxMzAxLjQyOTcgIiBmaWxsPSIjRkZENzAwIiBzdHlsZT0ic3Ryb2tlOiMwMDAwMDA7c3Ryb2tlLXdpZHRoOjEuNTsiLz48cmVjdCBmaWxsPSJub25lIiBoZWlnaHQ9IjMzMi42MDE2IiBzdHlsZT0ic3Ryb2tlOiM3RDg5OTg7c3Ryb2tlLXdpZHRoOjEuNTsiIHdpZHRoPSI2OTguNSIgeD0iMjA5Mi41IiB5PSIxMzAxLjQyOTciLz48dGV4dCBmaWxsPSIjMDAwMDAwIiBmb250LWZhbWlseT0ic2Fucy1zZXJpZiIgZm9udC1zaXplPSIxOSIgZm9udC13ZWlnaHQ9ImJvbGQiIGxlbmd0aEFkanVzdD0ic3BhY2luZyIgdGV4dExlbmd0aD0iMjI1IiB4PSIyMTA3LjUiIHk9IjEzMjAuMzkwNiI+UmVjZWlwdCZhbXA7Q29udHJvbC1QREUtRURJVFM8L3RleHQ+PHBhdGggZD0iTTIxMDIuNSwxMzMwLjc2NTYgTDIyNDQuNSwxMzMwLjc2NTYgTDIyNDQuNSwxMzQzLjEwMTYgTDIyMzQuNSwxMzUzLjEwMTYgTDIxMDIuNSwxMzUzLjEwMTYgTDIxMDIuNSwxMzMwLjc2NTYgIiBmaWxsPSIjRkZENzAwIiBzdHlsZT0ic3Ryb2tlOiMwMDAwMDA7c3Ryb2tlLXdpZHRoOjEuNTsiLz48cmVjdCBmaWxsPSJub25lIiBoZWlnaHQ9IjEwMS44NjcyIiBzdHlsZT0ic3Ryb2tlOiM3RDg5OTg7c3Ryb2tlLXdpZHRoOjEuNTsiIHdpZHRoPSIzNzcuNSIgeD0iMjEwMi41IiB5PSIxMzMwLjc2NTYiLz48dGV4dCBmaWxsPSIjMDAwMDAwIiBmb250LWZhbWlseT0ic2Fucy1zZXJpZiIgZm9udC1zaXplPSIxOSIgZm9udC13ZWlnaHQ9ImJvbGQiIGxlbmd0aEFkanVzdD0ic3BhY2luZyIgdGV4dExlbmd0aD0iOTciIHg9IjIxMTcuNSIgeT0iMTM0OS43MjY2Ij4oMy4xKVIgJmFtcDsgQzwvdGV4dD48bGluZSBzdHlsZT0ic3Ryb2tlOiMwMDAwMDA7c3Ryb2tlLXdpZHRoOjIuMDsiIHgxPSIyMTYyIiB4Mj0iMjIwOSIgeTE9IjEzNzkuNzg5MSIgeTI9IjEzNzkuNzg5MSIvPjxsaW5lIHN0eWxlPSJzdHJva2U6IzAwMDAwMDtzdHJva2Utd2lkdGg6Mi4wOyIgeDE9IjIyMDkiIHgyPSIyMjA5IiB5MT0iMTM3OS43ODkxIiB5Mj0iMTM5Mi43ODkxIi8+PGxpbmUgc3R5bGU9InN0cm9rZTojMDAwMDAwO3N0cm9rZS13aWR0aDoyLjA7IiB4MT0iMjE2OCIgeDI9IjIyMDkiIHkxPSIxMzkyLjc4OTEiIHkyPSIxMzkyLjc4OTEiLz48cG9seWdvbiBmaWxsPSIjMDAwMDAwIiBwb2ludHM9IjIxNzgsMTM4OC43ODkxLDIxNjgsMTM5Mi43ODkxLDIxNzgsMTM5Ni43ODkxLDIxNzQsMTM5Mi43ODkxIiBzdHlsZT0ic3Ryb2tlOiMwMDAwMDA7c3Ryb2tlLXdpZHRoOjEuMDsiLz48dGV4dCBmaWxsPSIjMDAwMDAwIiBmb250LWZhbWlseT0ic2Fucy1zZXJpZiIgZm9udC1zaXplPSIxMiIgZm9udC13ZWlnaHQ9ImJvbGQiIGxlbmd0aEFkanVzdD0ic3BhY2luZyIgdGV4dExlbmd0aD0iMzMiIHg9IjIxNzQiIHk9IjEzNjMuNDQ1MyI+U3RhcnQ8L3RleHQ+PHRleHQgZmlsbD0iIzAwMDAwMCIgZm9udC1mYW1pbHk9InNhbnMtc2VyaWYiIGZvbnQtc2l6ZT0iMTIiIGZvbnQtd2VpZ2h0PSJib2xkIiBsZW5ndGhBZGp1c3Q9InNwYWNpbmciIHRleHRMZW5ndGg9IjYiIHg9IjIyMDciIHk9IjEzNjMuNDQ1MyI+JiMxNjA7PC90ZXh0Pjx0ZXh0IGZpbGw9IiMwMDAwMDAiIGZvbnQtZmFtaWx5PSJzYW5zLXNlcmlmIiBmb250LXNpemU9IjEyIiBmb250LXdlaWdodD0iYm9sZCIgbGVuZ3RoQWRqdXN0PSJzcGFjaW5nIiB0ZXh0TGVuZ3RoPSIyMSIgeD0iMjIxMyIgeT0iMTM2My40NDUzIj5SJmFtcDtDPC90ZXh0Pjx0ZXh0IGZpbGw9IiMwMDAwMDAiIGZvbnQtZmFtaWx5PSJzYW5zLXNlcmlmIiBmb250LXNpemU9IjEyIiBmb250LXdlaWdodD0iYm9sZCIgbGVuZ3RoQWRqdXN0PSJzcGFjaW5nIiB0ZXh0TGVuZ3RoPSI2IiB4PSIyMjM0IiB5PSIxMzYzLjQ0NTMiPiYjMTYwOzwvdGV4dD48dGV4dCBmaWxsPSIjMDAwMDAwIiBmb250LWZhbWlseT0ic2Fucy1zZXJpZiIgZm9udC1zaXplPSIxMiIgZm9udC13ZWlnaHQ9ImJvbGQiIGxlbmd0aEFkanVzdD0ic3BhY2luZyIgdGV4dExlbmd0aD0iMzkiIHg9IjIyNDAiIHk9IjEzNjMuNDQ1MyI+c2NyaXB0PC90ZXh0Pjx0ZXh0IGZpbGw9IiMwMDAwMDAiIGZvbnQtZmFtaWx5PSJzYW5zLXNlcmlmIiBmb250LXNpemU9IjEyIiBmb250LXdlaWdodD0iYm9sZCIgbGVuZ3RoQWRqdXN0PSJzcGFjaW5nIiB0ZXh0TGVuZ3RoPSI2MCIgeD0iMjE5Ni41IiB5PSIxMzc2LjI4OTEiPihQREVDT1BZKTwvdGV4dD48cG9seWdvbiBmaWxsPSIjMDAwMDAwIiBwb2ludHM9IjI0MTAsMTQyMC42MzI4LDI0MjAsMTQyNC42MzI4LDI0MTAsMTQyOC42MzI4LDI0MTQsMTQyNC42MzI4IiBzdHlsZT0ic3Ryb2tlOiMwMDAwMDA7c3Ryb2tlLXdpZHRoOjEuMDsiLz48bGluZSBzdHlsZT0ic3Ryb2tlOiMwMDAwMDA7c3Ryb2tlLXdpZHRoOjIuMDsiIHgxPSIyMTY3IiB4Mj0iMjQxNiIgeTE9IjE0MjQuNjMyOCIgeTI9IjE0MjQuNjMyOCIvPjx0ZXh0IGZpbGw9IiMwMDAwMDAiIGZvbnQtZmFtaWx5PSJzYW5zLXNlcmlmIiBmb250LXNpemU9IjEyIiBmb250LXdlaWdodD0iYm9sZCIgbGVuZ3RoQWRqdXN0PSJzcGFjaW5nIiB0ZXh0TGVuZ3RoPSIyMCIgeD0iMjIyMi41IiB5PSIxNDIxLjEzMjgiPlBERTwvdGV4dD48dGV4dCBmaWxsPSIjMDAwMDAwIiBmb250LWZhbWlseT0ic2Fucy1zZXJpZiIgZm9udC1zaXplPSIxMiIgZm9udC13ZWlnaHQ9ImJvbGQiIGxlbmd0aEFkanVzdD0ic3BhY2luZyIgdGV4dExlbmd0aD0iNiIgeD0iMjI0Mi41IiB5PSIxNDIxLjEzMjgiPiYjMTYwOzwvdGV4dD48dGV4dCBmaWxsPSIjMDAwMDAwIiBmb250LWZhbWlseT0ic2Fucy1zZXJpZiIgZm9udC1zaXplPSIxMiIgZm9udC13ZWlnaHQ9ImJvbGQiIGxlbmd0aEFkanVzdD0ic3BhY2luZyIgdGV4dExlbmd0aD0iNTYiIHg9IjIyNDguNSIgeT0iMTQyMS4xMzI4Ij5SZXNwb25zZTwvdGV4dD48dGV4dCBmaWxsPSIjMDAwMDAwIiBmb250LWZhbWlseT0ic2Fucy1zZXJpZiIgZm9udC1zaXplPSIxMiIgZm9udC13ZWlnaHQ9ImJvbGQiIGxlbmd0aEFkanVzdD0ic3BhY2luZyIgdGV4dExlbmd0aD0iNiIgeD0iMjMwNC41IiB5PSIxNDIxLjEzMjgiPiYjMTYwOzwvdGV4dD48dGV4dCBmaWxsPSIjMDAwMDAwIiBmb250LWZhbWlseT0ic2Fucy1zZXJpZiIgZm9udC1zaXplPSIxMiIgZm9udC13ZWlnaHQ9ImJvbGQiIGxlbmd0aEFkanVzdD0ic3BhY2luZyIgdGV4dExlbmd0aD0iMzIiIHg9IjIzMTAuNSIgeT0iMTQyMS4xMzI4Ij5maWxlczwvdGV4dD48dGV4dCBmaWxsPSIjMDAwMDAwIiBmb250LWZhbWlseT0ic2Fucy1zZXJpZiIgZm9udC1zaXplPSIxMiIgZm9udC13ZWlnaHQ9ImJvbGQiIGxlbmd0aEFkanVzdD0ic3BhY2luZyIgdGV4dExlbmd0aD0iNiIgeD0iMjM0Mi41IiB5PSIxNDIxLjEzMjgiPiYjMTYwOzwvdGV4dD48dGV4dCBmaWxsPSIjMDAwMDAwIiBmb250LWZhbWlseT0ic2Fucy1zZXJpZiIgZm9udC1zaXplPSIxMiIgZm9udC13ZWlnaHQ9ImJvbGQiIGxlbmd0aEFkanVzdD0ic3BhY2luZyIgdGV4dExlbmd0aD0iMTgiIHg9IjIzNDguNSIgeT0iMTQyMS4xMzI4Ij5FRlQ8L3RleHQ+PHBhdGggZD0iTTIxMDIuNSwxNDQ2LjYzMjggTDIzOTkuNSwxNDQ2LjYzMjggTDIzOTkuNSwxNDU4Ljk2ODggTDIzODkuNSwxNDY4Ljk2ODggTDIxMDIuNSwxNDY4Ljk2ODggTDIxMDIuNSwxNDQ2LjYzMjggIiBmaWxsPSIjRkZENzAwIiBzdHlsZT0ic3Ryb2tlOiMwMDAwMDA7c3Ryb2tlLXdpZHRoOjEuNTsiLz48cmVjdCBmaWxsPSJub25lIiBoZWlnaHQ9IjE4MC4zOTg0IiBzdHlsZT0ic3Ryb2tlOiM3RDg5OTg7c3Ryb2tlLXdpZHRoOjEuNTsiIHdpZHRoPSI2NzguNSIgeD0iMjEwMi41IiB5PSIxNDQ2LjYzMjgiLz48dGV4dCBmaWxsPSIjMDAwMDAwIiBmb250LWZhbWlseT0ic2Fucy1zZXJpZiIgZm9udC1zaXplPSIxOSIgZm9udC13ZWlnaHQ9ImJvbGQiIGxlbmd0aEFkanVzdD0ic3BhY2luZyIgdGV4dExlbmd0aD0iMjUyIiB4PSIyMTE3LjUiIHk9IjE0NjUuNTkzOCI+KDMuMilEYXRhYnJpY2tzIChQREUgRURJVFMpPC90ZXh0Pjxwb2x5Z29uIGZpbGw9IiMwMDAwMDAiIHBvaW50cz0iMjUzMCwxNDk2LjY1NjMsMjU0MCwxNTAwLjY1NjMsMjUzMCwxNTA0LjY1NjMsMjUzNCwxNTAwLjY1NjMiIHN0eWxlPSJzdHJva2U6IzAwMDAwMDtzdHJva2Utd2lkdGg6MS4wOyIvPjxsaW5lIHN0eWxlPSJzdHJva2U6IzAwMDAwMDtzdHJva2Utd2lkdGg6Mi4wOyIgeDE9IjIxNjIiIHgyPSIyNTM2IiB5MT0iMTUwMC42NTYzIiB5Mj0iMTUwMC42NTYzIi8+PHRleHQgZmlsbD0iIzAwMDAwMCIgZm9udC1mYW1pbHk9InNhbnMtc2VyaWYiIGZvbnQtc2l6ZT0iMTIiIGZvbnQtd2VpZ2h0PSJib2xkIiBsZW5ndGhBZGp1c3Q9InNwYWNpbmciIHRleHRMZW5ndGg9IjQwIiB4PSIyMzAwIiB5PSIxNDg0LjMxMjUiPkludm9rZTwvdGV4dD48dGV4dCBmaWxsPSIjMDAwMDAwIiBmb250LWZhbWlseT0ic2Fucy1zZXJpZiIgZm9udC1zaXplPSIxMiIgZm9udC13ZWlnaHQ9ImJvbGQiIGxlbmd0aEFkanVzdD0ic3BhY2luZyIgdGV4dExlbmd0aD0iNiIgeD0iMjM0MCIgeT0iMTQ4NC4zMTI1Ij4mIzE2MDs8L3RleHQ+PHRleHQgZmlsbD0iIzAwMDAwMCIgZm9udC1mYW1pbHk9InNhbnMtc2VyaWYiIGZvbnQtc2l6ZT0iMTIiIGZvbnQtd2VpZ2h0PSJib2xkIiBsZW5ndGhBZGp1c3Q9InNwYWNpbmciIHRleHRMZW5ndGg9IjIwIiB4PSIyMzQ2IiB5PSIxNDg0LjMxMjUiPlBERTwvdGV4dD48dGV4dCBmaWxsPSIjMDAwMDAwIiBmb250LWZhbWlseT0ic2Fucy1zZXJpZiIgZm9udC1zaXplPSIxMiIgZm9udC13ZWlnaHQ9ImJvbGQiIGxlbmd0aEFkanVzdD0ic3BhY2luZyIgdGV4dExlbmd0aD0iNiIgeD0iMjM2NiIgeT0iMTQ4NC4zMTI1Ij4mIzE2MDs8L3RleHQ+PHRleHQgZmlsbD0iIzAwMDAwMCIgZm9udC1mYW1pbHk9InNhbnMtc2VyaWYiIGZvbnQtc2l6ZT0iMTIiIGZvbnQtd2VpZ2h0PSJib2xkIiBsZW5ndGhBZGp1c3Q9InNwYWNpbmciIHRleHRMZW5ndGg9IjMyIiB4PSIyMzcyIiB5PSIxNDg0LjMxMjUiPkVESVRTPC90ZXh0Pjx0ZXh0IGZpbGw9IiMwMDAwMDAiIGZvbnQtZmFtaWx5PSJzYW5zLXNlcmlmIiBmb250LXNpemU9IjEyIiBmb250LXdlaWdodD0iYm9sZCIgbGVuZ3RoQWRqdXN0PSJzcGFjaW5nIiB0ZXh0TGVuZ3RoPSI1MiIgeD0iMjMyNiIgeT0iMTQ5Ny4xNTYzIj5Xb3JrZmxvdzwvdGV4dD48bGluZSBzdHlsZT0ic3Ryb2tlOiMwMDAwMDA7c3Ryb2tlLXdpZHRoOjIuMDsiIHgxPSIyNTQyIiB4Mj0iMjU4NCIgeTE9IjE1MjcuNSIgeTI9IjE1MjcuNSIvPjxsaW5lIHN0eWxlPSJzdHJva2U6IzAwMDAwMDtzdHJva2Utd2lkdGg6Mi4wOyIgeDE9IjI1ODQiIHgyPSIyNTg0IiB5MT0iMTUyNy41IiB5Mj0iMTU0MC41Ii8+PGxpbmUgc3R5bGU9InN0cm9rZTojMDAwMDAwO3N0cm9rZS13aWR0aDoyLjA7IiB4MT0iMjU0MyIgeDI9IjI1ODQiIHkxPSIxNTQwLjUiIHkyPSIxNTQwLjUiLz48cG9seWdvbiBmaWxsPSIjMDAwMDAwIiBwb2ludHM9IjI1NTMsMTUzNi41LDI1NDMsMTU0MC41LDI1NTMsMTU0NC41LDI1NDksMTU0MC41IiBzdHlsZT0ic3Ryb2tlOiMwMDAwMDA7c3Ryb2tlLXdpZHRoOjEuMDsiLz48dGV4dCBmaWxsPSIjMDAwMDAwIiBmb250LWZhbWlseT0ic2Fucy1zZXJpZiIgZm9udC1zaXplPSIxMiIgZm9udC13ZWlnaHQ9ImJvbGQiIGxlbmd0aEFkanVzdD0ic3BhY2luZyIgdGV4dExlbmd0aD0iMjAiIHg9IjI1NDkiIHk9IjE1MjQiPlBERTwvdGV4dD48dGV4dCBmaWxsPSIjMDAwMDAwIiBmb250LWZhbWlseT0ic2Fucy1zZXJpZiIgZm9udC1zaXplPSIxMiIgZm9udC13ZWlnaHQ9ImJvbGQiIGxlbmd0aEFkanVzdD0ic3BhY2luZyIgdGV4dExlbmd0aD0iNiIgeD0iMjU2OSIgeT0iMTUyNCI+JiMxNjA7PC90ZXh0Pjx0ZXh0IGZpbGw9IiMwMDAwMDAiIGZvbnQtZmFtaWx5PSJzYW5zLXNlcmlmIiBmb250LXNpemU9IjEyIiBmb250LXdlaWdodD0iYm9sZCIgbGVuZ3RoQWRqdXN0PSJzcGFjaW5nIiB0ZXh0TGVuZ3RoPSIzMiIgeD0iMjU3NSIgeT0iMTUyNCI+RURJVFM8L3RleHQ+PHRleHQgZmlsbD0iIzAwMDAwMCIgZm9udC1mYW1pbHk9InNhbnMtc2VyaWYiIGZvbnQtc2l6ZT0iMTIiIGZvbnQtd2VpZ2h0PSJib2xkIiBsZW5ndGhBZGp1c3Q9InNwYWNpbmciIHRleHRMZW5ndGg9IjYiIHg9IjI2MDciIHk9IjE1MjQiPiYjMTYwOzwvdGV4dD48dGV4dCBmaWxsPSIjMDAwMDAwIiBmb250LWZhbWlseT0ic2Fucy1zZXJpZiIgZm9udC1zaXplPSIxMiIgZm9udC13ZWlnaHQ9ImJvbGQiIGxlbmd0aEFkanVzdD0ic3BhY2luZyIgdGV4dExlbmd0aD0iNjAiIHg9IjI2MTMiIHk9IjE1MjQiPkNvbXBsZXRlZDwvdGV4dD48cGF0aCBkPSJNMjU0NywxNTUzLjUgTDI1NDcsMTU3NS41IEwyNzcxLDE1NzUuNSBMMjc3MSwxNTYzLjUgTDI3NjEsMTU1My41IEwyNTQ3LDE1NTMuNSAiIGZpbGw9IiNGRkZGMDAiIHN0eWxlPSJzdHJva2U6IzdEODk5ODtzdHJva2Utd2lkdGg6MS4yNTsiLz48cGF0aCBkPSJNMjc2MSwxNTUzLjUgTDI3NjEsMTU2My41IEwyNzcxLDE1NjMuNSBMMjc2MSwxNTUzLjUgIiBmaWxsPSIjRkZGRjAwIiBzdHlsZT0ic3Ryb2tlOiM3RDg5OTg7c3Ryb2tlLXdpZHRoOjEuMjU7Ii8+PHRleHQgZmlsbD0iIzAwMDAwMCIgZm9udC1mYW1pbHk9InNhbnMtc2VyaWYiIGZvbnQtc2l6ZT0iMTIiIGZvbnQtd2VpZ2h0PSJib2xkIiBsZW5ndGhBZGp1c3Q9InNwYWNpbmciIHRleHRMZW5ndGg9IjU1IiB4PSIyNTYyIiB5PSIxNTY5Ljg0MzgiPkRCWC5Eb25lPC90ZXh0Pjx0ZXh0IGZpbGw9IiMwMDAwMDAiIGZvbnQtZmFtaWx5PSJzYW5zLXNlcmlmIiBmb250LXNpemU9IjEyIiBmb250LXdlaWdodD0iYm9sZCIgbGVuZ3RoQWRqdXN0PSJzcGFjaW5nIiB0ZXh0TGVuZ3RoPSI2IiB4PSIyNjE3IiB5PSIxNTY5Ljg0MzgiPiYjMTYwOzwvdGV4dD48dGV4dCBmaWxsPSIjMDAwMDAwIiBmb250LWZhbWlseT0ic2Fucy1zZXJpZiIgZm9udC1zaXplPSIxMiIgZm9udC13ZWlnaHQ9ImJvbGQiIGxlbmd0aEFkanVzdD0ic3BhY2luZyIgdGV4dExlbmd0aD0iMjUiIHg9IjI2MjMiIHk9IjE1NjkuODQzOCI+ZmlsZTwvdGV4dD48dGV4dCBmaWxsPSIjMDAwMDAwIiBmb250LWZhbWlseT0ic2Fucy1zZXJpZiIgZm9udC1zaXplPSIxMiIgZm9udC13ZWlnaHQ9ImJvbGQiIGxlbmd0aEFkanVzdD0ic3BhY2luZyIgdGV4dExlbmd0aD0iNiIgeD0iMjY0OCIgeT0iMTU2OS44NDM4Ij4mIzE2MDs8L3RleHQ+PHRleHQgZmlsbD0iIzAwMDAwMCIgZm9udC1mYW1pbHk9InNhbnMtc2VyaWYiIGZvbnQtc2l6ZT0iMTIiIGZvbnQtd2VpZ2h0PSJib2xkIiBsZW5ndGhBZGp1c3Q9InNwYWNpbmciIHRleHRMZW5ndGg9IjEzIiB4PSIyNjU0IiB5PSIxNTY5Ljg0MzgiPnRvPC90ZXh0Pjx0ZXh0IGZpbGw9IiMwMDAwMDAiIGZvbnQtZmFtaWx5PSJzYW5zLXNlcmlmIiBmb250LXNpemU9IjEyIiBmb250LXdlaWdodD0iYm9sZCIgbGVuZ3RoQWRqdXN0PSJzcGFjaW5nIiB0ZXh0TGVuZ3RoPSI2IiB4PSIyNjY3IiB5PSIxNTY5Ljg0MzgiPiYjMTYwOzwvdGV4dD48dGV4dCBmaWxsPSIjMDAwMDAwIiBmb250LWZhbWlseT0ic2Fucy1zZXJpZiIgZm9udC1zaXplPSIxMiIgZm9udC13ZWlnaHQ9ImJvbGQiIGxlbmd0aEFkanVzdD0ic3BhY2luZyIgdGV4dExlbmd0aD0iMTMiIHg9IjI2NzMiIHk9IjE1NjkuODQzOCI+UzM8L3RleHQ+PHRleHQgZmlsbD0iIzAwMDAwMCIgZm9udC1mYW1pbHk9InNhbnMtc2VyaWYiIGZvbnQtc2l6ZT0iMTIiIGZvbnQtd2VpZ2h0PSJib2xkIiBsZW5ndGhBZGp1c3Q9InNwYWNpbmciIHRleHRMZW5ndGg9IjYiIHg9IjI2ODYiIHk9IjE1NjkuODQzOCI+JiMxNjA7PC90ZXh0Pjx0ZXh0IGZpbGw9IiMwMDAwMDAiIGZvbnQtZmFtaWx5PSJzYW5zLXNlcmlmIiBmb250LXNpemU9IjEyIiBmb250LXdlaWdodD0iYm9sZCIgbGVuZ3RoQWRqdXN0PSJzcGFjaW5nIiB0ZXh0TGVuZ3RoPSIxOSIgeD0iMjY5MiIgeT0iMTU2OS44NDM4Ij4oUzM8L3RleHQ+PHRleHQgZmlsbD0iIzAwMDAwMCIgZm9udC1mYW1pbHk9InNhbnMtc2VyaWYiIGZvbnQtc2l6ZT0iMTIiIGZvbnQtd2VpZ2h0PSJib2xkIiBsZW5ndGhBZGp1c3Q9InNwYWNpbmciIHRleHRMZW5ndGg9IjYiIHg9IjI3MTEiIHk9IjE1NjkuODQzOCI+JiMxNjA7PC90ZXh0Pjx0ZXh0IGZpbGw9IiMwMDAwMDAiIGZvbnQtZmFtaWx5PSJzYW5zLXNlcmlmIiBmb250LXNpemU9IjEyIiBmb250LXdlaWdodD0iYm9sZCIgbGVuZ3RoQWRqdXN0PSJzcGFjaW5nIiB0ZXh0TGVuZ3RoPSIzOSIgeD0iMjcxNyIgeT0iMTU2OS44NDM4Ij5FdmVudCk8L3RleHQ+PHBhdGggZD0iTTI1NDcsMTU4Ni4zNDM4IEwyNTQ3LDE2MjEuMzQzOCBMMjY3NywxNjIxLjM0MzggTDI2NzcsMTU5Ni4zNDM4IEwyNjY3LDE1ODYuMzQzOCBMMjU0NywxNTg2LjM0MzggIiBmaWxsPSIjRkZGRjAwIiBzdHlsZT0ic3Ryb2tlOiM3RDg5OTg7c3Ryb2tlLXdpZHRoOjEuMjU7Ii8+PHBhdGggZD0iTTI2NjcsMTU4Ni4zNDM4IEwyNjY3LDE1OTYuMzQzOCBMMjY3NywxNTk2LjM0MzggTDI2NjcsMTU4Ni4zNDM4ICIgZmlsbD0iI0ZGRkYwMCIgc3R5bGU9InN0cm9rZTojN0Q4OTk4O3N0cm9rZS13aWR0aDoxLjI1OyIvPjx0ZXh0IGZpbGw9IiMwMDAwMDAiIGZvbnQtZmFtaWx5PSJzYW5zLXNlcmlmIiBmb250LXNpemU9IjEyIiBmb250LXdlaWdodD0iYm9sZCIgbGVuZ3RoQWRqdXN0PSJzcGFjaW5nIiB0ZXh0TGVuZ3RoPSI1NCIgeD0iMjU2MiIgeT0iMTYwMi42ODc1Ij50cmlnZ2VyczwvdGV4dD48dGV4dCBmaWxsPSIjMDAwMDAwIiBmb250LWZhbWlseT0ic2Fucy1zZXJpZiIgZm9udC1zaXplPSIxMiIgZm9udC13ZWlnaHQ9ImJvbGQiIGxlbmd0aEFkanVzdD0ic3BhY2luZyIgdGV4dExlbmd0aD0iNiIgeD0iMjYxNiIgeT0iMTYwMi42ODc1Ij4mIzE2MDs8L3RleHQ+PHRleHQgZmlsbD0iIzAwMDAwMCIgZm9udC1mYW1pbHk9InNhbnMtc2VyaWYiIGZvbnQtc2l6ZT0iMTIiIGZvbnQtd2VpZ2h0PSJib2xkIiBsZW5ndGhBZGp1c3Q9InNwYWNpbmciIHRleHRMZW5ndGg9IjQwIiB4PSIyNjIyIiB5PSIxNjAyLjY4NzUiPkxhbWJkYTwvdGV4dD48dGV4dCBmaWxsPSIjMDAwMDAwIiBmb250LWZhbWlseT0ic2Fucy1zZXJpZiIgZm9udC1zaXplPSIxMiIgZm9udC13ZWlnaHQ9ImJvbGQiIGxlbmd0aEFkanVzdD0ic3BhY2luZyIgdGV4dExlbmd0aD0iOTUiIHg9IjI1NjQuNSIgeT0iMTYxNS41MzEzIj5kZHBzLVBvbGxRdWV1ZTwvdGV4dD48cGF0aCBkPSJNMjEwMi41LDE2NDguMDMxMyBMMjI1NC41LDE2NDguMDMxMyBMMjI1NC41LDE2NjAuMzY3MiBMMjI0NC41LDE2NzAuMzY3MiBMMjEwMi41LDE2NzAuMzY3MiBMMjEwMi41LDE2NDguMDMxMyAiIGZpbGw9IiNGRkQ3MDAiIHN0eWxlPSJzdHJva2U6IzAwMDAwMDtzdHJva2Utd2lkdGg6MS41OyIvPjxyZWN0IGZpbGw9Im5vbmUiIGhlaWdodD0iMjcyLjkyOTciIHN0eWxlPSJzdHJva2U6IzdEODk5ODtzdHJva2Utd2lkdGg6MS41OyIgd2lkdGg9IjU1NS41IiB4PSIyMTAyLjUiIHk9IjE2NDguMDMxMyIvPjx0ZXh0IGZpbGw9IiMwMDAwMDAiIGZvbnQtZmFtaWx5PSJzYW5zLXNlcmlmIiBmb250LXNpemU9IjE5IiBmb250LXdlaWdodD0iYm9sZCIgbGVuZ3RoQWRqdXN0PSJzcGFjaW5nIiB0ZXh0TGVuZ3RoPSIxMDciIHg9IjIxMTcuNSIgeT0iMTY2Ni45OTIyIj4oMy4zKSBCIE8gTDwvdGV4dD48bGluZSBzdHlsZT0ic3Ryb2tlOiMwMDAwMDA7c3Ryb2tlLXdpZHRoOjIuMDsiIHgxPSIyMTYyIiB4Mj0iMjIwOSIgeTE9IjE2OTcuMDU0NyIgeTI9IjE2OTcuMDU0NyIvPjxsaW5lIHN0eWxlPSJzdHJva2U6IzAwMDAwMDtzdHJva2Utd2lkdGg6Mi4wOyIgeDE9IjIyMDkiIHgyPSIyMjA5IiB5MT0iMTY5Ny4wNTQ3IiB5Mj0iMTcxMC4wNTQ3Ii8+PGxpbmUgc3R5bGU9InN0cm9rZTojMDAwMDAwO3N0cm9rZS13aWR0aDoyLjA7IiB4MT0iMjE2OCIgeDI9IjIyMDkiIHkxPSIxNzEwLjA1NDciIHkyPSIxNzEwLjA1NDciLz48cG9seWdvbiBmaWxsPSIjMDAwMDAwIiBwb2ludHM9IjIxNzgsMTcwNi4wNTQ3LDIxNjgsMTcxMC4wNTQ3LDIxNzgsMTcxNC4wNTQ3LDIxNzQsMTcxMC4wNTQ3IiBzdHlsZT0ic3Ryb2tlOiMwMDAwMDA7c3Ryb2tlLXdpZHRoOjEuMDsiLz48dGV4dCBmaWxsPSIjMDAwMDAwIiBmb250LWZhbWlseT0ic2Fucy1zZXJpZiIgZm9udC1zaXplPSIxMiIgZm9udC13ZWlnaHQ9ImJvbGQiIGxlbmd0aEFkanVzdD0ic3BhY2luZyIgdGV4dExlbmd0aD0iMzMiIHg9IjIxNzQiIHk9IjE2ODAuNzEwOSI+U3RhcnQ8L3RleHQ+PHRleHQgZmlsbD0iIzAwMDAwMCIgZm9udC1mYW1pbHk9InNhbnMtc2VyaWYiIGZvbnQtc2l6ZT0iMTIiIGZvbnQtd2VpZ2h0PSJib2xkIiBsZW5ndGhBZGp1c3Q9InNwYWNpbmciIHRleHRMZW5ndGg9IjYiIHg9IjIyMDciIHk9IjE2ODAuNzEwOSI+JiMxNjA7PC90ZXh0Pjx0ZXh0IGZpbGw9IiMwMDAwMDAiIGZvbnQtZmFtaWx5PSJzYW5zLXNlcmlmIiBmb250LXNpemU9IjEyIiBmb250LXdlaWdodD0iYm9sZCIgbGVuZ3RoQWRqdXN0PSJzcGFjaW5nIiB0ZXh0TGVuZ3RoPSIyMCIgeD0iMjIxMyIgeT0iMTY4MC43MTA5Ij5CT0w8L3RleHQ+PHRleHQgZmlsbD0iIzAwMDAwMCIgZm9udC1mYW1pbHk9InNhbnMtc2VyaWYiIGZvbnQtc2l6ZT0iMTIiIGZvbnQtd2VpZ2h0PSJib2xkIiBsZW5ndGhBZGp1c3Q9InNwYWNpbmciIHRleHRMZW5ndGg9IjYiIHg9IjIyMzMiIHk9IjE2ODAuNzEwOSI+JiMxNjA7PC90ZXh0Pjx0ZXh0IGZpbGw9IiMwMDAwMDAiIGZvbnQtZmFtaWx5PSJzYW5zLXNlcmlmIiBmb250LXNpemU9IjEyIiBmb250LXdlaWdodD0iYm9sZCIgbGVuZ3RoQWRqdXN0PSJzcGFjaW5nIiB0ZXh0TGVuZ3RoPSIzOSIgeD0iMjIzOSIgeT0iMTY4MC43MTA5Ij5zY3JpcHQ8L3RleHQ+PHRleHQgZmlsbD0iIzAwMDAwMCIgZm9udC1mYW1pbHk9InNhbnMtc2VyaWYiIGZvbnQtc2l6ZT0iMTIiIGZvbnQtd2VpZ2h0PSJib2xkIiBsZW5ndGhBZGp1c3Q9InNwYWNpbmciIHRleHRMZW5ndGg9IjUyIiB4PSIyMjAwIiB5PSIxNjkzLjU1NDciPihQREVQTFMpPC90ZXh0PjxsaW5lIHN0eWxlPSJzdHJva2U6IzAwMDAwMDtzdHJva2Utd2lkdGg6Mi4wOyIgeDE9IjIxNjciIHgyPSIyMjA5IiB5MT0iMTc1NC43NDIyIiB5Mj0iMTc1NC43NDIyIi8+PGxpbmUgc3R5bGU9InN0cm9rZTojMDAwMDAwO3N0cm9rZS13aWR0aDoyLjA7IiB4MT0iMjIwOSIgeDI9IjIyMDkiIHkxPSIxNzU0Ljc0MjIiIHkyPSIxNzY3Ljc0MjIiLz48bGluZSBzdHlsZT0ic3Ryb2tlOiMwMDAwMDA7c3Ryb2tlLXdpZHRoOjIuMDsiIHgxPSIyMTY4IiB4Mj0iMjIwOSIgeTE9IjE3NjcuNzQyMiIgeTI9IjE3NjcuNzQyMiIvPjxwb2x5Z29uIGZpbGw9IiMwMDAwMDAiIHBvaW50cz0iMjE3OCwxNzYzLjc0MjIsMjE2OCwxNzY3Ljc0MjIsMjE3OCwxNzcxLjc0MjIsMjE3NCwxNzY3Ljc0MjIiIHN0eWxlPSJzdHJva2U6IzAwMDAwMDtzdHJva2Utd2lkdGg6MS4wOyIvPjx0ZXh0IGZpbGw9IiMwMDAwMDAiIGZvbnQtZmFtaWx5PSJzYW5zLXNlcmlmIiBmb250LXNpemU9IjEyIiBmb250LXdlaWdodD0iYm9sZCIgbGVuZ3RoQWRqdXN0PSJzcGFjaW5nIiB0ZXh0TGVuZ3RoPSIyOCIgeD0iMjE3OC41IiB5PSIxNzM4LjM5ODQiPkJlbmU8L3RleHQ+PHRleHQgZmlsbD0iIzAwMDAwMCIgZm9udC1mYW1pbHk9InNhbnMtc2VyaWYiIGZvbnQtc2l6ZT0iMTIiIGZvbnQtd2VpZ2h0PSJib2xkIiBsZW5ndGhBZGp1c3Q9InNwYWNpbmciIHRleHRMZW5ndGg9IjYiIHg9IjIyMDYuNSIgeT0iMTczOC4zOTg0Ij4mIzE2MDs8L3RleHQ+PHRleHQgZmlsbD0iIzAwMDAwMCIgZm9udC1mYW1pbHk9InNhbnMtc2VyaWYiIGZvbnQtc2l6ZT0iMTIiIGZvbnQtd2VpZ2h0PSJib2xkIiBsZW5ndGhBZGp1c3Q9InNwYWNpbmciIHRleHRMZW5ndGg9IjI1IiB4PSIyMjEyLjUiIHk9IjE3MzguMzk4NCI+TGluazwvdGV4dD48dGV4dCBmaWxsPSIjMDAwMDAwIiBmb250LWZhbWlseT0ic2Fucy1zZXJpZiIgZm9udC1zaXplPSIxMiIgZm9udC13ZWlnaHQ9ImJvbGQiIGxlbmd0aEFkanVzdD0ic3BhY2luZyIgdGV4dExlbmd0aD0iNiIgeD0iMjIzNy41IiB5PSIxNzM4LjM5ODQiPiYjMTYwOzwvdGV4dD48dGV4dCBmaWxsPSIjMDAwMDAwIiBmb250LWZhbWlseT0ic2Fucy1zZXJpZiIgZm9udC1zaXplPSIxMiIgZm9udC13ZWlnaHQ9ImJvbGQiIGxlbmd0aEFkanVzdD0ic3BhY2luZyIgdGV4dExlbmd0aD0iMjAiIHg9IjIyNDMuNSIgeT0iMTczOC4zOTg0Ij5rZXk8L3RleHQ+PHRleHQgZmlsbD0iIzAwMDAwMCIgZm9udC1mYW1pbHk9InNhbnMtc2VyaWYiIGZvbnQtc2l6ZT0iMTIiIGZvbnQtd2VpZ2h0PSJib2xkIiBsZW5ndGhBZGp1c3Q9InNwYWNpbmciIHRleHRMZW5ndGg9IjYiIHg9IjIyNjMuNSIgeT0iMTczOC4zOTg0Ij4mIzE2MDs8L3RleHQ+PHRleHQgZmlsbD0iIzAwMDAwMCIgZm9udC1mYW1pbHk9InNhbnMtc2VyaWYiIGZvbnQtc2l6ZT0iMTIiIGZvbnQtd2VpZ2h0PSJib2xkIiBsZW5ndGhBZGp1c3Q9InNwYWNpbmciIHRleHRMZW5ndGg9IjI1IiB4PSIyMjY5LjUiIHk9IjE3MzguMzk4NCI+ZmlsZTwvdGV4dD48dGV4dCBmaWxsPSIjMDAwMDAwIiBmb250LWZhbWlseT0ic2Fucy1zZXJpZiIgZm9udC1zaXplPSIxMiIgZm9udC13ZWlnaHQ9ImJvbGQiIGxlbmd0aEFkanVzdD0ic3BhY2luZyIgdGV4dExlbmd0aD0iMTI1IiB4PSIyMTc0IiB5PSIxNzUxLjI0MjIiPnByb2Nlc3NpbmcpKEN5Y2xlMyk8L3RleHQ+PHBvbHlnb24gZmlsbD0iIzAwMDAwMCIgcG9pbnRzPSIyNDEwLDE3OTAuNTg1OSwyNDIwLDE3OTQuNTg1OSwyNDEwLDE3OTguNTg1OSwyNDE0LDE3OTQuNTg1OSIgc3R5bGU9InN0cm9rZTojMDAwMDAwO3N0cm9rZS13aWR0aDoxLjA7Ii8+PGxpbmUgc3R5bGU9InN0cm9rZTojMDAwMDAwO3N0cm9rZS13aWR0aDoyLjA7IiB4MT0iMjE2MiIgeDI9IjI0MTYiIHkxPSIxNzk0LjU4NTkiIHkyPSIxNzk0LjU4NTkiLz48dGV4dCBmaWxsPSIjMDAwMDAwIiBmb250LWZhbWlseT0ic2Fucy1zZXJpZiIgZm9udC1zaXplPSIxMiIgZm9udC13ZWlnaHQ9ImJvbGQiIGxlbmd0aEFkanVzdD0ic3BhY2luZyIgdGV4dExlbmd0aD0iMjAiIHg9IjIyMzAuNSIgeT0iMTc5MS4wODU5Ij5PdXQ8L3RleHQ+PHRleHQgZmlsbD0iIzAwMDAwMCIgZm9udC1mYW1pbHk9InNhbnMtc2VyaWYiIGZvbnQtc2l6ZT0iMTIiIGZvbnQtd2VpZ2h0PSJib2xkIiBsZW5ndGhBZGp1c3Q9InNwYWNpbmciIHRleHRMZW5ndGg9IjYiIHg9IjIyNTAuNSIgeT0iMTc5MS4wODU5Ij4mIzE2MDs8L3RleHQ+PHRleHQgZmlsbD0iIzAwMDAwMCIgZm9udC1mYW1pbHk9InNhbnMtc2VyaWYiIGZvbnQtc2l6ZT0iMTIiIGZvbnQtd2VpZ2h0PSJib2xkIiBsZW5ndGhBZGp1c3Q9InNwYWNpbmciIHRleHRMZW5ndGg9IjM1IiB4PSIyMjU2LjUiIHk9IjE3OTEuMDg1OSI+Ym91bmQ8L3RleHQ+PHRleHQgZmlsbD0iIzAwMDAwMCIgZm9udC1mYW1pbHk9InNhbnMtc2VyaWYiIGZvbnQtc2l6ZT0iMTIiIGZvbnQtd2VpZ2h0PSJib2xkIiBsZW5ndGhBZGp1c3Q9InNwYWNpbmciIHRleHRMZW5ndGg9IjYiIHg9IjIyOTEuNSIgeT0iMTc5MS4wODU5Ij4mIzE2MDs8L3RleHQ+PHRleHQgZmlsbD0iIzAwMDAwMCIgZm9udC1mYW1pbHk9InNhbnMtc2VyaWYiIGZvbnQtc2l6ZT0iMTIiIGZvbnQtd2VpZ2h0PSJib2xkIiBsZW5ndGhBZGp1c3Q9InNwYWNpbmciIHRleHRMZW5ndGg9IjMyIiB4PSIyMjk3LjUiIHk9IjE3OTEuMDg1OSI+ZmlsZXM8L3RleHQ+PHRleHQgZmlsbD0iIzAwMDAwMCIgZm9udC1mYW1pbHk9InNhbnMtc2VyaWYiIGZvbnQtc2l6ZT0iMTIiIGZvbnQtd2VpZ2h0PSJib2xkIiBsZW5ndGhBZGp1c3Q9InNwYWNpbmciIHRleHRMZW5ndGg9IjYiIHg9IjIzMjkuNSIgeT0iMTc5MS4wODU5Ij4mIzE2MDs8L3RleHQ+PHRleHQgZmlsbD0iIzAwMDAwMCIgZm9udC1mYW1pbHk9InNhbnMtc2VyaWYiIGZvbnQtc2l6ZT0iMTIiIGZvbnQtd2VpZ2h0PSJib2xkIiBsZW5ndGhBZGp1c3Q9InNwYWNpbmciIHRleHRMZW5ndGg9IjE4IiB4PSIyMzM1LjUiIHk9IjE3OTEuMDg1OSI+RUZUPC90ZXh0PjxsaW5lIHN0eWxlPSJzdHJva2U6IzAwMDAwMDtzdHJva2Utd2lkdGg6Mi4wOyIgeDE9IjI0MjIiIHgyPSIyNDY0IiB5MT0iMTgyNi40Mjk3IiB5Mj0iMTgyNi40Mjk3Ii8+PGxpbmUgc3R5bGU9InN0cm9rZTojMDAwMDAwO3N0cm9rZS13aWR0aDoyLjA7IiB4MT0iMjQ2NCIgeDI9IjI0NjQiIHkxPSIxODI2LjQyOTciIHkyPSIxODM5LjQyOTciLz48bGluZSBzdHlsZT0ic3Ryb2tlOiMwMDAwMDA7c3Ryb2tlLXdpZHRoOjIuMDsiIHgxPSIyNDE3IiB4Mj0iMjQ2NCIgeTE9IjE4MzkuNDI5NyIgeTI9IjE4MzkuNDI5NyIvPjxwb2x5Z29uIGZpbGw9IiMwMDAwMDAiIHBvaW50cz0iMjQyNywxODM1LjQyOTcsMjQxNywxODM5LjQyOTcsMjQyNywxODQzLjQyOTcsMjQyMywxODM5LjQyOTciIHN0eWxlPSJzdHJva2U6IzAwMDAwMDtzdHJva2Utd2lkdGg6MS4wOyIvPjx0ZXh0IGZpbGw9IiMwMDAwMDAiIGZvbnQtZmFtaWx5PSJzYW5zLXNlcmlmIiBmb250LXNpemU9IjEyIiBmb250LXdlaWdodD0iYm9sZCIgbGVuZ3RoQWRqdXN0PSJzcGFjaW5nIiB0ZXh0TGVuZ3RoPSIxOCIgeD0iMjQyOSIgeT0iMTgyMi45Mjk3Ij5FRlQ8L3RleHQ+PHRleHQgZmlsbD0iIzAwMDAwMCIgZm9udC1mYW1pbHk9InNhbnMtc2VyaWYiIGZvbnQtc2l6ZT0iMTIiIGZvbnQtd2VpZ2h0PSJib2xkIiBsZW5ndGhBZGp1c3Q9InNwYWNpbmciIHRleHRMZW5ndGg9IjYiIHg9IjI0NDciIHk9IjE4MjIuOTI5NyI+JiMxNjA7PC90ZXh0Pjx0ZXh0IGZpbGw9IiMwMDAwMDAiIGZvbnQtZmFtaWx5PSJzYW5zLXNlcmlmIiBmb250LXNpemU9IjEyIiBmb250LXdlaWdodD0iYm9sZCIgbGVuZ3RoQWRqdXN0PSJzcGFjaW5nIiB0ZXh0TGVuZ3RoPSI2MCIgeD0iMjQ1MyIgeT0iMTgyMi45Mjk3Ij5Db21wbGV0ZWQ8L3RleHQ+PHBhdGggZD0iTTI0MjcsMTg0Ny40Mjk3IEwyNDI3LDE4NjkuNDI5NyBMMjY0OCwxODY5LjQyOTcgTDI2NDgsMTg1Ny40Mjk3IEwyNjM4LDE4NDcuNDI5NyBMMjQyNywxODQ3LjQyOTcgIiBmaWxsPSIjRkZGRjAwIiBzdHlsZT0ic3Ryb2tlOiM3RDg5OTg7c3Ryb2tlLXdpZHRoOjEuMjU7Ii8+PHBhdGggZD0iTTI2MzgsMTg0Ny40Mjk3IEwyNjM4LDE4NTcuNDI5NyBMMjY0OCwxODU3LjQyOTcgTDI2MzgsMTg0Ny40Mjk3ICIgZmlsbD0iI0ZGRkYwMCIgc3R5bGU9InN0cm9rZTojN0Q4OTk4O3N0cm9rZS13aWR0aDoxLjI1OyIvPjx0ZXh0IGZpbGw9IiMwMDAwMDAiIGZvbnQtZmFtaWx5PSJzYW5zLXNlcmlmIiBmb250LXNpemU9IjEyIiBmb250LXdlaWdodD0iYm9sZCIgbGVuZ3RoQWRqdXN0PSJzcGFjaW5nIiB0ZXh0TGVuZ3RoPSI1MiIgeD0iMjQ0MiIgeT0iMTg2My43NzM0Ij5FRlQuRG9uZTwvdGV4dD48dGV4dCBmaWxsPSIjMDAwMDAwIiBmb250LWZhbWlseT0ic2Fucy1zZXJpZiIgZm9udC1zaXplPSIxMiIgZm9udC13ZWlnaHQ9ImJvbGQiIGxlbmd0aEFkanVzdD0ic3BhY2luZyIgdGV4dExlbmd0aD0iNiIgeD0iMjQ5NCIgeT0iMTg2My43NzM0Ij4mIzE2MDs8L3RleHQ+PHRleHQgZmlsbD0iIzAwMDAwMCIgZm9udC1mYW1pbHk9InNhbnMtc2VyaWYiIGZvbnQtc2l6ZT0iMTIiIGZvbnQtd2VpZ2h0PSJib2xkIiBsZW5ndGhBZGp1c3Q9InNwYWNpbmciIHRleHRMZW5ndGg9IjI1IiB4PSIyNTAwIiB5PSIxODYzLjc3MzQiPmZpbGU8L3RleHQ+PHRleHQgZmlsbD0iIzAwMDAwMCIgZm9udC1mYW1pbHk9InNhbnMtc2VyaWYiIGZvbnQtc2l6ZT0iMTIiIGZvbnQtd2VpZ2h0PSJib2xkIiBsZW5ndGhBZGp1c3Q9InNwYWNpbmciIHRleHRMZW5ndGg9IjYiIHg9IjI1MjUiIHk9IjE4NjMuNzczNCI+JiMxNjA7PC90ZXh0Pjx0ZXh0IGZpbGw9IiMwMDAwMDAiIGZvbnQtZmFtaWx5PSJzYW5zLXNlcmlmIiBmb250LXNpemU9IjEyIiBmb250LXdlaWdodD0iYm9sZCIgbGVuZ3RoQWRqdXN0PSJzcGFjaW5nIiB0ZXh0TGVuZ3RoPSIxMyIgeD0iMjUzMSIgeT0iMTg2My43NzM0Ij50bzwvdGV4dD48dGV4dCBmaWxsPSIjMDAwMDAwIiBmb250LWZhbWlseT0ic2Fucy1zZXJpZiIgZm9udC1zaXplPSIxMiIgZm9udC13ZWlnaHQ9ImJvbGQiIGxlbmd0aEFkanVzdD0ic3BhY2luZyIgdGV4dExlbmd0aD0iNiIgeD0iMjU0NCIgeT0iMTg2My43NzM0Ij4mIzE2MDs8L3RleHQ+PHRleHQgZmlsbD0iIzAwMDAwMCIgZm9udC1mYW1pbHk9InNhbnMtc2VyaWYiIGZvbnQtc2l6ZT0iMTIiIGZvbnQtd2VpZ2h0PSJib2xkIiBsZW5ndGhBZGp1c3Q9InNwYWNpbmciIHRleHRMZW5ndGg9IjEzIiB4PSIyNTUwIiB5PSIxODYzLjc3MzQiPlMzPC90ZXh0Pjx0ZXh0IGZpbGw9IiMwMDAwMDAiIGZvbnQtZmFtaWx5PSJzYW5zLXNlcmlmIiBmb250LXNpemU9IjEyIiBmb250LXdlaWdodD0iYm9sZCIgbGVuZ3RoQWRqdXN0PSJzcGFjaW5nIiB0ZXh0TGVuZ3RoPSI2IiB4PSIyNTYzIiB5PSIxODYzLjc3MzQiPiYjMTYwOzwvdGV4dD48dGV4dCBmaWxsPSIjMDAwMDAwIiBmb250LWZhbWlseT0ic2Fucy1zZXJpZiIgZm9udC1zaXplPSIxMiIgZm9udC13ZWlnaHQ9ImJvbGQiIGxlbmd0aEFkanVzdD0ic3BhY2luZyIgdGV4dExlbmd0aD0iMTkiIHg9IjI1NjkiIHk9IjE4NjMuNzczNCI+KFMzPC90ZXh0Pjx0ZXh0IGZpbGw9IiMwMDAwMDAiIGZvbnQtZmFtaWx5PSJzYW5zLXNlcmlmIiBmb250LXNpemU9IjEyIiBmb250LXdlaWdodD0iYm9sZCIgbGVuZ3RoQWRqdXN0PSJzcGFjaW5nIiB0ZXh0TGVuZ3RoPSI2IiB4PSIyNTg4IiB5PSIxODYzLjc3MzQiPiYjMTYwOzwvdGV4dD48dGV4dCBmaWxsPSIjMDAwMDAwIiBmb250LWZhbWlseT0ic2Fucy1zZXJpZiIgZm9udC1zaXplPSIxMiIgZm9udC13ZWlnaHQ9ImJvbGQiIGxlbmd0aEFkanVzdD0ic3BhY2luZyIgdGV4dExlbmd0aD0iMzkiIHg9IjI1OTQiIHk9IjE4NjMuNzczNCI+RXZlbnQpPC90ZXh0PjxwYXRoIGQ9Ik0yNDI3LDE4ODAuMjczNCBMMjQyNywxOTE1LjI3MzQgTDI1NTcsMTkxNS4yNzM0IEwyNTU3LDE4OTAuMjczNCBMMjU0NywxODgwLjI3MzQgTDI0MjcsMTg4MC4yNzM0ICIgZmlsbD0iI0ZGRkYwMCIgc3R5bGU9InN0cm9rZTojN0Q4OTk4O3N0cm9rZS13aWR0aDoxLjI1OyIvPjxwYXRoIGQ9Ik0yNTQ3LDE4ODAuMjczNCBMMjU0NywxODkwLjI3MzQgTDI1NTcsMTg5MC4yNzM0IEwyNTQ3LDE4ODAuMjczNCAiIGZpbGw9IiNGRkZGMDAiIHN0eWxlPSJzdHJva2U6IzdEODk5ODtzdHJva2Utd2lkdGg6MS4yNTsiLz48dGV4dCBmaWxsPSIjMDAwMDAwIiBmb250LWZhbWlseT0ic2Fucy1zZXJpZiIgZm9udC1zaXplPSIxMiIgZm9udC13ZWlnaHQ9ImJvbGQiIGxlbmd0aEFkanVzdD0ic3BhY2luZyIgdGV4dExlbmd0aD0iNTQiIHg9IjI0NDIiIHk9IjE4OTYuNjE3MiI+dHJpZ2dlcnM8L3RleHQ+PHRleHQgZmlsbD0iIzAwMDAwMCIgZm9udC1mYW1pbHk9InNhbnMtc2VyaWYiIGZvbnQtc2l6ZT0iMTIiIGZvbnQtd2VpZ2h0PSJib2xkIiBsZW5ndGhBZGp1c3Q9InNwYWNpbmciIHRleHRMZW5ndGg9IjYiIHg9IjI0OTYiIHk9IjE4OTYuNjE3MiI+JiMxNjA7PC90ZXh0Pjx0ZXh0IGZpbGw9IiMwMDAwMDAiIGZvbnQtZmFtaWx5PSJzYW5zLXNlcmlmIiBmb250LXNpemU9IjEyIiBmb250LXdlaWdodD0iYm9sZCIgbGVuZ3RoQWRqdXN0PSJzcGFjaW5nIiB0ZXh0TGVuZ3RoPSI0MCIgeD0iMjUwMiIgeT0iMTg5Ni42MTcyIj5MYW1iZGE8L3RleHQ+PHRleHQgZmlsbD0iIzAwMDAwMCIgZm9udC1mYW1pbHk9InNhbnMtc2VyaWYiIGZvbnQtc2l6ZT0iMTIiIGZvbnQtd2VpZ2h0PSJib2xkIiBsZW5ndGhBZGp1c3Q9InNwYWNpbmciIHRleHRMZW5ndGg9Ijk1IiB4PSIyNDQ0LjUiIHk9IjE5MDkuNDYwOSI+ZGRwcy1Qb2xsUXVldWU8L3RleHQ+PCEtLVNSQz1beExaaFItRXU0VnpTX1hNcEpoNm96b3BoYVhtRUVFQ1FtQXk0bVVOWGpOQk9zdHVmUThjc1hTWUk4NUI5a2R6elBvWjllbG5BaWlhTUJIMDNZTUxuTmZwdnBOMjZyajZGLXAwQlVmYlFuMmRPUzlzYlFoNjI5NU9CZGdIeXBkdEVoNzc4OG1MX05iLTF6RDhXS1ExWWM4ajhmNW05YzhObjhfVzFkd1R5b1FtVlFJUEpXR2U1X0R1X0d0Rlo5SWh0T1ZHV3FCRy1iX1d5N2V2V3k3TG1ETzluNmRqMm9ZMlFDcWxVMXI3MnFKWG1yR2hQZktlM0pzTkJhNUtoSy14VHB6Q3VZX24xN0E4VlphUVpLTnl1QzlhTkZGOFZxcTBmNE81QUN5NENUYl9DVTFRZ3lwWElSbDFsMFNVXzZPakhoNElyU2NBaXRFMUFWcUZwTG42WUZtcVlkZ1JuZS1STnJhX1pxRC12Z2dOX21YVzZ5eV84WXZUQnllalEyMFkzMkRhNEhNYzYyWGUtSi16WDZWa1lXUXZPWFRmNzdfeFUtIC1CLVF6WVJfMDdfbzdWdDBWVDRaRlgtWkJ3MlhMQTl4M2ZFb1h5eHlxMGppY2FjSFVnWFBqSkpHTnFFVnZHWGRxaHdqV0RTYTNRZ2luRTIzV2ZtN2V2X3hWcGktODVLeDRDR1VNN2NodUt4LTNyMFktRWVhcjFTampTWjdndkt1NGRkM3hIOTFkQjg1TlRMQWxYSXhjRDlhWjNtazBoWXcxOWpINzNJZS1DNm9vR0tkcEVIMkxVYTN1NGRsZVNWMG5WQ1lqTmw0Z0RIc3F5M1Zvd1V0RkJlVVo4OEN3YjQtWUpmSEZYbzRTcEs3aTloN2w2djg2MVNuMHlZWk5aYTJNU0duZmRfWElqbGlPU0I4dkRhSVpYTlYzZHItSEQ0ZXk3OW9wcEg2cnpVTzI4X3lqS1VsZHVjQVVSSXU0VUNYVTRVU2JWNU1CTDQ0UVpZci00T05NM3c5VEJmRlYwMDBIbzRXTGh6Q3V4c0tra3c1cGhkYzhYYklBbkZkeU95bkgwNDJKZk5DV2xUS0J2MC0zVm5QeGxUbTFxME1JQklIZWxqaWl6YVNLejd0djlzR3RuQnViSjFERkZrWE1mMGstNlU4bEVNX0ZDeGI4X19BX2RNd25KYWtwRmZTTVQta3A0VXRHblg1ZUgyRGpoRktqQk5XamlEQjBDLWJmZWpISmNnSjl2VV9naFR5RnI0c1p0Vmx1anJsWlJRWlZDaXlXVzByVnhDSkF1Zl9rbVktVU52Qk5BdnkxYlNPZ2NXTmpDTnlkSlBSV283T3pURUtqeVVIR3oxNmFVSzlkUTFZUDJLUXhoVDlXemc5WGkyTkNMTDlneTU3SmFSelhpYmUxUkF3ZEtYSlhac0kycUY5S3FvajZkalhIdHJnRVFDNnhURDNoejFCeTBoYVI2ei1UaFVudDRPUmFTQnNEa3VfYXF5X29RRV9td19seWhqTDY4LTBLaDI5V1B2VzA1LXBBczBSUHoxdUd0dXdJU3VrYVk1WUJmbTZKdDR6bUFxX25fOV94M0tGVzRmNUVKYWg2R1o0VGhMLURJNTdaaGlXSGd5X0ROWjBYaVZoM2wwaU9uOU5NT1dhMTE3cjV5bVFjNkllcHVzOG41ZUNvRjNEVW5sZlRHcGxLUklCeWhzU1BDT2ZZa2VxNThlcF9TQnZKVU04V09NU1RCSmJjd1hVcUEyOFlscWRTNnNQLXhJTzN4N0pIMVRrT293cm04T0RNeE9Sb2JpRFU2ZXdDaktwWUlYWmxRSWR3NHprazZoeENvanFwaDFGSkxpb19VWWVzdk9rRGtrOVhoY0p4enJWM29ON0FwcC1lNzRiVlFxTmNLanc0VDY3LWp6cGRZVkN6eGRaRlN2dXR0RS1ELVZDdHhtY0Y3cWJGN1Y2MzlVRk1EeXh1Wm5GYzd5RnFxT0otVDJNUkxDaWw4VHFrUHEyM2h2QkVYTnZUOGE3RlJfR2E4d0RnT09hN2lJTE5RMDJGUXlTclh2VUJ1TWRHRXB5ak55RThRWmdzMi1LRnFHVXhKWnBoNkR2OEZSeUxTdWZybzBNT2dqdFBZN3NDMVpOdUdqOG9rWGhfajdBN3pydU5VRnBsWms1RU1TbUpYSkNCWXZrdDlBUUpncGdCTjJfaDU4NklWblhIU2RBb1pheFVtY2lILXdZNUxmSjluTW5iSGpSc0tIWlhCeFUtdlkxTXRXbFdfTncwVzQyaDJJVy1RNHBvdVNxR09zVGVGOVlYRENKYnpwM3hFcXBJYXZDRVNrcEJRVXdlOGplbXRrY1FGRy1oY1IzcnFxX0xJOE9lTy1tcU01RFhYeUFNT056RjNzYTJEOWVER0lvcmJnSFhKNUZETFNKbzZqb2hVTUJ0V25hdk1tcVExMmc5b0dCeVBOUlg1UlpQR0FYMG5VMzlIQUxXcWRCeUk3T1NBUjg4SGo4RUdtRGNXRnN6MU9td0FBYklvcnJHNUkwT0RMZGlfWFdqcmxLLVZuQ05wQzRfZ3FySXBXc0ZkS3FiZ1IzalJ3aGhFSE9HdnY2NGNtSUJ4SzRVWDlaNDJNNDZmc3RXVE9CcTZsektRTjF6T1J0MXZPWHd5RmhCVXlGeDNBbU5wakdWdFp1Mk0yYkpFX3VZeDFzZkttcHd6Q2ZqYTdCbkhvSXpfaUtrNkxQaUZROTlxcDFiMGdTQzhhWXBPNThUWXJlTEo2ekhrZ1h1dnhzaWZ0QXk0eUsta3l6ZmhIMWtoRVRDWmhubWZxRHdKUmNoM0dhUWptaVFDR2VISWNlZmp1TkxzMkFFVGFLOGFjVEFEZVR1NWJUNFdtQVhDa1hwaTNlbVo1Q3hyZ0xDeFhoSXhfNGhiek9pUlo4QzJET2V2Szg1Z1plTDlRelktYS1PdlpoaGVISi1HWXJZaDZhczVVV1pia0g2RTc5OVhSa2p4U0p3cVJFUjZCMGszZ3NuWlB4QS1xcXFlbHRBcUlxTTlyM3pYc2tJa2VLM1Z2RTgwdVhWdmpVUjRaVEl3SUlVTVZoZ2ZHcnR6ZzZ5Q09mOFlKY2w0SnVHY0t6TjRHSG9nREctZ014RDdteWl4TG9NdUdEYXl4bndxOUxNZ3plaXRDaEpMSUUyLUlQNmJuenJKTXlyUUQyTGwwaGN4WjlhOGNFMkFBdWZaNDFSUS1jWkhxN3VzM3c5dWlFNmJMZnc2TTNUaE1jZEppN2RMQTgxdUFwd19mdTRrU3RqQ0xjQVJOWDNienJ3Mlh3SldLVDV0NXdjMFpHWERpX1J5d0dxZnNpaHF1dVI0ZnBvLXZaOHhaZTkwZDNpLURrcU5CaDV0UUNSaExyVHcxdmQ3ZGpETVJPSS1qYlBIOWtFLUtuT0R6cG81UjdBdkdyMjAzTU9JdDdWZUJmNjV5aUJXU3dnN284LUdtVm56a3VPaGUzWTZpSVc4ZXpqQWdTdElYWnNTUk45NWR4aUtnWnI2b2xjWGlER2pGaTFlZTJKUXRNN2NjVENMTm13SFVoT1plVXVzSmhRQTRZcVE4d0wxdTFhdXNxUk9YdlRiMDhIX2QxdEtIaXJnRlRCWlZVbk9rMlhKa1hjOEhJV0JaaG90OHFLWjFnajJ1UFl4LV9XQzBdLS0+PC9nPjwvc3ZnPg==;" parent="1" vertex="1">
            <mxGeometry x="-2260" y="-1390" width="2817" height="2088" as="geometry" />
          </mxCell>
        </UserObject>
      </root>
    </mxGraphModel>
  </diagram>
</mxfile>
